<?xml version="1.0" encoding="UTF-8" standalone="no"?>
<!-- Created with Inkscape (http://www.inkscape.org/) -->

<svg
   width="512mm"
   height="256mm"
   viewBox="0 0 512 256"
   version="1.1"
   id="svg5"
   inkscape:version="1.1.2 (0a00cf5339, 2022-02-04)"
   sodipodi:docname="title.svg"
   xmlns:inkscape="http://www.inkscape.org/namespaces/inkscape"
   xmlns:sodipodi="http://sodipodi.sourceforge.net/DTD/sodipodi-0.dtd"
   xmlns="http://www.w3.org/2000/svg"
   xmlns:svg="http://www.w3.org/2000/svg"
   xmlns:rdf="http://www.w3.org/1999/02/22-rdf-syntax-ns#"
   xmlns:cc="http://creativecommons.org/ns#"
   xmlns:dc="http://purl.org/dc/elements/1.1/">
  <sodipodi:namedview
     id="namedview7"
     pagecolor="#505050"
     bordercolor="#ffffff"
     borderopacity="1"
     inkscape:pageshadow="0"
     inkscape:pageopacity="0"
     inkscape:pagecheckerboard="1"
     inkscape:document-units="mm"
     showgrid="false"
     inkscape:zoom="0.50437242"
     inkscape:cx="910.04183"
     inkscape:cy="546.22336"
     inkscape:window-width="1920"
     inkscape:window-height="1007"
     inkscape:window-x="0"
     inkscape:window-y="0"
     inkscape:window-maximized="1"
     inkscape:current-layer="layer1"
     showguides="false"
     inkscape:guide-bbox="true"
     fit-margin-left="5"
     fit-margin-bottom="5"
     fit-margin-right="5"
     fit-margin-top="5"
     height="160mm"
     inkscape:snap-global="false">
    <sodipodi:guide
       position="223.37285,34.435346"
       orientation="0,-1"
       id="guide13505" />
  </sodipodi:namedview>
  <defs
     id="defs2" />
  <g
     inkscape:label="Capa 1"
     inkscape:groupmode="layer"
     id="layer1"
     transform="translate(5.6958337,-51.209326)">
    <g
       id="g6225"
       style="fill:#000100;fill-opacity:1;stroke:none"
       transform="translate(7.2605426,4.414447)">
      <path
         style="fill:#000100;fill-opacity:1;stroke:none;stroke-width:1;stroke-linecap:butt;stroke-linejoin:miter;stroke-miterlimit:4;stroke-dasharray:none;stroke-opacity:1"
         d="m 102.78485,146.01327 c -3.566485,-21.86244 -5.752345,-45.45606 -5.162109,-49.772174 0.702843,-5.139572 15.426999,-9.08467 16.322629,0.985965 0.89563,10.070639 6.94262,67.910269 12.43067,68.677189 5.48806,0.76691 13.52333,1.83411 15.42366,4.47815 1.40372,1.95308 0.86903,10.92575 -1.98994,13.78367 -3.46258,3.46131 -12.44498,1.68654 -17.46866,0.005 -8.74733,-2.92716 -14.9244,-8.2631 -19.55625,-38.15824 z"
         id="path6191"
         sodipodi:nodetypes="cssssssc" />
      <path
         style="fill:#000100;fill-opacity:1;stroke:none;stroke-width:1;stroke-linecap:butt;stroke-linejoin:miter;stroke-miterlimit:4;stroke-dasharray:none;stroke-opacity:1"
         d="m 78.241838,160.24675 c 2.433276,18.55898 5.113939,30.05132 9.006854,30.4345 3.892925,0.3832 12.913528,1.75988 11.159328,-11.52296 -1.754201,-13.28283 -6.141337,-42.93506 -9.243849,-43.0696 -3.10252,-0.13452 -13.536989,2.08557 -13.108967,6.11889 0.428021,4.03332 2.186634,18.03917 2.186634,18.03917 z"
         id="path6193"
         sodipodi:nodetypes="cssssc" />
      <path
         style="fill:#000100;fill-opacity:1;stroke:none;stroke-width:1;stroke-linecap:butt;stroke-linejoin:miter;stroke-miterlimit:4;stroke-dasharray:none;stroke-opacity:1"
         d="m 74.023405,125.11205 c -0.16306,-4.31978 2.55403,-6.3766 5.70849,-7.13663 3.15446,-0.76002 7.32111,2.80739 7.15806,5.7704 -0.16305,2.96301 -2.88333,7.53242 -6.00365,7.12912 -3.12032,-0.4033 -6.31429,-2.1927 -6.8629,-5.76289 z"
         id="path6195" />
      <path
         style="fill:#000100;fill-opacity:1;stroke:none;stroke-width:1;stroke-linecap:butt;stroke-linejoin:miter;stroke-miterlimit:4;stroke-dasharray:none;stroke-opacity:1"
         d="m 367.96418,183.1001 c 0.0563,5.44024 11.69179,9.93155 15.58969,0.42291 1.92775,-4.70261 3.07859,-18.79744 3.45447,-26.34223 0.19358,-3.88564 3.55583,-18.67871 2.0827,-22.45894 -2.16517,-5.55613 -12.29641,-7.75974 -14.41715,-2.1267 -2.05809,5.43118 -6.62853,34.34226 -6.70971,50.50496 z"
         id="path6197"
         sodipodi:nodetypes="cssscc" />
      <path
         style="fill:#000100;fill-opacity:1;stroke:none;stroke-width:1;stroke-linecap:butt;stroke-linejoin:miter;stroke-miterlimit:4;stroke-dasharray:none;stroke-opacity:1"
         d="m 387.07946,106.51954 c 4.93195,-0.47108 7.65324,2.12673 7.31731,5.5422 -0.33591,3.41546 -2.89166,7.57991 -5.17416,8.16532 -5.37759,1.37924 -9.60146,-2.58757 -9.36313,-7.53344 0.23832,-4.94586 4.60212,-5.84246 7.21998,-6.17408 z"
         id="path6199"
         sodipodi:nodetypes="csssc" />
      <path
         style="fill:#000100;fill-opacity:1;stroke:none;stroke-width:1.00387;stroke-linecap:butt;stroke-linejoin:miter;stroke-miterlimit:4;stroke-dasharray:none;stroke-opacity:1"
         d="m 398.09966,135.15866 c -0.96467,-6.63326 14.16898,-3.74834 14.37632,0.44483 0.13426,2.71493 -0.22979,6.34771 -1.14701,9.02002 -1.01599,2.96004 1.56697,-3.84593 9.57957,-6.29347 17.77376,-2.77532 22.82992,17.59608 20.91839,28.6276 -2.45218,12.42901 -7.89817,24.84901 -11.68655,30.49299 -2.17368,3.23838 -14.52988,-0.94068 -12.85142,-4.90272 1.80206,-4.25386 8.53999,-17.56801 10.23097,-24.61108 2.58822,-10.78013 -1.39296,-17.99989 -5.79309,-15.03975 -7.98655,5.37292 -13.96213,22.54588 -14.49711,30.32323 -0.20372,2.96197 0.12454,6.26464 -1.45813,8.33981 -1.58264,2.07517 -11.33069,-1.51246 -13.12397,-4.18165 -0.54529,-16.95715 5.63046,-42.67197 5.45203,-52.21981 z"
         id="path6201"
         sodipodi:nodetypes="cssccsssssscc" />
      <path
         style="fill:#000100;fill-opacity:1;stroke:none;stroke-width:1;stroke-linecap:butt;stroke-linejoin:miter;stroke-miterlimit:4;stroke-dasharray:none;stroke-opacity:1"
         d="m 486.48286,167.83227 c -0.19062,-2.90872 -2.93203,-14.8416 -14.43981,-18.64796 -5.24432,-1.73462 -14.88825,0.67777 -21.7926,10.00278 -9.51057,12.84502 -11.50636,35.81635 0.56262,43.34956 10.43021,6.51033 17.29435,2.59466 20.34664,-1.84493 3.05232,-4.4396 -4.57638,19.75188 -9.42089,25.25382 -6.7754,7.6949 -15.21769,10.95706 -27.293,0.2624 -3.49533,-3.09569 -7.83162,-8.20409 -10.7199,-9.00146 -4.84458,-1.3375 -12.55357,8.90385 -8.79401,13.18265 33.72689,36.58436 64.20532,19.65139 71.40216,-25.77225 3.33432,-21.30424 8.89691,-39.79792 11.16781,-44.16025 2.86894,-5.5113 -12.06421,-10.37417 -13.55303,-9.39333 -1.48881,0.98085 -4.47002,17.70049 -6.70855,23.99483 -2.23851,6.29432 -10.37586,15.72515 -16.29098,15.4722 -8.54311,-0.36532 -3.7063,-17.44635 0.61348,-22.0463 2.57051,-2.73723 7.07665,-8.19171 11.89706,-1.45046 4.8204,6.74124 4.59186,13.3278 8.54916,11.54671 2.01495,-0.90686 5.57866,-7.85445 4.47388,-10.74799 z"
         id="path6203"
         sodipodi:nodetypes="csssssssccssssssscc" />
      <g
         id="g6213"
         transform="translate(-7.7426446,-0.1352921)"
         style="fill:#000100;fill-opacity:1;stroke:none">
        <g
           id="g6209"
           style="fill:#000100;fill-opacity:1;stroke:none">
          <path
             style="fill:#000100;fill-opacity:1;stroke:none;stroke-width:1;stroke-linecap:butt;stroke-linejoin:miter;stroke-miterlimit:4;stroke-dasharray:none;stroke-opacity:1"
             d="m 233.92045,268.972 c -3.59455,-5.49983 -3.11935,-77.05198 2.34597,-80.79101 5.46534,-3.73906 12.51005,-2.81494 13.82938,2.7015 1.31934,5.51643 0.80029,73.4053 0.67307,76.83089 -0.19942,5.37009 -12.60969,5.71552 -16.84842,1.25862 z"
             id="path6205"
             sodipodi:nodetypes="csssc" />
          <path
             style="fill:#000100;fill-opacity:1;stroke:none;stroke-width:1;stroke-linecap:butt;stroke-linejoin:miter;stroke-miterlimit:4;stroke-dasharray:none;stroke-opacity:1"
             d="m 200.70908,189.40853 c -2.64153,7.8754 -5.39277,24.00954 1.44322,38.07929 4.9563,10.20102 36.62724,13.14022 42.11675,9.31157 5.4895,-3.82865 2.63031,-15.35102 -1.01149,-15.25197 -3.6418,0.0991 -21.00501,0.13712 -26.09721,-4.66405 -4.69478,-4.42647 0.76394,-21.75522 -1.34903,-26.63864 -2.113,-4.8834 -13.3018,-5.10786 -15.10224,-0.8362 z"
             id="path6207"
             sodipodi:nodetypes="csssssc" />
        </g>
        <path
           style="fill:#000100;fill-opacity:1;stroke:none;stroke-width:1;stroke-linecap:butt;stroke-linejoin:miter;stroke-miterlimit:4;stroke-dasharray:none;stroke-opacity:1"
           d="m 256.0423,208.72331 c -0.0725,-4.98962 0.97723,-13.2183 14.10259,-19.91235 9.3929,-4.79047 27.54506,-2.71186 35.86335,8.64573 8.283,11.96759 3.13229,27.41779 -9.26754,30.72209 31.62289,13.78491 5.74174,48.98298 -19.92019,42.81726 -11.31287,-2.25121 -19.90324,-11.49995 -20.15687,-17.67391 -0.23552,-5.7329 7.29126,-10.91892 12.0359,-6.07534 2.94687,3.00834 4.81363,7.64226 13.49169,8.43297 8.31594,0.62442 18.23157,-6.67396 11.66414,-13.11172 -3.29506,-3.49646 -16.74644,-7.67535 -20.00103,-8.78052 -9.04521,-3.07153 -5.75202,-16.24506 3.00117,-16.19625 11.98489,0.0668 17.59252,-3.28698 17.95697,-8.03688 0.44012,-5.73631 -6.82466,-9.05282 -15.90394,-8.07529 -9.09943,0.9797 -8.53898,6.67163 -10.71297,9.73834 -2.78634,3.93045 -11.81514,1.64859 -12.15327,-2.49413 z"
           id="path6211"
           sodipodi:nodetypes="cscccssccsssssc" />
      </g>
      <path
         style="fill:#000100;fill-opacity:1;stroke:none;stroke-width:1;stroke-linecap:butt;stroke-linejoin:miter;stroke-miterlimit:4;stroke-dasharray:none;stroke-opacity:1"
         d="m 15.936641,203.30853 c 2.284589,1.7236 14.31974,-1.11277 15.339552,-3.76844 0.924692,-2.40797 -4.00456,-20.39765 -4.330664,-24.42601 1.722688,-8.34873 24.332815,-23.22677 24.581809,-22.82902 1.673071,4.88668 5.146269,39.3268 8.695295,42.56933 1.815159,1.6584 14.008693,0.11832 14.280606,-4.69114 0.316871,-5.60464 -13.546224,-82.40279 -16.863249,-85.82052 -3.317026,-3.41773 -15.4299,0.28385 -16.098449,4.07524 -0.70025,3.97118 5.957082,20.00843 4.71548,24.54562 -0.922343,3.37053 -9.69609,8.72597 -16.209145,13.31387 -5.527573,3.89372 -7.990788,8.21022 -8.247281,7.78121 -1.52156,-2.54493 -6.524479,-40.22714 -8.849461,-41.31154 -2.324981,-1.08441 -13.60100609,0.94038 -15.7769772,4.53824 -2.1759712,3.59786 15.2952852,82.97511 18.7624842,86.02316 z"
         id="path6215"
         sodipodi:nodetypes="csccsssssssssc" />
      <path
         style="fill:#000100;fill-opacity:1;stroke:none;stroke-width:1;stroke-linecap:butt;stroke-linejoin:miter;stroke-miterlimit:4;stroke-dasharray:none;stroke-opacity:1"
         d="m 141.52865,140.75182 c -2.62395,-21.99547 -3.79419,-45.661216 -3.01907,-49.947988 0.92299,-5.104632 15.80303,-8.413523 16.26519,1.686291 0.46216,10.099817 4.01872,68.145837 9.46876,69.147817 5.45004,1.00198 13.43205,2.41339 15.21703,5.13664 1.31852,2.01158 0.39885,10.95299 -2.58026,13.68545 -3.60809,3.30936 -12.50595,1.15034 -17.45277,-0.74504 -8.6135,-3.30025 -14.55563,-8.89664 -17.89888,-38.96317 z"
         id="path6217"
         sodipodi:nodetypes="cssssssc" />
      <path
         style="fill:#000100;fill-opacity:1;stroke:none;stroke-width:1.02238;stroke-linecap:butt;stroke-linejoin:miter;stroke-miterlimit:4;stroke-dasharray:none;stroke-opacity:1"
         d="m 313.3506,133.44435 c -6.64384,-0.45964 -22.92556,-3.74937 -29.532,13.81743 -3.99376,10.6196 -0.68711,17.24606 4.45167,16.34128 8.26357,-1.45495 14.02426,-22.6406 14.55308,-25.52737 0.52885,-2.88678 10.55301,-3.30599 11.6043,-1.44795 1.05132,1.85801 -2.8676,28.25025 -2.06481,30.74706 0.8028,2.49682 3.12611,3.76149 1.8535,5.32 -1.27261,1.55851 -4.00031,6.79037 -7.24827,6.10956 -3.24797,-0.68082 -4.94773,-7.78803 -6.23698,-7.87071 -1.28924,-0.0828 -8.24684,9.27499 -18.81625,6.60725 -14.0444,-3.54485 -15.31163,-22.51821 -9.43298,-36.53177 9.87104,-23.53058 31.9688,-22.65107 42.71807,-21.69914 5.43513,0.48131 1.5167,14.75261 -1.84933,14.13436 z"
         id="path6219"
         sodipodi:nodetypes="csssssssssssc" />
      <path
         style="fill:#000100;fill-opacity:1;stroke:none;stroke-width:1;stroke-linecap:butt;stroke-linejoin:miter;stroke-miterlimit:4;stroke-dasharray:none;stroke-opacity:1"
         d="m 207.20161,177.81562 c -2.17064,-2.19371 1.4317,-24.47041 1.50882,-47.32082 0.075,-22.21137 -3.36052,-42.329523 -2.00964,-44.51372 1.99035,-3.218156 15.04883,-3.181938 16.48254,-1.121195 0.65635,0.943412 0.98436,10.608094 1.302,20.252505 0.3762,11.42227 -0.0746,23.52211 1.76213,23.82208 6.92138,1.13036 26.20451,-9.23694 25.00606,-18.40337 -1.62912,-12.46053 -18.19321,-12.376164 -22.55402,-13.840386 -3.00273,-1.008225 -1.10281,-13.063 2.38291,-13.457136 13.71424,-1.550694 36.94133,8.48856 35.25929,30.530372 -1.6703,21.88812 -29.43504,24.36942 -24.43078,28.95896 7.52363,6.3325 22.07616,17.93802 23.02764,20.47043 1.52402,4.05624 -6.02645,12.98756 -8.57334,13.08754 -4.0786,0.16013 -27.642,-24.63927 -31.03719,-24.45887 -3.39519,0.18041 -1.08973,24.52311 -3.16256,26.62186 -2.20748,2.23507 -12.80725,1.55127 -14.96386,-0.62825 z"
         id="path6221"
         sodipodi:nodetypes="sssssssssscsssss" />
      <path
         style="fill:#000100;fill-opacity:1;stroke:none;stroke-width:1;stroke-linecap:butt;stroke-linejoin:miter;stroke-miterlimit:4;stroke-dasharray:none;stroke-opacity:1"
         d="m 362.35312,144.01672 c 3.98553,-1.98929 3.73352,-16.99846 -11.39037,-19.07482 -15.12389,-2.07636 -27.48602,10.98747 -30.11283,27.47282 -2.69408,16.90753 6.62299,28.96505 18.11891,31.20523 11.49591,2.24017 24.11703,-8.86268 21.46088,-12.8981 -2.65618,-4.03543 -5.99087,-7.10776 -8.30728,-6.16657 -2.31642,0.94117 -7.12417,6.37171 -11.98921,4.41226 -5.13758,-2.06917 -8.31243,-8.48613 -4.23389,-19.96911 3.44612,-9.7024 11.17135,-10.92273 14.6983,-10.05604 3.46804,0.85222 1.07526,4.68266 1.83328,6.62723 1.21168,3.10836 9.92221,-1.5529 9.92221,-1.5529 z"
         id="path6223"
         sodipodi:nodetypes="csssssssssc" />
    </g>
    <g
       id="g6135">
      <path
         style="fill:#ffff00;fill-opacity:1;stroke:#000000;stroke-width:1;stroke-linecap:butt;stroke-linejoin:miter;stroke-miterlimit:4;stroke-dasharray:none;stroke-opacity:1"
         d="m 102.78485,146.01327 c -3.566485,-21.86244 -5.752345,-45.45606 -5.162109,-49.772174 0.702843,-5.139572 15.426999,-9.08467 16.322629,0.985965 0.89563,10.070639 6.94262,67.910269 12.43067,68.677189 5.48806,0.76691 13.52333,1.83411 15.42366,4.47815 1.40372,1.95308 0.86903,10.92575 -1.98994,13.78367 -3.46258,3.46131 -12.44498,1.68654 -17.46866,0.005 -8.74733,-2.92716 -14.9244,-8.2631 -19.55625,-38.15824 z"
         id="path5791"
         sodipodi:nodetypes="cssssssc" />
      <path
         style="fill:#ffff00;fill-opacity:1;stroke:#000000;stroke-width:1;stroke-linecap:butt;stroke-linejoin:miter;stroke-miterlimit:4;stroke-dasharray:none;stroke-opacity:1"
         d="m 78.241838,160.24675 c 2.433276,18.55898 5.113939,30.05132 9.006854,30.4345 3.892925,0.3832 12.913528,1.75988 11.159328,-11.52296 -1.754201,-13.28283 -6.141337,-42.93506 -9.243849,-43.0696 -3.10252,-0.13452 -13.536989,2.08557 -13.108967,6.11889 0.428021,4.03332 2.186634,18.03917 2.186634,18.03917 z"
         id="path5793"
         sodipodi:nodetypes="cssssc" />
      <path
         style="fill:#ffff00;fill-opacity:1;stroke:#000000;stroke-width:1;stroke-linecap:butt;stroke-linejoin:miter;stroke-miterlimit:4;stroke-dasharray:none;stroke-opacity:1"
         d="m 74.023405,125.11205 c -0.16306,-4.31978 2.55403,-6.3766 5.70849,-7.13663 3.15446,-0.76002 7.32111,2.80739 7.15806,5.7704 -0.16305,2.96301 -2.88333,7.53242 -6.00365,7.12912 -3.12032,-0.4033 -6.31429,-2.1927 -6.8629,-5.76289 z"
         id="path5795" />
      <path
         style="fill:#ffff00;fill-opacity:1;stroke:#000000;stroke-width:1;stroke-linecap:butt;stroke-linejoin:miter;stroke-miterlimit:4;stroke-dasharray:none;stroke-opacity:1"
         d="m 367.96418,183.1001 c 0.0563,5.44024 11.69179,9.93155 15.58969,0.42291 1.92775,-4.70261 3.07859,-18.79744 3.45447,-26.34223 0.19358,-3.88564 3.55583,-18.67871 2.0827,-22.45894 -2.16517,-5.55613 -12.29641,-7.75974 -14.41715,-2.1267 -2.05809,5.43118 -6.62853,34.34226 -6.70971,50.50496 z"
         id="path5801"
         sodipodi:nodetypes="cssscc" />
      <path
         style="fill:#ffff00;fill-opacity:1;stroke:#000000;stroke-width:1;stroke-linecap:butt;stroke-linejoin:miter;stroke-miterlimit:4;stroke-dasharray:none;stroke-opacity:1"
         d="m 387.07946,106.51954 c 4.93195,-0.47108 7.65324,2.12673 7.31731,5.5422 -0.33591,3.41546 -2.89166,7.57991 -5.17416,8.16532 -5.37759,1.37924 -9.60146,-2.58757 -9.36313,-7.53344 0.23832,-4.94586 4.60212,-5.84246 7.21998,-6.17408 z"
         id="path5803"
         sodipodi:nodetypes="csssc" />
      <path
         style="fill:#ffff00;fill-opacity:1;stroke:#000000;stroke-width:1.00387;stroke-linecap:butt;stroke-linejoin:miter;stroke-miterlimit:4;stroke-dasharray:none;stroke-opacity:1"
         d="m 398.09966,135.15866 c -0.96467,-6.63326 14.16898,-3.74834 14.37632,0.44483 0.13426,2.71493 -0.22979,6.34771 -1.14701,9.02002 -1.01599,2.96004 1.56697,-3.84593 9.57957,-6.29347 17.77376,-2.77532 22.82992,17.59608 20.91839,28.6276 -2.45218,12.42901 -7.89817,24.84901 -11.68655,30.49299 -2.17368,3.23838 -14.52988,-0.94068 -12.85142,-4.90272 1.80206,-4.25386 8.53999,-17.56801 10.23097,-24.61108 2.58822,-10.78013 -1.39296,-17.99989 -5.79309,-15.03975 -7.98655,5.37292 -13.96213,22.54588 -14.49711,30.32323 -0.20372,2.96197 0.12454,6.26464 -1.45813,8.33981 -1.58264,2.07517 -11.33069,-1.51246 -13.12397,-4.18165 -0.54529,-16.95715 5.63046,-42.67197 5.45203,-52.21981 z"
         id="path5805"
         sodipodi:nodetypes="cssccsssssscc" />
      <path
         style="fill:#ffff00;fill-opacity:1;stroke:#000000;stroke-width:1;stroke-linecap:butt;stroke-linejoin:miter;stroke-miterlimit:4;stroke-dasharray:none;stroke-opacity:1"
         d="m 486.48286,167.83227 c -0.19062,-2.90872 -2.93203,-14.8416 -14.43981,-18.64796 -5.24432,-1.73462 -14.88825,0.67777 -21.7926,10.00278 -9.51057,12.84502 -11.50636,35.81635 0.56262,43.34956 10.43021,6.51033 17.29435,2.59466 20.34664,-1.84493 3.05232,-4.4396 -4.57638,19.75188 -9.42089,25.25382 -6.7754,7.6949 -15.21769,10.95706 -27.293,0.2624 -3.49533,-3.09569 -7.83162,-8.20409 -10.7199,-9.00146 -4.84458,-1.3375 -12.55357,8.90385 -8.79401,13.18265 33.72689,36.58436 64.20532,19.65139 71.40216,-25.77225 3.33432,-21.30424 8.89691,-39.79792 11.16781,-44.16025 2.86894,-5.5113 -12.06421,-10.37417 -13.55303,-9.39333 -1.48881,0.98085 -4.47002,17.70049 -6.70855,23.99483 -2.23851,6.29432 -10.37586,15.72515 -16.29098,15.4722 -8.54311,-0.36532 -3.7063,-17.44635 0.61348,-22.0463 2.57051,-2.73723 7.07665,-8.19171 11.89706,-1.45046 4.8204,6.74124 4.59186,13.3278 8.54916,11.54671 2.01495,-0.90686 5.57866,-7.85445 4.47388,-10.74799 z"
         id="path5807"
         sodipodi:nodetypes="csssssssccssssssscc" />
      <g
         id="g34296"
         transform="translate(-7.7426446,-0.1352921)">
        <g
           id="g34290">
          <path
             style="fill:#ffff00;fill-opacity:1;stroke:#000000;stroke-width:1;stroke-linecap:butt;stroke-linejoin:miter;stroke-miterlimit:4;stroke-dasharray:none;stroke-opacity:1"
             d="m 233.92045,268.972 c -3.59455,-5.49983 -3.11935,-77.05198 2.34597,-80.79101 5.46534,-3.73906 12.51005,-2.81494 13.82938,2.7015 1.31934,5.51643 0.80029,73.4053 0.67307,76.83089 -0.19942,5.37009 -12.60969,5.71552 -16.84842,1.25862 z"
             id="path5809"
             sodipodi:nodetypes="csssc" />
          <path
             style="fill:#ffff00;fill-opacity:1;stroke:#000000;stroke-width:1;stroke-linecap:butt;stroke-linejoin:miter;stroke-miterlimit:4;stroke-dasharray:none;stroke-opacity:1"
             d="m 200.70908,189.40853 c -2.64153,7.8754 -5.39277,24.00954 1.44322,38.07929 4.9563,10.20102 36.62724,13.14022 42.11675,9.31157 5.4895,-3.82865 2.63031,-15.35102 -1.01149,-15.25197 -3.6418,0.0991 -21.00501,0.13712 -26.09721,-4.66405 -4.69478,-4.42647 0.76394,-21.75522 -1.34903,-26.63864 -2.113,-4.8834 -13.3018,-5.10786 -15.10224,-0.8362 z"
             id="path5811"
             sodipodi:nodetypes="csssssc" />
        </g>
        <path
           style="fill:#ffff00;fill-opacity:1;stroke:#000000;stroke-width:1;stroke-linecap:butt;stroke-linejoin:miter;stroke-miterlimit:4;stroke-dasharray:none;stroke-opacity:1"
           d="m 256.0423,208.72331 c -0.0725,-4.98962 0.97723,-13.2183 14.10259,-19.91235 9.3929,-4.79047 27.54506,-2.71186 35.86335,8.64573 8.283,11.96759 3.13229,27.41779 -9.26754,30.72209 31.62289,13.78491 5.74174,48.98298 -19.92019,42.81726 -11.31287,-2.25121 -19.90324,-11.49995 -20.15687,-17.67391 -0.23552,-5.7329 7.29126,-10.91892 12.0359,-6.07534 2.94687,3.00834 4.81363,7.64226 13.49169,8.43297 8.31594,0.62442 18.23157,-6.67396 11.66414,-13.11172 -3.29506,-3.49646 -16.74644,-7.67535 -20.00103,-8.78052 -9.04521,-3.07153 -5.75202,-16.24506 3.00117,-16.19625 11.98489,0.0668 17.59252,-3.28698 17.95697,-8.03688 0.44012,-5.73631 -6.82466,-9.05282 -15.90394,-8.07529 -9.09943,0.9797 -8.53898,6.67163 -10.71297,9.73834 -2.78634,3.93045 -11.81514,1.64859 -12.15327,-2.49413 z"
           id="path5813"
           sodipodi:nodetypes="cscccssccsssssc" />
      </g>
      <path
         style="fill:#ffff00;fill-opacity:1;stroke:#000000;stroke-width:1;stroke-linecap:butt;stroke-linejoin:miter;stroke-miterlimit:4;stroke-dasharray:none;stroke-opacity:1"
         d="m 15.936641,203.30853 c 2.284589,1.7236 14.31974,-1.11277 15.339552,-3.76844 0.924692,-2.40797 -4.00456,-20.39765 -4.330664,-24.42601 1.722688,-8.34873 24.332815,-23.22677 24.581809,-22.82902 1.673071,4.88668 5.146269,39.3268 8.695295,42.56933 1.815159,1.6584 14.008693,0.11832 14.280606,-4.69114 0.316871,-5.60464 -13.546224,-82.40279 -16.863249,-85.82052 -3.317026,-3.41773 -15.4299,0.28385 -16.098449,4.07524 -0.70025,3.97118 5.957082,20.00843 4.71548,24.54562 -0.922343,3.37053 -9.69609,8.72597 -16.209145,13.31387 -5.527573,3.89372 -7.990788,8.21022 -8.247281,7.78121 -1.52156,-2.54493 -6.524479,-40.22714 -8.849461,-41.31154 -2.324981,-1.08441 -13.60100609,0.94038 -15.7769772,4.53824 -2.1759712,3.59786 15.2952852,82.97511 18.7624842,86.02316 z"
         id="path902"
         sodipodi:nodetypes="csccsssssssssc" />
      <path
         style="fill:#ffff00;fill-opacity:1;stroke:#000000;stroke-width:1;stroke-linecap:butt;stroke-linejoin:miter;stroke-miterlimit:4;stroke-dasharray:none;stroke-opacity:1"
         d="m 141.52865,140.75182 c -2.62395,-21.99547 -3.79419,-45.661216 -3.01907,-49.947988 0.92299,-5.104632 15.80303,-8.413523 16.26519,1.686291 0.46216,10.099817 4.01872,68.145837 9.46876,69.147817 5.45004,1.00198 13.43205,2.41339 15.21703,5.13664 1.31852,2.01158 0.39885,10.95299 -2.58026,13.68545 -3.60809,3.30936 -12.50595,1.15034 -17.45277,-0.74504 -8.6135,-3.30025 -14.55563,-8.89664 -17.89888,-38.96317 z"
         id="path5810"
         sodipodi:nodetypes="cssssssc" />
      <path
         style="fill:#ffff00;fill-opacity:1;stroke:#000000;stroke-width:1.02238;stroke-linecap:butt;stroke-linejoin:miter;stroke-miterlimit:4;stroke-dasharray:none;stroke-opacity:1"
         d="m 313.3506,133.44435 c -6.64384,-0.45964 -22.92556,-3.74937 -29.532,13.81743 -3.99376,10.6196 -0.68711,17.24606 4.45167,16.34128 8.26357,-1.45495 14.02426,-22.6406 14.55308,-25.52737 0.52885,-2.88678 10.55301,-3.30599 11.6043,-1.44795 1.05132,1.85801 -2.8676,28.25025 -2.06481,30.74706 0.8028,2.49682 3.12611,3.76149 1.8535,5.32 -1.27261,1.55851 -4.00031,6.79037 -7.24827,6.10956 -3.24797,-0.68082 -4.94773,-7.78803 -6.23698,-7.87071 -1.28924,-0.0828 -8.24684,9.27499 -18.81625,6.60725 -14.0444,-3.54485 -15.31163,-22.51821 -9.43298,-36.53177 9.87104,-23.53058 31.9688,-22.65107 42.71807,-21.69914 5.43513,0.48131 1.5167,14.75261 -1.84933,14.13436 z"
         id="path16637"
         sodipodi:nodetypes="csssssssssssc" />
      <path
         style="fill:#ffff00;fill-opacity:1;stroke:#000000;stroke-width:1;stroke-linecap:butt;stroke-linejoin:miter;stroke-miterlimit:4;stroke-dasharray:none;stroke-opacity:1"
         d="m 207.20161,177.81562 c -2.17064,-2.19371 1.4317,-24.47041 1.50882,-47.32082 0.075,-22.21137 -3.36052,-42.329523 -2.00964,-44.51372 1.99035,-3.218156 15.04883,-3.181938 16.48254,-1.121195 0.65635,0.943412 0.98436,10.608094 1.302,20.252505 0.3762,11.42227 -0.0746,23.52211 1.76213,23.82208 6.92138,1.13036 26.20451,-9.23694 25.00606,-18.40337 -1.62912,-12.46053 -18.19321,-12.376164 -22.55402,-13.840386 -3.00273,-1.008225 -1.10281,-13.063 2.38291,-13.457136 13.71424,-1.550694 36.94133,8.48856 35.25929,30.530372 -1.6703,21.88812 -29.43504,24.36942 -24.43078,28.95896 7.52363,6.3325 22.07616,17.93802 23.02764,20.47043 1.52402,4.05624 -6.02645,12.98756 -8.57334,13.08754 -4.0786,0.16013 -27.642,-24.63927 -31.03719,-24.45887 -3.39519,0.18041 -1.08973,24.52311 -3.16256,26.62186 -2.20748,2.23507 -12.80725,1.55127 -14.96386,-0.62825 z"
         id="path6363"
         sodipodi:nodetypes="sssssssssscsssss" />
      <path
         style="fill:#ffff00;fill-opacity:1;stroke:#000000;stroke-width:1;stroke-linecap:butt;stroke-linejoin:miter;stroke-miterlimit:4;stroke-dasharray:none;stroke-opacity:1"
         d="m 362.35312,144.01672 c 3.98553,-1.98929 3.73352,-16.99846 -11.39037,-19.07482 -15.12389,-2.07636 -27.48602,10.98747 -30.11283,27.47282 -2.69408,16.90753 6.62299,28.96505 18.11891,31.20523 11.49591,2.24017 24.11703,-8.86268 21.46088,-12.8981 -2.65618,-4.03543 -5.99087,-7.10776 -8.30728,-6.16657 -2.31642,0.94117 -7.12417,6.37171 -11.98921,4.41226 -5.13758,-2.06917 -8.31243,-8.48613 -4.23389,-19.96911 3.44612,-9.7024 11.17135,-10.92273 14.6983,-10.05604 3.46804,0.85222 1.07526,4.68266 1.83328,6.62723 1.21168,3.10836 9.92221,-1.5529 9.92221,-1.5529 z"
         id="path20327"
         sodipodi:nodetypes="csssssssssc" />
    </g>
    <g
       id="g6171"
       style="stroke:none">
      <path
         style="fill:#ffff00;fill-opacity:1;stroke:none;stroke-width:1;stroke-linecap:butt;stroke-linejoin:miter;stroke-miterlimit:4;stroke-dasharray:none;stroke-opacity:1"
         d="m 102.78485,146.01327 c -3.566485,-21.86244 -5.752345,-45.45606 -5.162109,-49.772174 0.702843,-5.139572 15.426999,-9.08467 16.322629,0.985965 0.89563,10.070639 6.94262,67.910269 12.43067,68.677189 5.48806,0.76691 13.52333,1.83411 15.42366,4.47815 1.40372,1.95308 0.86903,10.92575 -1.98994,13.78367 -3.46258,3.46131 -12.44498,1.68654 -17.46866,0.005 -8.74733,-2.92716 -14.9244,-8.2631 -19.55625,-38.15824 z"
         id="path6137"
         sodipodi:nodetypes="cssssssc" />
      <path
         style="fill:#ffff00;fill-opacity:1;stroke:none;stroke-width:1;stroke-linecap:butt;stroke-linejoin:miter;stroke-miterlimit:4;stroke-dasharray:none;stroke-opacity:1"
         d="m 78.241838,160.24675 c 2.433276,18.55898 5.113939,30.05132 9.006854,30.4345 3.892925,0.3832 12.913528,1.75988 11.159328,-11.52296 -1.754201,-13.28283 -6.141337,-42.93506 -9.243849,-43.0696 -3.10252,-0.13452 -13.536989,2.08557 -13.108967,6.11889 0.428021,4.03332 2.186634,18.03917 2.186634,18.03917 z"
         id="path6139"
         sodipodi:nodetypes="cssssc" />
      <path
         style="fill:#ffff00;fill-opacity:1;stroke:none;stroke-width:1;stroke-linecap:butt;stroke-linejoin:miter;stroke-miterlimit:4;stroke-dasharray:none;stroke-opacity:1"
         d="m 74.023405,125.11205 c -0.16306,-4.31978 2.55403,-6.3766 5.70849,-7.13663 3.15446,-0.76002 7.32111,2.80739 7.15806,5.7704 -0.16305,2.96301 -2.88333,7.53242 -6.00365,7.12912 -3.12032,-0.4033 -6.31429,-2.1927 -6.8629,-5.76289 z"
         id="path6141" />
      <path
         style="fill:#ffff00;fill-opacity:1;stroke:none;stroke-width:1;stroke-linecap:butt;stroke-linejoin:miter;stroke-miterlimit:4;stroke-dasharray:none;stroke-opacity:1"
         d="m 367.96418,183.1001 c 0.0563,5.44024 11.69179,9.93155 15.58969,0.42291 1.92775,-4.70261 3.07859,-18.79744 3.45447,-26.34223 0.19358,-3.88564 3.55583,-18.67871 2.0827,-22.45894 -2.16517,-5.55613 -12.29641,-7.75974 -14.41715,-2.1267 -2.05809,5.43118 -6.62853,34.34226 -6.70971,50.50496 z"
         id="path6143"
         sodipodi:nodetypes="cssscc" />
      <path
         style="fill:#ffff00;fill-opacity:1;stroke:none;stroke-width:1;stroke-linecap:butt;stroke-linejoin:miter;stroke-miterlimit:4;stroke-dasharray:none;stroke-opacity:1"
         d="m 387.07946,106.51954 c 4.93195,-0.47108 7.65324,2.12673 7.31731,5.5422 -0.33591,3.41546 -2.89166,7.57991 -5.17416,8.16532 -5.37759,1.37924 -9.60146,-2.58757 -9.36313,-7.53344 0.23832,-4.94586 4.60212,-5.84246 7.21998,-6.17408 z"
         id="path6145"
         sodipodi:nodetypes="csssc" />
      <path
         style="fill:#ffff00;fill-opacity:1;stroke:none;stroke-width:1.00387;stroke-linecap:butt;stroke-linejoin:miter;stroke-miterlimit:4;stroke-dasharray:none;stroke-opacity:1"
         d="m 398.09966,135.15866 c -0.96467,-6.63326 14.16898,-3.74834 14.37632,0.44483 0.13426,2.71493 -0.22979,6.34771 -1.14701,9.02002 -1.01599,2.96004 1.56697,-3.84593 9.57957,-6.29347 17.77376,-2.77532 22.82992,17.59608 20.91839,28.6276 -2.45218,12.42901 -7.89817,24.84901 -11.68655,30.49299 -2.17368,3.23838 -14.52988,-0.94068 -12.85142,-4.90272 1.80206,-4.25386 8.53999,-17.56801 10.23097,-24.61108 2.58822,-10.78013 -1.39296,-17.99989 -5.79309,-15.03975 -7.98655,5.37292 -13.96213,22.54588 -14.49711,30.32323 -0.20372,2.96197 0.12454,6.26464 -1.45813,8.33981 -1.58264,2.07517 -11.33069,-1.51246 -13.12397,-4.18165 -0.54529,-16.95715 5.63046,-42.67197 5.45203,-52.21981 z"
         id="path6147"
         sodipodi:nodetypes="cssccsssssscc" />
      <path
         style="fill:#ffff00;fill-opacity:1;stroke:none;stroke-width:1;stroke-linecap:butt;stroke-linejoin:miter;stroke-miterlimit:4;stroke-dasharray:none;stroke-opacity:1"
         d="m 486.48286,167.83227 c -0.19062,-2.90872 -2.93203,-14.8416 -14.43981,-18.64796 -5.24432,-1.73462 -14.88825,0.67777 -21.7926,10.00278 -9.51057,12.84502 -11.50636,35.81635 0.56262,43.34956 10.43021,6.51033 17.29435,2.59466 20.34664,-1.84493 3.05232,-4.4396 -4.57638,19.75188 -9.42089,25.25382 -6.7754,7.6949 -15.21769,10.95706 -27.293,0.2624 -3.49533,-3.09569 -7.83162,-8.20409 -10.7199,-9.00146 -4.84458,-1.3375 -12.55357,8.90385 -8.79401,13.18265 33.72689,36.58436 64.20532,19.65139 71.40216,-25.77225 3.33432,-21.30424 8.89691,-39.79792 11.16781,-44.16025 2.86894,-5.5113 -12.06421,-10.37417 -13.55303,-9.39333 -1.48881,0.98085 -4.47002,17.70049 -6.70855,23.99483 -2.23851,6.29432 -10.37586,15.72515 -16.29098,15.4722 -8.54311,-0.36532 -3.7063,-17.44635 0.61348,-22.0463 2.57051,-2.73723 7.07665,-8.19171 11.89706,-1.45046 4.8204,6.74124 4.59186,13.3278 8.54916,11.54671 2.01495,-0.90686 5.57866,-7.85445 4.47388,-10.74799 z"
         id="path6149"
         sodipodi:nodetypes="csssssssccssssssscc" />
      <g
         id="g6159"
         transform="translate(-7.7426446,-0.1352921)"
         style="stroke:none">
        <g
           id="g6155"
           style="stroke:none">
          <path
             style="fill:#ffff00;fill-opacity:1;stroke:none;stroke-width:1;stroke-linecap:butt;stroke-linejoin:miter;stroke-miterlimit:4;stroke-dasharray:none;stroke-opacity:1"
             d="m 233.92045,268.972 c -3.59455,-5.49983 -3.11935,-77.05198 2.34597,-80.79101 5.46534,-3.73906 12.51005,-2.81494 13.82938,2.7015 1.31934,5.51643 0.80029,73.4053 0.67307,76.83089 -0.19942,5.37009 -12.60969,5.71552 -16.84842,1.25862 z"
             id="path6151"
             sodipodi:nodetypes="csssc" />
          <path
             style="fill:#ffff00;fill-opacity:1;stroke:none;stroke-width:1;stroke-linecap:butt;stroke-linejoin:miter;stroke-miterlimit:4;stroke-dasharray:none;stroke-opacity:1"
             d="m 200.70908,189.40853 c -2.64153,7.8754 -5.39277,24.00954 1.44322,38.07929 4.9563,10.20102 36.62724,13.14022 42.11675,9.31157 5.4895,-3.82865 2.63031,-15.35102 -1.01149,-15.25197 -3.6418,0.0991 -21.00501,0.13712 -26.09721,-4.66405 -4.69478,-4.42647 0.76394,-21.75522 -1.34903,-26.63864 -2.113,-4.8834 -13.3018,-5.10786 -15.10224,-0.8362 z"
             id="path6153"
             sodipodi:nodetypes="csssssc" />
        </g>
        <path
           style="fill:#ffff00;fill-opacity:1;stroke:none;stroke-width:1;stroke-linecap:butt;stroke-linejoin:miter;stroke-miterlimit:4;stroke-dasharray:none;stroke-opacity:1"
           d="m 256.0423,208.72331 c -0.0725,-4.98962 0.97723,-13.2183 14.10259,-19.91235 9.3929,-4.79047 27.54506,-2.71186 35.86335,8.64573 8.283,11.96759 3.13229,27.41779 -9.26754,30.72209 31.62289,13.78491 5.74174,48.98298 -19.92019,42.81726 -11.31287,-2.25121 -19.90324,-11.49995 -20.15687,-17.67391 -0.23552,-5.7329 7.29126,-10.91892 12.0359,-6.07534 2.94687,3.00834 4.81363,7.64226 13.49169,8.43297 8.31594,0.62442 18.23157,-6.67396 11.66414,-13.11172 -3.29506,-3.49646 -16.74644,-7.67535 -20.00103,-8.78052 -9.04521,-3.07153 -5.75202,-16.24506 3.00117,-16.19625 11.98489,0.0668 17.59252,-3.28698 17.95697,-8.03688 0.44012,-5.73631 -6.82466,-9.05282 -15.90394,-8.07529 -9.09943,0.9797 -8.53898,6.67163 -10.71297,9.73834 -2.78634,3.93045 -11.81514,1.64859 -12.15327,-2.49413 z"
           id="path6157"
           sodipodi:nodetypes="cscccssccsssssc" />
      </g>
      <path
         style="fill:#ffff00;fill-opacity:1;stroke:none;stroke-width:1;stroke-linecap:butt;stroke-linejoin:miter;stroke-miterlimit:4;stroke-dasharray:none;stroke-opacity:1"
         d="m 15.936641,203.30853 c 2.284589,1.7236 14.31974,-1.11277 15.339552,-3.76844 0.924692,-2.40797 -4.00456,-20.39765 -4.330664,-24.42601 1.722688,-8.34873 24.332815,-23.22677 24.581809,-22.82902 1.673071,4.88668 5.146269,39.3268 8.695295,42.56933 1.815159,1.6584 14.008693,0.11832 14.280606,-4.69114 0.316871,-5.60464 -13.546224,-82.40279 -16.863249,-85.82052 -3.317026,-3.41773 -15.4299,0.28385 -16.098449,4.07524 -0.70025,3.97118 5.957082,20.00843 4.71548,24.54562 -0.922343,3.37053 -9.69609,8.72597 -16.209145,13.31387 -5.527573,3.89372 -7.990788,8.21022 -8.247281,7.78121 -1.52156,-2.54493 -6.524479,-40.22714 -8.849461,-41.31154 -2.324981,-1.08441 -13.60100609,0.94038 -15.7769772,4.53824 -2.1759712,3.59786 15.2952852,82.97511 18.7624842,86.02316 z"
         id="path6161"
         sodipodi:nodetypes="csccsssssssssc" />
      <path
         style="fill:#ffff00;fill-opacity:1;stroke:none;stroke-width:1;stroke-linecap:butt;stroke-linejoin:miter;stroke-miterlimit:4;stroke-dasharray:none;stroke-opacity:1"
         d="m 141.52865,140.75182 c -2.62395,-21.99547 -3.79419,-45.661216 -3.01907,-49.947988 0.92299,-5.104632 15.80303,-8.413523 16.26519,1.686291 0.46216,10.099817 4.01872,68.145837 9.46876,69.147817 5.45004,1.00198 13.43205,2.41339 15.21703,5.13664 1.31852,2.01158 0.39885,10.95299 -2.58026,13.68545 -3.60809,3.30936 -12.50595,1.15034 -17.45277,-0.74504 -8.6135,-3.30025 -14.55563,-8.89664 -17.89888,-38.96317 z"
         id="path6163"
         sodipodi:nodetypes="cssssssc" />
      <path
         style="fill:#ffff00;fill-opacity:1;stroke:none;stroke-width:1.02238;stroke-linecap:butt;stroke-linejoin:miter;stroke-miterlimit:4;stroke-dasharray:none;stroke-opacity:1"
         d="m 313.3506,133.44435 c -6.64384,-0.45964 -22.92556,-3.74937 -29.532,13.81743 -3.99376,10.6196 -0.68711,17.24606 4.45167,16.34128 8.26357,-1.45495 14.02426,-22.6406 14.55308,-25.52737 0.52885,-2.88678 10.55301,-3.30599 11.6043,-1.44795 1.05132,1.85801 -2.8676,28.25025 -2.06481,30.74706 0.8028,2.49682 3.12611,3.76149 1.8535,5.32 -1.27261,1.55851 -4.00031,6.79037 -7.24827,6.10956 -3.24797,-0.68082 -4.94773,-7.78803 -6.23698,-7.87071 -1.28924,-0.0828 -8.24684,9.27499 -18.81625,6.60725 -14.0444,-3.54485 -15.31163,-22.51821 -9.43298,-36.53177 9.87104,-23.53058 31.9688,-22.65107 42.71807,-21.69914 5.43513,0.48131 1.5167,14.75261 -1.84933,14.13436 z"
         id="path6165"
         sodipodi:nodetypes="csssssssssssc" />
      <path
         style="fill:#ffff00;fill-opacity:1;stroke:none;stroke-width:1;stroke-linecap:butt;stroke-linejoin:miter;stroke-miterlimit:4;stroke-dasharray:none;stroke-opacity:1"
         d="m 207.20161,177.81562 c -2.17064,-2.19371 1.4317,-24.47041 1.50882,-47.32082 0.075,-22.21137 -3.36052,-42.329523 -2.00964,-44.51372 1.99035,-3.218156 15.04883,-3.181938 16.48254,-1.121195 0.65635,0.943412 0.98436,10.608094 1.302,20.252505 0.3762,11.42227 -0.0746,23.52211 1.76213,23.82208 6.92138,1.13036 26.20451,-9.23694 25.00606,-18.40337 -1.62912,-12.46053 -18.19321,-12.376164 -22.55402,-13.840386 -3.00273,-1.008225 -1.10281,-13.063 2.38291,-13.457136 13.71424,-1.550694 36.94133,8.48856 35.25929,30.530372 -1.6703,21.88812 -29.43504,24.36942 -24.43078,28.95896 7.52363,6.3325 22.07616,17.93802 23.02764,20.47043 1.52402,4.05624 -6.02645,12.98756 -8.57334,13.08754 -4.0786,0.16013 -27.642,-24.63927 -31.03719,-24.45887 -3.39519,0.18041 -1.08973,24.52311 -3.16256,26.62186 -2.20748,2.23507 -12.80725,1.55127 -14.96386,-0.62825 z"
         id="path6167"
         sodipodi:nodetypes="sssssssssscsssss" />
      <path
         style="fill:#ffff00;fill-opacity:1;stroke:none;stroke-width:1;stroke-linecap:butt;stroke-linejoin:miter;stroke-miterlimit:4;stroke-dasharray:none;stroke-opacity:1"
         d="m 362.35312,144.01672 c 3.98553,-1.98929 3.73352,-16.99846 -11.39037,-19.07482 -15.12389,-2.07636 -27.48602,10.98747 -30.11283,27.47282 -2.69408,16.90753 6.62299,28.96505 18.11891,31.20523 11.49591,2.24017 24.11703,-8.86268 21.46088,-12.8981 -2.65618,-4.03543 -5.99087,-7.10776 -8.30728,-6.16657 -2.31642,0.94117 -7.12417,6.37171 -11.98921,4.41226 -5.13758,-2.06917 -8.31243,-8.48613 -4.23389,-19.96911 3.44612,-9.7024 11.17135,-10.92273 14.6983,-10.05604 3.46804,0.85222 1.07526,4.68266 1.83328,6.62723 1.21168,3.10836 9.92221,-1.5529 9.92221,-1.5529 z"
         id="path6169"
         sodipodi:nodetypes="csssssssssc" />
    </g>
  </g>
  <metadata
     id="metadata868">
    <rdf:RDF>
      <cc:Work
         rdf:about="">
        <dc:creator>
          <cc:Agent>
            <dc:title>IcterusGames</dc:title>
          </cc:Agent>
        </dc:creator>
        <cc:license
           rdf:resource="http://creativecommons.org/publicdomain/zero/1.0/" />
      </cc:Work>
      <cc:License
         rdf:about="http://creativecommons.org/publicdomain/zero/1.0/">
        <cc:permits
           rdf:resource="http://creativecommons.org/ns#Reproduction" />
        <cc:permits
           rdf:resource="http://creativecommons.org/ns#Distribution" />
        <cc:permits
           rdf:resource="http://creativecommons.org/ns#DerivativeWorks" />
      </cc:License>
    </rdf:RDF>
  </metadata>
</svg>
