<?xml version="1.0" encoding="UTF-8" standalone="no"?>
<!-- Created with Inkscape (http://www.inkscape.org/) -->

<svg
   width="512mm"
   height="160mm"
   viewBox="0 0 512 160"
   version="1.1"
   id="svg5"
   inkscape:version="1.1.2 (0a00cf5339, 2022-02-04)"
   sodipodi:docname="title.svg"
   xmlns:inkscape="http://www.inkscape.org/namespaces/inkscape"
   xmlns:sodipodi="http://sodipodi.sourceforge.net/DTD/sodipodi-0.dtd"
   xmlns="http://www.w3.org/2000/svg"
   xmlns:svg="http://www.w3.org/2000/svg"
   xmlns:rdf="http://www.w3.org/1999/02/22-rdf-syntax-ns#"
   xmlns:cc="http://creativecommons.org/ns#"
   xmlns:dc="http://purl.org/dc/elements/1.1/">
  <sodipodi:namedview
     id="namedview7"
     pagecolor="#505050"
     bordercolor="#ffffff"
     borderopacity="1"
     inkscape:pageshadow="0"
     inkscape:pageopacity="0"
     inkscape:pagecheckerboard="1"
     inkscape:document-units="mm"
     showgrid="false"
     inkscape:zoom="0.40567375"
     inkscape:cx="910.83044"
     inkscape:cy="352.50001"
     inkscape:window-width="1920"
     inkscape:window-height="1007"
     inkscape:window-x="0"
     inkscape:window-y="0"
     inkscape:window-maximized="1"
     inkscape:current-layer="layer1"
     showguides="true"
     inkscape:guide-bbox="true"
     fit-margin-left="5"
     fit-margin-bottom="5"
     fit-margin-right="5"
     fit-margin-top="5"
     height="160mm"
     inkscape:snap-global="false">
    <sodipodi:guide
       position="223.37285,34.435346"
       orientation="0,-1"
       id="guide13505" />
  </sodipodi:namedview>
  <defs
     id="defs2" />
  <g
     inkscape:label="Capa 1"
     inkscape:groupmode="layer"
     id="layer1"
     transform="translate(5.6958337,-51.209326)">
    <g
       id="g906"
       transform="translate(-4.4454763,-3.0602212)"
       style="opacity:1">
      <g
         id="g5865"
         transform="translate(3.4553564,3.5693386)"
         style="opacity:1;fill:#000000;fill-opacity:1"
         inkscape:label="shadow">
        <path
           style="fill:#000000;fill-opacity:1;stroke:none;stroke-width:2;stroke-linecap:butt;stroke-linejoin:miter;stroke-miterlimit:4;stroke-dasharray:none;stroke-opacity:1"
           d="M 63.556385,105.67969 C 68.623595,100.15707 59.202843,76.721495 34.186989,82.552155 9.1711342,88.382815 -2.4010972,116.34589 3.3831462,143.83227 c 5.9323796,28.19031 27.8241878,41.53669 47.2371428,38.14489 19.412955,-3.3918 32.571282,-28.42889 25.970669,-33.17353 -6.600613,-4.74463 -12.097731,-6.05281 -15.172092,-3.1809 -3.07436,2.8719 -7.975281,16.37032 -16.798917,16.21628 -9.317926,-0.16267 -23.642348,-12.459 -23.940479,-32.9608 -0.285018,-19.60005 12.052073,-28.61588 20.432186,-29.577073 8.380114,-0.961191 5.652654,7.853613 9.280689,12.137153 3.628036,4.28354 13.16404,-5.7586 13.16404,-5.7586 z"
           id="path5837"
           sodipodi:nodetypes="csssssssssc" />
        <path
           style="fill:#000000;fill-opacity:1;stroke:none;stroke-width:2;stroke-linecap:butt;stroke-linejoin:miter;stroke-miterlimit:4;stroke-dasharray:none;stroke-opacity:1"
           d="M 82.537645,127.34308 C 80.921879,105.25065 80.834659,81.556151 81.804918,77.309292 82.96029,72.252187 97.97603,69.626941 97.97603,79.737324 c 0,10.110385 0.89948,68.258306 6.29802,69.508366 5.39854,1.25006 13.30769,3.02487 14.96632,5.82686 1.22519,2.06975 -0.10224,10.95978 -3.20314,13.5532 -3.75559,3.14097 -12.54546,0.57747 -17.400474,-1.54205 -8.453639,-3.69054 -14.133734,-9.5527 -16.099111,-39.74062 z"
           id="path5839"
           sodipodi:nodetypes="cssssssc" />
        <path
           style="fill:#000000;fill-opacity:1;stroke:none;stroke-width:2;stroke-linecap:butt;stroke-linejoin:miter;stroke-miterlimit:4;stroke-dasharray:none;stroke-opacity:1"
           d="m 122.96972,134.78089 c 0.46118,18.71213 1.9141,30.42319 5.74484,31.21505 3.83075,0.79187 12.6557,3.1128 12.31302,-10.28099 -0.34268,-13.39378 -1.57615,-43.34341 -4.64714,-43.8046 -3.071,-0.46118 -13.68149,0.64538 -13.68149,4.70135 0,4.05596 0.27077,18.16919 0.27077,18.16919 z"
           id="path5841"
           sodipodi:nodetypes="cssssc" />
        <path
           style="fill:#000000;fill-opacity:1;stroke:none;stroke-width:2;stroke-linecap:butt;stroke-linejoin:miter;stroke-miterlimit:4;stroke-dasharray:none;stroke-opacity:1"
           d="m 122.04773,98.390507 c -0.16306,-4.319781 2.55403,-6.376599 5.70849,-7.136625 3.15446,-0.760026 7.32111,2.80739 7.15806,5.770395 -0.16305,2.96301 -2.88333,7.532423 -6.00365,7.129123 -3.12032,-0.4033 -6.31429,-2.1927 -6.8629,-5.762893 z"
           id="path5843" />
        <path
           style="fill:#000000;fill-opacity:1;stroke:none;stroke-width:2;stroke-linecap:butt;stroke-linejoin:miter;stroke-miterlimit:4;stroke-dasharray:none;stroke-opacity:1"
           d="m 146.79215,118.40751 c 2.12908,5.99069 3.85859,36.21213 4.4443,42.08033 0.58571,5.8682 13.92447,3.64417 13.34566,-1.93395 -0.57881,-5.57811 -1.37432,-25.02846 6.07485,-34.9221 5.11991,-6.80002 6.69427,-3.49552 8.46144,1.32976 1.29137,3.52608 -0.49409,28.48217 1.10265,33.0695 1.2735,3.65862 13.72446,2.72374 13.33881,-1.25736 -1.19298,-12.31533 -2.05874,-28.8929 2.05694,-35.91873 1.96252,-3.35018 10.07842,-10.81811 11.29333,-1.12026 0.74637,5.95779 -0.49545,31.48724 1.40366,36.51397 1.50952,3.99549 14.2222,2.49697 12.88567,-2.6707 -1.95558,-7.56115 -0.58311,-37.32718 -2.87316,-43.30634 -3.27205,-8.5431 -25.40378,-9.49481 -29.65361,0.0797 -2.66169,5.99659 -1.10234,-2.65156 -9.65493,-4.40546 -6.6013,-1.35375 -14.63432,4.29296 -17.26356,10.0273 -2.62924,5.73434 -1.52147,-6.258 -4.72509,-7.24577 -6.00461,-1.09005 -13.03403,1.93404 -10.23696,9.68014 z"
           id="path5845"
           sodipodi:nodetypes="cssssssssssssssccc" />
        <path
           style="fill:#000000;fill-opacity:1;stroke:none;stroke-width:2;stroke-linecap:butt;stroke-linejoin:miter;stroke-miterlimit:4;stroke-dasharray:none;stroke-opacity:1"
           d="m 229.39935,62.434174 c -2.50814,9.14361 -3.62295,35.077968 -3.90479,47.606776 -0.38073,16.92532 1.97157,39.33012 4.01079,44.26899 1.90927,4.62415 14.76304,4.26847 14.99075,-0.14398 0.2277,-4.41246 2.58456,-24.64545 5.17662,-29.44896 4.02068,-7.45102 7.43134,-8.6386 9.72479,-1.60475 1.528,4.68628 3.06022,17.50389 -5.41852,20.25211 -8.31843,2.69627 -8.45396,-13.07511 -11.78148,-17.23422 -6.00879,-7.51049 -10.7004,10.36803 -5.80831,19.68737 2.17131,4.13631 6.02037,9.47832 13.57833,11.56324 7.56761,2.08759 21.17506,-3.5261 23.52459,-18.11661 2.36979,-14.71639 -0.11938,-28.74258 -7.33103,-33.76084 -5.494,-3.82303 -15.46163,-8.474124 -24.46862,8.97938 -2.48323,4.81194 0.18046,-42.020595 2.11642,-47.012601 1.08041,-3.352012 -12.53443,-13.325929 -14.40954,-5.035905 z"
           id="path5847"
           sodipodi:nodetypes="csssssssssssscc" />
        <path
           style="fill:#000000;fill-opacity:1;stroke:none;stroke-width:2;stroke-linecap:butt;stroke-linejoin:miter;stroke-miterlimit:4;stroke-dasharray:none;stroke-opacity:1"
           d="m 280.47067,107.40194 c -1.30519,9.6404 -1.26435,36.26207 0.0749,46.29271 0.67416,5.04917 13.19356,8.51735 15.72891,-0.76463 1.25389,-4.5905 0.71212,-17.82039 0.19895,-24.87473 -0.26429,-3.63305 1.16919,-17.7646 -0.63191,-21.10916 -2.64725,-4.91581 -14.37786,-5.09166 -15.37086,0.45581 z"
           id="path5849"
           sodipodi:nodetypes="cssssc" />
        <path
           style="fill:#000000;fill-opacity:1;stroke:none;stroke-width:2;stroke-linecap:butt;stroke-linejoin:miter;stroke-miterlimit:4;stroke-dasharray:none;stroke-opacity:1"
           d="m 291.06124,81.613978 c 4.45368,-0.425392 6.91108,1.920491 6.60773,5.004752 -0.30334,3.08425 -2.61125,6.84486 -4.67241,7.37351 -4.8561,1.24549 -8.67037,-2.33665 -8.45515,-6.8029 0.21521,-4.466247 4.15583,-5.275894 6.51983,-5.575362 z"
           id="path5851"
           sodipodi:nodetypes="csssc" />
        <path
           style="fill:#000000;fill-opacity:1;stroke:none;stroke-width:2;stroke-linecap:butt;stroke-linejoin:miter;stroke-miterlimit:4;stroke-dasharray:none;stroke-opacity:1"
           d="m 302.04534,109.2586 c -1.95541,-5.92291 12.37899,-5.72352 13.24627,-1.91439 0.56154,2.46627 0.81469,5.85414 0.40577,8.45118 -0.45295,2.87668 0.81479,-3.77749 7.76218,-7.31458 15.83958,-5.41406 23.76336,12.43759 23.79341,22.85559 -0.23967,11.78599 -3.22431,24.04727 -5.78438,29.83129 -1.46891,3.31873 -13.46708,1.48478 -12.56889,-2.41712 0.96434,-4.18929 4.9885,-17.47865 5.40053,-24.20601 0.63067,-10.29692 -4.18379,-16.27007 -7.73794,-12.8467 -6.45104,6.21369 -9.15333,22.9161 -8.3874,30.12966 0.2917,2.74725 1.12597,5.72078 0.0108,7.87809 -1.11517,2.1573 -10.62771,0.44409 -12.7022,-1.71231 -3.23856,-15.45142 -1.7325,-40.01391 -3.43815,-48.7347 z"
           id="path5853"
           sodipodi:nodetypes="cssccsssssscc" />
        <path
           style="fill:#000000;fill-opacity:1;stroke:none;stroke-width:2;stroke-linecap:butt;stroke-linejoin:miter;stroke-miterlimit:4;stroke-dasharray:none;stroke-opacity:1"
           d="m 385.77833,127.9197 c -0.81624,-2.49581 -5.87474,-12.29696 -16.76784,-13.04758 -4.96421,-0.34207 -12.84133,3.91789 -16.7832,13.5983 -5.42984,13.33455 -2.03915,33.8272 10.17638,37.70481 10.55685,3.35109 15.67223,-1.59967 17.344,-6.156 1.6718,-4.55634 0.41933,18.25965 -2.57912,24.1435 -4.19356,8.22902 -10.83217,12.96209 -23.75957,6.32694 -3.74198,-1.92062 -8.66754,-5.4098 -11.36625,-5.46035 -4.52663,-0.0848 -8.96598,10.57505 -4.72907,13.46912 37.60683,24.39119 60.42165,2.80437 56.55344,-38.44412 -1.8501,-19.33686 -1.12767,-36.71884 -0.12055,-41.03316 1.27232,-5.45063 -12.84611,-6.35794 -13.92622,-5.16933 -1.08013,1.18861 0.0538,16.44567 -0.49341,22.43878 -0.54721,5.99311 -5.54146,16.04135 -10.76001,17.14219 -7.53707,1.58993 -7.1324,-14.39709 -4.39034,-19.37655 1.63168,-2.96306 4.34546,-8.72988 10.05832,-3.9239 5.71286,4.80598 6.98502,10.60504 10.04056,8.16655 1.5558,-1.2416 3.11353,-8.10088 1.50292,-10.3792 z"
           id="path5855"
           sodipodi:nodetypes="csssssssccssssssscc" />
        <g
           id="g5863"
           transform="translate(0.30333909,2.3952852)"
           style="fill:#000000;fill-opacity:1">
          <path
             style="fill:#000000;fill-opacity:1;stroke:none;stroke-width:2.87807;stroke-linecap:butt;stroke-linejoin:miter;stroke-miterlimit:4;stroke-dasharray:none;stroke-opacity:1"
             d="m 428.25643,169.19684 c -2.50936,-6.07224 11.26042,-76.288536 17.32561,-78.94628 6.06521,-2.657759 12.81529,-0.440013 13.08601,5.225543 0.27073,5.665537 -12.86106,72.274277 -13.62294,75.616487 -1.19435,5.23939 -13.45247,3.2715 -16.78868,-1.89575 z"
             id="path5857"
             sodipodi:nodetypes="csssc" />
          <path
             style="fill:#000000;fill-opacity:1;stroke:none;stroke-width:2.87807;stroke-linecap:butt;stroke-linejoin:miter;stroke-miterlimit:4;stroke-dasharray:none;stroke-opacity:1"
             d="m 410.41641,84.845939 c -4.05966,7.246985 -9.76256,22.588321 -5.66158,37.683701 2.97333,10.94464 33.54564,19.7208 39.65126,16.97951 6.10561,-2.7413 5.43849,-14.59436 1.84177,-15.17411 -3.59673,-0.57975 -20.66429,-3.77049 -24.77508,-9.43469 -3.78997,-5.22214 4.79532,-21.23389 3.6271,-26.425009 -1.16824,-5.191104 -12.12024,-7.491858 -14.68347,-3.629402 z"
             id="path5859"
             sodipodi:nodetypes="csssssc" />
          <path
             style="fill:#000000;fill-opacity:1;stroke:none;stroke-width:2.87807;stroke-linecap:butt;stroke-linejoin:miter;stroke-miterlimit:4;stroke-dasharray:none;stroke-opacity:1"
             d="m 465.35233,115.504 c 0.0539,-5.01735 2.71814,-14.15518 14.01503,-18.841046 8.08439,-3.353357 21.59687,1.322225 25.85151,13.704396 4.11403,12.97735 -2.70693,27.43554 -12.81707,28.89069 21.64755,18.14745 -4.72443,49.03581 -23.22627,39.25004 -8.24334,-3.8545 -13.099,-14.20078 -12.14358,-20.31329 0.88717,-5.67584 9.66657,-10.40189 12.39774,-4.94791 1.69632,3.38746 2.63305,9.39951 6.0708,10.16562 4.3179,1.13259 12.47527,-4.70515 9.88711,-11.13645 -1.87204,-3.91827 -9.26849,-9.25529 -11.55482,-10.81444 -6.35419,-4.33322 -1.26922,-17.36193 5.35746,-15.72595 5.03385,1.24274 11.865,-1.35305 13.02854,-5.9746 1.40515,-5.5813 -3.1369,-7.48283 -6.57211,-7.50502 -5.13993,-0.0332 -5.11242,3.8935 -7.34815,6.59644 -2.86544,3.46423 -12.70483,-0.41786 -12.94619,-3.34848 z"
             id="path5861"
             sodipodi:nodetypes="cscccssccsssssc" />
        </g>
      </g>
      <g
         id="g5817"
         transform="translate(-1.6130749,-2.0084164)"
         style="opacity:1;stroke:#000000;stroke-opacity:1"
         inkscape:label="border">
        <path
           style="fill:#ffff00;fill-opacity:1;stroke:#000000;stroke-width:2;stroke-linecap:butt;stroke-linejoin:miter;stroke-miterlimit:4;stroke-dasharray:none;stroke-opacity:1"
           d="M 63.556385,105.67969 C 68.623595,100.15707 59.202843,76.721495 34.186989,82.552155 9.1711342,88.382815 -2.4010972,116.34589 3.3831462,143.83227 c 5.9323796,28.19031 27.8241878,41.53669 47.2371428,38.14489 19.412955,-3.3918 32.571282,-28.42889 25.970669,-33.17353 -6.600613,-4.74463 -12.097731,-6.05281 -15.172092,-3.1809 -3.07436,2.8719 -7.975281,16.37032 -16.798917,16.21628 -9.317926,-0.16267 -23.642348,-12.459 -23.940479,-32.9608 -0.285018,-19.60005 12.052073,-28.61588 20.432186,-29.577073 8.380114,-0.961191 5.652654,7.853613 9.280689,12.137153 3.628036,4.28354 13.16404,-5.7586 13.16404,-5.7586 z"
           id="path5789"
           sodipodi:nodetypes="csssssssssc" />
        <path
           style="fill:#ffff00;fill-opacity:1;stroke:#000000;stroke-width:2;stroke-linecap:butt;stroke-linejoin:miter;stroke-miterlimit:4;stroke-dasharray:none;stroke-opacity:1"
           d="M 82.537645,127.34308 C 80.921879,105.25065 80.834659,81.556151 81.804918,77.309292 82.96029,72.252187 97.97603,69.626941 97.97603,79.737324 c 0,10.110385 0.89948,68.258306 6.29802,69.508366 5.39854,1.25006 13.30769,3.02487 14.96632,5.82686 1.22519,2.06975 -0.10224,10.95978 -3.20314,13.5532 -3.75559,3.14097 -12.54546,0.57747 -17.400474,-1.54205 -8.453639,-3.69054 -14.133734,-9.5527 -16.099111,-39.74062 z"
           id="path5791"
           sodipodi:nodetypes="cssssssc" />
        <path
           style="fill:#ffff00;fill-opacity:1;stroke:#000000;stroke-width:2;stroke-linecap:butt;stroke-linejoin:miter;stroke-miterlimit:4;stroke-dasharray:none;stroke-opacity:1"
           d="m 122.96972,134.78089 c 0.46118,18.71213 1.9141,30.42319 5.74484,31.21505 3.83075,0.79187 12.6557,3.1128 12.31302,-10.28099 -0.34268,-13.39378 -1.57615,-43.34341 -4.64714,-43.8046 -3.071,-0.46118 -13.68149,0.64538 -13.68149,4.70135 0,4.05596 0.27077,18.16919 0.27077,18.16919 z"
           id="path5793"
           sodipodi:nodetypes="cssssc" />
        <path
           style="fill:#ffff00;fill-opacity:1;stroke:#000000;stroke-width:2;stroke-linecap:butt;stroke-linejoin:miter;stroke-miterlimit:4;stroke-dasharray:none;stroke-opacity:1"
           d="m 122.04773,98.390507 c -0.16306,-4.319781 2.55403,-6.376599 5.70849,-7.136625 3.15446,-0.760026 7.32111,2.80739 7.15806,5.770395 -0.16305,2.96301 -2.88333,7.532423 -6.00365,7.129123 -3.12032,-0.4033 -6.31429,-2.1927 -6.8629,-5.762893 z"
           id="path5795" />
        <path
           style="fill:#ffff00;fill-opacity:1;stroke:#000000;stroke-width:2;stroke-linecap:butt;stroke-linejoin:miter;stroke-miterlimit:4;stroke-dasharray:none;stroke-opacity:1"
           d="m 146.79215,118.40751 c 2.12908,5.99069 3.85859,36.21213 4.4443,42.08033 0.58571,5.8682 13.92447,3.64417 13.34566,-1.93395 -0.57881,-5.57811 -1.37432,-25.02846 6.07485,-34.9221 5.11991,-6.80002 6.69427,-3.49552 8.46144,1.32976 1.29137,3.52608 -0.49409,28.48217 1.10265,33.0695 1.2735,3.65862 13.72446,2.72374 13.33881,-1.25736 -1.19298,-12.31533 -2.05874,-28.8929 2.05694,-35.91873 1.96252,-3.35018 10.07842,-10.81811 11.29333,-1.12026 0.74637,5.95779 -0.49545,31.48724 1.40366,36.51397 1.50952,3.99549 14.2222,2.49697 12.88567,-2.6707 -1.95558,-7.56115 -0.58311,-37.32718 -2.87316,-43.30634 -3.27205,-8.5431 -25.40378,-9.49481 -29.65361,0.0797 -2.66169,5.99659 -1.10234,-2.65156 -9.65493,-4.40546 -6.6013,-1.35375 -14.63432,4.29296 -17.26356,10.0273 -2.62924,5.73434 -1.52147,-6.258 -4.72509,-7.24577 -6.00461,-1.09005 -13.03403,1.93404 -10.23696,9.68014 z"
           id="path5797"
           sodipodi:nodetypes="cssssssssssssssccc" />
        <path
           style="fill:#ffff00;fill-opacity:1;stroke:#000000;stroke-width:2;stroke-linecap:butt;stroke-linejoin:miter;stroke-miterlimit:4;stroke-dasharray:none;stroke-opacity:1"
           d="m 229.39935,62.434174 c -2.50814,9.14361 -3.62295,35.077968 -3.90479,47.606776 -0.38073,16.92532 1.97157,39.33012 4.01079,44.26899 1.90927,4.62415 14.76304,4.26847 14.99075,-0.14398 0.2277,-4.41246 2.58456,-24.64545 5.17662,-29.44896 4.02068,-7.45102 7.43134,-8.6386 9.72479,-1.60475 1.528,4.68628 3.06022,17.50389 -5.41852,20.25211 -8.31843,2.69627 -8.45396,-13.07511 -11.78148,-17.23422 -6.00879,-7.51049 -10.7004,10.36803 -5.80831,19.68737 2.17131,4.13631 6.02037,9.47832 13.57833,11.56324 7.56761,2.08759 21.17506,-3.5261 23.52459,-18.11661 2.36979,-14.71639 -0.11938,-28.74258 -7.33103,-33.76084 -5.494,-3.82303 -15.46163,-8.474124 -24.46862,8.97938 -2.48323,4.81194 0.18046,-42.020595 2.11642,-47.012601 1.08041,-3.352012 -12.53443,-13.325929 -14.40954,-5.035905 z"
           id="path5799"
           sodipodi:nodetypes="csssssssssssscc" />
        <path
           style="fill:#ffff00;fill-opacity:1;stroke:#000000;stroke-width:2;stroke-linecap:butt;stroke-linejoin:miter;stroke-miterlimit:4;stroke-dasharray:none;stroke-opacity:1"
           d="m 280.47067,107.40194 c -1.30519,9.6404 -1.26435,36.26207 0.0749,46.29271 0.67416,5.04917 13.19356,8.51735 15.72891,-0.76463 1.25389,-4.5905 0.71212,-17.82039 0.19895,-24.87473 -0.26429,-3.63305 1.16919,-17.7646 -0.63191,-21.10916 -2.64725,-4.91581 -14.37786,-5.09166 -15.37086,0.45581 z"
           id="path5801"
           sodipodi:nodetypes="cssssc" />
        <path
           style="fill:#ffff00;fill-opacity:1;stroke:#000000;stroke-width:2;stroke-linecap:butt;stroke-linejoin:miter;stroke-miterlimit:4;stroke-dasharray:none;stroke-opacity:1"
           d="m 291.06124,81.613978 c 4.45368,-0.425392 6.91108,1.920491 6.60773,5.004752 -0.30334,3.08425 -2.61125,6.84486 -4.67241,7.37351 -4.8561,1.24549 -8.67037,-2.33665 -8.45515,-6.8029 0.21521,-4.466247 4.15583,-5.275894 6.51983,-5.575362 z"
           id="path5803"
           sodipodi:nodetypes="csssc" />
        <path
           style="fill:#ffff00;fill-opacity:1;stroke:#000000;stroke-width:2;stroke-linecap:butt;stroke-linejoin:miter;stroke-miterlimit:4;stroke-dasharray:none;stroke-opacity:1"
           d="m 302.04534,109.2586 c -1.95541,-5.92291 12.37899,-5.72352 13.24627,-1.91439 0.56154,2.46627 0.81469,5.85414 0.40577,8.45118 -0.45295,2.87668 0.81479,-3.77749 7.76218,-7.31458 15.83958,-5.41406 23.76336,12.43759 23.79341,22.85559 -0.23967,11.78599 -3.22431,24.04727 -5.78438,29.83129 -1.46891,3.31873 -13.46708,1.48478 -12.56889,-2.41712 0.96434,-4.18929 4.9885,-17.47865 5.40053,-24.20601 0.63067,-10.29692 -4.18379,-16.27007 -7.73794,-12.8467 -6.45104,6.21369 -9.15333,22.9161 -8.3874,30.12966 0.2917,2.74725 1.12597,5.72078 0.0108,7.87809 -1.11517,2.1573 -10.62771,0.44409 -12.7022,-1.71231 -3.23856,-15.45142 -1.7325,-40.01391 -3.43815,-48.7347 z"
           id="path5805"
           sodipodi:nodetypes="cssccsssssscc" />
        <path
           style="fill:#ffff00;fill-opacity:1;stroke:#000000;stroke-width:2;stroke-linecap:butt;stroke-linejoin:miter;stroke-miterlimit:4;stroke-dasharray:none;stroke-opacity:1"
           d="m 385.77833,127.9197 c -0.81624,-2.49581 -5.87474,-12.29696 -16.76784,-13.04758 -4.96421,-0.34207 -12.84133,3.91789 -16.7832,13.5983 -5.42984,13.33455 -2.03915,33.8272 10.17638,37.70481 10.55685,3.35109 15.67223,-1.59967 17.344,-6.156 1.6718,-4.55634 0.41933,18.25965 -2.57912,24.1435 -4.19356,8.22902 -10.83217,12.96209 -23.75957,6.32694 -3.74198,-1.92062 -8.66754,-5.4098 -11.36625,-5.46035 -4.52663,-0.0848 -8.96598,10.57505 -4.72907,13.46912 37.60683,24.39119 60.42165,2.80437 56.55344,-38.44412 -1.8501,-19.33686 -1.12767,-36.71884 -0.12055,-41.03316 1.27232,-5.45063 -12.84611,-6.35794 -13.92622,-5.16933 -1.08013,1.18861 0.0538,16.44567 -0.49341,22.43878 -0.54721,5.99311 -5.54146,16.04135 -10.76001,17.14219 -7.53707,1.58993 -7.1324,-14.39709 -4.39034,-19.37655 1.63168,-2.96306 4.34546,-8.72988 10.05832,-3.9239 5.71286,4.80598 6.98502,10.60504 10.04056,8.16655 1.5558,-1.2416 3.11353,-8.10088 1.50292,-10.3792 z"
           id="path5807"
           sodipodi:nodetypes="csssssssccssssssscc" />
        <g
           id="g5815"
           transform="translate(0.30333909,2.3952852)"
           style="stroke:#000000;stroke-opacity:1">
          <path
             style="fill:#ffff00;fill-opacity:1;stroke:#000000;stroke-width:2.87807;stroke-linecap:butt;stroke-linejoin:miter;stroke-miterlimit:4;stroke-dasharray:none;stroke-opacity:1"
             d="m 428.25643,169.19684 c -2.50936,-6.07224 11.26042,-76.288536 17.32561,-78.94628 6.06521,-2.657759 12.81529,-0.440013 13.08601,5.225543 0.27073,5.665537 -12.86106,72.274277 -13.62294,75.616487 -1.19435,5.23939 -13.45247,3.2715 -16.78868,-1.89575 z"
             id="path5809"
             sodipodi:nodetypes="csssc" />
          <path
             style="fill:#ffff00;fill-opacity:1;stroke:#000000;stroke-width:2.87807;stroke-linecap:butt;stroke-linejoin:miter;stroke-miterlimit:4;stroke-dasharray:none;stroke-opacity:1"
             d="m 410.41641,84.845939 c -4.05966,7.246985 -9.76256,22.588321 -5.66158,37.683701 2.97333,10.94464 33.54564,19.7208 39.65126,16.97951 6.10561,-2.7413 5.43849,-14.59436 1.84177,-15.17411 -3.59673,-0.57975 -20.66429,-3.77049 -24.77508,-9.43469 -3.78997,-5.22214 4.79532,-21.23389 3.6271,-26.425009 -1.16824,-5.191104 -12.12024,-7.491858 -14.68347,-3.629402 z"
             id="path5811"
             sodipodi:nodetypes="csssssc" />
          <path
             style="fill:#ffff00;fill-opacity:1;stroke:#000000;stroke-width:2.87807;stroke-linecap:butt;stroke-linejoin:miter;stroke-miterlimit:4;stroke-dasharray:none;stroke-opacity:1"
             d="m 465.35233,115.504 c 0.0539,-5.01735 2.71814,-14.15518 14.01503,-18.841046 8.08439,-3.353357 21.59687,1.322225 25.85151,13.704396 4.11403,12.97735 -2.70693,27.43554 -12.81707,28.89069 21.64755,18.14745 -4.72443,49.03581 -23.22627,39.25004 -8.24334,-3.8545 -13.099,-14.20078 -12.14358,-20.31329 0.88717,-5.67584 9.66657,-10.40189 12.39774,-4.94791 1.69632,3.38746 2.63305,9.39951 6.0708,10.16562 4.3179,1.13259 12.47527,-4.70515 9.88711,-11.13645 -1.87204,-3.91827 -9.26849,-9.25529 -11.55482,-10.81444 -6.35419,-4.33322 -1.26922,-17.36193 5.35746,-15.72595 5.03385,1.24274 11.865,-1.35305 13.02854,-5.9746 1.40515,-5.5813 -3.1369,-7.48283 -6.57211,-7.50502 -5.13993,-0.0332 -5.11242,3.8935 -7.34815,6.59644 -2.86544,3.46423 -12.70483,-0.41786 -12.94619,-3.34848 z"
             id="path5813"
             sodipodi:nodetypes="cscccssccsssssc" />
        </g>
      </g>
      <g
         id="g5542"
         transform="translate(-1.6130749,-2.0084164)"
         style="opacity:1"
         inkscape:label="fill">
        <path
           style="fill:#ffff00;fill-opacity:1;stroke:none;stroke-width:2;stroke-linecap:butt;stroke-linejoin:miter;stroke-miterlimit:4;stroke-dasharray:none;stroke-opacity:1"
           d="M 63.556385,105.67969 C 68.623595,100.15707 59.202843,76.721495 34.186989,82.552155 9.1711342,88.382815 -2.4010972,116.34589 3.3831462,143.83227 c 5.9323796,28.19031 27.8241878,41.53669 47.2371428,38.14489 19.412955,-3.3918 32.571282,-28.42889 25.970669,-33.17353 -6.600613,-4.74463 -12.097731,-6.05281 -15.172092,-3.1809 -3.07436,2.8719 -7.975281,16.37032 -16.798917,16.21628 -9.317926,-0.16267 -23.642348,-12.459 -23.940479,-32.9608 -0.285018,-19.60005 12.052073,-28.61588 20.432186,-29.577073 8.380114,-0.961191 5.652654,7.853613 9.280689,12.137153 3.628036,4.28354 13.16404,-5.7586 13.16404,-5.7586 z"
           id="path5514"
           sodipodi:nodetypes="csssssssssc" />
        <path
           style="fill:#ffff00;fill-opacity:1;stroke:none;stroke-width:2;stroke-linecap:butt;stroke-linejoin:miter;stroke-miterlimit:4;stroke-dasharray:none;stroke-opacity:1"
           d="M 82.537645,127.34308 C 80.921879,105.25065 80.834659,81.556151 81.804918,77.309292 82.96029,72.252187 97.97603,69.626941 97.97603,79.737324 c 0,10.110385 0.89948,68.258306 6.29802,69.508366 5.39854,1.25006 13.30769,3.02487 14.96632,5.82686 1.22519,2.06975 -0.10224,10.95978 -3.20314,13.5532 -3.75559,3.14097 -12.54546,0.57747 -17.400474,-1.54205 -8.453639,-3.69054 -14.133734,-9.5527 -16.099111,-39.74062 z"
           id="path5516"
           sodipodi:nodetypes="cssssssc" />
        <path
           style="fill:#ffff00;fill-opacity:1;stroke:none;stroke-width:2;stroke-linecap:butt;stroke-linejoin:miter;stroke-miterlimit:4;stroke-dasharray:none;stroke-opacity:1"
           d="m 122.96972,134.78089 c 0.46118,18.71213 1.9141,30.42319 5.74484,31.21505 3.83075,0.79187 12.6557,3.1128 12.31302,-10.28099 -0.34268,-13.39378 -1.57615,-43.34341 -4.64714,-43.8046 -3.071,-0.46118 -13.68149,0.64538 -13.68149,4.70135 0,4.05596 0.27077,18.16919 0.27077,18.16919 z"
           id="path5518"
           sodipodi:nodetypes="cssssc" />
        <path
           style="fill:#ffff00;fill-opacity:1;stroke:none;stroke-width:2;stroke-linecap:butt;stroke-linejoin:miter;stroke-miterlimit:4;stroke-dasharray:none;stroke-opacity:1"
           d="m 122.04773,98.390507 c -0.16306,-4.319781 2.55403,-6.376599 5.70849,-7.136625 3.15446,-0.760026 7.32111,2.80739 7.15806,5.770395 -0.16305,2.96301 -2.88333,7.532423 -6.00365,7.129123 -3.12032,-0.4033 -6.31429,-2.1927 -6.8629,-5.762893 z"
           id="path5520" />
        <path
           style="fill:#ffff00;fill-opacity:1;stroke:none;stroke-width:2;stroke-linecap:butt;stroke-linejoin:miter;stroke-miterlimit:4;stroke-dasharray:none;stroke-opacity:1"
           d="m 146.79215,118.40751 c 2.12908,5.99069 3.85859,36.21213 4.4443,42.08033 0.58571,5.8682 13.92447,3.64417 13.34566,-1.93395 -0.57881,-5.57811 -1.37432,-25.02846 6.07485,-34.9221 5.11991,-6.80002 6.69427,-3.49552 8.46144,1.32976 1.29137,3.52608 -0.49409,28.48217 1.10265,33.0695 1.2735,3.65862 13.72446,2.72374 13.33881,-1.25736 -1.19298,-12.31533 -2.05874,-28.8929 2.05694,-35.91873 1.96252,-3.35018 10.07842,-10.81811 11.29333,-1.12026 0.74637,5.95779 -0.49545,31.48724 1.40366,36.51397 1.50952,3.99549 14.2222,2.49697 12.88567,-2.6707 -1.95558,-7.56115 -0.58311,-37.32718 -2.87316,-43.30634 -3.27205,-8.5431 -25.40378,-9.49481 -29.65361,0.0797 -2.66169,5.99659 -1.10234,-2.65156 -9.65493,-4.40546 -6.6013,-1.35375 -14.63432,4.29296 -17.26356,10.0273 -2.62924,5.73434 -1.52147,-6.258 -4.72509,-7.24577 -6.00461,-1.09005 -13.03403,1.93404 -10.23696,9.68014 z"
           id="path5522"
           sodipodi:nodetypes="cssssssssssssssccc" />
        <path
           style="fill:#ffff00;fill-opacity:1;stroke:none;stroke-width:2;stroke-linecap:butt;stroke-linejoin:miter;stroke-miterlimit:4;stroke-dasharray:none;stroke-opacity:1"
           d="m 229.39935,62.434174 c -2.50814,9.14361 -3.62295,35.077968 -3.90479,47.606776 -0.38073,16.92532 1.97157,39.33012 4.01079,44.26899 1.90927,4.62415 14.76304,4.26847 14.99075,-0.14398 0.2277,-4.41246 2.58456,-24.64545 5.17662,-29.44896 4.02068,-7.45102 7.43134,-8.6386 9.72479,-1.60475 1.528,4.68628 3.06022,17.50389 -5.41852,20.25211 -8.31843,2.69627 -8.45396,-13.07511 -11.78148,-17.23422 -6.00879,-7.51049 -10.7004,10.36803 -5.80831,19.68737 2.17131,4.13631 6.02037,9.47832 13.57833,11.56324 7.56761,2.08759 21.17506,-3.5261 23.52459,-18.11661 2.36979,-14.71639 -0.11938,-28.74258 -7.33103,-33.76084 -5.494,-3.82303 -15.46163,-8.474124 -24.46862,8.97938 -2.48323,4.81194 0.18046,-42.020595 2.11642,-47.012601 1.08041,-3.352012 -12.53443,-13.325929 -14.40954,-5.035905 z"
           id="path5524"
           sodipodi:nodetypes="csssssssssssscc" />
        <path
           style="fill:#ffff00;fill-opacity:1;stroke:none;stroke-width:2;stroke-linecap:butt;stroke-linejoin:miter;stroke-miterlimit:4;stroke-dasharray:none;stroke-opacity:1"
           d="m 280.47067,107.40194 c -1.30519,9.6404 -1.26435,36.26207 0.0749,46.29271 0.67416,5.04917 13.19356,8.51735 15.72891,-0.76463 1.25389,-4.5905 0.71212,-17.82039 0.19895,-24.87473 -0.26429,-3.63305 1.16919,-17.7646 -0.63191,-21.10916 -2.64725,-4.91581 -14.37786,-5.09166 -15.37086,0.45581 z"
           id="path5526"
           sodipodi:nodetypes="cssssc" />
        <path
           style="fill:#ffff00;fill-opacity:1;stroke:none;stroke-width:2;stroke-linecap:butt;stroke-linejoin:miter;stroke-miterlimit:4;stroke-dasharray:none;stroke-opacity:1"
           d="m 291.06124,81.613978 c 4.45368,-0.425392 6.91108,1.920491 6.60773,5.004752 -0.30334,3.08425 -2.61125,6.84486 -4.67241,7.37351 -4.8561,1.24549 -8.67037,-2.33665 -8.45515,-6.8029 0.21521,-4.466247 4.15583,-5.275894 6.51983,-5.575362 z"
           id="path5528"
           sodipodi:nodetypes="csssc" />
        <path
           style="fill:#ffff00;fill-opacity:1;stroke:none;stroke-width:2;stroke-linecap:butt;stroke-linejoin:miter;stroke-miterlimit:4;stroke-dasharray:none;stroke-opacity:1"
           d="m 302.04534,109.2586 c -1.95541,-5.92291 12.37899,-5.72352 13.24627,-1.91439 0.56154,2.46627 0.81469,5.85414 0.40577,8.45118 -0.45295,2.87668 0.81479,-3.77749 7.76218,-7.31458 15.83958,-5.41406 23.76336,12.43759 23.79341,22.85559 -0.23967,11.78599 -3.22431,24.04727 -5.78438,29.83129 -1.46891,3.31873 -13.46708,1.48478 -12.56889,-2.41712 0.96434,-4.18929 4.9885,-17.47865 5.40053,-24.20601 0.63067,-10.29692 -4.18379,-16.27007 -7.73794,-12.8467 -6.45104,6.21369 -9.15333,22.9161 -8.3874,30.12966 0.2917,2.74725 1.12597,5.72078 0.0108,7.87809 -1.11517,2.1573 -10.62771,0.44409 -12.7022,-1.71231 -3.23856,-15.45142 -1.7325,-40.01391 -3.43815,-48.7347 z"
           id="path5530"
           sodipodi:nodetypes="cssccsssssscc" />
        <path
           style="fill:#ffff00;fill-opacity:1;stroke:none;stroke-width:2;stroke-linecap:butt;stroke-linejoin:miter;stroke-miterlimit:4;stroke-dasharray:none;stroke-opacity:1"
           d="m 385.77833,127.9197 c -0.81624,-2.49581 -5.87474,-12.29696 -16.76784,-13.04758 -4.96421,-0.34207 -12.84133,3.91789 -16.7832,13.5983 -5.42984,13.33455 -2.03915,33.8272 10.17638,37.70481 10.55685,3.35109 15.67223,-1.59967 17.344,-6.156 1.6718,-4.55634 0.41933,18.25965 -2.57912,24.1435 -4.19356,8.22902 -10.83217,12.96209 -23.75957,6.32694 -3.74198,-1.92062 -8.66754,-5.4098 -11.36625,-5.46035 -4.52663,-0.0848 -8.96598,10.57505 -4.72907,13.46912 37.60683,24.39119 60.42165,2.80437 56.55344,-38.44412 -1.8501,-19.33686 -1.12767,-36.71884 -0.12055,-41.03316 1.27232,-5.45063 -12.84611,-6.35794 -13.92622,-5.16933 -1.08013,1.18861 0.0538,16.44567 -0.49341,22.43878 -0.54721,5.99311 -5.54146,16.04135 -10.76001,17.14219 -7.53707,1.58993 -7.1324,-14.39709 -4.39034,-19.37655 1.63168,-2.96306 4.34546,-8.72988 10.05832,-3.9239 5.71286,4.80598 6.98502,10.60504 10.04056,8.16655 1.5558,-1.2416 3.11353,-8.10088 1.50292,-10.3792 z"
           id="path5532"
           sodipodi:nodetypes="csssssssccssssssscc" />
        <g
           id="g5540"
           transform="translate(0.30333909,2.3952852)">
          <path
             style="fill:#ffff00;fill-opacity:1;stroke:none;stroke-width:2.87807;stroke-linecap:butt;stroke-linejoin:miter;stroke-miterlimit:4;stroke-dasharray:none;stroke-opacity:1"
             d="m 428.25643,169.19684 c -2.50936,-6.07224 11.26042,-76.288536 17.32561,-78.94628 6.06521,-2.657759 12.81529,-0.440013 13.08601,5.225543 0.27073,5.665537 -12.86106,72.274277 -13.62294,75.616487 -1.19435,5.23939 -13.45247,3.2715 -16.78868,-1.89575 z"
             id="path5534"
             sodipodi:nodetypes="csssc" />
          <path
             style="fill:#ffff00;fill-opacity:1;stroke:none;stroke-width:2.87807;stroke-linecap:butt;stroke-linejoin:miter;stroke-miterlimit:4;stroke-dasharray:none;stroke-opacity:1"
             d="m 410.41641,84.845939 c -4.05966,7.246985 -9.76256,22.588321 -5.66158,37.683701 2.97333,10.94464 33.54564,19.7208 39.65126,16.97951 6.10561,-2.7413 5.43849,-14.59436 1.84177,-15.17411 -3.59673,-0.57975 -20.66429,-3.77049 -24.77508,-9.43469 -3.78997,-5.22214 4.79532,-21.23389 3.6271,-26.425009 -1.16824,-5.191104 -12.12024,-7.491858 -14.68347,-3.629402 z"
             id="path5536"
             sodipodi:nodetypes="csssssc" />
          <path
             style="fill:#ffff00;fill-opacity:1;stroke:none;stroke-width:2.87807;stroke-linecap:butt;stroke-linejoin:miter;stroke-miterlimit:4;stroke-dasharray:none;stroke-opacity:1"
             d="m 465.35233,115.504 c 0.0539,-5.01735 2.71814,-14.15518 14.01503,-18.841046 8.08439,-3.353357 21.59687,1.322225 25.85151,13.704396 4.11403,12.97735 -2.70693,27.43554 -12.81707,28.89069 21.64755,18.14745 -4.72443,49.03581 -23.22627,39.25004 -8.24334,-3.8545 -13.099,-14.20078 -12.14358,-20.31329 0.88717,-5.67584 9.66657,-10.40189 12.39774,-4.94791 1.69632,3.38746 2.63305,9.39951 6.0708,10.16562 4.3179,1.13259 12.47527,-4.70515 9.88711,-11.13645 -1.87204,-3.91827 -9.26849,-9.25529 -11.55482,-10.81444 -6.35419,-4.33322 -1.26922,-17.36193 5.35746,-15.72595 5.03385,1.24274 11.865,-1.35305 13.02854,-5.9746 1.40515,-5.5813 -3.1369,-7.48283 -6.57211,-7.50502 -5.13993,-0.0332 -5.11242,3.8935 -7.34815,6.59644 -2.86544,3.46423 -12.70483,-0.41786 -12.94619,-3.34848 z"
             id="path5538"
             sodipodi:nodetypes="cscccssccsssssc" />
        </g>
      </g>
    </g>
  </g>
  <metadata
     id="metadata868">
    <rdf:RDF>
      <cc:Work
         rdf:about="">
        <dc:creator>
          <cc:Agent>
            <dc:title>IcterusGames</dc:title>
          </cc:Agent>
        </dc:creator>
        <cc:license
           rdf:resource="http://creativecommons.org/publicdomain/zero/1.0/" />
      </cc:Work>
      <cc:License
         rdf:about="http://creativecommons.org/publicdomain/zero/1.0/">
        <cc:permits
           rdf:resource="http://creativecommons.org/ns#Reproduction" />
        <cc:permits
           rdf:resource="http://creativecommons.org/ns#Distribution" />
        <cc:permits
           rdf:resource="http://creativecommons.org/ns#DerivativeWorks" />
      </cc:License>
    </rdf:RDF>
  </metadata>
</svg>
