<?xml version="1.0" encoding="UTF-8" standalone="no"?>
<!-- Created with Inkscape (http://www.inkscape.org/) -->

<svg
   width="1024"
   height="1024"
   viewBox="0 0 270.93332 270.93334"
   version="1.1"
   id="svg5"
   inkscape:version="1.1.2 (0a00cf5339, 2022-02-04)"
   sodipodi:docname="barn.svg"
   xmlns:inkscape="http://www.inkscape.org/namespaces/inkscape"
   xmlns:sodipodi="http://sodipodi.sourceforge.net/DTD/sodipodi-0.dtd"
   xmlns="http://www.w3.org/2000/svg"
   xmlns:svg="http://www.w3.org/2000/svg"
   xmlns:rdf="http://www.w3.org/1999/02/22-rdf-syntax-ns#"
   xmlns:cc="http://creativecommons.org/ns#"
   xmlns:dc="http://purl.org/dc/elements/1.1/">
  <sodipodi:namedview
     id="namedview7"
     pagecolor="#505050"
     bordercolor="#ffffff"
     borderopacity="1"
     inkscape:pageshadow="0"
     inkscape:pageopacity="0"
     inkscape:pagecheckerboard="1"
     inkscape:document-units="mm"
     showgrid="false"
     units="px"
     width="512px"
     inkscape:zoom="0.57370932"
     inkscape:cx="383.46945"
     inkscape:cy="577.81875"
     inkscape:window-width="1920"
     inkscape:window-height="1007"
     inkscape:window-x="0"
     inkscape:window-y="0"
     inkscape:window-maximized="1"
     inkscape:current-layer="layer1"
     showguides="true"
     inkscape:guide-bbox="true"
     inkscape:snap-global="true"
     inkscape:snap-intersection-paths="false"
     inkscape:snap-midpoints="false"
     inkscape:snap-smooth-nodes="false"
     inkscape:object-paths="true" />
  <defs
     id="defs2" />
  <g
     inkscape:label="Capa 1"
     inkscape:groupmode="layer"
     id="layer1">
    <g
       id="g46056"
       transform="translate(0,4.8040112)">
      <path
         style="fill:#cc0000;fill-opacity:1;stroke:#cc0000;stroke-width:0.264583px;stroke-linecap:butt;stroke-linejoin:miter;stroke-opacity:1"
         d="m 24.615533,265.9864 0.584624,-151.81925 47.424715,-57.551466 62.152288,-16.86129 61.67787,18.303579 49.5359,56.109177 -0.021,151.81925 z"
         id="path15916" />
      <path
         style="fill:#db4343;fill-opacity:1;stroke:none;stroke-width:0.264583px;stroke-linecap:butt;stroke-linejoin:miter;stroke-opacity:1"
         d="m 24.691691,246.20902 221.280919,0.39508 2.6e-4,-1.94437 -221.271787,-0.89108 z"
         id="path16270" />
      <path
         style="fill:#9d0000;fill-opacity:1;stroke:none;stroke-width:0.264583px;stroke-linecap:butt;stroke-linejoin:miter;stroke-opacity:1"
         d="m 24.701083,243.76865 221.271787,0.89108 2.6e-4,-2.22696 -221.263672,-0.85135 z"
         id="path16550" />
      <path
         style="fill:#db4343;fill-opacity:1;stroke:none;stroke-width:0.264583px;stroke-linecap:butt;stroke-linejoin:miter;stroke-opacity:1"
         d="m 24.776128,224.29562 221.280922,0.39508 2.6e-4,-1.94437 -221.27179,-0.89108 z"
         id="path17457" />
      <path
         style="fill:#9d0000;fill-opacity:1;stroke:none;stroke-width:0.264583px;stroke-linecap:butt;stroke-linejoin:miter;stroke-opacity:1"
         d="m 24.78552,221.85525 221.27179,0.89108 2.6e-4,-2.22696 -221.263675,-0.85135 z"
         id="path17459" />
      <path
         style="fill:#db4343;fill-opacity:1;stroke:none;stroke-width:0.264583px;stroke-linecap:butt;stroke-linejoin:miter;stroke-opacity:1"
         d="m 24.776128,224.29562 221.280922,0.39508 2.6e-4,-1.94437 -221.27179,-0.89108 z"
         id="path17461" />
      <path
         style="fill:#9d0000;fill-opacity:1;stroke:none;stroke-width:0.264583px;stroke-linecap:butt;stroke-linejoin:miter;stroke-opacity:1"
         d="m 24.78552,221.85525 221.27179,0.89108 2.6e-4,-2.22696 -221.263675,-0.85135 z"
         id="path17463" />
      <path
         style="fill:#db4343;fill-opacity:1;stroke:none;stroke-width:0.264583px;stroke-linecap:butt;stroke-linejoin:miter;stroke-opacity:1"
         d="m 24.862192,201.93217 221.280918,0.39508 2.6e-4,-1.94437 -221.271786,-0.89108 z"
         id="path17465" />
      <path
         style="fill:#9d0000;fill-opacity:1;stroke:none;stroke-width:0.264583px;stroke-linecap:butt;stroke-linejoin:miter;stroke-opacity:1"
         d="m 24.871584,199.4918 221.271786,0.89108 2.6e-4,-2.22696 -221.263671,-0.85135 z"
         id="path17467" />
      <path
         style="fill:#db4343;fill-opacity:1;stroke:none;stroke-width:0.264583px;stroke-linecap:butt;stroke-linejoin:miter;stroke-opacity:1"
         d="m 24.944955,180.43988 221.280915,0.39508 2.6e-4,-1.94437 -221.271783,-0.89108 z"
         id="path17469" />
      <path
         style="fill:#9d0000;fill-opacity:1;stroke:none;stroke-width:0.264583px;stroke-linecap:butt;stroke-linejoin:miter;stroke-opacity:1"
         d="m 24.954347,177.99951 221.271783,0.89108 2.6e-4,-2.22696 -221.263668,-0.85135 z"
         id="path17471" />
      <path
         style="fill:#db4343;fill-opacity:1;stroke:none;stroke-width:0.264583px;stroke-linecap:butt;stroke-linejoin:miter;stroke-opacity:1"
         d="m 25.023065,160.15701 221.280915,0.39508 2.6e-4,-1.94437 -221.271783,-0.89108 z"
         id="path17473" />
      <path
         style="fill:#9d0000;fill-opacity:1;stroke:none;stroke-width:0.264583px;stroke-linecap:butt;stroke-linejoin:miter;stroke-opacity:1"
         d="m 25.032457,157.71664 221.271783,0.89108 2.6e-4,-2.22696 -221.263668,-0.85135 z"
         id="path17475" />
      <path
         style="fill:#db4343;fill-opacity:1;stroke:none;stroke-width:0.264583px;stroke-linecap:butt;stroke-linejoin:miter;stroke-opacity:1"
         d="m 25.100839,139.96013 221.280911,0.39508 2.6e-4,-1.94437 -221.271779,-0.89108 z"
         id="path17477" />
      <path
         style="fill:#9d0000;fill-opacity:1;stroke:none;stroke-width:0.264583px;stroke-linecap:butt;stroke-linejoin:miter;stroke-opacity:1"
         d="m 25.110231,137.51976 221.271779,0.89108 2.6e-4,-2.22696 -221.263664,-0.85135 z"
         id="path17479" />
      <path
         style="fill:#db4343;fill-opacity:1;stroke:none;stroke-width:0.264583px;stroke-linecap:butt;stroke-linejoin:miter;stroke-opacity:1"
         d="m 25.18239,118.79475 220.80786,0.26408 2.6e-4,-1.94437 -220.798728,-0.76008 z"
         id="path17481"
         sodipodi:nodetypes="ccccc" />
      <path
         style="fill:#9d0000;fill-opacity:1;stroke:none;stroke-width:0.264583px;stroke-linecap:butt;stroke-linejoin:miter;stroke-opacity:1"
         d="m 25.191782,116.35438 220.798728,0.76008 2.6e-4,-2.22696 -220.790613,-0.72035 z"
         id="path17483"
         sodipodi:nodetypes="ccccc" />
      <path
         style="fill:#db4343;fill-opacity:1;stroke:none;stroke-width:0.264583px;stroke-linecap:butt;stroke-linejoin:miter;stroke-opacity:1"
         d="M 39.99157,96.217279 230.23788,96.323718 228.39767,94.288514 42.068448,93.53815 Z"
         id="path17485"
         sodipodi:nodetypes="ccccc" />
      <path
         style="fill:#9d0000;fill-opacity:1;stroke:none;stroke-width:0.264583px;stroke-linecap:butt;stroke-linejoin:miter;stroke-opacity:1"
         d="M 42.068448,93.53815 228.39767,94.288514 226.04544,91.574948 43.894866,91.4805 Z"
         id="path17487"
         sodipodi:nodetypes="ccccc" />
      <path
         style="fill:#db4343;fill-opacity:1;stroke:none;stroke-width:0.264583px;stroke-linecap:butt;stroke-linejoin:miter;stroke-opacity:1"
         d="M 60.297563,71.575283 208.42787,71.619571 206.4707,69.517755 62.498622,68.904229 Z"
         id="path17489"
         sodipodi:nodetypes="ccccc" />
      <path
         style="fill:#9d0000;fill-opacity:1;stroke:none;stroke-width:0.264583px;stroke-linecap:butt;stroke-linejoin:miter;stroke-opacity:1"
         d="M 62.498622,68.904229 206.4707,69.517755 204.65437,67.345339 64.434138,66.555412 Z"
         id="path17491"
         sodipodi:nodetypes="ccccc" />
      <path
         style="fill:#663300;fill-opacity:1;stroke:#663300;stroke-width:0.264583px;stroke-linecap:butt;stroke-linejoin:miter;stroke-opacity:1"
         d="m 88.588645,265.98639 -0.200985,-85.43324 87.40125,0.15605 -0.12182,85.27719 z"
         id="path18815" />
      <path
         style="fill:#b7b7b7;fill-opacity:1;stroke:#b7b7b7;stroke-width:0.264583px;stroke-linecap:butt;stroke-linejoin:miter;stroke-opacity:1"
         d="m 88.588645,265.98639 -0.200985,-85.43324 87.40125,0.15605 -0.12182,85.27719 7.06219,1e-5 0.15815,-93.20043 -102.814841,0.17066 -0.118428,93.02976 z"
         id="path18982"
         sodipodi:nodetypes="ccccccccc" />
      <path
         style="fill:#b7b7b7;fill-opacity:1;stroke:#b7b7b7;stroke-width:0.264583px;stroke-linecap:butt;stroke-linejoin:miter;stroke-opacity:1"
         d="m 130.35813,180.62808 5.72367,0.0102 0.60994,85.35835 -5.6734,-0.0102 z"
         id="path19592"
         sodipodi:nodetypes="ccccc" />
      <path
         style="fill:#b7b7b7;fill-opacity:1;stroke:#b7b7b7;stroke-width:0.264583px;stroke-linecap:butt;stroke-linejoin:miter;stroke-opacity:1"
         d="m 88.579184,261.96508 38.045286,-81.34366 3.73366,0.007 0.0301,3.61872 -38.417156,81.73959 h -3.382449 z"
         id="path19660" />
      <path
         style="fill:#b7b7b7;fill-opacity:1;stroke:#b7b7b7;stroke-width:0.264583px;stroke-linecap:butt;stroke-linejoin:miter;stroke-opacity:1"
         d="m 88.38766,180.55315 3.470367,0.006 39.186333,82.50815 -0.026,2.9191 -3.44361,-1e-5 -39.179093,-82.04237 z"
         id="path19728"
         sodipodi:nodetypes="ccccccc" />
      <path
         style="fill:#b7b7b7;fill-opacity:1;stroke:#b7b7b7;stroke-width:0.264583px;stroke-linecap:butt;stroke-linejoin:miter;stroke-opacity:1"
         d="m 136.0818,180.63828 3.27533,0.006 36.31494,81.8535 -0.005,3.48874 h -3.6655 l -35.89524,-81.9117 z"
         id="path19796" />
      <path
         style="fill:#b7b7b7;fill-opacity:1;stroke:#b7b7b7;stroke-width:0.264583px;stroke-linecap:butt;stroke-linejoin:miter;stroke-opacity:1"
         d="m 136.69174,265.99663 -0.0225,-3.15849 35.50595,-82.13539 3.61379,0.006 -0.005,3.24905 -35.73317,82.0286 z"
         id="path19864"
         sodipodi:nodetypes="ccccccc" />
      <rect
         style="fill:#b7b7b7;fill-opacity:1;stroke:#b7b7b7;stroke-width:1.495;stroke-linecap:square;stroke-linejoin:miter;stroke-miterlimit:4;stroke-dasharray:none;stroke-opacity:1;paint-order:fill markers stroke"
         id="rect34938"
         width="76.460922"
         height="52.525967"
         x="93.837227"
         y="78.083611" />
      <path
         style="fill:#000000;fill-opacity:1;stroke:none;stroke-width:0.264583px;stroke-linecap:butt;stroke-linejoin:miter;stroke-opacity:1"
         d="m 98.660168,126.47112 67.269952,0.15669 -0.38959,-43.809793 -67.174983,0.178014 z"
         id="path28899" />
      <path
         style="fill:#f7a026;fill-opacity:1;stroke:#f7a026;stroke-width:0.264583px;stroke-linecap:butt;stroke-linejoin:miter;stroke-opacity:1"
         d="m 98.519788,105.75633 c 0,0 3.866552,-0.84468 3.711982,-2.8373 -0.15456,-1.99262 -1.42875,-3.816126 -1.42875,-3.816126 0,0 3.77694,1.621346 3.77694,2.886126 0,1.26478 2.67328,-4.698176 3.91744,-4.939251 1.24416,-0.241077 -2.34608,3.236871 -0.51224,5.801641 1.83384,2.56478 1.23818,1.8919 1.23818,1.8919 0,0 2.85259,-3.67997 1.97934,-4.06933 -0.87325,-0.38937 -1.78202,-0.14978 -1.78202,-0.14978 0,0 1.31836,-2.214564 2.28295,-1.986663 0.96458,0.227899 2.36596,2.645113 1.75523,5.000343 -0.61073,2.35524 1.30408,-1.84349 2.84229,-2.37229 1.53822,-0.5288 3.60538,-0.28558 3.60538,-0.28558 0,0 -3.47464,1.76185 -3.23006,2.5951 0.24458,0.83326 2.63607,2.24162 2.63607,2.24162 0,0 4.32034,-4.3441 2.52447,-5.466 -1.79587,-1.121899 -2.06526,-1.121899 -2.06526,-1.121899 0,0 3.05966,-1.964481 3.73709,-0.564431 0.67743,1.400054 0.75895,4.46108 0.75895,4.46108 0,0 0.39192,-2.68701 2.51051,-3.307682 2.11859,-0.620678 3.27925,-0.354261 3.27925,-0.354261 0,0 -4.00474,2.931623 -2.70951,4.321523 1.29524,1.38991 2.55711,1.83966 2.55711,1.83966 0,0 3.4223,-3.33759 1.02344,-4.06661 -2.39887,-0.72901 -1.14873,-0.55968 0.99476,-0.67434 2.14349,-0.11467 1.8359,3.17224 1.8359,3.17224 0,0 0.48385,-2.90926 1.3763,-3.9463 0.89246,-1.037031 2.52666,-1.162213 2.52666,-1.162213 0,0 -2.3397,3.294613 -1.11486,5.310123 1.22483,2.01552 1.19601,1.61116 1.19601,1.61116 0,0 2.58517,-1.69704 2.08239,-2.72356 -0.50278,-1.02652 -2.20942,-1.70203 -2.20942,-1.70203 0,0 3.47543,-0.64743 3.77554,1.3837 0.30011,2.03114 1.75966,2.86565 1.75966,2.86565 0,0 0.59125,-3.32171 -0.66563,-4.35205 -1.25688,-1.03035 -1.89217,-0.84156 -1.89217,-0.84156 0,0 2.32356,-1.726646 3.8366,0.16357 1.51304,1.89021 1.07372,2.65322 1.07372,2.65322 0,0 0.3481,-1.87216 1.1834,-3.346437 0.8353,-1.474279 2.77346,-1.521725 2.77346,-1.521725 0,0 -2.67968,3.009392 -1.40572,5.600002 1.27395,2.59061 1.19701,1.58419 1.19701,1.58419 0,0 2.63361,-2.30922 1.90293,-3.17687 -0.73067,-0.86765 -1.38957,0.83279 -1.38957,0.83279 0,0 -0.98802,-2.73163 0.5971,-2.96411 1.58512,-0.232487 3.40582,0.36667 3.18303,1.67293 -0.2228,1.30627 -1.09409,2.41029 -1.09409,2.41029 0,0 2.41906,-3.57817 4.37499,-3.44306 1.95593,0.13511 1.83024,1.68126 1.83024,1.68126 0,0 -1.42052,-0.93404 -1.68043,0.15785 -0.25992,1.0919 0.33709,2.43156 0.33709,2.43156 0,0 2.24521,0.35168 2.85615,-0.54278 0.61093,-0.89445 0.0698,-4.01473 0.0698,-4.01473 0,0 1.67431,0.23268 1.85311,1.05984 0.1788,0.82716 0.32705,3.04138 0.32705,3.04138 0,0 0.28405,-2.3688 1.46173,-2.95903 1.17768,-0.59024 3.4082,0.19606 3.4082,0.19606 0,0 -0.78163,-0.30576 -1.41028,0.44764 -0.62864,0.75339 -1.00718,2.50473 -1.00718,2.50473 0,0 2.83504,-0.12513 3.60513,0.36491 0.77009,0.49004 1.49607,2.91959 1.49607,2.91959 0,0 -0.74104,-0.60209 -1.5401,-0.68118 -0.79906,-0.0791 -2.66675,0.74604 -2.66675,0.74604 l 0.16373,18.41094 c 0,0 0.23101,2.03335 1.51404,1.82953 1.28303,-0.20381 1.56937,-2.37819 1.56937,-2.37819 0,0 2.60203,1.95707 1.28462,3.24375 -1.31741,1.28668 -2.79873,0.0158 -2.95935,1.28668 -0.16061,1.27085 -1.49106,3.14019 -1.49106,3.14019 0,0 1.16237,-2.16762 0.33118,-3.14019 -0.83119,-0.97257 -1.81436,-0.87595 -1.81436,-0.87595 0,0 -2.52806,2.34777 -0.97729,4.24232 1.55076,1.89456 1.61031,1.44322 1.61031,1.44322 0,0 -4.01712,-1.05461 -4.0034,-3.00369 0.0137,-1.94908 0.48495,-2.43247 0.48495,-2.43247 0,0 -1.20692,2.69526 -2.00723,3.81586 -0.80031,1.12061 -3.49051,0.92482 -3.49051,0.92482 0,0 3.46577,-1.51651 2.74921,-3.55835 -0.71657,-2.04183 -3.66925,0.058 -3.13084,0.79968 0.5384,0.7417 1.15048,1.06821 1.15048,1.06821 0,0 -3.14073,0.43891 -2.98247,-0.812 0.15826,-1.2509 1.34083,-3.21217 1.34083,-3.21217 0,0 -2.26338,3.72549 -3.84152,3.94451 -1.57814,0.21903 -3.25055,0.21903 -3.25055,0.21903 0,0 3.36638,-0.39026 3.52943,-2.14751 0.16305,-1.75726 -1.40839,-3.01875 -1.40839,-3.01875 0,0 -3.43767,1.18035 -1.83436,2.94371 1.60331,1.76336 1.13553,1.2785 1.13553,1.2785 0,0 -2.51305,-0.58934 -2.5724,-1.47959 -0.0593,-0.89024 -0.1671,-2.19816 0.21901,-2.80127 0.38611,-0.60312 0.67072,-1.36221 0.67072,-1.36221 l -18.55427,-0.0432 -10.71897,-0.025 c 0,0 -1.2318,0.93552 -0.82994,2.5139 0.40186,1.57839 1.1969,1.57839 1.1969,1.57839 0,0 -2.11593,-0.0414 -2.37696,-0.85924 -0.26103,-0.8178 -0.39061,-1.26218 -0.39061,-1.26218 0,0 0.77419,3.38371 0.18414,4.4482 -0.59005,1.0645 -2.42056,1.68517 -2.42056,1.68517 0,0 1.6075,-2.05881 1.51013,-3.23662 -0.0974,-1.17781 -0.47757,-1.21819 -0.47757,-1.21819 0,0 -2.91531,0.0808 -2.87698,2.52566 0.0383,2.44485 0.65448,2.31286 0.65448,2.31286 0,0 -2.73447,-0.99487 -1.95144,-3.08526 0.78303,-2.09038 0.48924,-1.85674 0.48924,-1.85674 0,0 -1.14756,3.85647 -2.4675,3.97646 -1.31993,0.11999 -1.91413,-0.71281 -1.91413,-0.71281 0,0 1.47256,0.21334 1.86956,-0.85529 0.397,-1.06862 0.17623,-2.08253 0.17623,-2.08253 0,0 -1.70813,-0.52359 -2.18667,0.42801 -0.47855,0.9516 -0.0178,1.204 -0.0178,1.204 0,0 -1.8629,-0.7646 -1.14382,-1.57092 0.71909,-0.80633 1.57183,-1.39158 1.57183,-1.39158 0,0 -4.02676,2.09615 -3.20662,3.20995 0.82015,1.1138 1.04709,0.65598 1.04709,0.65598 0,0 0.31837,1.16279 -0.94668,0.94651 -1.26505,-0.21629 -1.65268,-1.0511 -1.54184,-2.34701 0.11083,-1.2959 0.55271,-1.62201 0.55271,-1.62201 0,0 -1.30543,1.84143 -3.215373,2.3162 -1.90994,0.47478 -2.560452,0.0412 -2.560452,0.0412 0,0 2.555208,-0.11766 2.967955,-1.94292 0.41275,-1.82526 0.18431,-1.55323 0.18431,-1.55323 0,0 -2.51884,1.05967 -2.396549,1.91499 0.122288,0.85533 0.482166,0.85533 0.482166,0.85533 0,0 -2.350492,-0.15041 -0.968775,-2.20883 1.381715,-2.05842 1.180846,-2.85365 1.180846,-2.85365 z"
         id="path35187" />
      <path
         style="fill:#c2771e;fill-opacity:1;stroke:none;stroke-width:0.264583px;stroke-linecap:butt;stroke-linejoin:miter;stroke-opacity:1"
         d="m 102.73805,127.91607 c 0.19687,-4.46909 0.90053,-5.61988 2.14714,-5.73339 1.24661,-0.11351 2.08764,0.70063 2.08764,0.70063 0,0 -1.65995,-2.90075 -3.72929,-0.93044 -2.06934,1.97031 -0.50549,5.9632 -0.50549,5.9632 z"
         id="path38627" />
      <path
         style="fill:#c2771e;fill-opacity:1;stroke:none;stroke-width:0.264583px;stroke-linecap:butt;stroke-linejoin:miter;stroke-opacity:1"
         d="m 110.93355,126.68972 c 0,0 1.49022,-1.51624 1.27056,-2.84235 -0.21967,-1.32611 -1.28349,-2.08966 -1.28349,-2.08966 0,0 2.65275,0.53477 2.4281,1.71984 -0.22465,1.18506 -2.41517,3.21217 -2.41517,3.21217 z"
         id="path39421" />
      <path
         style="fill:#c2771e;fill-opacity:1;stroke:none;stroke-width:0.264583px;stroke-linecap:butt;stroke-linejoin:miter;stroke-opacity:1"
         d="m 106.24548,128.83805 c 1.54003,-1.96228 1.41929,-4.07816 1.41929,-4.07816 0,0 -0.87606,3.33264 -1.41929,4.07816 z"
         id="path39423" />
      <path
         style="fill:#c2771e;fill-opacity:1;stroke:none;stroke-width:0.264583px;stroke-linecap:butt;stroke-linejoin:miter;stroke-opacity:1"
         d="m 117.23958,124.29816 c 0.45376,-3.91057 2.81668,-5.79786 4.08608,-5.42747 1.26941,0.37039 1.56493,1.96068 1.56493,1.96068 0,0 0.0653,-4.66369 -2.99486,-3.50627 -3.06017,1.15743 -2.65615,6.97306 -2.65615,6.97306 z"
         id="path39425" />
      <path
         style="fill:#c2771e;fill-opacity:1;stroke:none;stroke-width:0.264583px;stroke-linecap:butt;stroke-linejoin:miter;stroke-opacity:1"
         d="m 107.78305,118.17917 c 2.88723,1.09611 5.75743,1.42846 6.44164,-0.58916 0.68422,-2.01762 -0.34621,-2.63385 -0.34621,-2.63385 0,0 1.22329,2.40798 -1.55977,2.79914 -2.78307,0.39116 -4.53566,0.42387 -4.53566,0.42387 z"
         id="path39427" />
      <path
         style="fill:#c2771e;fill-opacity:1;stroke:none;stroke-width:0.264583px;stroke-linecap:butt;stroke-linejoin:miter;stroke-opacity:1"
         d="m 101.36094,117.92188 c 2.06499,-5.42919 3.9399,-6.20611 4.9396,-5.98388 0.99969,0.22223 2.01539,1.86431 2.01539,1.86431 0,0 -0.40658,-3.25901 -2.7827,-3.20137 -2.37612,0.0577 -4.17229,7.32094 -4.17229,7.32094 z"
         id="path39429" />
      <path
         style="fill:#c2771e;fill-opacity:1;stroke:none;stroke-width:0.264583px;stroke-linecap:butt;stroke-linejoin:miter;stroke-opacity:1"
         d="m 109.84791,110.45522 c 2.62887,-3.39841 2.54961,-5.6056 2.54961,-5.6056 0,0 1.85331,1.02821 0.41517,2.90802 -1.43815,1.87981 -2.96478,2.69758 -2.96478,2.69758 z"
         id="path39431" />
      <path
         style="fill:#c2771e;fill-opacity:1;stroke:none;stroke-width:0.264583px;stroke-linecap:butt;stroke-linejoin:miter;stroke-opacity:1"
         d="m 116.77345,108.18593 c 0.70559,2.90267 1.401,3.7681 2.53974,3.82503 1.13875,0.0569 2.46012,-0.53447 2.46012,-0.53447 0,0 -2.46019,0.14837 -3.27418,-0.60032 -0.81399,-0.74869 -1.72568,-2.69024 -1.72568,-2.69024 z"
         id="path39433" />
      <path
         style="fill:#c2771e;fill-opacity:1;stroke:none;stroke-width:0.264583px;stroke-linecap:butt;stroke-linejoin:miter;stroke-opacity:1"
         d="m 100.95807,110.34935 c 3.3085,-2.34558 3.63828,-6.47942 3.63828,-6.47942 0,0 -1.58992,4.99506 -3.63828,6.47942 z"
         id="path39435" />
      <path
         style="fill:#c2771e;fill-opacity:1;stroke:none;stroke-width:0.264583px;stroke-linecap:butt;stroke-linejoin:miter;stroke-opacity:1"
         d="m 124.90615,124.45252 c 3.92185,-3.3739 1.34913,-6.4166 1.34913,-6.4166 0,0 4.51783,3.33974 -1.34913,6.4166 z"
         id="path39437" />
      <path
         style="fill:#c2771e;fill-opacity:1;stroke:none;stroke-width:0.264583px;stroke-linecap:butt;stroke-linejoin:miter;stroke-opacity:1"
         d="m 124.41809,107.17042 c 0.14964,3.23786 1.61985,4.50904 3.28977,4.96949 1.66991,0.46046 4.06916,-1.25158 4.06916,-1.25158 0,0 -5.06974,3.23352 -7.35893,-3.71791 z"
         id="path39441" />
      <path
         style="fill:#c2771e;fill-opacity:1;stroke:none;stroke-width:0.264583px;stroke-linecap:butt;stroke-linejoin:miter;stroke-opacity:1"
         d="m 128.38803,116.28015 c 6.42391,-0.17357 6.93916,1.84919 6.19772,3.10866 -0.74143,1.25948 -2.00977,1.25948 -2.00977,1.25948 0,0 5.02839,-3.05501 -4.18795,-4.36814 z"
         id="path39443" />
      <path
         style="fill:#c2771e;fill-opacity:1;stroke:none;stroke-width:0.264583px;stroke-linecap:butt;stroke-linejoin:miter;stroke-opacity:1"
         d="m 137.95904,124.99186 c -3.58447,-0.0577 -5.13383,-1.97626 -4.02132,-3.12347 1.11252,-1.14722 2.99449,-0.86146 2.99449,-0.86146 0,0 -6.68542,1.91914 1.02683,3.98493 z"
         id="path39445" />
      <path
         style="fill:#c2771e;fill-opacity:1;stroke:none;stroke-width:0.264583px;stroke-linecap:butt;stroke-linejoin:miter;stroke-opacity:1"
         d="m 133.38513,106.37447 c 0.0813,6.6257 -2.0814,7.58878 -2.0814,7.58878 0,0 4.311,-1.23425 2.0814,-7.58878 z"
         id="path39447" />
      <path
         style="fill:#c2771e;fill-opacity:1;stroke:none;stroke-width:0.264583px;stroke-linecap:butt;stroke-linejoin:miter;stroke-opacity:1"
         d="m 110.62429,131.71333 c 1.5713,-3.46362 1.6942,-3.71306 3.64379,-4.62034 1.94958,-0.90728 2.14674,-0.32543 2.14674,-0.32543 0,0 -3.75694,-3.02492 -5.79053,4.94577 z"
         id="path39449" />
      <path
         style="fill:#c2771e;fill-opacity:1;stroke:none;stroke-width:0.264583px;stroke-linecap:butt;stroke-linejoin:miter;stroke-opacity:1"
         d="m 154.2678,125.14143 c -0.45376,-3.91057 -2.81668,-5.79786 -4.08608,-5.42747 -1.26941,0.37039 -1.56493,1.96068 -1.56493,1.96068 0,0 -0.0653,-4.66369 2.99486,-3.50627 3.06017,1.15743 2.65615,6.97306 2.65615,6.97306 z"
         id="path39531" />
      <path
         style="fill:#c2771e;fill-opacity:1;stroke:none;stroke-width:0.264583px;stroke-linecap:butt;stroke-linejoin:miter;stroke-opacity:1"
         d="m 163.72433,119.02244 c -2.88723,1.09611 -5.75743,1.42846 -6.44164,-0.58916 -0.68422,-2.01762 0.34621,-2.63385 0.34621,-2.63385 0,0 -1.22329,2.40798 1.55977,2.79914 2.78307,0.39116 4.53566,0.42387 4.53566,0.42387 z"
         id="path39533" />
      <path
         style="fill:#c2771e;fill-opacity:1;stroke:none;stroke-width:0.264583px;stroke-linecap:butt;stroke-linejoin:miter;stroke-opacity:1"
         d="m 161.65947,111.29849 c -2.62887,-3.39841 -2.54961,-5.6056 -2.54961,-5.6056 0,0 -1.85331,1.02821 -0.41517,2.90802 1.43815,1.87981 2.96478,2.69758 2.96478,2.69758 z"
         id="path39535" />
      <path
         style="fill:#c2771e;fill-opacity:1;stroke:none;stroke-width:0.264583px;stroke-linecap:butt;stroke-linejoin:miter;stroke-opacity:1"
         d="m 154.73393,109.0292 c -0.70559,2.90267 -1.401,3.7681 -2.53974,3.82503 -1.13875,0.0569 -2.46012,-0.53447 -2.46012,-0.53447 0,0 2.46019,0.14837 3.27418,-0.60032 0.81399,-0.74869 1.72568,-2.69024 1.72568,-2.69024 z"
         id="path39537" />
      <path
         style="fill:#c2771e;fill-opacity:1;stroke:none;stroke-width:0.264583px;stroke-linecap:butt;stroke-linejoin:miter;stroke-opacity:1"
         d="m 147.08929,108.01369 c -0.14964,3.23786 -1.61985,4.50904 -3.28977,4.96949 -1.66991,0.46046 -4.06916,-1.25158 -4.06916,-1.25158 0,0 5.06974,3.23352 7.35893,-3.71791 z"
         id="path39539" />
      <path
         style="fill:#c2771e;fill-opacity:1;stroke:none;stroke-width:0.264583px;stroke-linecap:butt;stroke-linejoin:miter;stroke-opacity:1"
         d="m 161.32244,128.95095 c 0,0 1.49022,-1.51624 1.27056,-2.84235 -0.21967,-1.32611 -1.28349,-2.08966 -1.28349,-2.08966 0,0 2.65275,0.53477 2.4281,1.71984 -0.22465,1.18506 -2.41517,3.21217 -2.41517,3.21217 z"
         id="path39541" />
      <path
         style="fill:#c2771e;fill-opacity:1;stroke:none;stroke-width:0.264583px;stroke-linecap:butt;stroke-linejoin:miter;stroke-opacity:1"
         d="m 142.04477,124.56145 c 0.19687,-4.46909 0.90053,-5.61988 2.14714,-5.73339 1.24661,-0.11351 2.08764,0.70063 2.08764,0.70063 0,0 -1.65995,-2.90075 -3.72929,-0.93044 -2.06934,1.97031 -0.50549,5.9632 -0.50549,5.9632 z"
         id="path39543" />
      <path
         style="fill:#c2771e;fill-opacity:1;stroke:none;stroke-width:0.264583px;stroke-linecap:butt;stroke-linejoin:miter;stroke-opacity:1"
         d="m 154.3278,130.21007 c 1.54003,-1.96228 1.41929,-4.07816 1.41929,-4.07816 0,0 -0.87606,3.33264 -1.41929,4.07816 z"
         id="path39545" />
      <path
         style="fill:#b7b7b7;fill-opacity:1;stroke:#b7b7b7;stroke-width:0.264583px;stroke-linecap:butt;stroke-linejoin:miter;stroke-opacity:1"
         d="M 72.624872,56.615684 12.896985,129.47592 9.472728,126.00933 69.933914,51.503529 134.78923,32.876756 l 64.60558,20.184514 63.83213,72.56191 -4.03589,3.78141 -62.73602,-71.346617 -61.67787,-18.303579 z"
         id="path39677"
         sodipodi:nodetypes="ccccccccccc" />
      <path
         style="fill:#000000;fill-opacity:1;stroke:#000000;stroke-width:0.264583px;stroke-linecap:butt;stroke-linejoin:miter;stroke-opacity:1"
         d="M 9.472728,126.00933 6.8749137,123.81532 68.401691,48.160648 135.3353,28.683378 l 67.06316,21.355968 63.07678,73.508224 -2.2483,2.07561 L 199.39481,53.061269 134.78923,32.876757 69.933914,51.503529 Z"
         id="path43146" />
      <path
         style="opacity:0.281409;fill:#000000;fill-opacity:1;stroke:#000000;stroke-width:0.264583px;stroke-linecap:butt;stroke-linejoin:miter;stroke-opacity:1"
         d="m 25.200157,114.16715 -0.05568,14.45958 54.356232,-61.986442 55.385711,-14.268082 52.84476,17.065691 58.25764,59.941333 0.002,-15.21208 -49.53601,-56.109177 -61.67787,-18.303579 -62.152287,16.86129 z"
         id="path43426"
         sodipodi:nodetypes="ccccccccccc" />
    </g>
  </g>
  <metadata
     id="metadata97923">
    <rdf:RDF>
      <cc:Work
         rdf:about="">
        <dc:creator>
          <cc:Agent>
            <dc:title>IcterusGames</dc:title>
          </cc:Agent>
        </dc:creator>
        <cc:license
           rdf:resource="http://creativecommons.org/publicdomain/zero/1.0/" />
      </cc:Work>
      <cc:License
         rdf:about="http://creativecommons.org/publicdomain/zero/1.0/">
        <cc:permits
           rdf:resource="http://creativecommons.org/ns#Reproduction" />
        <cc:permits
           rdf:resource="http://creativecommons.org/ns#Distribution" />
        <cc:permits
           rdf:resource="http://creativecommons.org/ns#DerivativeWorks" />
      </cc:License>
    </rdf:RDF>
  </metadata>
</svg>
