<?xml version="1.0" encoding="UTF-8" standalone="no"?>
<!-- Creator: CorelDRAW X6 -->

<svg
   xml:space="preserve"
   width="512"
   height="256"
   version="1.1"
   style="clip-rule:evenodd;fill-rule:evenodd;image-rendering:optimizeQuality;shape-rendering:geometricPrecision;text-rendering:geometricPrecision"
   viewBox="0 0 7314.1157 3656.8789"
   id="svg2"
   inkscape:version="1.1.2 (0a00cf5339, 2022-02-04)"
   sodipodi:docname="bush_01.svg"
   xmlns:inkscape="http://www.inkscape.org/namespaces/inkscape"
   xmlns:sodipodi="http://sodipodi.sourceforge.net/DTD/sodipodi-0.dtd"
   xmlns:xlink="http://www.w3.org/1999/xlink"
   xmlns="http://www.w3.org/2000/svg"
   xmlns:svg="http://www.w3.org/2000/svg"
   xmlns:rdf="http://www.w3.org/1999/02/22-rdf-syntax-ns#"
   xmlns:cc="http://creativecommons.org/ns#"
   xmlns:dc="http://purl.org/dc/elements/1.1/"><metadata
   id="metadata2608"><rdf:RDF><cc:Work
       rdf:about=""><dc:format>image/svg+xml</dc:format><dc:type
         rdf:resource="http://purl.org/dc/dcmitype/StillImage" /></cc:Work></rdf:RDF></metadata><sodipodi:namedview
   pagecolor="#ffffff"
   bordercolor="#666666"
   borderopacity="1"
   objecttolerance="10"
   gridtolerance="10"
   guidetolerance="10"
   inkscape:pageopacity="0"
   inkscape:pageshadow="2"
   inkscape:window-width="1920"
   inkscape:window-height="1007"
   id="namedview2606"
   showgrid="false"
   inkscape:zoom="0.55750864"
   inkscape:cx="381.16001"
   inkscape:cy="426.89921"
   inkscape:window-x="0"
   inkscape:window-y="0"
   inkscape:window-maximized="1"
   inkscape:current-layer="_931599168"
   inkscape:pagecheckerboard="1"
   inkscape:document-units="mm"
   units="px"
   width="512px" />
 <defs
   id="defs4">
  <style
   type="text/css"
   id="style6">
   
    .str2 {stroke:#5E7F21;stroke-width:4.11419}
    .str3 {stroke:#747F20;stroke-width:4.11419}
    .str1 {stroke:#945E36;stroke-width:10.7984}
    .str0 {stroke:#633E25;stroke-width:18.6056}
    .fil16 {fill:none}
    .fil22 {fill:black}
    .fil67 {fill:#29C14F}
    .fil24 {fill:#331F0E}
    .fil66 {fill:#37D561}
    .fil15 {fill:#3B9CFB}
    .fil25 {fill:#4A661C}
    .fil33 {fill:#5B661B}
    .fil9 {fill:#5E3518}
    .fil29 {fill:#5E7F21}
    .fil3 {fill:#63391B}
    .fil21 {fill:#633E25}
    .fil65 {fill:#66E186}
    .fil8 {fill:#693C1C}
    .fil70 {fill:#69DF89}
    .fil61 {fill:#6B3E1F}
    .fil5 {fill:#6FA124}
    .fil28 {fill:#729A28}
    .fil36 {fill:#747F20}
    .fil32 {fill:#76A22A}
    .fil19 {fill:#7A4D2E}
    .fil0 {fill:#7B4720}
    .fil69 {fill:#80E49A}
    .fil27 {fill:#82AB36}
    .fil11 {fill:#82D2FF}
    .fil31 {fill:#8ABD31}
    .fil42 {fill:#8CA22A}
    .fil35 {fill:#8D9A27}
    .fil64 {fill:#8EF0C1}
    .fil2 {fill:#905833}
    .fil54 {fill:#91A224}
    .fil39 {fill:#92A229}
    .fil20 {fill:#945E36}
    .fil68 {fill:#98EAA2}
    .fil30 {fill:#99CE40}
    .fil34 {fill:#9DAB35}
    .fil12 {fill:#9FE1FF}
    .fil41 {fill:#A3BD31}
    .fil52 {fill:#A9BD2A}
    .fil38 {fill:#AABD30}
    .fil1 {fill:#AC6C48}
    .fil71 {fill:#ADEFB4}
    .fil17 {fill:#AE703E}
    .fil6 {fill:#B3D02A}
    .fil56 {fill:#B4B3B8}
    .fil40 {fill:#B4CE40}
    .fil53 {fill:#BACE38}
    .fil37 {fill:#BBCE3F}
    .fil23 {fill:#C07E4C}
    .fil72 {fill:#C5F8E9}
    .fil7 {fill:#C6DE5C}
    .fil26 {fill:#C98D63}
    .fil58 {fill:#D6AE70}
    .fil62 {fill:#DDF8FF}
    .fil59 {fill:#DEBB88}
    .fil55 {fill:#DFDDDE}
    .fil48 {fill:#E21664}
    .fil60 {fill:#E5C9A1}
    .fil57 {fill:#E7E5E6}
    .fil46 {fill:#EE4686}
    .fil45 {fill:#F0649B}
    .fil50 {fill:#FE3B00}
    .fil49 {fill:#FF6600}
    .fil44 {fill:#FFC979}
    .fil51 {fill:#FFCC00}
    .fil43 {fill:#FFDCA4}
    .fil47 {fill:white}
    .fil18 {fill:#633E25;fill-rule:nonzero}
    .fil4 {fill:black;fill-opacity:0.200000}
    .fil13 {fill:url(#id1)}
    .fil63 {fill:url(#id2)}
    .fil10 {fill:url(#id3)}
    .fil14 {fill:url(#id4)}
   
  </style>
     <clipPath
   id="id0">
      <path
   d="m 3379,161 h 241 v 241 h -241 z"
   id="path9" />
     </clipPath>
  <linearGradient
   id="id1"
   gradientUnits="userSpaceOnUse"
   x1="2850.6899"
   y1="207.394"
   x2="2850.6899"
   y2="510.80801">
   <stop
   offset="0"
   style="stop-color:#6BCBF1"
   id="stop12" />
   <stop
   offset="1"
   style="stop-color:#3B9CFB"
   id="stop14" />
  </linearGradient>
  <linearGradient
   id="id2"
   gradientUnits="objectBoundingBox"
   x1="0.49999902"
   y1="0"
   x2="0.49999902"
   y2="1">
   <stop
   offset="0"
   style="stop-color:#BDF7F9"
   id="stop17" />
   <stop
   offset="1"
   style="stop-color:#8EF0C1"
   id="stop19" />
  </linearGradient>
  <linearGradient
   id="id3"
   gradientUnits="userSpaceOnUse"
   xlink:href="#id1"
   x1="2850.7"
   y1="138.457"
   x2="2850.7"
   y2="435.81299">
  </linearGradient>
  <linearGradient
   id="id4"
   gradientUnits="userSpaceOnUse"
   xlink:href="#id1"
   x1="2850.7"
   y1="315.76099"
   x2="2850.7"
   y2="552.42999">
  </linearGradient>
 
  
  
  
  
  
  
  
  
  
  
  
  
  
  
  
  
  
  
  
  
  
 </defs>
 <g
   id="_931599168">
   
   
   
   
   
   
   
   
   
   <g
   id="_931610432"
   transform="matrix(11.077418,0,0,11.077418,-38669.756,-23283.312)">
    <path
   style="fill:#8abd31"
   inkscape:connector-curvature="0"
   id="path1761"
   d="m 3982,2432 h -358 -77 v -1 c -1,1 -1,1 -2,1 h -12 c -7,-3 -13,-10 -13,-18 0,-11 9,-20 19,-20 6,0 12,3 15,7 0,0 0,-1 0,-2 0,-8 4,-16 9,-21 -2,-6 -4,-12 -4,-19 0,-7 2,-13 4,-19 -2,-4 -3,-8 -3,-13 0,-14 10,-25 22,-28 -6,-9 -10,-21 -10,-33 0,-30 21,-54 48,-59 6,-15 20,-26 36,-26 2,0 4,0 6,1 11,-15 29,-24 48,-24 17,0 33,7 44,19 13,-23 38,-38 67,-38 22,0 43,10 57,25 0,-15 12,-28 27,-28 16,0 28,13 28,28 0,4 -1,7 -2,10 1,0 1,0 2,0 26,0 49,16 59,39 10,-7 22,-11 36,-11 33,0 59,26 59,59 0,16 -6,31 -16,41 1,4 1,8 1,12 0,3 0,5 0,8 14,7 23,21 23,38 0,8 -2,16 -6,22 1,0 2,0 3,0 16,0 30,14 30,30 0,8 -3,15 -8,20 z"
   class="fil31" />
    <path
   style="fill:#99ce40"
   inkscape:connector-curvature="0"
   id="path1763"
   d="m 3579,2238 c 8,-16 23,-28 41,-31 6,-15 20,-26 36,-26 2,0 4,0 6,1 11,-15 29,-24 48,-24 17,0 33,7 44,19 13,-23 38,-38 67,-38 22,0 43,10 57,25 0,-15 12,-28 27,-28 16,0 28,13 28,28 0,4 -1,7 -2,10 1,0 1,0 2,0 26,0 49,16 59,39 10,-7 22,-11 36,-11 24,0 46,15 55,36 -9,22 -31,37 -55,37 -14,0 -26,-5 -36,-12 -10,23 -33,39 -59,39 -1,0 -1,0 -2,0 1,3 2,7 2,10 0,16 -12,28 -28,28 -15,0 -27,-12 -27,-27 -14,15 -35,24 -57,24 -29,0 -54,-15 -67,-37 -11,11 -27,18 -44,18 -19,0 -37,-9 -48,-23 -2,0 -4,0 -6,0 -16,0 -30,-11 -36,-26 -18,-3 -33,-15 -41,-31 z"
   class="fil30" />
    <path
   style="fill:#76a22a"
   inkscape:connector-curvature="0"
   id="path1765"
   d="m 3641,2413 c -25,0 -45,-19 -46,-44 -6,3 -12,4 -18,4 -6,0 -11,-1 -16,-3 0,2 1,5 2,8 -5,5 -9,13 -9,21 v 2 c -3,-4 -9,-7 -15,-7 -10,0 -19,9 -19,20 0,8 6,15 13,18 h 12 l 2,-1 v 1 h 77 358 132 c 5,-5 8,-12 8,-20 0,-15 -11,-27 -25,-29 -5,10 -17,18 -30,18 -8,0 -15,-3 -21,-8 -8,7 -18,11 -29,11 -14,0 -26,-6 -35,-15 -4,3 -10,5 -17,5 -8,0 -15,-3 -20,-8 -4,2 -8,3 -13,3 -6,0 -11,-1 -16,-4 -6,7 -15,11 -25,11 -17,0 -31,-12 -34,-29 -6,10 -17,17 -30,17 -8,0 -16,-2 -22,-7 -5,15 -18,25 -34,25 -16,0 -30,-10 -34,-25 -5,2 -10,3 -15,3 -3,0 -6,0 -9,-1 -4,10 -14,17 -25,17 -4,0 -7,0 -10,-1 -8,11 -22,18 -37,18 z"
   class="fil32" />
   </g>
   
   
   
  </g>
</svg>
