<?xml version="1.0" encoding="UTF-8" standalone="no"?>
<!-- Created with Inkscape (http://www.inkscape.org/) -->

<svg
   width="256"
   height="256"
   viewBox="0 0 67.733333 67.733335"
   version="1.1"
   id="svg5"
   inkscape:version="1.1.2 (0a00cf5339, 2022-02-04)"
   sodipodi:docname="coin.svg"
   xmlns:inkscape="http://www.inkscape.org/namespaces/inkscape"
   xmlns:sodipodi="http://sodipodi.sourceforge.net/DTD/sodipodi-0.dtd"
   xmlns="http://www.w3.org/2000/svg"
   xmlns:svg="http://www.w3.org/2000/svg"
   xmlns:rdf="http://www.w3.org/1999/02/22-rdf-syntax-ns#"
   xmlns:cc="http://creativecommons.org/ns#"
   xmlns:dc="http://purl.org/dc/elements/1.1/">
  <title
     id="title897">Todogodot Coin</title>
  <sodipodi:namedview
     id="namedview7"
     pagecolor="#505050"
     bordercolor="#ffffff"
     borderopacity="1"
     inkscape:pageshadow="0"
     inkscape:pageopacity="0"
     inkscape:pagecheckerboard="1"
     inkscape:document-units="px"
     showgrid="false"
     units="px"
     inkscape:zoom="2.825665"
     inkscape:cx="104.57715"
     inkscape:cy="113.77853"
     inkscape:window-width="1920"
     inkscape:window-height="1007"
     inkscape:window-x="0"
     inkscape:window-y="0"
     inkscape:window-maximized="1"
     inkscape:current-layer="layer1"
     inkscape:snap-global="false"
     showguides="true"
     inkscape:guide-bbox="true">
    <inkscape:grid
       type="xygrid"
       id="grid1033"
       spacingx="8.4666667"
       spacingy="8.4666667" />
    <sodipodi:guide
       position="135.46666,160.86667"
       orientation="1,0"
       id="guide15180" />
    <sodipodi:guide
       position="169.33333,135.46667"
       orientation="0,-1"
       id="guide15182" />
  </sodipodi:namedview>
  <defs
     id="defs2" />
  <g
     inkscape:label="Capa 1"
     inkscape:groupmode="layer"
     id="layer1">
    <g
       id="g20928"
       transform="matrix(0.25550538,0,0,0.25550538,-0.74579332,-0.74579332)">
      <circle
         style="fill:#ffb800;fill-opacity:1;stroke:#ffff00;stroke-width:3;stroke-linecap:round;stroke-linejoin:round;stroke-opacity:0.996078;paint-order:fill markers stroke"
         id="path15206"
         cx="135.46666"
         cy="135.46666"
         r="126.49583" />
      <circle
         style="fill:#e8a700;fill-opacity:1;stroke:#ffff00;stroke-width:3;stroke-linecap:round;stroke-linejoin:round;stroke-opacity:0.996078;paint-order:fill markers stroke"
         id="path1381"
         cx="135.46666"
         cy="135.46666"
         r="84.666664" />
      <path
         id="circle18330"
         style="fill:#ffd600;fill-opacity:1;stroke:none;stroke-width:11.339;stroke-linecap:round;stroke-linejoin:round;stroke-miterlimit:4;stroke-dasharray:none;stroke-opacity:1;paint-order:fill markers stroke"
         d="m 757.15625,306.34961 a 319.99999,319.99999 0 0 1 57.16992,182.49219 319.99999,319.99999 0 0 1 -320,320 A 319.99999,319.99999 0 0 1 248.22461,693.10156 319.99999,319.99999 0 0 0 512,832 319.99999,319.99999 0 0 0 832,512 319.99999,319.99999 0 0 0 757.15625,306.34961 Z"
         transform="scale(0.26458333)" />
      <path
         id="circle14928"
         style="fill:#a67700;fill-opacity:1;stroke:#a67700;stroke-width:11.3386;stroke-linecap:round;stroke-linejoin:round;stroke-opacity:1;paint-order:fill markers stroke"
         d="m 512,192 a 319.99999,319.99999 0 0 0 -320,320 319.99999,319.99999 0 0 0 85.95312,218.18359 319.99999,319.99999 0 0 1 -66.7207,-195.32617 319.99999,319.99999 0 0 1 320,-320 A 319.99999,319.99999 0 0 1 766.03711,317.45117 319.99999,319.99999 0 0 0 512,192 Z"
         transform="scale(0.26458333)" />
      <circle
         style="fill:none;fill-opacity:1;stroke:#ffff00;stroke-width:3;stroke-linecap:round;stroke-linejoin:round;stroke-opacity:0.996078;paint-order:fill markers stroke"
         id="circle14730"
         cx="135.46666"
         cy="135.46666"
         r="84.666664" />
      <g
         id="g12447"
         inkscape:label="LogoTodoGodot">
        <path
           id="path26176"
           style="opacity:1;fill:none;fill-opacity:1;stroke:#a67700;stroke-width:11.3386;stroke-linecap:butt;stroke-linejoin:miter;stroke-miterlimit:4;stroke-dasharray:none;stroke-opacity:1"
           d="m 536.92969,270.22461 c -2.41069,0.0481 -4.05615,0.50493 -5.28907,1.21484 -3.28772,1.89312 -7.55614,13.96311 -11.74609,24.45117 -4.18995,10.48807 -13.87701,8.80352 -21.29883,9.3418 -7.42182,0.53829 -11.287,-7.42746 -12.3789,-9.45508 -1.09191,-2.02761 -7.36656,-10.49267 -10.75782,-14.73632 -3.39125,-4.24365 -7.90933,-3.57422 -13.76953,-1.15821 -5.86023,2.41602 -17.35414,7.9196 -26.21093,13.50781 -8.8568,5.58823 -11.53564,10.39426 -10.41993,25.94727 1.11572,15.55302 0.6382,14.27161 -4.53125,22.21094 -5.16941,7.93933 -11.95611,7.52585 -17.16211,6.30273 -5.20599,-1.22312 -10.41208,-1.32927 -14.27343,4.01367 -3.8614,5.34296 -12.5141,19.4594 -18.29688,34.11133 -5.78278,14.65191 -2.6914,12.43413 -0.48047,17.75 2.21093,5.31587 -0.27014,15.91707 -4.13086,27.69922 -3.8607,11.78211 -15.31058,54.37913 -15.52148,104.61328 0,0 -3.94118,53.58823 25.22461,118.56836 29.16578,64.9801 71.31134,94.72064 119.29297,94.36914 47.98159,-0.35149 103.06889,-20.45833 139.53906,-86.18359 36.47017,-65.72527 27.49785,-112.09452 26.00195,-136.95508 -1.49593,-24.8606 -17.60382,-53.70917 -33.08008,-58.375 -15.47621,-4.66586 -62.37661,8.73762 -97.41015,24.70703 -35.0335,15.96938 -51.79114,27.12457 -54.22852,25.00196 -2.43734,-2.12263 3.63441,-37.55129 9.61328,-59.60547 5.97888,-22.05423 20.60857,-43.25826 30.33789,-52.69336 9.7293,-9.43514 11.97272,-2.26702 12.74219,6.37695 0.76951,8.64397 3.25287,23.74092 8.23047,29.55273 4.97764,5.81182 14.35243,5.51697 30.65039,3.82227 16.29797,-1.6947 34.84244,-7.95977 43.90235,-19.70117 9.0599,-11.74141 7.5381,-56.45322 5.61523,-64.15235 -1.92283,-7.69913 -12.34477,-15.11849 -16.36328,-21.44726 -4.01851,-6.32877 -2.92812,-40.20597 -6.34961,-46.70508 -3.42153,-6.49911 -21.58779,-13.87441 -37.40625,-18.51758 -9.88654,-2.90198 -16.02711,-3.95705 -20.04492,-3.87695 z M 425.09375,403.06836 c 21.58431,0.14438 30.52684,37.28623 29.27344,62.32617 -1.25341,25.0399 -13.02421,67.73191 -36.27344,67.34375 -23.2492,-0.38816 -28.72556,-40.82143 -28.02148,-62.37695 0.97918,-29.97796 13.43717,-67.43735 35.02148,-67.29297 z m 0.70117,29.66797 c -6.42376,-0.15462 -16.14137,15.06037 -16.66797,36.80664 -0.5266,21.74627 5.38274,35.74007 12.16211,35.88672 6.77938,0.14661 15.31203,-12.85847 16.53516,-35.07227 1.22309,-22.21376 -5.6055,-37.46651 -12.0293,-37.62109 z m 125.4043,131.5664 c 0,0 3.95502,21.13218 -1.34766,34.98438 -5.30271,13.85219 -20.32752,29.90156 -39.85547,31.19922 -15.06493,1.00108 -31.2954,-21.8274 -31.83398,-38.375 6.36809,-1.60449 19.72625,-4.88582 35.10156,-10.72266 15.37531,-5.83684 37.93555,-17.08594 37.93555,-17.08594 z"
           transform="scale(0.26458333)"
           sodipodi:nodetypes="ssssssssssssssscsssssssssssssssssssssssssssscsscsc" />
        <path
           id="path14958"
           style="opacity:1;fill:none;fill-opacity:1;stroke:#ffffff;stroke-width:11.3386;stroke-linecap:butt;stroke-linejoin:miter;stroke-miterlimit:4;stroke-dasharray:none;stroke-opacity:1"
           d="m 536.92969,270.22461 c -2.41069,0.0481 -4.05615,0.50493 -5.28907,1.21484 -3.28772,1.89312 -7.55614,13.96311 -11.74609,24.45117 -4.18995,10.48807 -13.87701,8.80352 -21.29883,9.3418 -7.42182,0.53829 -11.287,-7.42746 -12.3789,-9.45508 -1.09191,-2.02761 -7.36656,-10.49267 -10.75782,-14.73632 -3.39125,-4.24365 -7.90933,-3.57422 -13.76953,-1.15821 -5.86023,2.41602 -17.35414,7.9196 -26.21093,13.50781 -8.8568,5.58823 -11.53564,10.39426 -10.41993,25.94727 1.11572,15.55302 0.6382,14.27161 -4.53125,22.21094 -5.16941,7.93933 -11.95611,7.52585 -17.16211,6.30273 -5.20599,-1.22312 -10.41208,-1.32927 -14.27343,4.01367 -3.8614,5.34296 -12.5141,19.4594 -18.29688,34.11133 -5.78278,14.65191 -2.6914,12.43413 -0.48047,17.75 2.21093,5.31587 -0.27014,15.91707 -4.13086,27.69922 -3.8607,11.78211 -15.31058,54.37913 -15.52148,104.61328 0,0 -3.94118,53.58823 25.22461,118.56836 60.33425,133.29292 203.19474,87.75519 254.64949,-0.91653 36.47017,-65.72527 25.31364,-112.36693 23.81774,-137.22749 -1.49593,-24.8606 -11.23707,-44.33468 -26.71333,-49.00051 -15.47621,-4.66586 -62.37661,8.73762 -97.41015,24.70703 -35.0335,15.96938 -51.3232,23.58584 -54.22852,25.00196 -13.95443,6.80173 -14.17642,-38.01095 -8.19755,-60.06513 5.97888,-22.05423 40.84637,-63.59662 50.57569,-73.03172 9.7293,-9.43514 10.52848,-8.1788 11.29795,0.46517 0.76951,8.64397 2.27014,50.45072 7.24774,56.26253 4.97764,5.81182 14.44108,-11.55811 30.73904,-13.25281 16.29797,-1.6947 29.39906,-0.65819 38.45897,-12.39959 9.0599,-11.74141 0.8903,-42.90135 -1.03257,-50.60048 -1.92283,-7.69913 -5.12449,-14.80649 -9.143,-21.13526 -4.01851,-6.32877 2.31802,-44.64594 -5.08128,-53.78016 -4.62316,-5.70715 -16.99207,-10.90176 -32.81053,-15.54493 -9.88654,-2.90198 -17.10891,-3.94499 -21.12672,-3.86489 z M 418.86485,390.09527 c 30.98624,0.14438 36.75574,50.25932 35.50234,75.29926 -1.25341,25.0399 -13.02421,67.73191 -36.27344,67.34375 -23.2492,-0.38816 -39.65584,-31.03198 -38.95176,-52.5875 0.97918,-29.97796 18.1383,-90.15608 39.72286,-90.05551 z m 6.93007,42.64106 c -1.63106,-6.21516 -16.14137,15.06037 -16.66797,36.80664 -0.5266,21.74627 6.71675,39.92768 12.16211,35.88672 0,0 8.56203,-10.20727 9.78516,-32.42107 1.22309,-22.21376 -2.02605,-27.87575 -5.2793,-40.27229 z m 125.4043,131.5664 c 0,0 3.95502,21.13218 -1.34766,34.98438 -5.30271,13.85219 -20.32752,29.90156 -39.85547,31.19922 -15.06493,1.00108 -48.30488,-24.11847 -48.84346,-40.66607 6.36809,-1.60449 52.79743,-29.03012 68.17274,-34.86696 15.37531,-5.83684 21.87385,9.34943 21.87385,9.34943 z"
           transform="scale(0.26458333)"
           sodipodi:nodetypes="ssssssssssssssscccssssssssssssssssssssssssscsscsc" />
        <path
           id="path8115"
           style="opacity:1;fill:#ffb800;fill-opacity:1;stroke:none;stroke-width:1.00157;stroke-linecap:butt;stroke-linejoin:miter;stroke-miterlimit:4;stroke-dasharray:none;stroke-opacity:1"
           d="m 536.92969,270.22461 c -2.41069,0.0481 -4.05615,0.50493 -5.28907,1.21484 -3.28772,1.89312 -7.55614,13.96311 -11.74609,24.45117 -4.18995,10.48807 -13.87701,8.80352 -21.29883,9.3418 -7.42182,0.53829 -11.287,-7.42746 -12.3789,-9.45508 -1.09191,-2.02761 -7.36656,-10.49267 -10.75782,-14.73632 -3.39125,-4.24365 -7.90933,-3.57422 -13.76953,-1.15821 -5.86023,2.41602 -17.35414,7.9196 -26.21093,13.50781 -8.8568,5.58823 -11.53564,10.39426 -10.41993,25.94727 1.11572,15.55302 0.6382,14.27161 -4.53125,22.21094 -5.16941,7.93933 -11.95611,7.52585 -17.16211,6.30273 -5.20599,-1.22312 -10.41208,-1.32927 -14.27343,4.01367 -3.8614,5.34296 -12.5141,19.4594 -18.29688,34.11133 -5.78278,14.65191 -2.6914,12.43413 -0.48047,17.75 2.21093,5.31587 -0.27014,15.91707 -4.13086,27.69922 -3.8607,11.78211 -15.31058,54.37913 -15.52148,104.61328 0,0 -3.94118,53.58823 25.22461,118.56836 29.16578,64.9801 71.31134,94.72064 119.29297,94.36914 47.98159,-0.35149 103.06889,-20.45833 139.53906,-86.18359 36.47017,-65.72527 27.49785,-112.09452 26.00195,-136.95508 -1.49593,-24.8606 -17.60382,-53.70917 -33.08008,-58.375 -15.47621,-4.66586 -62.37661,8.73762 -97.41015,24.70703 -35.0335,15.96938 -51.79114,27.12457 -54.22852,25.00196 -2.43734,-2.12263 3.63441,-37.55129 9.61328,-59.60547 5.97888,-22.05423 20.60857,-43.25826 30.33789,-52.69336 9.7293,-9.43514 11.97272,-2.26702 12.74219,6.37695 0.76951,8.64397 3.25287,23.74092 8.23047,29.55273 4.97764,5.81182 14.35243,5.51697 30.65039,3.82227 16.29797,-1.6947 34.84244,-7.95977 43.90235,-19.70117 9.0599,-11.74141 7.5381,-56.45322 5.61523,-64.15235 -1.92283,-7.69913 -12.34477,-15.11849 -16.36328,-21.44726 -4.01851,-6.32877 -2.92812,-40.20597 -6.34961,-46.70508 -3.42153,-6.49911 -21.58779,-13.87441 -37.40625,-18.51758 -9.88654,-2.90198 -16.02711,-3.95705 -20.04492,-3.87695 z M 425.09375,403.06836 c 21.58431,0.14438 30.52684,37.28623 29.27344,62.32617 -1.25341,25.0399 -13.02421,67.73191 -36.27344,67.34375 -23.2492,-0.38816 -28.72556,-40.82143 -28.02148,-62.37695 0.97918,-29.97796 13.43717,-67.43735 35.02148,-67.29297 z m 0.70117,29.66797 c -6.42376,-0.15462 -16.14137,15.06037 -16.66797,36.80664 -0.5266,21.74627 5.38274,35.74007 12.16211,35.88672 6.77938,0.14661 15.31203,-12.85847 16.53516,-35.07227 1.22309,-22.21376 -5.6055,-37.46651 -12.0293,-37.62109 z m 125.4043,131.5664 c 0,0 3.95502,21.13218 -1.34766,34.98438 -5.30271,13.85219 -20.32752,29.90156 -39.85547,31.19922 -15.06493,1.00108 -31.2954,-21.8274 -31.83398,-38.375 6.36809,-1.60449 19.72625,-4.88582 35.10156,-10.72266 15.37531,-5.83684 37.93555,-17.08594 37.93555,-17.08594 z"
           transform="scale(0.26458333)"
           sodipodi:nodetypes="ssssssssssssssscsssssssssssssssssssssssssssscsscsc" />
      </g>
      <g
         id="g8837">
        <g
           aria-label="TODOGODOT"
           id="text20156"
           style="font-weight:900;font-size:32.4556px;line-height:1.25;font-family:Aileron;-inkscape-font-specification:'Aileron, Heavy';white-space:pre;fill:#fffdfd;fill-opacity:1;stroke:#fffffe;stroke-width:1.5875;stroke-miterlimit:4;stroke-dasharray:none;stroke-opacity:0.996078"
           inkscape:label="TextLight"
           transform="translate(0.33038844,1.1877867)">
          <path
             d="m 44.447143,70.998047 -3.949427,-2.246775 -10.07839,17.716003 3.949427,2.246775 3.59484,-6.319084 15.515608,8.826615 2.88871,-5.077835 -15.515607,-8.826615 z"
             id="path20158"
             style="fill:#fffdfd;fill-opacity:1;stroke:#fffffe;stroke-width:1.5875;stroke-miterlimit:4;stroke-dasharray:none;stroke-opacity:0.996078" />
          <path
             d="m 51.811988,55.093837 c -4.816262,5.049303 -4.690168,11.359218 0.52353,16.332289 5.190214,4.95067 11.52253,4.801091 16.338793,-0.248212 4.816263,-5.049302 4.666683,-11.381619 -0.52353,-16.332289 -5.213699,-4.973071 -11.52253,-4.801091 -16.338793,0.248212 z m 13.762286,13.127116 c -2.329727,2.442453 -5.688102,2.154488 -9.116931,-1.11609 -3.452314,-3.29298 -3.875045,-6.611611 -1.545318,-9.054065 2.329727,-2.442453 5.664617,-2.176889 9.116931,1.116091 3.428829,3.270578 3.875045,6.611611 1.545318,9.054064 z"
             id="path20160"
             style="fill:#fffdfd;fill-opacity:1;stroke:#fffffe;stroke-width:1.5875;stroke-miterlimit:4;stroke-dasharray:none;stroke-opacity:0.996078" />
          <path
             d="m 77.53628,35.640157 c -1.040804,0.47324 -1.486059,0.740464 -2.515714,1.358421 l -7.263236,4.359099 11.524056,19.201659 7.263236,-4.3591 c 1.029655,-0.617956 1.47491,-0.885181 2.382102,-1.581048 4.151931,-3.173158 5.887914,-8.605865 2.280383,-14.616819 -3.60753,-6.010954 -8.917641,-6.533544 -13.670827,-4.362212 z m 7.749865,15.940372 c -0.606652,0.439793 -1.051908,0.707017 -1.775449,1.141257 L 81.9523,53.657072 75.104673,42.24739 76.663068,41.312105 c 0.723541,-0.43424 1.168797,-0.701465 1.842255,-1.029943 2.638177,-1.28051 5.465844,-0.479324 7.520133,2.94358 2.054288,3.422905 1.631641,6.629022 -0.739311,8.354787 z"
             id="path20162"
             style="fill:#fffdfd;fill-opacity:1;stroke:#fffffe;stroke-width:1.5875;stroke-miterlimit:4;stroke-dasharray:none;stroke-opacity:0.996078" />
          <path
             d="m 104.53592,23.681154 c -6.717665,1.888056 -9.826386,7.380486 -7.876859,14.316871 1.940746,6.90514 7.464419,10.005078 14.182089,8.117023 6.71767,-1.888056 9.81761,-7.411731 7.87687,-14.316871 -1.94953,-6.936384 -7.46443,-10.005078 -14.1821,-8.117023 z m 5.14605,18.309557 c -3.24947,0.913292 -5.99171,-1.046744 -7.27383,-5.608511 -1.29091,-4.593011 0.0375,-7.663417 3.28696,-8.576709 3.24948,-0.913292 5.98294,1.015499 7.27384,5.608511 1.28212,4.561766 -0.0375,7.663417 -3.28697,8.576709 z"
             id="path20164"
             style="fill:#fffdfd;fill-opacity:1;stroke:#fffffe;stroke-width:1.5875;stroke-miterlimit:4;stroke-dasharray:none;stroke-opacity:0.996078" />
          <path
             d="m 136.00203,30.362948 0.02,4.54374 4.349,-0.01917 c -0.8005,2.470178 -2.28858,3.580239 -4.56045,3.590255 -2.7587,0.01216 -5.20129,-1.891971 -5.22619,-7.53919 -0.0213,-4.835838 2.33762,-7.183063 5.19369,-7.195653 2.36923,-0.01044 3.83473,1.119052 4.33214,3.518597 l 0.0663,0.324267 5.84195,-0.02575 -0.0339,-0.32441 c -0.47383,-4.411915 -3.76684,-7.80527 -10.16053,-7.777085 -6.13405,0.02704 -11.37406,4.074674 -11.33973,11.863942 0.0332,7.529627 4.23738,11.470715 10.20916,11.44439 2.36923,-0.01045 3.89306,-0.374177 5.15409,-1.450781 l 0.96279,-2.470894 0.5669,3.437828 4.54374,-0.02003 -0.0526,-11.943545 z"
             id="path20166"
             style="fill:#fffdfd;fill-opacity:1;stroke:#fffffe;stroke-width:1.5875;stroke-miterlimit:4;stroke-dasharray:none;stroke-opacity:0.996078" />
          <path
             d="m 166.33319,23.654062 c -6.73167,-1.837497 -12.22334,1.272573 -14.12066,8.223419 -1.88878,6.919536 1.2526,12.419748 7.98428,14.257245 6.73167,1.837496 12.23189,-1.303884 14.12066,-8.223419 1.89732,-6.950846 -1.2526,-12.419749 -7.98428,-14.257245 z m -5.00824,18.347728 c -3.25626,-0.888835 -4.59915,-3.980477 -3.35136,-8.551754 1.25634,-4.602587 3.97521,-6.551874 7.23147,-5.663039 3.25625,0.888836 4.60769,3.949167 3.35135,8.551754 -1.24779,4.571277 -3.97521,6.551875 -7.23146,5.663039 z"
             id="path20168"
             style="fill:#fffdfd;fill-opacity:1;stroke:#fffffe;stroke-width:1.5875;stroke-miterlimit:4;stroke-dasharray:none;stroke-opacity:0.996078" />
          <path
             d="m 195.64634,36.974643 c -0.91282,-0.688462 -1.36024,-0.952055 -2.39489,-1.561613 l -7.29847,-4.299852 -11.36742,19.294796 7.29846,4.299853 c 1.03465,0.609558 1.48207,0.87315 2.52669,1.337905 4.7707,2.132582 10.37292,1.063458 13.93142,-4.976653 3.5585,-6.04011 1.48182,-10.955168 -2.69579,-14.094436 z m -10.30439,14.421352 c -0.67611,-0.322987 -1.12353,-0.58658 -1.85058,-1.014918 l -1.56595,-0.922573 6.75456,-11.465024 1.56595,0.922573 c 0.72705,0.428338 1.17447,0.691931 1.78468,1.126772 2.38491,1.706416 3.03133,4.573426 1.00496,8.012933 -2.02637,3.439507 -5.04511,4.599237 -7.69362,3.340237 z"
             id="path20170"
             style="fill:#fffdfd;fill-opacity:1;stroke:#fffffe;stroke-width:1.5875;stroke-miterlimit:4;stroke-dasharray:none;stroke-opacity:0.996078" />
          <path
             d="m 218.98348,54.947414 c -4.88277,-4.985025 -11.19332,-5.073373 -16.34065,-0.03164 -5.12414,5.019026 -5.18978,11.352769 -0.30702,16.337794 4.88277,4.985024 11.21651,5.050662 16.34065,0.03164 5.14733,-5.041736 5.18978,-11.352769 0.30702,-16.337794 z m -13.58709,13.308367 c -2.3619,-2.41136 -1.96,-5.758013 1.42518,-9.07375 3.40836,-3.338447 6.73944,-3.648189 9.10133,-1.236828 2.3619,2.411361 1.98319,5.735303 -1.42518,9.07375 -3.38518,3.315737 -6.73944,3.648189 -9.10133,1.236828 z"
             id="path20172"
             style="fill:#fffdfd;fill-opacity:1;stroke:#fffffe;stroke-width:1.5875;stroke-miterlimit:4;stroke-dasharray:none;stroke-opacity:0.996078" />
          <path
             d="m 236.41468,88.149759 3.91414,-2.307716 -10.35176,-17.557673 -3.91413,2.307716 3.69235,6.262609 -15.37695,9.066028 2.96707,5.032454 15.37694,-9.066028 z"
             id="path20174"
             style="fill:#fffdfd;fill-opacity:1;stroke:#fffffe;stroke-width:1.5875;stroke-miterlimit:4;stroke-dasharray:none;stroke-opacity:0.996078" />
        </g>
        <g
           aria-label="TODOGODOT"
           id="g20938"
           style="font-weight:900;font-size:32.4556px;line-height:1.25;font-family:Aileron;-inkscape-font-specification:'Aileron, Heavy';white-space:pre;opacity:1;fill:#ae7900;fill-opacity:1;stroke:#a67700;stroke-width:1.5875;stroke-miterlimit:4;stroke-dasharray:none;stroke-opacity:1"
           inkscape:label="TextDark"
           transform="translate(-0.29916002,-0.81636367)">
          <path
             d="m 44.447143,70.998047 -3.949427,-2.246775 -10.07839,17.716003 3.949427,2.246775 3.59484,-6.319084 15.515608,8.826615 2.88871,-5.077835 -15.515607,-8.826615 z"
             id="path20920"
             style="fill:#ae7900;fill-opacity:1;stroke:#a67700;stroke-width:1.5875;stroke-miterlimit:4;stroke-dasharray:none;stroke-opacity:1" />
          <path
             d="m 51.811988,55.093837 c -4.816262,5.049303 -4.690168,11.359218 0.52353,16.332289 5.190214,4.95067 11.52253,4.801091 16.338793,-0.248212 4.816263,-5.049302 4.666683,-11.381619 -0.52353,-16.332289 -5.213699,-4.973071 -11.52253,-4.801091 -16.338793,0.248212 z m 13.762286,13.127116 c -2.329727,2.442453 -5.688102,2.154488 -9.116931,-1.11609 -3.452314,-3.29298 -3.875045,-6.611611 -1.545318,-9.054065 2.329727,-2.442453 5.664617,-2.176889 9.116931,1.116091 3.428829,3.270578 3.875045,6.611611 1.545318,9.054064 z"
             id="path20922"
             style="fill:#ae7900;fill-opacity:1;stroke:#a67700;stroke-width:1.5875;stroke-miterlimit:4;stroke-dasharray:none;stroke-opacity:1" />
          <path
             d="m 77.53628,35.640157 c -1.040804,0.47324 -1.486059,0.740464 -2.515714,1.358421 l -7.263236,4.359099 11.524056,19.201659 7.263236,-4.3591 c 1.029655,-0.617956 1.47491,-0.885181 2.382102,-1.581048 4.151931,-3.173158 5.887914,-8.605865 2.280383,-14.616819 -3.60753,-6.010954 -8.917641,-6.533544 -13.670827,-4.362212 z m 7.749865,15.940372 c -0.606652,0.439793 -1.051908,0.707017 -1.775449,1.141257 L 81.9523,53.657072 75.104673,42.24739 76.663068,41.312105 c 0.723541,-0.43424 1.168797,-0.701465 1.842255,-1.029943 2.638177,-1.28051 5.465844,-0.479324 7.520133,2.94358 2.054288,3.422905 1.631641,6.629022 -0.739311,8.354787 z"
             id="path20924"
             style="fill:#ae7900;fill-opacity:1;stroke:#a67700;stroke-width:1.5875;stroke-miterlimit:4;stroke-dasharray:none;stroke-opacity:1" />
          <path
             d="m 104.53592,23.681154 c -6.717665,1.888056 -9.826386,7.380486 -7.876859,14.316871 1.940746,6.90514 7.464419,10.005078 14.182089,8.117023 6.71767,-1.888056 9.81761,-7.411731 7.87687,-14.316871 -1.94953,-6.936384 -7.46443,-10.005078 -14.1821,-8.117023 z m 5.14605,18.309557 c -3.24947,0.913292 -5.99171,-1.046744 -7.27383,-5.608511 -1.29091,-4.593011 0.0375,-7.663417 3.28696,-8.576709 3.24948,-0.913292 5.98294,1.015499 7.27384,5.608511 1.28212,4.561766 -0.0375,7.663417 -3.28697,8.576709 z"
             id="path20926"
             style="fill:#ae7900;fill-opacity:1;stroke:#a67700;stroke-width:1.5875;stroke-miterlimit:4;stroke-dasharray:none;stroke-opacity:1" />
          <path
             d="m 136.00203,30.362948 0.02,4.54374 4.349,-0.01917 c -0.8005,2.470178 -2.28858,3.580239 -4.56045,3.590255 -2.7587,0.01216 -5.20129,-1.891971 -5.22619,-7.53919 -0.0213,-4.835838 2.33762,-7.183063 5.19369,-7.195653 2.36923,-0.01044 3.83473,1.119052 4.33214,3.518597 l 0.0663,0.324267 5.84195,-0.02575 -0.0339,-0.32441 c -0.47383,-4.411915 -3.76684,-7.80527 -10.16053,-7.777085 -6.13405,0.02704 -11.37406,4.074674 -11.33973,11.863942 0.0332,7.529627 4.23738,11.470715 10.20916,11.44439 2.36923,-0.01045 3.89306,-0.374177 5.15409,-1.450781 l 0.96279,-2.470894 0.5669,3.437828 4.54374,-0.02003 -0.0526,-11.943545 z"
             id="path20928"
             style="fill:#ae7900;fill-opacity:1;stroke:#a67700;stroke-width:1.5875;stroke-miterlimit:4;stroke-dasharray:none;stroke-opacity:1" />
          <path
             d="m 166.33319,23.654062 c -6.73167,-1.837497 -12.22334,1.272573 -14.12066,8.223419 -1.88878,6.919536 1.2526,12.419748 7.98428,14.257245 6.73167,1.837496 12.23189,-1.303884 14.12066,-8.223419 1.89732,-6.950846 -1.2526,-12.419749 -7.98428,-14.257245 z m -5.00824,18.347728 c -3.25626,-0.888835 -4.59915,-3.980477 -3.35136,-8.551754 1.25634,-4.602587 3.97521,-6.551874 7.23147,-5.663039 3.25625,0.888836 4.60769,3.949167 3.35135,8.551754 -1.24779,4.571277 -3.97521,6.551875 -7.23146,5.663039 z"
             id="path20930"
             style="fill:#ae7900;fill-opacity:1;stroke:#a67700;stroke-width:1.5875;stroke-miterlimit:4;stroke-dasharray:none;stroke-opacity:1" />
          <path
             d="m 195.64634,36.974643 c -0.91282,-0.688462 -1.36024,-0.952055 -2.39489,-1.561613 l -7.29847,-4.299852 -11.36742,19.294796 7.29846,4.299853 c 1.03465,0.609558 1.48207,0.87315 2.52669,1.337905 4.7707,2.132582 10.37292,1.063458 13.93142,-4.976653 3.5585,-6.04011 1.48182,-10.955168 -2.69579,-14.094436 z m -10.30439,14.421352 c -0.67611,-0.322987 -1.12353,-0.58658 -1.85058,-1.014918 l -1.56595,-0.922573 6.75456,-11.465024 1.56595,0.922573 c 0.72705,0.428338 1.17447,0.691931 1.78468,1.126772 2.38491,1.706416 3.03133,4.573426 1.00496,8.012933 -2.02637,3.439507 -5.04511,4.599237 -7.69362,3.340237 z"
             id="path20932"
             style="fill:#ae7900;fill-opacity:1;stroke:#a67700;stroke-width:1.5875;stroke-miterlimit:4;stroke-dasharray:none;stroke-opacity:1" />
          <path
             d="m 218.98348,54.947414 c -4.88277,-4.985025 -11.19332,-5.073373 -16.34065,-0.03164 -5.12414,5.019026 -5.18978,11.352769 -0.30702,16.337794 4.88277,4.985024 11.21651,5.050662 16.34065,0.03164 5.14733,-5.041736 5.18978,-11.352769 0.30702,-16.337794 z m -13.58709,13.308367 c -2.3619,-2.41136 -1.96,-5.758013 1.42518,-9.07375 3.40836,-3.338447 6.73944,-3.648189 9.10133,-1.236828 2.3619,2.411361 1.98319,5.735303 -1.42518,9.07375 -3.38518,3.315737 -6.73944,3.648189 -9.10133,1.236828 z"
             id="path20934"
             style="fill:#ae7900;fill-opacity:1;stroke:#a67700;stroke-width:1.5875;stroke-miterlimit:4;stroke-dasharray:none;stroke-opacity:1" />
          <path
             d="m 236.41468,88.149759 3.91414,-2.307716 -10.35176,-17.557673 -3.91413,2.307716 3.69235,6.262609 -15.37695,9.066028 2.96707,5.032454 15.37694,-9.066028 z"
             id="path20936"
             style="fill:#ae7900;fill-opacity:1;stroke:#a67700;stroke-width:1.5875;stroke-miterlimit:4;stroke-dasharray:none;stroke-opacity:1" />
        </g>
        <g
           aria-label="TODOGODOT"
           id="text4175"
           style="font-weight:900;font-size:32.4556px;line-height:1.25;font-family:Aileron;-inkscape-font-specification:'Aileron, Heavy';white-space:pre;fill:#e5a400;stroke-width:0.264583"
           inkscape:label="Text">
          <path
             d="m 44.447143,70.998047 -3.949427,-2.246775 -10.07839,17.716003 3.949427,2.246775 3.59484,-6.319084 15.515608,8.826615 2.88871,-5.077835 -15.515607,-8.826615 z"
             id="path8782" />
          <path
             d="m 51.811988,55.093837 c -4.816262,5.049303 -4.690168,11.359218 0.52353,16.332289 5.190214,4.95067 11.52253,4.801091 16.338793,-0.248212 4.816263,-5.049302 4.666683,-11.381619 -0.52353,-16.332289 -5.213699,-4.973071 -11.52253,-4.801091 -16.338793,0.248212 z m 13.762286,13.127116 c -2.329727,2.442453 -5.688102,2.154488 -9.116931,-1.11609 -3.452314,-3.29298 -3.875045,-6.611611 -1.545318,-9.054065 2.329727,-2.442453 5.664617,-2.176889 9.116931,1.116091 3.428829,3.270578 3.875045,6.611611 1.545318,9.054064 z"
             id="path8784" />
          <path
             d="m 77.53628,35.640157 c -1.040804,0.47324 -1.486059,0.740464 -2.515714,1.358421 l -7.263236,4.359099 11.524056,19.201659 7.263236,-4.3591 c 1.029655,-0.617956 1.47491,-0.885181 2.382102,-1.581048 4.151931,-3.173158 5.887914,-8.605865 2.280383,-14.616819 -3.60753,-6.010954 -8.917641,-6.533544 -13.670827,-4.362212 z m 7.749865,15.940372 c -0.606652,0.439793 -1.051908,0.707017 -1.775449,1.141257 L 81.9523,53.657072 75.104673,42.24739 76.663068,41.312105 c 0.723541,-0.43424 1.168797,-0.701465 1.842255,-1.029943 2.638177,-1.28051 5.465844,-0.479324 7.520133,2.94358 2.054288,3.422905 1.631641,6.629022 -0.739311,8.354787 z"
             id="path8786" />
          <path
             d="m 104.53592,23.681154 c -6.717665,1.888056 -9.826386,7.380486 -7.876859,14.316871 1.940746,6.90514 7.464419,10.005078 14.182089,8.117023 6.71767,-1.888056 9.81761,-7.411731 7.87687,-14.316871 -1.94953,-6.936384 -7.46443,-10.005078 -14.1821,-8.117023 z m 5.14605,18.309557 c -3.24947,0.913292 -5.99171,-1.046744 -7.27383,-5.608511 -1.29091,-4.593011 0.0375,-7.663417 3.28696,-8.576709 3.24948,-0.913292 5.98294,1.015499 7.27384,5.608511 1.28212,4.561766 -0.0375,7.663417 -3.28697,8.576709 z"
             id="path8788" />
          <path
             d="m 136.00203,30.362948 0.02,4.54374 4.349,-0.01917 c -0.8005,2.470178 -2.28858,3.580239 -4.56045,3.590255 -2.7587,0.01216 -5.20129,-1.891971 -5.22619,-7.53919 -0.0213,-4.835838 2.33762,-7.183063 5.19369,-7.195653 2.36923,-0.01044 3.83473,1.119052 4.33214,3.518597 l 0.0663,0.324267 5.84195,-0.02575 -0.0339,-0.32441 c -0.47383,-4.411915 -3.76684,-7.80527 -10.16053,-7.777085 -6.13405,0.02704 -11.37406,4.074674 -11.33973,11.863942 0.0332,7.529627 4.23738,11.470715 10.20916,11.44439 2.36923,-0.01045 3.89306,-0.374177 5.15409,-1.450781 l 0.96279,-2.470894 0.5669,3.437828 4.54374,-0.02003 -0.0526,-11.943545 z"
             id="path8790" />
          <path
             d="m 166.33319,23.654062 c -6.73167,-1.837497 -12.22334,1.272573 -14.12066,8.223419 -1.88878,6.919536 1.2526,12.419748 7.98428,14.257245 6.73167,1.837496 12.23189,-1.303884 14.12066,-8.223419 1.89732,-6.950846 -1.2526,-12.419749 -7.98428,-14.257245 z m -5.00824,18.347728 c -3.25626,-0.888835 -4.59915,-3.980477 -3.35136,-8.551754 1.25634,-4.602587 3.97521,-6.551874 7.23147,-5.663039 3.25625,0.888836 4.60769,3.949167 3.35135,8.551754 -1.24779,4.571277 -3.97521,6.551875 -7.23146,5.663039 z"
             id="path8792" />
          <path
             d="m 195.64634,36.974643 c -0.91282,-0.688462 -1.36024,-0.952055 -2.39489,-1.561613 l -7.29847,-4.299852 -11.36742,19.294796 7.29846,4.299853 c 1.03465,0.609558 1.48207,0.87315 2.52669,1.337905 4.7707,2.132582 10.37292,1.063458 13.93142,-4.976653 3.5585,-6.04011 1.48182,-10.955168 -2.69579,-14.094436 z m -10.30439,14.421352 c -0.67611,-0.322987 -1.12353,-0.58658 -1.85058,-1.014918 l -1.56595,-0.922573 6.75456,-11.465024 1.56595,0.922573 c 0.72705,0.428338 1.17447,0.691931 1.78468,1.126772 2.38491,1.706416 3.03133,4.573426 1.00496,8.012933 -2.02637,3.439507 -5.04511,4.599237 -7.69362,3.340237 z"
             id="path8794" />
          <path
             d="m 218.98348,54.947414 c -4.88277,-4.985025 -11.19332,-5.073373 -16.34065,-0.03164 -5.12414,5.019026 -5.18978,11.352769 -0.30702,16.337794 4.88277,4.985024 11.21651,5.050662 16.34065,0.03164 5.14733,-5.041736 5.18978,-11.352769 0.30702,-16.337794 z m -13.58709,13.308367 c -2.3619,-2.41136 -1.96,-5.758013 1.42518,-9.07375 3.40836,-3.338447 6.73944,-3.648189 9.10133,-1.236828 2.3619,2.411361 1.98319,5.735303 -1.42518,9.07375 -3.38518,3.315737 -6.73944,3.648189 -9.10133,1.236828 z"
             id="path8796" />
          <path
             d="m 236.41468,88.149759 3.91414,-2.307716 -10.35176,-17.557673 -3.91413,2.307716 3.69235,6.262609 -15.37695,9.066028 2.96707,5.032454 15.37694,-9.066028 z"
             id="path8798" />
        </g>
      </g>
      <g
         id="g8845">
        <g
           aria-label="TODOGODOT"
           id="text26857"
           style="font-weight:900;font-size:32.4556px;line-height:1.25;font-family:Aileron;-inkscape-font-specification:'Aileron, Heavy';white-space:pre;fill:#fffdfd;fill-opacity:1;stroke:#fffffe;stroke-width:1.5875;stroke-miterlimit:4;stroke-dasharray:none;stroke-opacity:0.996078"
           inkscape:label="TextLight"
           transform="translate(-0.12421741,1.1954259)">
          <path
             d="m 226.25341,200.26266 3.94131,2.26099 10.14213,-17.67959 -3.94131,-2.26099 -3.61757,6.3061 -15.48372,-8.88244 -2.90698,5.0674 15.48372,8.88244 z"
             id="path26859"
             style="fill:#fffdfd;fill-opacity:1;stroke:#fffffe;stroke-width:1.5875;stroke-miterlimit:4;stroke-dasharray:none;stroke-opacity:0.996078" />
          <path
             d="m 218.83133,216.14024 c 4.83441,-5.03192 4.73105,-11.34225 -0.46471,-16.33407 -5.17235,-4.96933 -11.50516,-4.84255 -16.33958,0.18937 -4.83442,5.03193 -4.70764,11.36474 0.46471,16.33407 5.19575,4.99182 11.50516,4.84256 16.33958,-0.18937 z m -13.71492,-13.17659 c 2.33851,-2.43405 5.69582,-2.13399 9.11285,1.14892 3.44043,3.30539 3.85121,6.62552 1.5127,9.05957 -2.33851,2.43404 -5.67242,2.15647 -9.11285,-1.14892 -3.41703,-3.28291 -3.85121,-6.62553 -1.5127,-9.05957 z"
             id="path26861"
             style="fill:#fffdfd;fill-opacity:1;stroke:#fffffe;stroke-width:1.5875;stroke-miterlimit:4;stroke-dasharray:none;stroke-opacity:0.996078" />
          <path
             d="m 193.03714,235.50116 c 1.0425,-0.46949 1.48872,-0.73511 2.52059,-1.34936 l 7.27889,-4.33291 -11.45483,-19.24304 -7.27889,4.33292 c -1.03187,0.61424 -1.47808,0.87986 -2.38778,1.57246 -4.16333,3.15818 -5.91886,8.5846 -2.33301,14.60851 3.58586,6.0239 8.89406,6.56561 13.65503,4.41142 z m -7.6924,-15.96818 c 0.60823,-0.43761 1.05444,-0.70323 1.77954,-1.13486 l 1.56176,-0.92967 6.80649,11.43427 -1.56175,0.92967 c -0.7251,0.43163 -1.17132,0.69725 -1.84596,1.0233 -2.64277,1.271 -5.46753,0.45964 -7.50948,-2.97064 -2.04195,-3.43028 -1.60776,-6.63486 0.7694,-8.35207 z"
             id="path26863"
             style="fill:#fffdfd;fill-opacity:1;stroke:#fffffe;stroke-width:1.5875;stroke-miterlimit:4;stroke-dasharray:none;stroke-opacity:0.996078" />
          <path
             d="m 165.99461,247.36285 c 6.72442,-1.86385 9.8529,-7.34505 7.92837,-14.28841 -1.91586,-6.91209 -7.42834,-10.0319 -14.15276,-8.16805 -6.72443,1.86385 -9.84424,7.37632 -7.92838,14.28841 1.92453,6.94336 7.42834,10.03189 14.15277,8.16805 z m -5.08008,-18.32798 c 3.25275,-0.90158 5.98791,1.06832 7.25359,5.63467 1.27436,4.59764 -0.0651,7.66324 -3.31783,8.56482 -3.25275,0.90158 -5.97924,-1.03704 -7.25359,-5.63467 -1.26568,-4.56636 0.0651,-7.66323 3.31783,-8.56482 z"
             id="path26865"
             style="fill:#fffdfd;fill-opacity:1;stroke:#fffffe;stroke-width:1.5875;stroke-miterlimit:4;stroke-dasharray:none;stroke-opacity:0.996078" />
          <path
             d="m 134.55277,240.56777 -0.004,-4.54378 -4.34905,0.004 c 0.8094,-2.46728 2.30147,-3.57198 4.57336,-3.57381 2.75872,-0.002 5.19444,1.91069 5.19899,7.55796 0.004,4.83588 -2.36347,7.1746 -5.21956,7.1769 -2.36926,0.002 -3.83068,-1.13285 -4.31945,-3.53417 l -0.0652,-0.32451 -5.84201,0.005 0.0327,0.32453 c 0.45794,4.4136 3.7387,7.81879 10.13245,7.81363 6.13411,-0.005 11.38867,-4.03368 11.38238,-11.82302 -0.006,-7.5297 -4.19604,-11.4859 -10.16786,-11.48109 -2.36926,0.002 -3.89439,0.36016 -5.15929,1.43221 l -0.97168,2.46741 -0.55452,-3.43984 -4.54378,0.004 0.01,11.94366 z"
             id="path26867"
             style="fill:#fffdfd;fill-opacity:1;stroke:#fffffe;stroke-width:1.5875;stroke-miterlimit:4;stroke-dasharray:none;stroke-opacity:0.996078" />
          <path
             d="m 104.19763,247.16737 c 6.72502,1.86173 12.22785,-1.22854 14.15019,-8.17251 1.91369,-6.91269 -1.20786,-12.42418 -7.93288,-14.28591 -6.72501,-1.86173 -12.2365,1.25982 -14.150185,8.17251 -1.922344,6.94397 1.207865,12.42418 7.932875,14.28591 z m 5.0743,-18.32957 c 3.25303,0.90056 4.58478,3.99701 3.32053,8.56377 -1.2729,4.59803 -3.99878,6.53751 -7.25181,5.63695 -3.25303,-0.90055 -4.59344,-3.96573 -3.32053,-8.56377 1.26424,-4.56675 3.99878,-6.53751 7.25181,-5.63695 z"
             id="path26869"
             style="fill:#fffdfd;fill-opacity:1;stroke:#fffffe;stroke-width:1.5875;stroke-miterlimit:4;stroke-dasharray:none;stroke-opacity:0.996078" />
          <path
             d="m 74.932662,233.7413 c 0.910338,0.69174 1.356801,0.95695 2.389247,1.57023 l 7.282934,4.32611 11.436842,-19.25374 -7.282933,-4.32611 c -1.032447,-0.61328 -1.47891,-0.87848 -2.521849,-1.34699 -4.762986,-2.14975 -10.369024,-1.10081 -13.949253,4.92645 -3.580229,6.02725 -1.52127,10.94976 2.645012,14.10405 z m 10.356263,-14.38415 c 0.674941,0.32542 1.121404,0.59062 1.846907,1.02158 l 1.562622,0.9282 -6.795805,11.44063 -1.562622,-0.92821 c -0.725503,-0.43095 -1.171966,-0.69616 -1.780607,-1.13319 -2.378755,-1.71499 -3.014842,-4.58431 -0.9761,-8.0165 2.038741,-3.43219 5.061647,-4.58104 7.705605,-3.31251 z"
             id="path26871"
             style="fill:#fffdfd;fill-opacity:1;stroke:#fffffe;stroke-width:1.5875;stroke-miterlimit:4;stroke-dasharray:none;stroke-opacity:0.996078" />
          <path
             d="m 51.660398,215.6846 c 4.864777,5.00258 11.174974,5.11366 16.340427,0.0905 5.142185,-5.00054 5.230634,-11.334 0.365856,-16.33658 -4.864777,-5.00258 -11.198242,-5.09103 -16.340427,-0.0905 -5.165452,5.02317 -5.230633,11.334 -0.365856,16.33658 z m 13.634933,-13.25934 c 2.353195,2.41985 1.939249,5.76503 -1.45785,9.06855 -3.420367,3.32615 -6.752538,3.6239 -9.105733,1.20404 -2.353195,-2.41985 -1.962517,-5.7424 1.45785,-9.06855 3.3971,-3.30353 6.752539,-3.6239 9.105733,-1.20404 z"
             id="path26873"
             style="fill:#fffdfd;fill-opacity:1;stroke:#fffffe;stroke-width:1.5875;stroke-miterlimit:4;stroke-dasharray:none;stroke-opacity:0.996078" />
          <path
             d="m 34.348886,182.41969 -3.922416,2.2936 10.288455,17.59484 3.922416,-2.2936 -3.669767,-6.27587 15.409494,-9.01059 -2.94892,-5.04311 -15.409494,9.01059 z"
             id="path26875"
             style="fill:#fffdfd;fill-opacity:1;stroke:#fffffe;stroke-width:1.5875;stroke-miterlimit:4;stroke-dasharray:none;stroke-opacity:0.996078" />
        </g>
        <g
           aria-label="TODOGODOT"
           id="g3248"
           style="font-weight:900;font-size:32.4556px;line-height:1.25;font-family:Aileron;-inkscape-font-specification:'Aileron, Heavy';white-space:pre;opacity:1;fill:#a67700;fill-opacity:1;stroke:#a67700;stroke-width:1.5875;stroke-miterlimit:4;stroke-dasharray:none;stroke-opacity:1"
           inkscape:label="TextDark"
           transform="translate(0.43619557,-0.84778851)">
          <path
             d="m 226.25341,200.26266 3.94131,2.26099 10.14213,-17.67959 -3.94131,-2.26099 -3.61757,6.3061 -15.48372,-8.88244 -2.90698,5.0674 15.48372,8.88244 z"
             id="path3230"
             style="fill:#a67700;fill-opacity:1;stroke:#a67700;stroke-width:1.5875;stroke-miterlimit:4;stroke-dasharray:none;stroke-opacity:1" />
          <path
             d="m 218.83133,216.14024 c 4.83441,-5.03192 4.73105,-11.34225 -0.46471,-16.33407 -5.17235,-4.96933 -11.50516,-4.84255 -16.33958,0.18937 -4.83442,5.03193 -4.70764,11.36474 0.46471,16.33407 5.19575,4.99182 11.50516,4.84256 16.33958,-0.18937 z m -13.71492,-13.17659 c 2.33851,-2.43405 5.69582,-2.13399 9.11285,1.14892 3.44043,3.30539 3.85121,6.62552 1.5127,9.05957 -2.33851,2.43404 -5.67242,2.15647 -9.11285,-1.14892 -3.41703,-3.28291 -3.85121,-6.62553 -1.5127,-9.05957 z"
             id="path3232"
             style="fill:#a67700;fill-opacity:1;stroke:#a67700;stroke-width:1.5875;stroke-miterlimit:4;stroke-dasharray:none;stroke-opacity:1" />
          <path
             d="m 193.03714,235.50116 c 1.0425,-0.46949 1.48872,-0.73511 2.52059,-1.34936 l 7.27889,-4.33291 -11.45483,-19.24304 -7.27889,4.33292 c -1.03187,0.61424 -1.47808,0.87986 -2.38778,1.57246 -4.16333,3.15818 -5.91886,8.5846 -2.33301,14.60851 3.58586,6.0239 8.89406,6.56561 13.65503,4.41142 z m -7.6924,-15.96818 c 0.60823,-0.43761 1.05444,-0.70323 1.77954,-1.13486 l 1.56176,-0.92967 6.80649,11.43427 -1.56175,0.92967 c -0.7251,0.43163 -1.17132,0.69725 -1.84596,1.0233 -2.64277,1.271 -5.46753,0.45964 -7.50948,-2.97064 -2.04195,-3.43028 -1.60776,-6.63486 0.7694,-8.35207 z"
             id="path3234"
             style="fill:#a67700;fill-opacity:1;stroke:#a67700;stroke-width:1.5875;stroke-miterlimit:4;stroke-dasharray:none;stroke-opacity:1" />
          <path
             d="m 165.99461,247.36285 c 6.72442,-1.86385 9.8529,-7.34505 7.92837,-14.28841 -1.91586,-6.91209 -7.42834,-10.0319 -14.15276,-8.16805 -6.72443,1.86385 -9.84424,7.37632 -7.92838,14.28841 1.92453,6.94336 7.42834,10.03189 14.15277,8.16805 z m -5.08008,-18.32798 c 3.25275,-0.90158 5.98791,1.06832 7.25359,5.63467 1.27436,4.59764 -0.0651,7.66324 -3.31783,8.56482 -3.25275,0.90158 -5.97924,-1.03704 -7.25359,-5.63467 -1.26568,-4.56636 0.0651,-7.66323 3.31783,-8.56482 z"
             id="path3236"
             style="fill:#a67700;fill-opacity:1;stroke:#a67700;stroke-width:1.5875;stroke-miterlimit:4;stroke-dasharray:none;stroke-opacity:1" />
          <path
             d="m 134.55277,240.56777 -0.004,-4.54378 -4.34905,0.004 c 0.8094,-2.46728 2.30147,-3.57198 4.57336,-3.57381 2.75872,-0.002 5.19444,1.91069 5.19899,7.55796 0.004,4.83588 -2.36347,7.1746 -5.21956,7.1769 -2.36926,0.002 -3.83068,-1.13285 -4.31945,-3.53417 l -0.0652,-0.32451 -5.84201,0.005 0.0327,0.32453 c 0.45794,4.4136 3.7387,7.81879 10.13245,7.81363 6.13411,-0.005 11.38867,-4.03368 11.38238,-11.82302 -0.006,-7.5297 -4.19604,-11.4859 -10.16786,-11.48109 -2.36926,0.002 -3.89439,0.36016 -5.15929,1.43221 l -0.97168,2.46741 -0.55452,-3.43984 -4.54378,0.004 0.01,11.94366 z"
             id="path3238"
             style="fill:#a67700;fill-opacity:1;stroke:#a67700;stroke-width:1.5875;stroke-miterlimit:4;stroke-dasharray:none;stroke-opacity:1" />
          <path
             d="m 104.19763,247.16737 c 6.72502,1.86173 12.22785,-1.22854 14.15019,-8.17251 1.91369,-6.91269 -1.20786,-12.42418 -7.93288,-14.28591 -6.72501,-1.86173 -12.2365,1.25982 -14.150185,8.17251 -1.922344,6.94397 1.207865,12.42418 7.932875,14.28591 z m 5.0743,-18.32957 c 3.25303,0.90056 4.58478,3.99701 3.32053,8.56377 -1.2729,4.59803 -3.99878,6.53751 -7.25181,5.63695 -3.25303,-0.90055 -4.59344,-3.96573 -3.32053,-8.56377 1.26424,-4.56675 3.99878,-6.53751 7.25181,-5.63695 z"
             id="path3240"
             style="fill:#a67700;fill-opacity:1;stroke:#a67700;stroke-width:1.5875;stroke-miterlimit:4;stroke-dasharray:none;stroke-opacity:1" />
          <path
             d="m 74.932662,233.7413 c 0.910338,0.69174 1.356801,0.95695 2.389247,1.57023 l 7.282934,4.32611 11.436842,-19.25374 -7.282933,-4.32611 c -1.032447,-0.61328 -1.47891,-0.87848 -2.521849,-1.34699 -4.762986,-2.14975 -10.369024,-1.10081 -13.949253,4.92645 -3.580229,6.02725 -1.52127,10.94976 2.645012,14.10405 z m 10.356263,-14.38415 c 0.674941,0.32542 1.121404,0.59062 1.846907,1.02158 l 1.562622,0.9282 -6.795805,11.44063 -1.562622,-0.92821 c -0.725503,-0.43095 -1.171966,-0.69616 -1.780607,-1.13319 -2.378755,-1.71499 -3.014842,-4.58431 -0.9761,-8.0165 2.038741,-3.43219 5.061647,-4.58104 7.705605,-3.31251 z"
             id="path3242"
             style="fill:#a67700;fill-opacity:1;stroke:#a67700;stroke-width:1.5875;stroke-miterlimit:4;stroke-dasharray:none;stroke-opacity:1" />
          <path
             d="m 51.660398,215.6846 c 4.864777,5.00258 11.174974,5.11366 16.340427,0.0905 5.142185,-5.00054 5.230634,-11.334 0.365856,-16.33658 -4.864777,-5.00258 -11.198242,-5.09103 -16.340427,-0.0905 -5.165452,5.02317 -5.230633,11.334 -0.365856,16.33658 z m 13.634933,-13.25934 c 2.353195,2.41985 1.939249,5.76503 -1.45785,9.06855 -3.420367,3.32615 -6.752538,3.6239 -9.105733,1.20404 -2.353195,-2.41985 -1.962517,-5.7424 1.45785,-9.06855 3.3971,-3.30353 6.752539,-3.6239 9.105733,-1.20404 z"
             id="path3244"
             style="fill:#a67700;fill-opacity:1;stroke:#a67700;stroke-width:1.5875;stroke-miterlimit:4;stroke-dasharray:none;stroke-opacity:1" />
          <path
             d="m 34.348886,182.41969 -3.922416,2.2936 10.288455,17.59484 3.922416,-2.2936 -3.669767,-6.27587 15.409494,-9.01059 -2.94892,-5.04311 -15.409494,9.01059 z"
             id="path3246"
             style="fill:#a67700;fill-opacity:1;stroke:#a67700;stroke-width:1.5875;stroke-miterlimit:4;stroke-dasharray:none;stroke-opacity:1" />
        </g>
        <g
           aria-label="TODOGODOT"
           id="text8841"
           style="font-weight:900;font-size:32.4556px;line-height:1.25;font-family:Aileron;-inkscape-font-specification:'Aileron, Heavy';white-space:pre;fill:#e5a400;stroke-width:0.264583"
           inkscape:label="Text">
          <path
             d="m 226.25341,200.26266 3.94131,2.26099 10.14213,-17.67959 -3.94131,-2.26099 -3.61757,6.3061 -15.48372,-8.88244 -2.90698,5.0674 15.48372,8.88244 z"
             id="path8745" />
          <path
             d="m 218.83133,216.14024 c 4.83441,-5.03192 4.73105,-11.34225 -0.46471,-16.33407 -5.17235,-4.96933 -11.50516,-4.84255 -16.33958,0.18937 -4.83442,5.03193 -4.70764,11.36474 0.46471,16.33407 5.19575,4.99182 11.50516,4.84256 16.33958,-0.18937 z m -13.71492,-13.17659 c 2.33851,-2.43405 5.69582,-2.13399 9.11285,1.14892 3.44043,3.30539 3.85121,6.62552 1.5127,9.05957 -2.33851,2.43404 -5.67242,2.15647 -9.11285,-1.14892 -3.41703,-3.28291 -3.85121,-6.62553 -1.5127,-9.05957 z"
             id="path8747" />
          <path
             d="m 193.03714,235.50116 c 1.0425,-0.46949 1.48872,-0.73511 2.52059,-1.34936 l 7.27889,-4.33291 -11.45483,-19.24304 -7.27889,4.33292 c -1.03187,0.61424 -1.47808,0.87986 -2.38778,1.57246 -4.16333,3.15818 -5.91886,8.5846 -2.33301,14.60851 3.58586,6.0239 8.89406,6.56561 13.65503,4.41142 z m -7.6924,-15.96818 c 0.60823,-0.43761 1.05444,-0.70323 1.77954,-1.13486 l 1.56176,-0.92967 6.80649,11.43427 -1.56175,0.92967 c -0.7251,0.43163 -1.17132,0.69725 -1.84596,1.0233 -2.64277,1.271 -5.46753,0.45964 -7.50948,-2.97064 -2.04195,-3.43028 -1.60776,-6.63486 0.7694,-8.35207 z"
             id="path8749" />
          <path
             d="m 165.99461,247.36285 c 6.72442,-1.86385 9.8529,-7.34505 7.92837,-14.28841 -1.91586,-6.91209 -7.42834,-10.0319 -14.15276,-8.16805 -6.72443,1.86385 -9.84424,7.37632 -7.92838,14.28841 1.92453,6.94336 7.42834,10.03189 14.15277,8.16805 z m -5.08008,-18.32798 c 3.25275,-0.90158 5.98791,1.06832 7.25359,5.63467 1.27436,4.59764 -0.0651,7.66324 -3.31783,8.56482 -3.25275,0.90158 -5.97924,-1.03704 -7.25359,-5.63467 -1.26568,-4.56636 0.0651,-7.66323 3.31783,-8.56482 z"
             id="path8751" />
          <path
             d="m 134.55277,240.56777 -0.004,-4.54378 -4.34905,0.004 c 0.8094,-2.46728 2.30147,-3.57198 4.57336,-3.57381 2.75872,-0.002 5.19444,1.91069 5.19899,7.55796 0.004,4.83588 -2.36347,7.1746 -5.21956,7.1769 -2.36926,0.002 -3.83068,-1.13285 -4.31945,-3.53417 l -0.0652,-0.32451 -5.84201,0.005 0.0327,0.32453 c 0.45794,4.4136 3.7387,7.81879 10.13245,7.81363 6.13411,-0.005 11.38867,-4.03368 11.38238,-11.82302 -0.006,-7.5297 -4.19604,-11.4859 -10.16786,-11.48109 -2.36926,0.002 -3.89439,0.36016 -5.15929,1.43221 l -0.97168,2.46741 -0.55452,-3.43984 -4.54378,0.004 0.01,11.94366 z"
             id="path8753" />
          <path
             d="m 104.19763,247.16737 c 6.72502,1.86173 12.22785,-1.22854 14.15019,-8.17251 1.91369,-6.91269 -1.20786,-12.42418 -7.93288,-14.28591 -6.72501,-1.86173 -12.2365,1.25982 -14.150185,8.17251 -1.922344,6.94397 1.207865,12.42418 7.932875,14.28591 z m 5.0743,-18.32957 c 3.25303,0.90056 4.58478,3.99701 3.32053,8.56377 -1.2729,4.59803 -3.99878,6.53751 -7.25181,5.63695 -3.25303,-0.90055 -4.59344,-3.96573 -3.32053,-8.56377 1.26424,-4.56675 3.99878,-6.53751 7.25181,-5.63695 z"
             id="path8755" />
          <path
             d="m 74.932662,233.7413 c 0.910338,0.69174 1.356801,0.95695 2.389247,1.57023 l 7.282934,4.32611 11.436842,-19.25374 -7.282933,-4.32611 c -1.032447,-0.61328 -1.47891,-0.87848 -2.521849,-1.34699 -4.762986,-2.14975 -10.369024,-1.10081 -13.949253,4.92645 -3.580229,6.02725 -1.52127,10.94976 2.645012,14.10405 z m 10.356263,-14.38415 c 0.674941,0.32542 1.121404,0.59062 1.846907,1.02158 l 1.562622,0.9282 -6.795805,11.44063 -1.562622,-0.92821 c -0.725503,-0.43095 -1.171966,-0.69616 -1.780607,-1.13319 -2.378755,-1.71499 -3.014842,-4.58431 -0.9761,-8.0165 2.038741,-3.43219 5.061647,-4.58104 7.705605,-3.31251 z"
             id="path8757" />
          <path
             d="m 51.660398,215.6846 c 4.864777,5.00258 11.174974,5.11366 16.340427,0.0905 5.142185,-5.00054 5.230634,-11.334 0.365856,-16.33658 -4.864777,-5.00258 -11.198242,-5.09103 -16.340427,-0.0905 -5.165452,5.02317 -5.230633,11.334 -0.365856,16.33658 z m 13.634933,-13.25934 c 2.353195,2.41985 1.939249,5.76503 -1.45785,9.06855 -3.420367,3.32615 -6.752538,3.6239 -9.105733,1.20404 -2.353195,-2.41985 -1.962517,-5.7424 1.45785,-9.06855 3.3971,-3.30353 6.752539,-3.6239 9.105733,-1.20404 z"
             id="path8759" />
          <path
             d="m 34.348886,182.41969 -3.922416,2.2936 10.288455,17.59484 3.922416,-2.2936 -3.669767,-6.27587 15.409494,-9.01059 -2.94892,-5.04311 -15.409494,9.01059 z"
             id="path8761" />
        </g>
      </g>
    </g>
    <path
       style="fill:#a67700;fill-opacity:1;stroke:none;stroke-width:0.264583px;stroke-linecap:butt;stroke-linejoin:miter;stroke-opacity:1"
       d="m 26.160863,25.497298 c 0.01969,-0.111705 0.612598,-1.325163 1.299998,-1.746759 0.687401,-0.421596 1.8874,-0.486261 2.038991,-0.3004 0.151588,0.18586 -1.032576,-0.08213 -2.009445,0.548881 -0.976868,0.631007 -1.329544,1.498278 -1.329544,1.498278 z"
       id="path1645" />
    <path
       style="fill:#ffffff;fill-opacity:1;stroke:none;stroke-width:0.264583px;stroke-linecap:butt;stroke-linejoin:miter;stroke-opacity:1"
       d="m 26.218699,25.383136 c 0,0 0.821322,-0.91782 1.565031,-1.253061 0.743707,-0.335242 1.477892,-0.443734 1.650499,-0.567264 -0.0721,-0.06757 0.01662,-0.245646 0.14539,-0.0031 0.105803,0.199319 -1.138765,0.423421 -1.791916,0.781723 -0.653147,0.358301 -1.630472,1.147524 -1.630472,1.147524 z"
       id="path1713"
       sodipodi:nodetypes="cscsscc" />
  </g>
  <metadata
     id="metadata21089">
    <rdf:RDF>
      <cc:Work
         rdf:about="">
        <dc:creator>
          <cc:Agent>
            <dc:title>IcterusGames</dc:title>
          </cc:Agent>
        </dc:creator>
        <cc:license
           rdf:resource="http://creativecommons.org/publicdomain/zero/1.0/" />
        <dc:title>Todogodot Coin</dc:title>
        <dc:date>2024-04-25</dc:date>
      </cc:Work>
      <cc:License
         rdf:about="http://creativecommons.org/publicdomain/zero/1.0/">
        <cc:permits
           rdf:resource="http://creativecommons.org/ns#Reproduction" />
        <cc:permits
           rdf:resource="http://creativecommons.org/ns#Distribution" />
        <cc:permits
           rdf:resource="http://creativecommons.org/ns#DerivativeWorks" />
      </cc:License>
    </rdf:RDF>
  </metadata>
</svg>
