<?xml version="1.0" encoding="UTF-8" standalone="no"?>
<!-- Created with Inkscape (http://www.inkscape.org/) -->

<svg
   width="1024"
   height="512"
   viewBox="0 0 270.93332 135.46667"
   version="1.1"
   id="svg5"
   inkscape:version="1.1.2 (0a00cf5339, 2022-02-04)"
   sodipodi:docname="fence.svg"
   xmlns:inkscape="http://www.inkscape.org/namespaces/inkscape"
   xmlns:sodipodi="http://sodipodi.sourceforge.net/DTD/sodipodi-0.dtd"
   xmlns="http://www.w3.org/2000/svg"
   xmlns:svg="http://www.w3.org/2000/svg"
   xmlns:rdf="http://www.w3.org/1999/02/22-rdf-syntax-ns#"
   xmlns:cc="http://creativecommons.org/ns#"
   xmlns:dc="http://purl.org/dc/elements/1.1/">
  <sodipodi:namedview
     id="namedview7"
     pagecolor="#505050"
     bordercolor="#ffffff"
     borderopacity="1"
     inkscape:pageshadow="0"
     inkscape:pageopacity="0"
     inkscape:pagecheckerboard="1"
     inkscape:document-units="mm"
     showgrid="false"
     units="px"
     width="512px"
     inkscape:zoom="0.8113475"
     inkscape:cx="502.86714"
     inkscape:cy="316.14074"
     inkscape:window-width="1920"
     inkscape:window-height="1007"
     inkscape:window-x="0"
     inkscape:window-y="0"
     inkscape:window-maximized="1"
     inkscape:current-layer="layer1"
     showguides="true"
     inkscape:guide-bbox="true"
     inkscape:snap-global="true" />
  <defs
     id="defs2" />
  <g
     inkscape:label="Capa 1"
     inkscape:groupmode="layer"
     id="layer1">
    <g
       id="g97825"
       transform="translate(6.6904107)">
      <g
         id="g11326"
         transform="translate(0,0.39419667)">
        <path
           style="fill:#663300;fill-opacity:1;stroke:none;stroke-width:1.5;stroke-linecap:butt;stroke-linejoin:miter;stroke-miterlimit:4;stroke-dasharray:none;stroke-opacity:1"
           d="m 124.98499,128.25454 c 0,-2.91486 -0.913,-11.11496 -0.0511,-18.32789 0.15639,-1.30871 3.73383,-1.15844 3.75267,-2.47942 0.0137,-0.95806 -3.471,-2.33068 -3.45633,-3.26556 0.1073,-6.840545 0.2401,-12.826685 0.37807,-14.536097 0.3261,-4.040507 1.95662,-24.485129 1.79356,-28.461303 -0.16305,-3.976171 -1.29698,-15.581936 -1.29698,-22.381236 0,-6.799299 -0.77593,-7.172532 0.32611,-8.039608 1.10204,-0.867076 12.89814,-2.172565 14.21919,-0.08717 1.32105,2.085392 2.29936,5.916129 2.29936,7.363009 0,1.44688 0.95426,23.748434 0.95426,25.415018 0,0.730853 -0.47103,5.203185 -0.98681,10.133222 -0.0964,0.921155 -2.93271,1.155006 -3.02942,2.086699 -0.12925,1.245097 2.77025,1.608685 2.87236,2.839821 0.34506,4.160299 -1.20713,8.761834 -1.14939,9.368673 0.15604,1.639983 0.3191,20.208872 0.3191,22.321042 0,2.11217 0.55729,18.69745 0.55729,19.60644 0,0.90898 0.39805,4.5403 -1.23018,4.6205 -1.62823,0.0802 -14.09876,0.94049 -14.93954,-0.77715 -0.84078,-1.71765 -1.33225,-5.39899 -1.33225,-5.39899 z"
           id="path859"
           sodipodi:nodetypes="cssssssssssssssssssc" />
        <path
           style="fill:#9a6e45;fill-opacity:1;stroke:none;stroke-width:0.264583px;stroke-linecap:butt;stroke-linejoin:miter;stroke-opacity:1"
           d="m 125.18113,104.43114 0.12287,-15.651124 1.48191,-15.962514 0.5668,-12.376086 -1.06377,-12.02263 -0.40905,-8.94109 -0.0619,-8.134364 0.16305,-0.934595 7.7595,-1.128946 5.21546,0.173959 1.60001,0.651031 -0.80506,1.279038 -1.14805,0.839039 -9.53903,-0.08606 -0.97223,0.938459 0.0351,2.171012 1.02991,13.196763 0.46246,11.169509 -0.0575,6.854182 -0.53758,8.400185 -0.53347,7.452881 -0.3201,6.751921 -0.42926,6.140923 -0.55422,8.171427 z"
           id="path3319" />
        <path
           style="fill:#9a6e45;fill-opacity:1;stroke:none;stroke-width:0.264583px;stroke-linecap:butt;stroke-linejoin:miter;stroke-opacity:1"
           d="m 128.66812,107.40711 1.79651,1.25098 -1.03366,0.84128 -2.79651,1.59521 -0.13851,3.72918 0.34055,8.96057 0.8325,7.43944 0.7906,1.41902 -1.93671,1.3006 -1.06272,-1.84239 c 0,0 -0.47521,-3.84646 -0.47521,-3.84646 l -0.30829,-7.12087 -0.24458,-9.31166 0.63297,-2.54729 1.20937,-0.65418 z"
           id="path5832" />
        <path
           style="fill:#9a6e45;fill-opacity:1;stroke:none;stroke-width:0.264583px;stroke-linecap:butt;stroke-linejoin:miter;stroke-opacity:1"
           d="m 139.84786,75.64647 -1.84514,1.122071 0.63527,1.15774 1.62034,0.670359 1.08643,0.96461 1.55092,-1.531422 -2.11084,-1.347639 z"
           id="path5900" />
        <path
           style="fill:#3c2006;fill-opacity:1;stroke:none;stroke-width:0.264583px;stroke-linecap:butt;stroke-linejoin:miter;stroke-opacity:1"
           d="m 126.52289,133.94339 1.71475,0.96708 3.32145,0.0805 6.82098,0.0815 3.71317,-0.81526 0.67881,-1.81226 -0.43658,-17.04309 -0.48463,-25.648007 -0.16305,-2.032918 0.85761,-3.251014 0.35028,-6.440123 -1.55092,1.531422 -0.82874,5.664179 -0.32611,4.310279 0.16981,9.484217 -0.23691,6.062645 0.56222,10.77477 -0.0815,7.27182 0.16203,7.05679 v 1.50933 l -0.44873,0.8404 -3.06546,0.59655 -5.89231,-0.49543 -2.89944,0.006 z"
           id="path6081" />
        <path
           style="fill:#3c2006;fill-opacity:1;stroke:none;stroke-width:0.264583px;stroke-linecap:butt;stroke-linejoin:miter;stroke-opacity:1"
           d="m 127.18698,103.38406 2.55019,1.79067 2.39431,1.9724 -1.66685,1.51096 -1.79651,-1.25098 -3.48699,-2.97597 z"
           id="path8405" />
        <path
           style="fill:#3c2006;fill-opacity:1;stroke:none;stroke-width:0.264583px;stroke-linecap:butt;stroke-linejoin:miter;stroke-opacity:1"
           d="m 138.00272,76.768541 -1.19117,-1.915348 1.02275,-1.304599 3.28044,-1.059837 1.09653,-4.804214 -0.88238,-12.698719 -0.21985,-9.904754 -0.28097,-6.424768 -2.22517,-6.433444 1.14805,-0.839039 0.80506,-1.279038 1.43953,3.002206 1.33584,5.720125 -0.007,4.543819 0.52611,9.455078 0.36272,9.467509 -0.27181,5.568164 -0.61344,3.88978 -0.14231,2.410518 -1.46164,0.57068 -1.87614,0.91381 z"
           id="path8586" />
        <path
           style="fill:#9a6e45;fill-opacity:1;stroke:none;stroke-width:0.264583px;stroke-linecap:butt;stroke-linejoin:miter;stroke-opacity:1"
           d="m 136.49035,128.27053 1.94786,-18.88324 -1.99693,-9.11671 z"
           id="path8767" />
        <path
           style="fill:#9a6e45;fill-opacity:1;stroke:none;stroke-width:0.264583px;stroke-linecap:butt;stroke-linejoin:miter;stroke-opacity:1"
           d="m 131.67965,79.744857 2.52412,-14.668494 -0.21702,-16.723849 1.68993,16.876828 z"
           id="path11169" />
      </g>
      <g
         id="g3265"
         transform="translate(0,0.35273667)">
        <path
           style="fill:#663300;fill-opacity:1;stroke:none;stroke-width:1.5;stroke-linecap:butt;stroke-linejoin:miter;stroke-miterlimit:4;stroke-dasharray:none;stroke-opacity:1"
           d="M 14.737631,132.70158 C 13.96041,122.22698 13.418262,89.223074 14.110032,83.719172 14.41664,81.279722 14.9523,73.115273 15.433712,64.4929 c 0.05318,-0.952448 3.173102,-1.463813 3.224575,-2.420336 0.06995,-1.299918 -3.017953,-1.527097 -3.044333,-2.816939 -0.174962,-8.554562 0.917097,-17.529055 0.815602,-18.983811 -0.229999,-3.296655 0.02751,-9.383687 1.225889,-9.824236 0.464738,-0.170847 2.622308,-0.502095 5.140115,-0.716553 0.536126,-0.04566 1.571538,4.805565 2.127466,4.773166 1.371735,-0.07994 0.401589,-4.088889 1.534305,-4.922505 1.811504,-1.333167 5.432026,0.387214 5.712946,1.097263 0.862088,2.179 -0.147645,25.885422 -0.147645,29.54666 0,2.741277 -0.02278,7.068962 -1.055098,16.656103 -0.1237,1.148808 -3.531025,1.380054 -3.562175,2.246315 -0.05609,1.559825 3.4387,2.512585 3.475952,2.793885 0.230589,1.741247 1.882794,49.554618 0.382636,50.824188 -1.500159,1.26957 -11.501722,2.41359 -13.776779,1.79383 -2.275057,-0.61977 -2.749537,-1.83835 -2.749537,-1.83835 z"
           id="path857"
           sodipodi:nodetypes="cssssssssssssssssc" />
        <path
           style="fill:#9a6e45;fill-opacity:1;stroke:none;stroke-width:0.264583px;stroke-linecap:butt;stroke-linejoin:miter;stroke-opacity:1"
           d="m 14.737631,132.70158 -0.597073,-11.21022 -0.521986,-26.825418 0.398429,-12.63981 1.011789,-10.355942 0.412894,-7.735033 2.453609,-1.257705 0.999832,-0.649766 0.378007,0.607549 0.03222,1.353169 -2.23709,1.445956 -0.772043,14.523558 -0.244578,8.501518 0.284659,5.755984 -0.388845,6.92167 0.05921,13.17362 0.195713,9.63122 0.603289,8.72601 -0.314878,1.31751 -0.482861,0.24292 z"
           id="path3805"
           sodipodi:nodetypes="ccccccccccccccccccccc" />
        <path
           style="fill:#9a6e45;fill-opacity:1;stroke:none;stroke-width:0.264583px;stroke-linecap:butt;stroke-linejoin:miter;stroke-opacity:1"
           d="m 15.762334,59.400029 1.798561,-1.124246 c 0,0 0.0142,-4.815859 0.0142,-5.048605 0,-0.232748 0.847124,-11.570967 0.847124,-11.570967 l 0.05806,-9.571611 3.816702,-0.518343 1.356472,0.128926 -0.517638,-1.846326 -0.572735,-0.674613 -5.049502,1.069827 -0.882048,0.972751 -0.461181,5.498885 0.09094,3.982469 -0.458981,5.970625 v 4.815448 l -0.281992,3.57179 -0.112234,3.272332 z"
           id="path11278" />
        <path
           style="fill:#9a6e45;fill-opacity:1;stroke:none;stroke-width:0.264583px;stroke-linecap:butt;stroke-linejoin:miter;stroke-opacity:1"
           d="m 24.841339,34.534848 1.035784,1.402977 0.926719,-1.42588 0.102693,-2.109134 0.648218,-1.78082 2.542376,0.245028 0.843224,0.730504 1.469221,-0.782939 -1.011716,-0.867773 -2.580426,-1.152226 -1.565055,0.271759 -1.262288,0.282893 v 1.622832 l -0.417245,2.913044 z"
           id="path11459" />
        <path
           style="fill:#3c2006;fill-opacity:1;stroke:none;stroke-width:0.264583px;stroke-linecap:butt;stroke-linejoin:miter;stroke-opacity:1"
           d="m 16.805667,132.66794 4.613441,0.0752 7.282537,-0.94992 0.712618,-6.7548 -0.548656,-19.46265 -0.02175,-13.449561 -0.557282,-9.109078 2.693162,-1.156885 0.15621,2.734341 0.878922,12.246954 -0.207801,9.513879 0.237289,11.27295 0.08153,6.53427 -0.176064,6.41829 c 0,0 0.0928,1.7574 -0.335246,2.33026 -0.428051,0.57286 -4.007188,1.25456 -4.007188,1.25456 l -7.635868,0.94818 -3.963583,-0.8856 0.797739,-1.56043 z"
           id="path11640" />
        <path
           style="fill:#3c2006;fill-opacity:1;stroke:none;stroke-width:0.264583px;stroke-linecap:butt;stroke-linejoin:miter;stroke-opacity:1"
           d="m 27.56477,78.970353 -0.914924,-2.078588 3.014599,-1.964843 -0.40763,-10.076381 1.050891,-7.600138 0.03958,-11.430277 0.489154,-11.834006 0.103909,-2.388597 1.469221,-0.782939 0.179964,7.871962 -0.237704,17.205825 -0.08049,6.739046 -0.04269,4.587915 -0.712785,5.565923 -0.266965,4.606359 -2.368285,1.172903 z"
           id="path13952" />
        <path
           style="fill:#9a6e45;fill-opacity:1;stroke:none;stroke-width:0.264583px;stroke-linecap:butt;stroke-linejoin:miter;stroke-opacity:1"
           d="m 28.286575,83.017129 2.693162,-1.156883 -3.414967,-2.889893 -0.914924,-2.07859 -1.406265,1.463283 0.644628,2.294234 z"
           id="path14020" />
        <path
           style="fill:#3c2006;fill-opacity:1;stroke:none;stroke-width:0.264583px;stroke-linecap:butt;stroke-linejoin:miter;stroke-opacity:1"
           d="m 15.762334,59.400029 v 0 l 0.751835,1.71278 2.380956,0.914877 0.410227,1.960718 1.889336,-0.884981 -0.03879,-1.947677 -1.786439,-1.396164 -1.808562,-1.483799 z"
           id="path17939" />
        <path
           style="fill:#3c2006;fill-opacity:1;stroke:none;stroke-width:0.264583px;stroke-linecap:butt;stroke-linejoin:miter;stroke-opacity:1"
           d="m 24.841339,34.534848 -1.187886,-2.839665 -1.356472,-0.128926 0.423029,2.580026 1.540164,2.236192 1.616949,-0.44465 z"
           id="path21487" />
        <path
           style="fill:#9a6e45;fill-opacity:1;stroke:none;stroke-width:0.264583px;stroke-linecap:butt;stroke-linejoin:miter;stroke-opacity:1"
           d="m 20.080694,125.14853 -1.624665,-17.09651 0.829619,-24.374862 0.69177,24.685012 z"
           id="path21668" />
        <path
           style="fill:#9a6e45;fill-opacity:1;stroke:none;stroke-width:0.264583px;stroke-linecap:butt;stroke-linejoin:miter;stroke-opacity:1"
           d="M 24.124795,75.680281 25.558721,64.825035 24.166342,57.150587 Z"
           id="path24339" />
      </g>
      <g
         id="g32062">
        <path
           style="fill:#663300;fill-opacity:1;stroke:none;stroke-width:1.5;stroke-linecap:butt;stroke-linejoin:miter;stroke-miterlimit:4;stroke-dasharray:none;stroke-opacity:1"
           d="m 25.099084,84.387713 c -1.501098,0.97423 -1.59394,1.654423 -1.756992,4.167256 -0.163051,2.512833 -0.926471,5.088242 -0.163051,8.335126 0.763419,3.246885 -0.03762,3.187845 0.763419,4.426255 0.801038,1.23841 8.610968,0.79983 10.33789,0.79983 1.726922,0 11.47418,-0.81526 13.375518,-0.65221 1.901338,0.16306 9.137796,1.26768 14.447967,1.26768 5.310169,0 17.737952,-1.63939 21.679469,-0.66108 1.250987,0.3105 8.738791,1.26194 14.408047,-0.18795 1.4046,-0.35922 0.388968,-4.714361 1.824569,-4.786572 1.1704,-0.05887 1.90696,4.736912 3.06719,4.667462 9.77058,-0.5848 18.89846,-1.45286 21.14369,-1.19832 4.15883,0.47149 9.50376,2.14811 9.91409,0.75094 0.41034,-1.397167 0.98488,-14.265658 -0.93509,-15.188596 -1.91998,-0.922938 -14.72155,-2.477672 -17.40207,-2.316631 -2.68051,0.161041 -27.71046,2.69708 -30.877629,2.376032 -3.167181,-0.321048 -17.015268,-0.937548 -21.387373,-1.248534 -0.653352,-0.04647 0.05685,3.828527 -0.949943,3.788712 -2.029047,-0.08024 -0.679884,-3.6296 -3.699574,-4.316775 -5.508583,-1.253559 -15.833148,0.05403 -18.938481,0.05403 -5.652267,0 -14.851646,-0.07665 -14.851646,-0.07665 z"
           id="path2109"
           sodipodi:nodetypes="csssssssssssssssssssc" />
        <path
           style="fill:#9a6e45;fill-opacity:1;stroke:none;stroke-width:0.264583px;stroke-linecap:butt;stroke-linejoin:miter;stroke-opacity:1"
           d="m 103.03476,90.316935 11.77734,0.546055 5.43257,-1.77542 z"
           id="path31448" />
        <path
           style="fill:#9a6e45;fill-opacity:1;stroke:none;stroke-width:0.264583px;stroke-linecap:butt;stroke-linejoin:miter;stroke-opacity:1"
           d="m 110.96433,95.511706 18.64358,1.262504 -9.53109,-1.812406 z"
           id="path31380" />
        <path
           style="fill:#9a6e45;fill-opacity:1;stroke:none;stroke-width:0.264583px;stroke-linecap:butt;stroke-linejoin:miter;stroke-opacity:1"
           d="M 62.396655,97.419966 94.094317,98.729209 81.600753,96.141438 Z"
           id="path31312" />
        <path
           style="fill:#9a6e45;fill-opacity:1;stroke:none;stroke-width:0.264583px;stroke-linecap:butt;stroke-linejoin:miter;stroke-opacity:1"
           d="M 28.598749,91.004294 C 29.807196,90.94336 55.08576,89.301938 55.08576,89.301938 l -11.861419,2.225707 z"
           id="path31244" />
        <path
           style="fill:#9a6e45;fill-opacity:1;stroke:none;stroke-width:0.264583px;stroke-linecap:butt;stroke-linejoin:miter;stroke-opacity:1"
           d="m 100.16867,98.021372 0.32052,0.928579 0.95909,2.547829 1.21396,1.03247 0.49448,-1.62802 -1.46448,-3.084646 -1.08758,-1.683443 -0.950891,0.158581 z"
           id="path28339" />
        <path
           style="fill:#3c2006;fill-opacity:1;stroke:none;stroke-width:0.264583px;stroke-linecap:butt;stroke-linejoin:miter;stroke-opacity:1"
           d="m 103.15672,100.90223 -0.49448,1.62802 2.2556,-0.0815 10.94467,-0.73038 5.5993,-0.29436 2.52906,-0.10406 4.64508,0.77259 4.03217,0.5721 1.4913,-0.24025 0.72651,-0.78609 0.48462,-3.710188 -0.0768,-5.60756 -0.45598,-4.836512 -0.69342,-1.661242 -1.21611,1.069059 0.41184,1.352243 0.44672,2.115199 0.0569,4.470145 -0.2967,5.984366 -0.59371,0.3439 -2.91399,-0.36817 -5.31147,-0.991911 -2.42815,0.0077 -8.87611,0.643321 -4.86163,0.0796 z"
           id="path28271" />
        <path
           style="fill:#3c2006;fill-opacity:1;stroke:none;stroke-width:0.264583px;stroke-linecap:butt;stroke-linejoin:miter;stroke-opacity:1"
           d="m 60.601833,84.303932 0.744876,0.876409 0.444468,1.162738 0.57114,1.53289 0.866802,1.467874 -0.522941,0.203697 -1.199981,-0.244578 -0.903227,-1.349021 -0.565681,-1.956477 -0.507474,-0.493585 z"
           id="path24440" />
        <path
           style="fill:#9a6e45;fill-opacity:1;stroke:none;stroke-width:0.264583px;stroke-linecap:butt;stroke-linejoin:miter;stroke-opacity:1"
           d="m 62.362317,87.875971 0.866802,1.467874 0.707408,-0.864698 0.07365,-2.280533 0.34763,-0.455658 1.845398,0.358233 3.512439,-0.0395 5.754968,0.338463 8.055162,0.462815 2.190883,0.242779 3.622812,-0.197964 11.980531,-1.062278 14.90549,-1.188382 4.72325,0.263986 9.45655,1.32597 2.52294,0.64475 1.21611,-1.06906 -0.79567,-0.631087 -4.51595,-0.891627 -7.77802,-1.185339 -6.16288,-0.176014 -4.87227,0.628425 -14.721537,1.28551 -7.970078,0.65019 H 84.18215 l -9.02517,-0.67804 -11.155199,-0.620855 h -0.953714 l -0.446302,0.354118 v 0.428519 l -0.115295,1.64121 z"
           id="path24259" />
        <path
           style="fill:#9a6e45;fill-opacity:1;stroke:none;stroke-width:0.264583px;stroke-linecap:butt;stroke-linejoin:miter;stroke-opacity:1"
           d="m 23.627789,101.99486 1.070001,-1.30191 -0.285726,-0.53652 v -1.487845 l -0.691771,-3.417409 0.300456,-4.566563 0.578616,-4.439075 0.300216,-0.487426 0.948092,-0.576498 9.641373,0.0956 6.628718,0.06685 8.207004,-0.693624 6.867533,0.261882 2.337514,0.591558 1.072018,-1.199946 -1.289865,-0.600937 -4.353542,-0.648476 -6.177928,-0.02103 -7.85215,0.650806 -5.911615,-0.112935 -4.497908,0.123899 -5.438368,-0.172955 -0.752089,0.287877 -0.705589,0.768826 -0.754105,1.176214 -0.296085,3.611144 -0.347767,3.187166 -0.0256,2.87942 0.267914,1.624592 0.299212,1.719998 0.02676,1.868517 z"
           id="path21432" />
        <path
           style="fill:#3c2006;fill-opacity:1;stroke:none;stroke-width:0.264583px;stroke-linecap:butt;stroke-linejoin:miter;stroke-opacity:1"
           d="m 24.69779,100.69295 1.089348,0.41166 3.056538,0.1664 17.065215,-0.71367 3.311556,0.17294 2.888801,0.51776 10.245082,0.69349 7.817058,-0.49602 9.297789,-0.58329 3.756504,0.16669 3.260889,0.57157 c 0,0 6.184143,0.13539 6.469661,0.19115 0.285517,0.0558 5.088355,-0.6232 5.088355,-0.6232 l 0.354486,-2.437673 0.422892,-1.760128 0.831807,-0.677907 0.514899,1.728652 -0.226696,1.193398 -0.437761,2.777648 -0.599403,0.55614 -1.632863,0.55449 -5.29101,0.28698 -6.262579,-0.0116 -3.427759,-0.63268 -11.145226,0.11697 -8.214236,0.73811 -4.895723,-0.33603 -9.626899,-1.01877 -4.53332,0.11529 -12.236969,0.6927 -4.529936,-0.21962 -1.813133,-0.16282 -1.007269,-0.25124 -0.660099,-0.42549 z"
           id="path28203" />
      </g>
      <g
         id="g32036">
        <path
           style="fill:#663300;fill-opacity:1;stroke:none;stroke-width:1.5;stroke-linecap:butt;stroke-linejoin:miter;stroke-miterlimit:4;stroke-dasharray:none;stroke-opacity:1"
           d="m 27.956123,40.731511 c -1.15449,0.644493 -1.622382,0.928582 -1.711228,3.597251 -0.08885,2.66867 -1.194242,8.878491 -0.274279,9.639202 0.919961,0.760714 6.866273,2.424779 9.248521,2.424779 2.38225,0 18.784356,-0.06821 20.487285,0.01929 0.895113,0.04599 12.333611,-1.316067 19.537102,-1.873639 2.489258,-0.192676 2.780532,-6.878195 3.721422,-5.037026 1.199974,2.348153 0.01709,4.835994 0.735893,4.875633 2.956708,0.163052 28.023061,2.596925 31.404151,3.083065 3.38108,0.486141 19.12762,0.868752 20.1941,-0.110992 1.06647,-0.979744 2.09185,-16.243274 0.29166,-16.567311 -1.80019,-0.324041 -17.90755,-0.324041 -20.65877,-0.324041 -2.75123,0 -22.965526,-2.10956 -26.096341,-2.10956 -3.130817,0 -24.007876,1.364448 -26.704787,1.038344 C 55.433938,39.0604 38.723503,38.523124 35.6875,39.012278 c -3.036004,0.489156 -7.731377,1.719225 -7.731377,1.719225 z"
           id="path2107"
           sodipodi:nodetypes="ssssssssssssssscs" />
        <path
           style="fill:#9a6e45;fill-opacity:1;stroke:none;stroke-width:0.264583px;stroke-linecap:butt;stroke-linejoin:miter;stroke-opacity:1"
           d="m 25.153552,54.580985 1.506473,-1.484225 -0.05837,-2.522064 0.493395,-5.584473 0.234215,-2.400572 0.39054,-0.60918 4.203499,-1.35722 4.305149,-0.82819 6.753273,-0.176049 15.254028,0.571497 11.268112,-0.411876 11.082438,-0.472673 6.549554,-0.176001 14.305222,1.313415 10.56686,1.089393 7.51652,-0.05765 9.59488,0.07231 2.23114,0.0075 1.05342,-1.415058 -2.00942,-0.35859 -7.22259,-0.172942 -12.07402,0.05944 -3.2757,-0.262546 -14.454438,-1.238104 -8.093051,-0.825368 -6.32628,0.522769 -10.141482,0.239059 -6.891324,0.490149 -3.664283,0.115295 -8.284306,-0.744107 -8.750792,-0.02703 H 35.52553 l -2.364322,0.651592 -3.771966,0.778124 -2.57515,0.970711 -0.831177,1.033021 -0.432816,1.701829 -0.289612,5.234324 -0.353104,2.861331 -0.0026,2.522849 z"
           id="path12306" />
        <path
           style="fill:#9a6e45;fill-opacity:1;stroke:none;stroke-width:0.264583px;stroke-linecap:butt;stroke-linejoin:miter;stroke-opacity:1"
           d="m 78.532547,50.860721 0.02703,-2.564339 0.589222,0.13257 0.570486,0.486947 0.668341,2.193303 0.01519,1.542849 -0.181213,1.020582 -1.130271,1.459654 -0.441958,-0.99495 0.221036,-1.953548 z"
           id="path15878" />
        <path
           style="fill:#3c2006;fill-opacity:1;stroke:none;stroke-width:0.264583px;stroke-linecap:butt;stroke-linejoin:miter;stroke-opacity:1"
           d="m 25.153552,54.580985 2.531667,1.193038 4.671266,1.171281 2.206297,0.281816 20.924988,0.04048 8.408927,-0.70452 7.744076,-0.944438 3.863065,-0.2336 1.498317,-0.779794 0.657241,-1.087434 0.637968,-1.650331 0.235183,-1.006761 0.02703,-2.564339 -0.706787,0.472535 -0.776422,1.413876 -1.091824,2.956605 -1.559709,0.760658 -11.755641,1.066766 -6.474661,0.548272 -9.74268,-0.01064 -11.961297,0.0019 -7.830531,-2.409521 z"
           id="path16059" />
        <path
           style="fill:#3c2006;fill-opacity:1;stroke:none;stroke-width:0.264583px;stroke-linecap:butt;stroke-linejoin:miter;stroke-opacity:1"
           d="m 79.091331,55.132287 0.542983,0.229573 6.444676,0.508178 17.11616,1.56509 8.79057,1.006607 4.93594,0.252052 10.58243,1.4e-5 3.65577,-0.365131 0.89761,-0.628565 0.91469,-3.792961 0.44465,-7.834034 -0.31084,-4.189262 -0.70207,-1.74398 -1.05342,1.415058 0.51105,2.301698 -0.12927,6.051748 -0.57649,5.393201 -0.18492,1.121097 -0.5822,0.611251 -5.97026,0.09789 -7.59094,0.01415 -5.81217,-0.419309 -11.508426,-1.335516 -10.753088,-1.079413 -8.532164,-0.639088 z"
           id="path18371" />
        <path
           style="fill:#9a6e45;fill-opacity:1;stroke:none;stroke-width:0.264583px;stroke-linecap:butt;stroke-linejoin:miter;stroke-opacity:1"
           d="m 33.681937,45.701227 c 0.741487,0 14.539192,-0.824576 14.539192,-0.824576 l 16.268658,0.176096 -16.94842,1.498822 z"
           id="path31629" />
        <path
           style="fill:#9a6e45;fill-opacity:1;stroke:none;stroke-width:0.264583px;stroke-linecap:butt;stroke-linejoin:miter;stroke-opacity:1"
           d="m 94.164765,51.176168 c 2.255854,0.634177 15.984325,2.755088 15.984325,2.755088 l 9.82285,-1.430102 z"
           id="path31697" />
        <path
           style="fill:#9a6e45;fill-opacity:1;stroke:none;stroke-width:0.264583px;stroke-linecap:butt;stroke-linejoin:miter;stroke-opacity:1"
           d="M 127.59382,47.103532 121.86744,45.065473 109.1261,45.61818 Z"
           id="path31765" />
        <path
           style="fill:#9a6e45;fill-opacity:1;stroke:none;stroke-width:0.264583px;stroke-linecap:butt;stroke-linejoin:miter;stroke-opacity:1"
           d="m 71.761085,51.290582 -9.29658,0.831329 c 0,0 -7.17183,-1.163021 -6.670366,-1.163021 0.501462,0 16.722029,0.359074 16.722029,0.359074 z"
           id="path31833" />
      </g>
      <path
         style="fill:#989898;fill-opacity:1;stroke:none;stroke-width:0.264583px;stroke-linecap:butt;stroke-linejoin:miter;stroke-opacity:1"
         d="m 28.634555,46.466902 1.847458,-1.375304 0.0072,-2.523921 h -0.82904 l 0.209851,-0.572159 3.383018,-0.07981 -0.130275,0.865952 h -1.188098 l -0.466138,2.94563 -2.295078,1.905 -0.717021,-0.159287 z"
         id="path32253" />
      <path
         style="fill:#3c2006;fill-opacity:1;stroke:none;stroke-width:0.264583px;stroke-linecap:butt;stroke-linejoin:miter;stroke-opacity:1"
         d="m 28.634555,46.466902 v 0 l -0.178123,1.0061 0.717021,0.159287 0.799867,1.017934 -1.911892,-0.259818 -0.920285,-1.010195 0.616186,-1.477227 z"
         id="path34414" />
      <path
         style="fill:#ffffff;fill-opacity:1;stroke:none;stroke-width:0.264583px;stroke-linecap:butt;stroke-linejoin:miter;stroke-opacity:1"
         d="m 28.634555,46.466902 1.847458,-1.375304 0.0072,-2.523921 0.653603,0.147487 -0.188434,2.602402 -1.860547,1.670364 -0.637403,0.485072 z"
         id="path36851" />
      <path
         style="fill:#989898;fill-opacity:1;stroke:none;stroke-width:0.264583px;stroke-linecap:butt;stroke-linejoin:miter;stroke-opacity:1"
         d="m 25.975958,92.716217 1.691344,1.056936 0.260344,-0.724165 0.621835,0.289634 -0.724252,2.453061 -0.793033,0.02225 0.211899,-0.99274 -1.440696,-0.743011 -0.418134,-0.920716 z"
         id="path37428" />
      <path
         style="fill:#3c2006;fill-opacity:1;stroke:none;stroke-width:0.264583px;stroke-linecap:butt;stroke-linejoin:miter;stroke-opacity:1"
         d="m 25.975958,92.716217 0.480319,-0.840606 -1.177673,0.0057 -0.570953,0.586882 -0.470423,1.388359 0.837824,0.96602 0.805999,0.564018 -0.07765,-1.308386 -0.418134,-0.920715 z"
         id="path42068" />
      <path
         style="fill:#ffffff;fill-opacity:1;stroke:none;stroke-width:0.264583px;stroke-linecap:butt;stroke-linejoin:miter;stroke-opacity:1"
         d="m 25.975958,92.716217 1.691344,1.056936 -0.137854,0.523639 -2.144181,-1.139303 z"
         id="path44938" />
      <path
         style="fill:#989898;fill-opacity:1;stroke:none;stroke-width:0.264583px;stroke-linecap:butt;stroke-linejoin:miter;stroke-opacity:1"
         d="m 129.17795,47.373952 -2.13065,1.347514 -0.79353,-0.883242 -0.94911,0.546863 2.32253,3.586998 0.80594,-0.716981 -0.64894,-1.095088 2.1607,-1.137321 0.59846,-1.044863 z"
         id="path45713"
         sodipodi:nodetypes="cccccccccc" />
      <path
         style="fill:#3c2006;fill-opacity:1;stroke:none;stroke-width:0.264583px;stroke-linecap:butt;stroke-linejoin:miter;stroke-opacity:1"
         d="m 129.17795,47.373952 -0.7871,-0.811173 1.65618,-0.156575 1.08404,0.342646 0.41837,1.078095 0.18282,2.081427 -1.11188,0.394904 -0.67549,-1.280581 0.59846,-1.044863 z"
         id="path49875" />
      <path
         style="fill:#ffffff;fill-opacity:1;stroke:none;stroke-width:0.264583px;stroke-linecap:butt;stroke-linejoin:miter;stroke-opacity:1"
         d="m 127.0473,48.721464 0.4093,0.768552 3.08675,-1.512184 -1.3654,-0.60388 z"
         id="path51532" />
      <path
         style="fill:#989898;fill-opacity:1;stroke:none;stroke-width:0.264583px;stroke-linecap:butt;stroke-linejoin:miter;stroke-opacity:1"
         d="m 130.27085,94.70406 1.66773,-1.288661 1.69302,-0.09072 0.0408,0.922665 0.41824,-0.103587 0.42152,-0.140816 -0.051,-3.069604 -0.96231,-0.204105 v 0.928714 l -2.29679,-0.05049 -2.0919,1.564174 -0.19591,1.528593 z"
         id="path52241" />
      <path
         style="fill:#ffffff;fill-opacity:1;stroke:none;stroke-width:0.264583px;stroke-linecap:butt;stroke-linejoin:miter;stroke-opacity:1"
         d="m 128.91425,94.700221 2.72314,-2.283968 1.93382,-0.01807 -0.0724,-0.740235 -2.29679,-0.05049 -2.0919,1.564175 z"
         id="path55657" />
      <path
         style="fill:#3c2006;fill-opacity:1;stroke:none;stroke-width:0.264583px;stroke-linecap:butt;stroke-linejoin:miter;stroke-opacity:1"
         d="m 129.11016,93.171628 c -4e-5,3e-6 -0.32139,-1.034767 -0.32139,-1.034767 l -1.30508,0.478028 0.14043,1.548315 -0.0887,1.262729 1.35265,0.437026 1.68243,0.554172 -0.29961,-1.713073 -1.3566,-0.0038 z"
         id="path55956" />
      <path
         style="fill:#663300;fill-opacity:1;stroke:#000000;stroke-width:1.5;stroke-linecap:butt;stroke-linejoin:miter;stroke-miterlimit:4;stroke-dasharray:none;stroke-opacity:1"
         d="m 136.90693,57.631147 -1.24592,-5.328666 0.46118,-8.475723 0.0481,-2.930449 1.74527,-0.87581 12.19417,-0.611677 22.89807,0.755816 2.61517,3.810203 1.02678,-4.06817 17.52891,1.629321 24.64117,-1.740935 17.09665,-0.991786 5.19224,0.991786 1.37236,4.524629 -0.41919,8.099324 -1.44002,4.495308 -4.59965,0.97831 -20.35438,0.71233 -10.80405,1.6249 -1.067,-3.890454 -1.26299,3.503429 -7.9199,0.746445 -28.12499,-1.544022 -14.79043,-1.073232 z"
         id="path57439"
         sodipodi:nodetypes="ccccccccccccccccccccccccc" />
      <path
         style="fill:#663300;fill-opacity:1;stroke:none;stroke-width:1.5;stroke-linecap:butt;stroke-linejoin:miter;stroke-miterlimit:4;stroke-dasharray:none;stroke-opacity:1"
         d="m 136.79414,87.501769 0.032,-1.875692 3.86403,-1.464451 13.91243,1.8699 1.4637,2.48679 1.15269,-3.560454 29.7512,0.993601 21.75717,-1.214816 8.099,-0.356734 2.27691,3.447624 0.35527,-3.855521 7.78419,-0.05091 13.77007,0.0286 1.08395,1.794097 0.65822,10.77599 0.2968,5.300687 -2.82694,1.13155 -20.47194,-1.4594 -33.09371,2.04556 -0.75701,-3.01206 -2.20278,2.89782 -19.71938,-1.20199 -19.36358,0.49141 h -7.52897 l -1.23309,-1.45312 0.81526,-6.855868 z"
         id="path58328"
         sodipodi:nodetypes="ccccccccccccccccccccccccccc" />
      <path
         style="fill:#9a6e45;fill-opacity:1;stroke:none;stroke-width:0.264583px;stroke-linecap:butt;stroke-linejoin:miter;stroke-opacity:1"
         d="m 136.31615,58.377049 1.33041,-1.587174 -1.03714,-4.671407 0.46118,-8.967324 10e-4,-1.619983 1.3416,-0.777452 4.61937,-0.01275 7.66193,-0.476092 18.02043,0.603306 3.86103,0.1114 1.00352,-1.763861 -8.31945,-0.288237 -13.67969,-0.308025 -3.70573,-0.154789 -10.58486,0.61985 -1.31235,1.082458 -0.61935,1.063276 -0.29537,4.693853 -0.0713,4.960538 -0.12406,2.114209 z"
         id="path62112" />
      <path
         style="fill:#9a6e45;fill-opacity:1;stroke:none;stroke-width:0.264583px;stroke-linecap:butt;stroke-linejoin:miter;stroke-opacity:1"
         d="m 175.17355,42.251317 0.89561,3.846981 0.91433,-4.318897 1.07285,-0.877297 4.94342,0.398351 11.39573,1.379855 8.53899,-0.762767 18.22885,-1.299366 11.80002,-0.691812 3.03177,-0.285514 4.60203,1.102114 1.23985,-1.507861 -5.33349,-1.332785 h -1.58719 l -19.77777,1.310428 -16.03525,1.181605 -5.18497,0.42685 -14.55089,-1.703253 h -2.5579 l -0.53219,0.80907 z"
         id="path63890" />
      <path
         style="fill:#9a6e45;fill-opacity:1;stroke:none;stroke-width:0.264583px;stroke-linecap:butt;stroke-linejoin:miter;stroke-opacity:1"
         d="m 203.64328,58.743743 0.24883,-4.897768 1.61287,5.19098 -0.40495,1.078534 -0.84521,1.107593 z"
         id="path63958" />
      <path
         style="fill:#3c2006;fill-opacity:1;stroke:none;stroke-width:0.264583px;stroke-linecap:butt;stroke-linejoin:miter;stroke-opacity:1"
         d="m 137.64656,56.789875 10.10194,0.189976 8.16946,0.394817 6.32786,0.527126 19.56189,1.258382 12.88818,0.596257 7.09139,-0.614277 2.10483,-5.296181 -0.24883,4.897768 -0.41196,1.950509 -3.13185,0.31029 -5.74346,0.41674 -15.68446,-0.764985 -10.97832,-0.589608 -11.39655,-1.044638 -5.82638,-0.338701 -10.67924,-0.282872 -3.47491,-0.02341 z"
         id="path64139" />
      <path
         style="fill:#3c2006;fill-opacity:1;stroke:none;stroke-width:0.264583px;stroke-linecap:butt;stroke-linejoin:miter;stroke-opacity:1"
         d="m 173.57948,39.21571 1.59407,3.035607 0.89561,3.846981 -3.4932,-5.118724 z"
         id="path65718" />
      <path
         style="fill:#3c2006;fill-opacity:1;stroke:none;stroke-width:0.264583px;stroke-linecap:butt;stroke-linejoin:miter;stroke-opacity:1"
         d="m 205.50498,59.036955 6.51421,-0.846511 3.85337,-0.521843 12.01496,-0.248772 7.86525,-0.30835 c 0,0 4.08877,-0.720892 4.1498,-0.923698 0.061,-0.202803 1.37684,-3.847266 1.37684,-3.847266 l 0.40509,-7.952888 c 0,0 -1.08735,-3.644662 -1.08735,-3.644662 l 1.23985,-1.507861 c 0,0 1.50613,4.882145 1.51092,5.016492 0.005,0.134345 -0.43361,8.385691 -0.43361,8.385691 l -1.64601,4.866979 -0.62717,0.284863 -4.71144,0.999268 -9.59676,0.106643 -7.33776,0.381577 -3.28091,0.140962 -8.11736,1.155898 -3.34208,0.649605 0.84521,-1.107593 z"
         id="path65786" />
      <path
         style="fill:#3c2006;fill-opacity:1;stroke:none;stroke-width:0.264583px;stroke-linecap:butt;stroke-linejoin:miter;stroke-opacity:1"
         d="m 136.67349,103.6031 0.80751,-1.91959 6.57745,0.23844 12.33121,-0.36408 7.73665,-0.16503 19.27528,1.16228 2.7833,-3.640954 -0.6435,3.503774 -1.73607,1.95701 -1.09549,0.0192 -19.13585,-1.35343 -11.16648,0.31451 -8.52982,0.2126 z"
         id="path65967" />
      <path
         style="fill:#3c2006;fill-opacity:1;stroke:none;stroke-width:0.264583px;stroke-linecap:butt;stroke-linejoin:miter;stroke-opacity:1"
         d="m 187.30123,102.6471 -1.02477,1.80535 5.51571,-0.45883 11.30337,-0.65652 10.7092,-0.62196 6.01629,-0.40907 16.90768,1.27825 3.56615,0.23258 2.7471,-0.93755 0.89198,-1.22497 -0.54358,-8.39599 -0.4503,-8.017986 -0.9203,-1.22215 -0.8903,1.568037 0.36793,0.620414 0.29249,8.016647 0.42111,5.830378 -0.27401,1.28363 -0.64436,0.44301 -2.29415,0.3144 -12.27516,-0.8666 -7.1153,-0.74772 -9.79502,0.79722 -9.06573,0.54223 z"
         id="path66035" />
      <path
         style="fill:#3c2006;fill-opacity:1;stroke:none;stroke-width:0.264583px;stroke-linecap:butt;stroke-linejoin:miter;stroke-opacity:1"
         d="m 155.10247,85.256173 -1.05008,1.503715 2.27819,3.698798 -0.42497,-3.762351 z"
         id="path66103" />
      <path
         style="fill:#3c2006;fill-opacity:1;stroke:none;stroke-width:0.264583px;stroke-linecap:butt;stroke-linejoin:miter;stroke-opacity:1"
         d="m 217.31208,83.567973 -0.95105,1.730668 3.33315,4.844519 -1.1512,-4.584909 z"
         id="path66171" />
      <path
         style="fill:#9a6e45;fill-opacity:1;stroke:none;stroke-width:0.264583px;stroke-linecap:butt;stroke-linejoin:miter;stroke-opacity:1"
         d="m 137.481,101.68351 -0.67282,-0.75287 0.57382,-5.387163 0.22111,-1.425977 0.11038,-7.644442 0.54765,-0.567275 2.71427,-0.854381 6.37632,0.788402 6.70066,0.920084 1.05008,-1.503715 -14.61909,-2.071865 -3.46312,1.344785 -0.98305,1.02398 0.11993,1.760529 -0.32283,6.615941 0.0406,1.48903 -0.71659,5.687397 0.22772,0.72464 1.28747,1.77249 z"
         id="path66239" />
      <path
         style="fill:#9a6e45;fill-opacity:1;stroke:none;stroke-width:0.264583px;stroke-linecap:butt;stroke-linejoin:miter;stroke-opacity:1"
         d="m 155.90561,86.696335 c 0,0 0.54187,-2.356493 0.75163,-2.356493 0.20977,0 0.86126,-0.296892 0.86126,-0.296892 l 7.29432,0.145143 8.99763,-0.137856 13.06009,0.863151 13.13193,-0.933911 13.6289,-0.09858 3.68071,-0.312926 -0.95105,1.730666 -8.64077,0.33214 -7.57052,0.06343 -13.20229,1.046526 -20.75293,-0.937025 -7.71527,-0.0337 -0.85329,0.342321 -1.29538,4.346379 z"
         id="path71449"
         sodipodi:nodetypes="cscccccccccccccccc" />
      <path
         style="fill:#9a6e45;fill-opacity:1;stroke:none;stroke-width:0.264583px;stroke-linecap:butt;stroke-linejoin:miter;stroke-opacity:1"
         d="m 218.54298,85.558251 0.18051,-2.113275 0.73221,-0.413113 10.77093,0.05798 10.05594,-0.0029 1.26512,-0.008 0.47207,0.93925 -0.8903,1.568037 -0.56831,-0.62783 -0.90188,-0.446281 -18.86962,0.268523 -0.69332,0.474189 -0.40215,4.888267 z"
         id="path71630" />
      <path
         style="fill:#9a6e45;fill-opacity:1;stroke:none;stroke-width:0.264583px;stroke-linecap:butt;stroke-linejoin:miter;stroke-opacity:1"
         d="m 185.54139,102.41794 0.73507,2.03451 1.02477,-1.80535 -1.11634,-3.732934 z"
         id="path71811" />
      <path
         style="fill:#9a6e45;fill-opacity:1;stroke:none;stroke-width:0.264583px;stroke-linecap:butt;stroke-linejoin:miter;stroke-opacity:1"
         d="m 143.46118,98.382007 28.92119,2.325403 -13.13526,-2.589238 z"
         id="path71992" />
      <path
         style="fill:#9a6e45;fill-opacity:1;stroke:none;stroke-width:0.264583px;stroke-linecap:butt;stroke-linejoin:miter;stroke-opacity:1"
         d="m 183.55394,91.645114 28.19147,-1.832043 -7.33771,3.029606 z"
         id="path72060" />
      <path
         style="fill:#9a6e45;fill-opacity:1;stroke:none;stroke-width:0.264583px;stroke-linecap:butt;stroke-linejoin:miter;stroke-opacity:1"
         d="m 206.58787,98.491364 c 0.96397,0 25.68555,0.170286 25.68555,0.170286 L 220.2187,97.53969 Z"
         id="path72128" />
      <path
         style="fill:#9a6e45;fill-opacity:1;stroke:none;stroke-width:0.264583px;stroke-linecap:butt;stroke-linejoin:miter;stroke-opacity:1"
         d="m 143.1041,46.05764 c 0.60206,0 23.16708,-0.651219 23.16708,-0.651219 l -10.50226,2.551461 z"
         id="path72196" />
      <path
         style="fill:#9a6e45;fill-opacity:1;stroke:none;stroke-width:0.264583px;stroke-linecap:butt;stroke-linejoin:miter;stroke-opacity:1"
         d="m 168.39927,55.060487 c 0.46274,0 28.83525,1.761934 28.83525,1.761934 L 185.5772,55.198136 Z"
         id="path72264" />
      <path
         style="fill:#9a6e45;fill-opacity:1;stroke:none;stroke-width:0.264583px;stroke-linecap:butt;stroke-linejoin:miter;stroke-opacity:1"
         d="m 188.8406,47.095248 c 0.54134,0.08153 23.95171,-0.79951 23.95171,-0.79951 l -11.85551,1.745607 z"
         id="path72332" />
      <path
         style="fill:#9a6e45;fill-opacity:1;stroke:none;stroke-width:0.264583px;stroke-linecap:butt;stroke-linejoin:miter;stroke-opacity:1"
         d="m 212.44875,53.420525 c 1.50807,0.268587 24.7163,-0.464127 24.7163,-0.464127 l -10.98189,-0.887901 z"
         id="path72400" />
      <path
         style="fill:#989898;fill-opacity:1;stroke:none;stroke-width:0.264583px;stroke-linecap:butt;stroke-linejoin:miter;stroke-opacity:1"
         d="m 139.36429,48.257081 1.90901,-1.459833 -0.0895,-1.609693 h -0.78231 l 0.30629,-0.859142 3.18232,-0.122796 -0.1177,0.89076 -0.71645,0.09086 c 0,0 0.27379,2.251123 0.18678,2.402764 -0.087,0.151638 -2.48147,2.343121 -2.48147,2.343121 l -1.36499,-0.144558 z"
         id="path73017" />
      <path
         style="fill:#fefefe;fill-opacity:1;stroke:none;stroke-width:0.264583px;stroke-linecap:butt;stroke-linejoin:miter;stroke-opacity:1"
         d="m 139.36429,48.257081 c 0,0 1.90901,-1.459833 1.90901,-1.459833 l -0.0895,-1.609693 1.01853,0.0086 -0.0317,1.976363 -2.77437,2.616081 z"
         id="path76367" />
      <path
         style="fill:#3c2006;fill-opacity:1;stroke:none;stroke-width:0.264583px;stroke-linecap:butt;stroke-linejoin:miter;stroke-opacity:1"
         d="m 139.36429,48.257081 -0.31109,-1.026147 -0.88706,0.419584 -0.70048,1.793984 0.69177,1.829885 2.32514,1.331886 1.62928,-1.403779 -1.35059,-1.269373 -1.365,-0.144523 z"
         id="path76567" />
      <path
         style="fill:#989898;fill-opacity:1;stroke:none;stroke-width:0.264583px;stroke-linecap:butt;stroke-linejoin:miter;stroke-opacity:1"
         d="m 140.00964,92.068768 0.50738,-0.884568 2.23162,-0.158655 1.6954,1.775198 -0.66135,2.325172 -1.96411,0.42474 -1.28744,-0.948118 -0.98833,-1.475719 z"
         id="path79394" />
      <path
         style="fill:#ffffff;fill-opacity:1;stroke:none;stroke-width:0.264583px;stroke-linecap:butt;stroke-linejoin:miter;stroke-opacity:1"
         d="m 139.54281,93.126818 1.17364,0.09595 0.34247,-1.271461 1.72157,0.159782 1.66355,0.689655 -1.6954,-1.775198 -2.23162,0.158655 z"
         id="path82082" />
      <path
         style="fill:#3c2006;fill-opacity:1;stroke:none;stroke-width:0.264583px;stroke-linecap:butt;stroke-linejoin:miter;stroke-opacity:1"
         d="m 139.54281,93.126818 -0.8434,0.02455 0.44839,1.874698 2.68972,1.817314 2.39076,-0.137477 0.88379,-2.034874 -0.66803,-1.870284 -0.66135,2.325172 -1.96411,0.424738 -1.28744,-0.948116 z"
         id="path82447" />
      <path
         style="fill:#989898;fill-opacity:1;stroke:none;stroke-width:0.196744px;stroke-linecap:butt;stroke-linejoin:miter;stroke-opacity:1"
         d="m 237.82883,46.202556 -1.3542,-0.372462 -1.04825,1.072077 -0.23082,1.72487 1.42357,1.268871 2.08393,-0.399947 0.51551,-1.874943 z"
         id="path85430" />
      <path
         style="fill:#ffffff;fill-opacity:1;stroke:none;stroke-width:0.196744px;stroke-linecap:butt;stroke-linejoin:miter;stroke-opacity:1"
         d="m 235.19556,48.627041 1.08269,-0.525524 0.4806,-0.975323 1.46913,0.473205 0.99059,0.02162 -1.38974,-1.418466 -1.3542,-0.372462 -1.04825,1.072077 z"
         id="path91732" />
      <path
         style="fill:#3c2006;fill-opacity:1;stroke:none;stroke-width:0.196744px;stroke-linecap:butt;stroke-linejoin:miter;stroke-opacity:1"
         d="m 235.19556,48.627041 -0.57042,0.73829 1.04486,1.395024 2.27009,0.453821 1.09259,-0.694666 0.85698,-1.341404 -0.67109,-1.557084 -0.51551,1.874943 -2.08393,0.399947 z"
         id="path91998" />
      <path
         style="fill:#9c928a;fill-opacity:1;stroke:none;stroke-width:0.264583px;stroke-linecap:butt;stroke-linejoin:miter;stroke-opacity:1"
         d="m 239.4314,94.270532 1.60702,-0.553934 0.42971,0.635453 0.91689,-0.320615 -1.58597,-3.538685 -1.10991,0.309398 0.50654,0.867675 -1.95372,0.546187 -0.31611,1.695868 z"
         id="path94523" />
      <path
         style="fill:#ffefe2;fill-opacity:1;stroke:none;stroke-width:0.264583px;stroke-linecap:butt;stroke-linejoin:miter;stroke-opacity:1"
         d="m 237.92585,93.911877 0.31611,-1.695868 1.95372,-0.546185 0.50983,1.047186 z"
         id="path94591" />
      <path
         style="fill:#3c2006;fill-opacity:1;stroke:none;stroke-width:0.264583px;stroke-linecap:butt;stroke-linejoin:miter;stroke-opacity:1"
         d="m 238.24196,92.216009 -1.06638,-0.776341 -1.08199,1.483072 0.24332,1.751846 2.41463,1.445535 1.27443,0.07031 -0.59457,-1.919898 -1.50555,-0.358653 z"
         id="path94857" />
    </g>
  </g>
  <metadata
     id="metadata97923">
    <rdf:RDF>
      <cc:Work
         rdf:about="">
        <dc:creator>
          <cc:Agent>
            <dc:title>IcterusGames</dc:title>
          </cc:Agent>
        </dc:creator>
        <cc:license
           rdf:resource="http://creativecommons.org/publicdomain/zero/1.0/" />
      </cc:Work>
      <cc:License
         rdf:about="http://creativecommons.org/publicdomain/zero/1.0/">
        <cc:permits
           rdf:resource="http://creativecommons.org/ns#Reproduction" />
        <cc:permits
           rdf:resource="http://creativecommons.org/ns#Distribution" />
        <cc:permits
           rdf:resource="http://creativecommons.org/ns#DerivativeWorks" />
      </cc:License>
    </rdf:RDF>
  </metadata>
</svg>
