<?xml version="1.0" encoding="UTF-8" standalone="no"?>
<!-- Created with Inkscape (http://www.inkscape.org/) -->

<svg
   width="1024"
   height="512"
   viewBox="0 0 270.93332 135.46667"
   version="1.1"
   id="svg5"
   inkscape:version="1.1.2 (0a00cf5339, 2022-02-04)"
   sodipodi:docname="fence_broken_right.svg"
   xmlns:inkscape="http://www.inkscape.org/namespaces/inkscape"
   xmlns:sodipodi="http://sodipodi.sourceforge.net/DTD/sodipodi-0.dtd"
   xmlns="http://www.w3.org/2000/svg"
   xmlns:svg="http://www.w3.org/2000/svg"
   xmlns:rdf="http://www.w3.org/1999/02/22-rdf-syntax-ns#"
   xmlns:cc="http://creativecommons.org/ns#"
   xmlns:dc="http://purl.org/dc/elements/1.1/">
  <sodipodi:namedview
     id="namedview7"
     pagecolor="#505050"
     bordercolor="#ffffff"
     borderopacity="1"
     inkscape:pageshadow="0"
     inkscape:pageopacity="0"
     inkscape:pagecheckerboard="1"
     inkscape:document-units="mm"
     showgrid="false"
     units="px"
     width="512px"
     inkscape:zoom="1.622695"
     inkscape:cx="902.81908"
     inkscape:cy="187.03453"
     inkscape:window-width="1920"
     inkscape:window-height="1007"
     inkscape:window-x="0"
     inkscape:window-y="0"
     inkscape:window-maximized="1"
     inkscape:current-layer="g1481"
     showguides="true"
     inkscape:guide-bbox="true"
     inkscape:snap-global="true" />
  <defs
     id="defs2" />
  <g
     inkscape:label="Capa 1"
     inkscape:groupmode="layer"
     id="layer1">
    <g
       id="g97825"
       transform="translate(6.6904107)">
      <g
         id="g1481"
         transform="translate(0,0.44023189)">
        <g
           id="g3265"
           transform="translate(110.2803,-0.08749522)">
          <path
             style="fill:#663300;fill-opacity:1;stroke:none;stroke-width:1.5;stroke-linecap:butt;stroke-linejoin:miter;stroke-miterlimit:4;stroke-dasharray:none;stroke-opacity:1"
             d="M 14.737631,132.70158 C 13.96041,122.22698 13.418262,89.223074 14.110032,83.719172 14.41664,81.279722 14.9523,73.115273 15.433712,64.4929 c 0.05318,-0.952448 3.173102,-1.463813 3.224575,-2.420336 0.06995,-1.299918 -3.017953,-1.527097 -3.044333,-2.816939 -0.174962,-8.554562 0.917097,-17.529055 0.815602,-18.983811 -0.229999,-3.296655 0.02751,-9.383687 1.225889,-9.824236 0.464738,-0.170847 2.622308,-0.502095 5.140115,-0.716553 0.536126,-0.04566 1.571538,4.805565 2.127466,4.773166 1.371735,-0.07994 0.401589,-4.088889 1.534305,-4.922505 1.811504,-1.333167 5.432026,0.387214 5.712946,1.097263 0.862088,2.179 -0.147645,25.885422 -0.147645,29.54666 0,2.741277 -0.02278,7.068962 -1.055098,16.656103 -0.1237,1.148808 -3.531025,1.380054 -3.562175,2.246315 -0.05609,1.559825 3.4387,2.512585 3.475952,2.793885 0.230589,1.741247 1.882794,49.554618 0.382636,50.824188 -1.500159,1.26957 -11.501722,2.41359 -13.776779,1.79383 -2.275057,-0.61977 -2.749537,-1.83835 -2.749537,-1.83835 z"
             id="path857"
             sodipodi:nodetypes="cssssssssssssssssc" />
          <path
             style="fill:#9a6e45;fill-opacity:1;stroke:none;stroke-width:0.264583px;stroke-linecap:butt;stroke-linejoin:miter;stroke-opacity:1"
             d="m 14.737631,132.70158 -0.597073,-11.21022 -0.521986,-26.825418 0.398429,-12.63981 1.011789,-10.355942 0.412894,-7.735033 2.453609,-1.257705 0.999832,-0.649766 0.378007,0.607549 0.03222,1.353169 -2.23709,1.445956 -0.772043,14.523558 -0.244578,8.501518 0.284659,5.755984 -0.388845,6.92167 0.05921,13.17362 0.195713,9.63122 0.603289,8.72601 -0.314878,1.31751 -0.482861,0.24292 z"
             id="path3805"
             sodipodi:nodetypes="ccccccccccccccccccccc" />
          <path
             style="fill:#9a6e45;fill-opacity:1;stroke:none;stroke-width:0.264583px;stroke-linecap:butt;stroke-linejoin:miter;stroke-opacity:1"
             d="m 15.762334,59.400029 1.798561,-1.124246 c 0,0 0.0142,-4.815859 0.0142,-5.048605 0,-0.232748 0.847124,-11.570967 0.847124,-11.570967 l 0.05806,-9.571611 3.816702,-0.518343 1.356472,0.128926 -0.517638,-1.846326 -0.572735,-0.674613 -5.049502,1.069827 -0.882048,0.972751 -0.461181,5.498885 0.09094,3.982469 -0.458981,5.970625 v 4.815448 l -0.281992,3.57179 -0.112234,3.272332 z"
             id="path11278" />
          <path
             style="fill:#9a6e45;fill-opacity:1;stroke:none;stroke-width:0.264583px;stroke-linecap:butt;stroke-linejoin:miter;stroke-opacity:1"
             d="m 24.841339,34.534848 1.035784,1.402977 0.926719,-1.42588 0.102693,-2.109134 0.648218,-1.78082 2.542376,0.245028 0.843224,0.730504 1.469221,-0.782939 -1.011716,-0.867773 -2.580426,-1.152226 -1.565055,0.271759 -1.262288,0.282893 v 1.622832 l -0.417245,2.913044 z"
             id="path11459" />
          <path
             style="fill:#3c2006;fill-opacity:1;stroke:none;stroke-width:0.264583px;stroke-linecap:butt;stroke-linejoin:miter;stroke-opacity:1"
             d="m 16.805667,132.66794 4.613441,0.0752 7.282537,-0.94992 0.712618,-6.7548 -0.548656,-19.46265 -0.02175,-13.449561 -0.557282,-9.109078 2.693162,-1.156885 0.15621,2.734341 0.878922,12.246954 -0.207801,9.513879 0.237289,11.27295 0.08153,6.53427 -0.176064,6.41829 c 0,0 0.0928,1.7574 -0.335246,2.33026 -0.428051,0.57286 -4.007188,1.25456 -4.007188,1.25456 l -7.635868,0.94818 -3.963583,-0.8856 0.797739,-1.56043 z"
             id="path11640" />
          <path
             style="fill:#3c2006;fill-opacity:1;stroke:none;stroke-width:0.264583px;stroke-linecap:butt;stroke-linejoin:miter;stroke-opacity:1"
             d="m 27.56477,78.970353 -0.914924,-2.078588 3.014599,-1.964843 -0.40763,-10.076381 1.050891,-7.600138 0.03958,-11.430277 0.489154,-11.834006 0.103909,-2.388597 1.469221,-0.782939 0.179964,7.871962 -0.237704,17.205825 -0.08049,6.739046 -0.04269,4.587915 -0.712785,5.565923 -0.266965,4.606359 -2.368285,1.172903 z"
             id="path13952" />
          <path
             style="fill:#9a6e45;fill-opacity:1;stroke:none;stroke-width:0.264583px;stroke-linecap:butt;stroke-linejoin:miter;stroke-opacity:1"
             d="m 28.286575,83.017129 2.693162,-1.156883 -3.414967,-2.889893 -0.914924,-2.07859 -1.406265,1.463283 0.644628,2.294234 z"
             id="path14020" />
          <path
             style="fill:#3c2006;fill-opacity:1;stroke:none;stroke-width:0.264583px;stroke-linecap:butt;stroke-linejoin:miter;stroke-opacity:1"
             d="m 15.762334,59.400029 v 0 l 0.751835,1.71278 2.380956,0.914877 0.410227,1.960718 1.889336,-0.884981 -0.03879,-1.947677 -1.786439,-1.396164 -1.808562,-1.483799 z"
             id="path17939" />
          <path
             style="fill:#3c2006;fill-opacity:1;stroke:none;stroke-width:0.264583px;stroke-linecap:butt;stroke-linejoin:miter;stroke-opacity:1"
             d="m 24.841339,34.534848 -1.187886,-2.839665 -1.356472,-0.128926 0.423029,2.580026 1.540164,2.236192 1.616949,-0.44465 z"
             id="path21487" />
          <path
             style="fill:#9a6e45;fill-opacity:1;stroke:none;stroke-width:0.264583px;stroke-linecap:butt;stroke-linejoin:miter;stroke-opacity:1"
             d="m 20.080694,125.14853 -1.624665,-17.09651 0.829619,-24.374862 0.69177,24.685012 z"
             id="path21668" />
          <path
             style="fill:#9a6e45;fill-opacity:1;stroke:none;stroke-width:0.264583px;stroke-linecap:butt;stroke-linejoin:miter;stroke-opacity:1"
             d="M 24.124795,75.680281 25.558721,64.825035 24.166342,57.150587 Z"
             id="path24339" />
        </g>
        <g
           id="g32062"
           transform="translate(110.2803,-0.44023189)">
          <path
             style="fill:#663300;fill-opacity:1;stroke:none;stroke-width:1.5;stroke-linecap:butt;stroke-linejoin:miter;stroke-miterlimit:4;stroke-dasharray:none;stroke-opacity:1"
             d="m 25.099084,84.387713 c -1.501098,0.97423 -1.59394,1.654423 -1.756992,4.167256 -0.163051,2.512833 -0.926471,5.088242 -0.163051,8.335126 0.763419,3.246885 -0.03762,3.187845 0.763419,4.426255 0.801038,1.23841 8.610968,0.79983 10.33789,0.79983 1.726922,0 11.47418,-0.81526 13.375518,-0.65221 1.901338,0.16306 9.137796,1.26768 14.447967,1.26768 5.310169,0 17.737952,-1.63939 21.679469,-0.66108 1.250987,0.3105 8.738791,1.26194 14.408047,-0.18795 1.4046,-0.35922 0.388968,-4.714361 1.824569,-4.786572 1.1704,-0.05887 1.90696,4.736912 3.06719,4.667462 9.77058,-0.5848 18.89846,-1.45286 21.14369,-1.19832 4.15883,0.47149 9.50376,2.14811 9.91409,0.75094 0.41034,-1.397167 0.98488,-14.265658 -0.93509,-15.188596 -1.91998,-0.922938 -14.72155,-2.477672 -17.40207,-2.316631 -2.68051,0.161041 -27.71046,2.69708 -30.877629,2.376032 -3.167181,-0.321048 -17.015268,-0.937548 -21.387373,-1.248534 -0.653352,-0.04647 0.05685,3.828527 -0.949943,3.788712 -2.029047,-0.08024 -0.679884,-3.6296 -3.699574,-4.316775 -5.508583,-1.253559 -15.833148,0.05403 -18.938481,0.05403 -5.652267,0 -14.851646,-0.07665 -14.851646,-0.07665 z"
             id="path2109"
             sodipodi:nodetypes="csssssssssssssssssssc" />
          <path
             style="fill:#9a6e45;fill-opacity:1;stroke:none;stroke-width:0.264583px;stroke-linecap:butt;stroke-linejoin:miter;stroke-opacity:1"
             d="m 103.03476,90.316935 11.77734,0.546055 5.43257,-1.77542 z"
             id="path31448" />
          <path
             style="fill:#9a6e45;fill-opacity:1;stroke:none;stroke-width:0.264583px;stroke-linecap:butt;stroke-linejoin:miter;stroke-opacity:1"
             d="m 110.96433,95.511706 18.64358,1.262504 -9.53109,-1.812406 z"
             id="path31380" />
          <path
             style="fill:#9a6e45;fill-opacity:1;stroke:none;stroke-width:0.264583px;stroke-linecap:butt;stroke-linejoin:miter;stroke-opacity:1"
             d="M 62.396655,97.419966 94.094317,98.729209 81.600753,96.141438 Z"
             id="path31312" />
          <path
             style="fill:#9a6e45;fill-opacity:1;stroke:none;stroke-width:0.264583px;stroke-linecap:butt;stroke-linejoin:miter;stroke-opacity:1"
             d="M 28.598749,91.004294 C 29.807196,90.94336 55.08576,89.301938 55.08576,89.301938 l -11.861419,2.225707 z"
             id="path31244" />
          <path
             style="fill:#9a6e45;fill-opacity:1;stroke:none;stroke-width:0.264583px;stroke-linecap:butt;stroke-linejoin:miter;stroke-opacity:1"
             d="m 100.16867,98.021372 0.32052,0.928579 0.95909,2.547829 1.21396,1.03247 0.49448,-1.62802 -1.46448,-3.084646 -1.08758,-1.683443 -0.950891,0.158581 z"
             id="path28339" />
          <path
             style="fill:#3c2006;fill-opacity:1;stroke:none;stroke-width:0.264583px;stroke-linecap:butt;stroke-linejoin:miter;stroke-opacity:1"
             d="m 103.15672,100.90223 -0.49448,1.62802 2.2556,-0.0815 10.94467,-0.73038 5.5993,-0.29436 2.52906,-0.10406 4.64508,0.77259 4.03217,0.5721 1.4913,-0.24025 0.72651,-0.78609 0.48462,-3.710188 -0.0768,-5.60756 -0.45598,-4.836512 -0.69342,-1.661242 -1.21611,1.069059 0.41184,1.352243 0.44672,2.115199 0.0569,4.470145 -0.2967,5.984366 -0.59371,0.3439 -2.91399,-0.36817 -5.31147,-0.991911 -2.42815,0.0077 -8.87611,0.643321 -4.86163,0.0796 z"
             id="path28271" />
          <path
             style="fill:#3c2006;fill-opacity:1;stroke:none;stroke-width:0.264583px;stroke-linecap:butt;stroke-linejoin:miter;stroke-opacity:1"
             d="m 60.601833,84.303932 0.744876,0.876409 0.444468,1.162738 0.57114,1.53289 0.866802,1.467874 -0.522941,0.203697 -1.199981,-0.244578 -0.903227,-1.349021 -0.565681,-1.956477 -0.507474,-0.493585 z"
             id="path24440" />
          <path
             style="fill:#9a6e45;fill-opacity:1;stroke:none;stroke-width:0.264583px;stroke-linecap:butt;stroke-linejoin:miter;stroke-opacity:1"
             d="m 62.362317,87.875971 0.866802,1.467874 0.707408,-0.864698 0.07365,-2.280533 0.34763,-0.455658 1.845398,0.358233 3.512439,-0.0395 5.754968,0.338463 8.055162,0.462815 2.190883,0.242779 3.622812,-0.197964 11.980531,-1.062278 14.90549,-1.188382 4.72325,0.263986 9.45655,1.32597 2.52294,0.64475 1.21611,-1.06906 -0.79567,-0.631087 -4.51595,-0.891627 -7.77802,-1.185339 -6.16288,-0.176014 -4.87227,0.628425 -14.721537,1.28551 -7.970078,0.65019 H 84.18215 l -9.02517,-0.67804 -11.155199,-0.620855 h -0.953714 l -0.446302,0.354118 v 0.428519 l -0.115295,1.64121 z"
             id="path24259" />
          <path
             style="fill:#9a6e45;fill-opacity:1;stroke:none;stroke-width:0.264583px;stroke-linecap:butt;stroke-linejoin:miter;stroke-opacity:1"
             d="m 23.627789,101.99486 1.070001,-1.30191 -0.285726,-0.53652 v -1.487845 l -0.691771,-3.417409 0.300456,-4.566563 0.578616,-4.439075 0.300216,-0.487426 0.948092,-0.576498 9.641373,0.0956 6.628718,0.06685 8.207004,-0.693624 6.867533,0.261882 2.337514,0.591558 1.072018,-1.199946 -1.289865,-0.600937 -4.353542,-0.648476 -6.177928,-0.02103 -7.85215,0.650806 -5.911615,-0.112935 -4.497908,0.123899 -5.438368,-0.172955 -0.752089,0.287877 -0.705589,0.768826 -0.754105,1.176214 -0.296085,3.611144 -0.347767,3.187166 -0.0256,2.87942 0.267914,1.624592 0.299212,1.719998 0.02676,1.868517 z"
             id="path21432" />
          <path
             style="fill:#3c2006;fill-opacity:1;stroke:none;stroke-width:0.264583px;stroke-linecap:butt;stroke-linejoin:miter;stroke-opacity:1"
             d="m 24.69779,100.69295 1.089348,0.41166 3.056538,0.1664 17.065215,-0.71367 3.311556,0.17294 2.888801,0.51776 10.245082,0.69349 7.817058,-0.49602 9.297789,-0.58329 3.756504,0.16669 3.260889,0.57157 c 0,0 6.184143,0.13539 6.469661,0.19115 0.285517,0.0558 5.088355,-0.6232 5.088355,-0.6232 l 0.354486,-2.437673 0.422892,-1.760128 0.831807,-0.677907 0.514899,1.728652 -0.226696,1.193398 -0.437761,2.777648 -0.599403,0.55614 -1.632863,0.55449 -5.29101,0.28698 -6.262579,-0.0116 -3.427759,-0.63268 -11.145226,0.11697 -8.214236,0.73811 -4.895723,-0.33603 -9.626899,-1.01877 -4.53332,0.11529 -12.236969,0.6927 -4.529936,-0.21962 -1.813133,-0.16282 -1.007269,-0.25124 -0.660099,-0.42549 z"
             id="path28203" />
        </g>
        <g
           id="g32036"
           transform="translate(110.2803,-0.44023189)">
          <path
             style="fill:#663300;fill-opacity:1;stroke:none;stroke-width:1.5;stroke-linecap:butt;stroke-linejoin:miter;stroke-miterlimit:4;stroke-dasharray:none;stroke-opacity:1"
             d="m 27.956123,40.731511 c -1.15449,0.644493 -1.622382,0.928582 -1.711228,3.597251 -0.08885,2.66867 -1.194242,8.878491 -0.274279,9.639202 0.919961,0.760714 6.866273,2.424779 9.248521,2.424779 2.38225,0 18.784356,-0.06821 20.487285,0.01929 0.895113,0.04599 12.333611,-1.316067 19.537102,-1.873639 2.489258,-0.192676 2.780532,-6.878195 3.721422,-5.037026 1.199974,2.348153 0.01709,4.835994 0.735893,4.875633 2.956708,0.163052 28.023061,2.596925 31.404151,3.083065 3.38108,0.486141 20.84899,0.956061 21.91547,-0.02368 1.06647,-0.979744 2.09185,-16.243274 0.29166,-16.567311 -1.80019,-0.324041 -19.62892,-0.41135 -22.38014,-0.41135 -2.75123,0 -22.965526,-2.10956 -26.096341,-2.10956 -3.130817,0 -24.007876,1.364448 -26.704787,1.038344 C 55.433938,39.0604 38.723503,38.523124 35.6875,39.012278 c -3.036004,0.489156 -7.731377,1.719225 -7.731377,1.719225 z"
             id="path2107"
             sodipodi:nodetypes="ssssssssssssssscs" />
          <path
             style="fill:#9a6e45;fill-opacity:1;stroke:none;stroke-width:0.264583px;stroke-linecap:butt;stroke-linejoin:miter;stroke-opacity:1"
             d="m 25.153552,54.580985 1.506473,-1.484225 -0.05837,-2.522064 0.493395,-5.584473 0.234215,-2.400572 0.39054,-0.60918 4.203499,-1.35722 4.305149,-0.82819 6.753273,-0.176049 15.254028,0.571497 11.268112,-0.411876 11.082438,-0.472673 6.549554,-0.176001 14.305222,1.313415 10.56686,1.089393 7.51652,-0.05765 11.27919,0.185183 2.23114,0.0075 1.05342,-1.415058 -2.00942,-0.35859 -8.9069,-0.285815 -12.07402,0.05944 -3.2757,-0.262546 -14.454438,-1.238104 -8.093051,-0.825368 -6.32628,0.522769 -10.141482,0.239059 -6.891324,0.490149 -3.664283,0.115295 -8.284306,-0.744107 -8.750792,-0.02703 H 35.52553 l -2.364322,0.651592 -3.771966,0.778124 -2.57515,0.970711 -0.831177,1.033021 -0.432816,1.701829 -0.289612,5.234324 -0.353104,2.861331 -0.0026,2.522849 z"
             id="path12306"
             sodipodi:nodetypes="ccccccccccccccccccccccccccccccccccccccccc" />
          <path
             style="fill:#9a6e45;fill-opacity:1;stroke:none;stroke-width:0.264583px;stroke-linecap:butt;stroke-linejoin:miter;stroke-opacity:1"
             d="m 78.532547,50.860721 0.02703,-2.564339 0.589222,0.13257 0.570486,0.486947 0.668341,2.193303 0.01519,1.542849 -0.181213,1.020582 -1.130271,1.459654 -0.441958,-0.99495 0.221036,-1.953548 z"
             id="path15878" />
          <path
             style="fill:#3c2006;fill-opacity:1;stroke:none;stroke-width:0.264583px;stroke-linecap:butt;stroke-linejoin:miter;stroke-opacity:1"
             d="m 25.153552,54.580985 2.531667,1.193038 4.671266,1.171281 2.206297,0.281816 20.924988,0.04048 8.408927,-0.70452 7.744076,-0.944438 3.863065,-0.2336 1.498317,-0.779794 0.657241,-1.087434 0.637968,-1.650331 0.235183,-1.006761 0.02703,-2.564339 -0.706787,0.472535 -0.776422,1.413876 -1.091824,2.956605 -1.559709,0.760658 -11.755641,1.066766 -6.474661,0.548272 -9.74268,-0.01064 -11.961297,0.0019 -7.830531,-2.409521 z"
             id="path16059" />
          <path
             style="fill:#3c2006;fill-opacity:1;stroke:none;stroke-width:0.264583px;stroke-linecap:butt;stroke-linejoin:miter;stroke-opacity:1"
             d="m 79.091331,55.132287 0.542983,0.229573 6.444676,0.508178 17.11616,1.56509 8.79057,1.006607 4.93594,0.252052 12.26674,0.112888 3.65577,-0.365131 0.89761,-0.628565 0.91469,-3.792961 0.44465,-7.834034 -0.31084,-4.189262 -0.70207,-1.74398 -1.05342,1.415058 0.51105,2.301698 -0.12927,6.051748 -0.57649,5.393201 -0.18492,1.121097 -0.5822,0.611251 -5.97026,0.09789 -9.27525,-0.09872 -5.81217,-0.419309 L 99.506854,55.39114 88.753766,54.311727 80.221602,53.672639 Z"
             id="path18371"
             sodipodi:nodetypes="cccccccccccccccccccccccccc" />
          <path
             style="fill:#9a6e45;fill-opacity:1;stroke:none;stroke-width:0.264583px;stroke-linecap:butt;stroke-linejoin:miter;stroke-opacity:1"
             d="m 33.681937,45.701227 c 0.741487,0 14.539192,-0.824576 14.539192,-0.824576 l 16.268658,0.176096 -16.94842,1.498822 z"
             id="path31629" />
          <path
             style="fill:#9a6e45;fill-opacity:1;stroke:none;stroke-width:0.264583px;stroke-linecap:butt;stroke-linejoin:miter;stroke-opacity:1"
             d="m 94.164765,51.176168 c 2.255854,0.634177 15.984325,2.755088 15.984325,2.755088 l 9.82285,-1.430102 z"
             id="path31697" />
          <path
             style="fill:#9a6e45;fill-opacity:1;stroke:none;stroke-width:0.264583px;stroke-linecap:butt;stroke-linejoin:miter;stroke-opacity:1"
             d="M 127.59382,47.103532 121.86744,45.065473 109.1261,45.61818 Z"
             id="path31765" />
          <path
             style="fill:#9a6e45;fill-opacity:1;stroke:none;stroke-width:0.264583px;stroke-linecap:butt;stroke-linejoin:miter;stroke-opacity:1"
             d="m 71.761085,51.290582 -9.29658,0.831329 c 0,0 -7.17183,-1.163021 -6.670366,-1.163021 0.501462,0 16.722029,0.359074 16.722029,0.359074 z"
             id="path31833" />
        </g>
        <path
           style="fill:#989898;fill-opacity:1;stroke:none;stroke-width:0.264583px;stroke-linecap:butt;stroke-linejoin:miter;stroke-opacity:1"
           d="m 138.91485,46.02667 1.84746,-1.375304 0.007,-2.523921 h -0.82904 l 0.20985,-0.572159 3.38302,-0.07981 -0.13028,0.865952 h -1.18809 l -0.46614,2.94563 -2.29508,1.905 -0.71702,-0.159287 z"
           id="path32253" />
        <path
           style="fill:#3c2006;fill-opacity:1;stroke:none;stroke-width:0.264583px;stroke-linecap:butt;stroke-linejoin:miter;stroke-opacity:1"
           d="m 138.91485,46.02667 v 0 l -0.17812,1.0061 0.71702,0.159287 0.79987,1.017934 -1.9119,-0.259818 -0.92028,-1.010195 0.61619,-1.477227 z"
           id="path34414" />
        <path
           style="fill:#ffffff;fill-opacity:1;stroke:none;stroke-width:0.264583px;stroke-linecap:butt;stroke-linejoin:miter;stroke-opacity:1"
           d="m 138.91485,46.02667 1.84746,-1.375304 0.007,-2.523921 0.6536,0.147487 -0.18843,2.602402 -1.86055,1.670364 -0.6374,0.485072 z"
           id="path36851" />
        <path
           style="fill:#989898;fill-opacity:1;stroke:none;stroke-width:0.264583px;stroke-linecap:butt;stroke-linejoin:miter;stroke-opacity:1"
           d="m 136.25625,92.275985 1.69135,1.056936 0.26034,-0.724165 0.62184,0.289634 -0.72425,2.453061 -0.79304,0.02225 0.2119,-0.99274 -1.44069,-0.743011 -0.41814,-0.920716 z"
           id="path37428" />
        <path
           style="fill:#3c2006;fill-opacity:1;stroke:none;stroke-width:0.264583px;stroke-linecap:butt;stroke-linejoin:miter;stroke-opacity:1"
           d="m 136.25625,92.275985 0.48032,-0.840606 -1.17767,0.0057 -0.57095,0.586882 -0.47043,1.388359 0.83783,0.96602 0.806,0.564018 -0.0777,-1.308386 -0.41814,-0.920715 z"
           id="path42068" />
        <path
           style="fill:#ffffff;fill-opacity:1;stroke:none;stroke-width:0.264583px;stroke-linecap:butt;stroke-linejoin:miter;stroke-opacity:1"
           d="m 136.25625,92.275985 1.69135,1.056936 -0.13786,0.523639 -2.14418,-1.139303 z"
           id="path44938" />
        <path
           style="fill:#989898;fill-opacity:1;stroke:none;stroke-width:0.264583px;stroke-linecap:butt;stroke-linejoin:miter;stroke-opacity:1"
           d="m 240.31595,47.746784 -2.13065,1.347514 -0.79353,-0.883242 -0.94911,0.546863 2.32253,3.586998 0.80594,-0.716981 -0.64894,-1.095088 2.1607,-1.137321 0.59846,-1.044863 z"
           id="path45713"
           sodipodi:nodetypes="cccccccccc" />
        <path
           style="fill:#3c2006;fill-opacity:1;stroke:none;stroke-width:0.264583px;stroke-linecap:butt;stroke-linejoin:miter;stroke-opacity:1"
           d="m 240.31595,47.746784 -0.7871,-0.811173 1.65618,-0.156575 1.08404,0.342646 0.41837,1.078095 0.18282,2.081427 -1.11188,0.394904 -0.67549,-1.280581 0.59846,-1.044863 z"
           id="path49875" />
        <path
           style="fill:#ffffff;fill-opacity:1;stroke:none;stroke-width:0.264583px;stroke-linecap:butt;stroke-linejoin:miter;stroke-opacity:1"
           d="m 238.1853,49.094296 0.4093,0.768552 3.08675,-1.512184 -1.3654,-0.60388 z"
           id="path51532" />
        <path
           style="fill:#989898;fill-opacity:1;stroke:none;stroke-width:0.264583px;stroke-linecap:butt;stroke-linejoin:miter;stroke-opacity:1"
           d="m 240.55115,94.263828 1.66773,-1.288661 1.69302,-0.09072 0.0408,0.922665 0.41824,-0.103587 0.42152,-0.140816 -0.051,-3.069604 -0.96231,-0.204105 v 0.928714 l -2.29679,-0.05049 -2.0919,1.564174 -0.19591,1.528593 z"
           id="path52241" />
        <path
           style="fill:#ffffff;fill-opacity:1;stroke:none;stroke-width:0.264583px;stroke-linecap:butt;stroke-linejoin:miter;stroke-opacity:1"
           d="m 239.19455,94.259989 2.72314,-2.283968 1.93382,-0.01807 -0.0724,-0.740235 -2.29679,-0.05049 -2.0919,1.564175 z"
           id="path55657" />
        <path
           style="fill:#3c2006;fill-opacity:1;stroke:none;stroke-width:0.264583px;stroke-linecap:butt;stroke-linejoin:miter;stroke-opacity:1"
           d="m 239.39046,92.731396 c -4e-5,3e-6 -0.32139,-1.034767 -0.32139,-1.034767 l -1.30508,0.478028 0.14043,1.548315 -0.0887,1.262729 1.35265,0.437026 1.68243,0.554172 -0.29961,-1.713073 -1.3566,-0.0038 z"
           id="path55956" />
      </g>
      <g
         id="g1249"
         transform="rotate(-17.524791,186.90364,463.18463)">
        <path
           style="fill:#663300;fill-opacity:1;stroke:none;stroke-width:1.5;stroke-linecap:butt;stroke-linejoin:miter;stroke-miterlimit:4;stroke-dasharray:none;stroke-opacity:1"
           d="m 136.79414,87.501769 0.032,-1.875692 3.86403,-1.464451 13.91243,1.8699 1.4637,2.48679 1.15269,-3.560454 29.7512,0.993601 21.75717,-1.214816 8.099,-0.356734 2.27691,3.447624 0.35527,-3.855521 7.78419,-0.05091 13.77007,0.0286 1.08395,1.794097 0.65822,10.77599 0.2968,5.300687 -2.82694,1.13155 -20.47194,-1.4594 -33.09371,2.04556 -0.75701,-3.01206 -2.20278,2.89782 -19.71938,-1.20199 -19.36358,0.49141 h -7.52897 l -1.23309,-1.45312 0.81526,-6.855868 z"
           id="path58328"
           sodipodi:nodetypes="ccccccccccccccccccccccccccc" />
        <path
           style="fill:#3c2006;fill-opacity:1;stroke:none;stroke-width:0.264583px;stroke-linecap:butt;stroke-linejoin:miter;stroke-opacity:1"
           d="m 136.67349,103.6031 0.80751,-1.91959 6.57745,0.23844 12.33121,-0.36408 7.73665,-0.16503 19.27528,1.16228 2.7833,-3.640954 -0.6435,3.503774 -1.73607,1.95701 -1.09549,0.0192 -19.13585,-1.35343 -11.16648,0.31451 -8.52982,0.2126 z"
           id="path65967" />
        <path
           style="fill:#3c2006;fill-opacity:1;stroke:none;stroke-width:0.264583px;stroke-linecap:butt;stroke-linejoin:miter;stroke-opacity:1"
           d="m 187.30123,102.6471 -1.02477,1.80535 5.51571,-0.45883 11.30337,-0.65652 10.7092,-0.62196 6.01629,-0.40907 16.90768,1.27825 3.56615,0.23258 2.7471,-0.93755 0.89198,-1.22497 -0.54358,-8.39599 -0.4503,-8.017986 -0.9203,-1.22215 -0.8903,1.568037 0.36793,0.620414 0.29249,8.016647 0.42111,5.830378 -0.27401,1.28363 -0.64436,0.44301 -2.29415,0.3144 -12.27516,-0.8666 -7.1153,-0.74772 -9.79502,0.79722 -9.06573,0.54223 z"
           id="path66035" />
        <path
           style="fill:#3c2006;fill-opacity:1;stroke:none;stroke-width:0.264583px;stroke-linecap:butt;stroke-linejoin:miter;stroke-opacity:1"
           d="m 155.10247,85.256173 -1.05008,1.503715 2.27819,3.698798 -0.42497,-3.762351 z"
           id="path66103" />
        <path
           style="fill:#3c2006;fill-opacity:1;stroke:none;stroke-width:0.264583px;stroke-linecap:butt;stroke-linejoin:miter;stroke-opacity:1"
           d="m 217.31208,83.567973 -0.95105,1.730668 3.33315,4.844519 -1.1512,-4.584909 z"
           id="path66171" />
        <path
           style="fill:#9a6e45;fill-opacity:1;stroke:none;stroke-width:0.264583px;stroke-linecap:butt;stroke-linejoin:miter;stroke-opacity:1"
           d="m 137.481,101.68351 -0.67282,-0.75287 0.57382,-5.387163 0.22111,-1.425977 0.11038,-7.644442 0.54765,-0.567275 2.71427,-0.854381 6.37632,0.788402 6.70066,0.920084 1.05008,-1.503715 -14.61909,-2.071865 -3.46312,1.344785 -0.98305,1.02398 0.11993,1.760529 -0.32283,6.615941 0.0406,1.48903 -0.71659,5.687397 0.22772,0.72464 1.28747,1.77249 z"
           id="path66239" />
        <path
           style="fill:#9a6e45;fill-opacity:1;stroke:none;stroke-width:0.264583px;stroke-linecap:butt;stroke-linejoin:miter;stroke-opacity:1"
           d="m 155.90561,86.696335 c 0,0 0.54187,-2.356493 0.75163,-2.356493 0.20977,0 0.86126,-0.296892 0.86126,-0.296892 l 7.29432,0.145143 8.99763,-0.137856 13.06009,0.863151 13.13193,-0.933911 13.6289,-0.09858 3.68071,-0.312926 -0.95105,1.730666 -8.64077,0.33214 -7.57052,0.06343 -13.20229,1.046526 -20.75293,-0.937025 -7.71527,-0.0337 -0.85329,0.342321 -1.29538,4.346379 z"
           id="path71449"
           sodipodi:nodetypes="cscccccccccccccccc" />
        <path
           style="fill:#9a6e45;fill-opacity:1;stroke:none;stroke-width:0.264583px;stroke-linecap:butt;stroke-linejoin:miter;stroke-opacity:1"
           d="m 218.54298,85.558251 0.18051,-2.113275 0.73221,-0.413113 10.77093,0.05798 10.05594,-0.0029 1.26512,-0.008 0.47207,0.93925 -0.8903,1.568037 -0.56831,-0.62783 -0.90188,-0.446281 -18.86962,0.268523 -0.69332,0.474189 -0.40215,4.888267 z"
           id="path71630" />
        <path
           style="fill:#9a6e45;fill-opacity:1;stroke:none;stroke-width:0.264583px;stroke-linecap:butt;stroke-linejoin:miter;stroke-opacity:1"
           d="m 185.54139,102.41794 0.73507,2.03451 1.02477,-1.80535 -1.11634,-3.732934 z"
           id="path71811" />
        <path
           style="fill:#9a6e45;fill-opacity:1;stroke:none;stroke-width:0.264583px;stroke-linecap:butt;stroke-linejoin:miter;stroke-opacity:1"
           d="m 143.46118,98.382007 28.92119,2.325403 -13.13526,-2.589238 z"
           id="path71992" />
        <path
           style="fill:#9a6e45;fill-opacity:1;stroke:none;stroke-width:0.264583px;stroke-linecap:butt;stroke-linejoin:miter;stroke-opacity:1"
           d="m 183.55394,91.645114 28.19147,-1.832043 -7.33771,3.029606 z"
           id="path72060" />
        <path
           style="fill:#9a6e45;fill-opacity:1;stroke:none;stroke-width:0.264583px;stroke-linecap:butt;stroke-linejoin:miter;stroke-opacity:1"
           d="m 206.58787,98.491364 c 0.96397,0 25.68555,0.170286 25.68555,0.170286 L 220.2187,97.53969 Z"
           id="path72128" />
        <path
           style="fill:#989898;fill-opacity:1;stroke:none;stroke-width:0.264583px;stroke-linecap:butt;stroke-linejoin:miter;stroke-opacity:1"
           d="m 237.56063,92.857051 0.50738,-0.884568 2.23162,-0.158655 1.6954,1.775198 -0.66135,2.325172 -1.96411,0.42474 -1.28744,-0.948118 -0.98833,-1.475719 z"
           id="path79394" />
        <path
           style="fill:#ffffff;fill-opacity:1;stroke:none;stroke-width:0.264583px;stroke-linecap:butt;stroke-linejoin:miter;stroke-opacity:1"
           d="m 237.0938,93.915101 1.17364,0.09595 0.34247,-1.271461 1.72157,0.159782 1.66355,0.689655 -1.6954,-1.775198 -2.23162,0.158655 z"
           id="path82082" />
        <path
           style="fill:#3c2006;fill-opacity:1;stroke:none;stroke-width:0.264583px;stroke-linecap:butt;stroke-linejoin:miter;stroke-opacity:1"
           d="m 237.0938,93.915101 -0.8434,0.02455 0.44839,1.874698 2.68972,1.817314 2.39076,-0.137477 0.88379,-2.034874 -0.66803,-1.870284 -0.66135,2.325172 -1.96411,0.424738 -1.28744,-0.948116 z"
           id="path82447" />
        <g
           id="g14858"
           transform="rotate(-41.997621,258.15788,55.436597)">
          <path
             style="fill:#663300;fill-opacity:1;stroke:none;stroke-width:1.5;stroke-linecap:butt;stroke-linejoin:miter;stroke-miterlimit:4;stroke-dasharray:none;stroke-opacity:1"
             d="m 257.23252,58.231102 1.7306,-1.055069 1.907,-4.824997 -1.09647,-5.129685 -0.0559,-4.264769 -1.65625,-1.794387 -7.97259,-2.447771 -10.2927,0.458716 -9.98801,-1.749477 -12.89593,-0.553643 -2.27023,1.701805 0.83591,2.678805 5.89387,0.363189 1.70802,1.340325 -2.19641,0.687164 -4.08323,1.501011 -3.92348,1.214155 -0.89633,2.180656 1.26482,2.100989 3.74556,2.638201 1.37026,2.062369 5.23308,0.135926 6.8293,0.691212 5.7073,-1.850976 6.73572,2.303279 10.04633,0.988992 z"
             id="path1516" />
          <path
             style="fill:#9a6e45;fill-opacity:1;stroke:none;stroke-width:0.264583px;stroke-linecap:butt;stroke-linejoin:miter;stroke-opacity:1"
             d="m 214.84589,41.99186 c 0.2156,-0.07458 1.37486,-1.537088 1.37486,-1.537088 l -0.54789,-1.52635 1.54783,-1.280832 6.08657,0.273718 6.63934,0.352981 9.84377,1.751436 10.15232,-0.527882 7.64582,2.324615 0.71701,0.733125 0.9847,-1.1536 -0.82384,-0.952955 -8.40941,-2.567788 -10.30905,0.516708 -9.958,-1.727357 -13.30226,-0.630243 -2.67388,2.200963 -0.007,0.674015 z"
             id="path3261" />
          <path
             style="fill:#9a6e45;fill-opacity:1;stroke:none;stroke-width:0.264583px;stroke-linecap:butt;stroke-linejoin:miter;stroke-opacity:1"
             d="m 211.94624,49.845129 1.01048,-1.221719 -0.1424,-0.116712 0.74115,-1.547461 11.16814,-3.70123 -3.42494,-0.529998 -9.07973,3.060755 -1.13393,2.747077 z"
             id="path4571" />
          <path
             style="fill:#3c2006;fill-opacity:1;stroke:none;stroke-width:0.264583px;stroke-linecap:butt;stroke-linejoin:miter;stroke-opacity:1"
             d="m 212.95672,48.62341 0.93257,1.507546 3.71372,2.625403 c 0,0 1.1366,1.779334 1.23824,1.841655 0.10163,0.06232 4.81986,0.09455 4.81986,0.09455 l 6.67509,0.738102 5.76621,-1.946346 6.98473,2.377533 13.96722,1.587348 1.38004,-0.749221 1.65852,-4.53693 -1.13055,-4.859949 0.0849,-3.93101 -0.74176,-0.816503 0.9847,-1.1536 1.23775,1.320151 0.0529,4.43579 1.13281,5.411037 -2.15548,5.200981 -2.1419,1.358931 -14.87404,-1.701636 -6.44977,-2.233343 -5.64006,1.850046 -12.27249,-0.869989 -0.48742,-0.270495 -1.22497,-2.124611 -3.88138,-2.6767 -0.63997,-1.257015 z"
             id="path4752" />
          <path
             style="fill:#9a6e45;fill-opacity:1;stroke:none;stroke-width:0.264583px;stroke-linecap:butt;stroke-linejoin:miter;stroke-opacity:1"
             d="m 254.63703,44.841677 -9.88338,-1.972661 -10.47887,0.850407 z"
             id="path5750" />
          <path
             style="fill:#9a6e45;fill-opacity:1;stroke:none;stroke-width:0.264583px;stroke-linecap:butt;stroke-linejoin:miter;stroke-opacity:1"
             d="m 220.63654,51.314831 18.75306,0.465077 -13.65242,-1.718301 z"
             id="path7840" />
          <path
             style="fill:#989898;fill-opacity:1;stroke:none;stroke-width:0.264583px;stroke-linecap:butt;stroke-linejoin:miter;stroke-opacity:1"
             d="m 257.80567,53.193516 1.9703,1.556467 0.73082,2.524202 0.92427,-0.368184 0.19422,0.880367 -2.73451,1.130291 -0.42702,-0.651919 0.78116,-0.456539 -0.58733,-2.2853 -1.68119,-1.194471 -0.20651,-1.077558 z"
             id="path8021" />
          <path
             style="fill:#ffffff;fill-opacity:1;stroke:none;stroke-width:0.264583px;stroke-linecap:butt;stroke-linejoin:miter;stroke-opacity:1"
             d="m 256.76988,53.250872 2.4395,1.873581 1.29741,2.149732 -0.73082,-2.524202 -1.9703,-1.556466 z"
             id="path9565" />
          <path
             style="fill:#3c2006;fill-opacity:1;stroke:none;stroke-width:0.264583px;stroke-linecap:butt;stroke-linejoin:miter;stroke-opacity:1"
             d="m 257.80567,53.193517 0.76016,-0.374898 -0.86684,-1.21963 -1.372,0.13006 -1.41958,1.377792 0.81453,2.454239 1.05798,0.08927 0.19647,-1.32192 -0.20651,-1.077558 z"
             id="path9911" />
          <path
             style="fill:#3c2006;fill-opacity:1;stroke:none;stroke-width:0.264583px;stroke-linecap:butt;stroke-linejoin:miter;stroke-opacity:1"
             d="m 216.22075,40.454773 5.57555,0.327336 2.92731,2.475899 -3.42494,-0.529999 v 0 l -0.39359,-0.475413 -6.05919,-0.260734 z"
             id="path13284" />
        </g>
      </g>
    </g>
  </g>
  <metadata
     id="metadata97923">
    <rdf:RDF>
      <cc:Work
         rdf:about="">
        <dc:creator>
          <cc:Agent>
            <dc:title>IcterusGames</dc:title>
          </cc:Agent>
        </dc:creator>
        <cc:license
           rdf:resource="http://creativecommons.org/publicdomain/zero/1.0/" />
      </cc:Work>
      <cc:License
         rdf:about="http://creativecommons.org/publicdomain/zero/1.0/">
        <cc:permits
           rdf:resource="http://creativecommons.org/ns#Reproduction" />
        <cc:permits
           rdf:resource="http://creativecommons.org/ns#Distribution" />
        <cc:permits
           rdf:resource="http://creativecommons.org/ns#DerivativeWorks" />
      </cc:License>
    </rdf:RDF>
  </metadata>
</svg>
