<?xml version="1.0" encoding="UTF-8" standalone="no"?>
<!-- Created with Inkscape (http://www.inkscape.org/) -->

<svg
   width="512"
   height="512"
   viewBox="0 0 135.46667 135.46667"
   version="1.1"
   id="svg5"
   inkscape:version="1.1.2 (0a00cf5339, 2022-02-04)"
   sodipodi:docname="grain.svg"
   xmlns:inkscape="http://www.inkscape.org/namespaces/inkscape"
   xmlns:sodipodi="http://sodipodi.sourceforge.net/DTD/sodipodi-0.dtd"
   xmlns="http://www.w3.org/2000/svg"
   xmlns:svg="http://www.w3.org/2000/svg"
   xmlns:rdf="http://www.w3.org/1999/02/22-rdf-syntax-ns#"
   xmlns:cc="http://creativecommons.org/ns#"
   xmlns:dc="http://purl.org/dc/elements/1.1/">
  <sodipodi:namedview
     id="namedview7"
     pagecolor="#505050"
     bordercolor="#ffffff"
     borderopacity="1"
     inkscape:pageshadow="0"
     inkscape:pageopacity="0"
     inkscape:pagecheckerboard="1"
     inkscape:document-units="mm"
     showgrid="false"
     showguides="true"
     inkscape:guide-bbox="true"
     inkscape:zoom="1.1474186"
     inkscape:cx="201.75723"
     inkscape:cy="241.41145"
     inkscape:window-width="1920"
     inkscape:window-height="1007"
     inkscape:window-x="0"
     inkscape:window-y="0"
     inkscape:window-maximized="1"
     inkscape:current-layer="layer1"
     fit-margin-top="0"
     fit-margin-left="0"
     fit-margin-right="0"
     fit-margin-bottom="0"
     units="px"
     width="512px"
     inkscape:snap-nodes="true"
     inkscape:object-paths="false"
     inkscape:object-nodes="true"
     inkscape:snap-intersection-paths="false"
     inkscape:snap-midpoints="false"
     inkscape:snap-smooth-nodes="false"
     inkscape:snap-to-guides="true"
     inkscape:snap-page="true">
    <sodipodi:guide
       position="75.222861,1.5000022"
       orientation="0,-1"
       id="guide7517" />
  </sodipodi:namedview>
  <defs
     id="defs2" />
  <g
     inkscape:label="Capa 1"
     inkscape:groupmode="layer"
     id="layer1"
     transform="translate(-25.54499,-8.264657)">
    <path
       style="fill:#a1691a;fill-opacity:1;stroke:#a1691a;stroke-width:0.264583px;stroke-linecap:butt;stroke-linejoin:miter;stroke-opacity:1"
       d="m 25.54499,143.73132 c 0,-40.85319 5.751293,-105.699909 6.683576,-102.832143 0.932282,2.867769 0.855012,36.105306 3.100992,22.749486 2.24598,-13.355822 0.597192,-34.914103 2.150734,-28.986648 1.553541,5.927454 6.65036,36.70855 7.821888,25.895807 1.171528,-10.812746 3.249788,-32.511419 3.485071,-24.382299 0.235284,8.129119 5.923564,45.503878 5.808269,35.143551 -0.115295,-10.360324 -1.301724,-21.409493 0.99373,-28.652181 2.295454,-7.242691 0.03042,7.611811 7.561138,18.9949 7.530719,11.383092 6.636065,-2.936909 4.592751,-17.316346 -2.043313,-14.379437 -5.161936,-12.919448 4.356322,-5.223375 9.518259,7.696075 1.544577,40.138711 5.122577,26.66529 3.578003,-13.47342 5.519542,-26.024665 4.848675,-29.493401 -0.67087,-3.468736 5.593141,12.993137 4.180615,18.266939 -1.412526,5.2738 3.489849,-3.427465 5.750705,-9.172485 2.260857,-5.745019 4.406615,-9.888489 6.591515,-0.556744 2.184892,9.331743 -0.985216,29.304332 5.159912,15.311078 6.14514,-13.993257 8.18922,-27.729807 9.62135,-20.997577 1.43212,6.732231 4.43495,27.855003 8.66579,12.442219 4.23083,-15.412783 3.4901,-14.027824 5.66707,-7.6029 2.17698,6.424925 -2.07241,19.960204 3.48503,7.168629 5.55745,-12.791572 5.03449,-20.538585 10.22079,-4.251844 5.18629,16.286742 3.58969,5.228908 7.55377,-1.823513 3.96407,-7.052418 6.01899,-3.27914 7.60506,13.80545 1.58606,17.084593 4.43934,33.930547 4.43933,84.848107 -23.75827,0 -135.46666,0 -135.46666,0"
       id="path105486"
       sodipodi:nodetypes="cssssssssssssssssssssssscc" />
    <g
       id="g105338"
       transform="translate(0.14303333,2.4937537)">
      <g
         id="g105248">
        <path
           style="fill:none;stroke:#573a09;stroke-width:3;stroke-linecap:round;stroke-linejoin:bevel;stroke-miterlimit:4;stroke-dasharray:none;stroke-opacity:1"
           d="m 124.27643,139.73757 c 0.93822,-38.42776 18.82061,-88.112348 18.82061,-88.112348"
           id="path101623" />
        <path
           style="fill:none;stroke:#573a09;stroke-width:3;stroke-linecap:round;stroke-linejoin:bevel;stroke-miterlimit:4;stroke-dasharray:none;stroke-opacity:1"
           d="M 138.18376,139.73757 C 136.9481,85.03173 119.74596,63.320249 119.74596,63.320249"
           id="path101625" />
        <path
           style="fill:none;stroke:#573a09;stroke-width:3;stroke-linecap:round;stroke-linejoin:bevel;stroke-miterlimit:4;stroke-dasharray:none;stroke-opacity:1"
           d="M 100.76785,139.73757 C 99.030212,89.077373 114.12071,47.496499 114.12071,47.496499"
           id="path101627" />
        <path
           style="fill:none;stroke:#573a09;stroke-width:3;stroke-linecap:round;stroke-linejoin:bevel;stroke-miterlimit:4;stroke-dasharray:none;stroke-opacity:1"
           d="m 117.90858,139.73757 c 5.88265,-51.708153 16.92699,-94.709041 16.92699,-94.709041"
           id="path101629" />
        <path
           style="fill:none;stroke:#573a09;stroke-width:3;stroke-linecap:round;stroke-linejoin:bevel;stroke-miterlimit:4;stroke-dasharray:none;stroke-opacity:1"
           d="M 95.30291,139.73757 C 96.686451,107.02529 94.875074,50.497401 94.875074,50.497401"
           id="path101631" />
        <path
           style="fill:none;stroke:#573a09;stroke-width:3;stroke-linecap:round;stroke-linejoin:bevel;stroke-miterlimit:4;stroke-dasharray:none;stroke-opacity:1"
           d="M 106.69937,139.73757 C 107.60887,91.180929 82.672117,53.166266 82.672117,53.166266"
           id="path101633" />
        <path
           style="fill:none;stroke:#573a09;stroke-width:3;stroke-linecap:round;stroke-linejoin:bevel;stroke-miterlimit:4;stroke-dasharray:none;stroke-opacity:1"
           d="M 65.579981,139.73757 C 68.576623,78.972647 83.824695,70.589523 83.824695,70.589523"
           id="path101635" />
        <path
           style="fill:none;stroke:#573a09;stroke-width:3;stroke-linecap:round;stroke-linejoin:bevel;stroke-miterlimit:4;stroke-dasharray:none;stroke-opacity:1"
           d="M 52.221063,139.73757 C 54.718322,83.403344 80.815552,37.717618 80.815552,37.717618"
           id="path101637" />
        <path
           style="fill:none;stroke:#573a09;stroke-width:3;stroke-linecap:round;stroke-linejoin:bevel;stroke-miterlimit:4;stroke-dasharray:none;stroke-opacity:1"
           d="M 55.579146,139.73757 C 56.761456,84.952394 41.087046,31.446282 41.087046,31.446282"
           id="path101639" />
        <path
           style="fill:none;stroke:#573a09;stroke-width:3;stroke-linecap:round;stroke-linejoin:bevel;stroke-miterlimit:4;stroke-dasharray:none;stroke-opacity:1"
           d="M 159.22559,139.73757 C 159.20215,95.24204 144.05589,32.313692 144.05589,32.313692"
           id="path101641" />
        <path
           style="fill:none;stroke:#573a09;stroke-width:3;stroke-linecap:round;stroke-linejoin:bevel;stroke-miterlimit:4;stroke-dasharray:none;stroke-opacity:1"
           d="M 40.414397,139.73757 C 39.629162,84.169736 56.151888,24.759474 56.151888,24.759474"
           id="path101643" />
        <path
           style="fill:none;stroke:#573a09;stroke-width:3;stroke-linecap:round;stroke-linejoin:bevel;stroke-miterlimit:4;stroke-dasharray:none;stroke-opacity:1"
           d="M 74.218425,139.73757 C 74.391675,93.691061 42.824975,50.087289 42.824975,50.087289"
           id="path101645" />
      </g>
      <g
         id="g93759"
         style="fill:#88590e;fill-opacity:1;stroke:#88590e;stroke-opacity:1"
         transform="matrix(-1,0,0,1,224.91734,-2e-6)">
        <path
           style="fill:#88590e;fill-opacity:1;stroke:#88590e;stroke-width:3;stroke-linecap:round;stroke-linejoin:miter;stroke-miterlimit:4;stroke-dasharray:none;stroke-opacity:1"
           d="M 118.21797,139.73757 C 118.71274,92.861548 131.4484,30.538165 131.4484,30.538165"
           id="path91949"
           sodipodi:nodetypes="cc" />
        <path
           style="fill:#88590e;fill-opacity:1;stroke:#88590e;stroke-width:3;stroke-linecap:round;stroke-linejoin:miter;stroke-miterlimit:4;stroke-dasharray:none;stroke-opacity:1"
           d="M 90.688999,139.73757 C 92.918519,90.653612 85.905297,35.414849 85.905297,35.414849"
           id="path91951"
           sodipodi:nodetypes="cc" />
        <path
           style="fill:#88590e;fill-opacity:1;stroke:#88590e;stroke-width:3;stroke-linecap:round;stroke-linejoin:miter;stroke-miterlimit:4;stroke-dasharray:none;stroke-opacity:1"
           d="m 112.07103,139.73757 c 2.01692,-66.278919 8.12661,-109.359858 8.12661,-109.359858"
           id="path91953"
           sodipodi:nodetypes="cc" />
        <path
           style="fill:#88590e;fill-opacity:1;stroke:#88590e;stroke-width:3;stroke-linecap:round;stroke-linejoin:miter;stroke-miterlimit:4;stroke-dasharray:none;stroke-opacity:1"
           d="M 142.25697,139.73757 C 141.03107,82.627978 128.65072,44.407515 128.65072,44.407515"
           id="path91955"
           sodipodi:nodetypes="cc" />
        <path
           style="fill:#88590e;fill-opacity:1;stroke:#88590e;stroke-width:3;stroke-linecap:round;stroke-linejoin:miter;stroke-miterlimit:4;stroke-dasharray:none;stroke-opacity:1"
           d="M 154.36092,139.73757 C 155.17826,72.966554 174.63717,30.238213 174.63717,30.238213"
           id="path91957"
           sodipodi:nodetypes="cc" />
        <path
           style="fill:#88590e;fill-opacity:1;stroke:#88590e;stroke-width:3;stroke-linecap:round;stroke-linejoin:miter;stroke-miterlimit:4;stroke-dasharray:none;stroke-opacity:1"
           d="M 78.307717,139.73757 C 78.121334,75.357254 75.920483,55.027136 75.920483,55.027136"
           id="path91959"
           sodipodi:nodetypes="cc" />
        <path
           style="fill:#88590e;fill-opacity:1;stroke:#88590e;stroke-width:3;stroke-linecap:round;stroke-linejoin:miter;stroke-miterlimit:4;stroke-dasharray:none;stroke-opacity:1"
           d="m 138.47719,139.73757 c 0.22135,-53.656437 4.51247,-105.93736 4.51247,-105.93736"
           id="path91961"
           sodipodi:nodetypes="cc" />
        <path
           style="fill:#88590e;fill-opacity:1;stroke:#88590e;stroke-width:0.264583px;stroke-linecap:butt;stroke-linejoin:miter;stroke-opacity:1"
           d="m 142.98966,33.80021 c -1.28925,-0.119499 -1.73606,-2.696115 -1.23595,-8.827369 0.50012,-6.131255 1.95791,-11.89624 3.43183,-12.494498 1.47392,-0.598258 1.54808,3.662935 0.94062,11.061329 -0.60747,7.398395 -1.17443,10.393264 -3.1365,10.260538"
           id="path91963" />
        <path
           style="fill:#88590e;fill-opacity:1;stroke:#88590e;stroke-width:0.264583px;stroke-linecap:butt;stroke-linejoin:miter;stroke-opacity:1"
           d="m 131.4484,30.538165 c -1.82823,-0.602028 -3.26381,-3.624797 -1.86222,-10.749292 1.40159,-7.124494 4.4244,-11.6845479 5.94472,-11.3456836 1.52032,0.3388643 1.81382,5.3687846 0.5183,12.1800036 -1.29552,6.811219 -2.1301,9.764152 -4.6008,9.914972"
           id="path91965" />
        <path
           style="fill:#88590e;fill-opacity:1;stroke:#88590e;stroke-width:0.264583px;stroke-linecap:butt;stroke-linejoin:miter;stroke-opacity:1"
           d="m 75.920483,55.027136 c -2.25978,0.333089 -4.828538,-2.686857 -5.219163,-9.884844 -0.390628,-7.197989 0.357391,-12.691655 2.30011,-13.085712 1.942719,-0.394057 3.821054,4.765265 4.639458,12.296296 0.818404,7.531034 0.168392,9.708743 -1.720405,10.67426 z"
           id="path91967" />
        <path
           style="fill:#88590e;fill-opacity:1;stroke:#88590e;stroke-width:0.264583px;stroke-linecap:butt;stroke-linejoin:miter;stroke-opacity:1"
           d="m 85.905297,35.414849 c -2.84729,0.390025 -4.4679,-5.497269 -4.929082,-8.528754 -0.461179,-3.031484 -0.455832,-11.763157 1.424032,-12.063756 1.879865,-0.300598 3.790628,4.426495 4.680413,9.626512 0.889786,5.200018 1.420794,9.662671 -1.175363,10.965998"
           id="path91969" />
        <path
           style="fill:#88590e;fill-opacity:1;stroke:#88590e;stroke-width:0.264583px;stroke-linecap:butt;stroke-linejoin:miter;stroke-opacity:1"
           d="m 120.19764,30.377712 c -2.21571,-0.379217 -3.62654,-4.834167 -2.29724,-11.684021 1.3293,-6.849855 4.29111,-10.385644 5.63371,-10.2696509 1.34261,0.115993 2.14143,4.5687839 0.96047,12.3151499 -1.18097,7.746367 -2.32761,9.18842 -4.29694,9.638522"
           id="path91971" />
        <path
           style="fill:#88590e;fill-opacity:1;stroke:#88590e;stroke-width:0.264583px;stroke-linecap:butt;stroke-linejoin:miter;stroke-opacity:1"
           d="m 128.65072,44.407515 c -2.08665,0.535149 -4.03997,-3.955224 -5.13362,-7.583172 -1.09366,-3.627946 -1.01717,-8.332261 -0.11563,-9.151726 0.90154,-0.819467 3.91757,2.378866 5.43818,6.414169 1.52061,4.035304 2.08503,9.346462 -0.18893,10.320729"
           id="path91973" />
        <path
           style="fill:#88590e;fill-opacity:1;stroke:#88590e;stroke-width:0.264583px;stroke-linecap:butt;stroke-linejoin:miter;stroke-opacity:1"
           d="m 174.63717,30.238213 c -2.52483,-0.983966 -1.32836,-7.362742 0.84906,-11.290408 2.17624,-3.925522 4.49215,-8.746029 7.20889,-7.836548 2.71674,0.909481 0.2234,6.223331 -1.77174,11.138396 -1.99515,4.915065 -3.55361,7.818517 -6.28621,7.98856"
           id="path91975"
           sodipodi:nodetypes="csssc" />
        <path
           style="fill:#88590e;fill-opacity:1;stroke:#88590e;stroke-width:3;stroke-linecap:round;stroke-linejoin:miter;stroke-miterlimit:4;stroke-dasharray:none;stroke-opacity:1"
           d="M 124.14949,139.73757 C 123.65472,92.861554 110.91906,30.538171 110.91906,30.538171"
           id="path91977"
           sodipodi:nodetypes="cc" />
        <path
           style="fill:#88590e;fill-opacity:1;stroke:#88590e;stroke-width:3;stroke-linecap:round;stroke-linejoin:miter;stroke-miterlimit:4;stroke-dasharray:none;stroke-opacity:1"
           d="m 134.22834,139.73757 c -2.22952,-49.083956 4.7837,-104.322719 4.7837,-104.322719"
           id="path91979"
           sodipodi:nodetypes="cc" />
        <path
           style="fill:#88590e;fill-opacity:1;stroke:#88590e;stroke-width:3;stroke-linecap:round;stroke-linejoin:miter;stroke-miterlimit:4;stroke-dasharray:none;stroke-opacity:1"
           d="M 164.45925,139.73757 C 162.44233,73.458653 156.33264,30.377714 156.33264,30.377714"
           id="path91981"
           sodipodi:nodetypes="cc" />
        <path
           style="fill:#88590e;fill-opacity:1;stroke:#88590e;stroke-width:3;stroke-linecap:round;stroke-linejoin:miter;stroke-miterlimit:4;stroke-dasharray:none;stroke-opacity:1"
           d="m 70.040634,139.73757 c 1.2259,-57.109582 13.60625,-95.330045 13.60625,-95.330045"
           id="path91983"
           sodipodi:nodetypes="cc" />
        <path
           style="fill:#88590e;fill-opacity:1;stroke:#88590e;stroke-width:3;stroke-linecap:round;stroke-linejoin:miter;stroke-miterlimit:4;stroke-dasharray:none;stroke-opacity:1"
           d="M 112.07103,139.73757 C 111.25369,72.966556 91.79478,30.238215 91.79478,30.238215"
           id="path91985"
           sodipodi:nodetypes="cc" />
        <path
           style="fill:#88590e;fill-opacity:1;stroke:#88590e;stroke-width:3;stroke-linecap:round;stroke-linejoin:miter;stroke-miterlimit:4;stroke-dasharray:none;stroke-opacity:1"
           d="m 177.17885,139.73757 c 0.18639,-64.380314 2.38724,-84.710432 2.38724,-84.710432"
           id="path91987"
           sodipodi:nodetypes="cc" />
        <path
           style="fill:#88590e;fill-opacity:1;stroke:#88590e;stroke-width:3;stroke-linecap:round;stroke-linejoin:miter;stroke-miterlimit:4;stroke-dasharray:none;stroke-opacity:1"
           d="M 197.87235,139.73757 C 197.651,86.081133 193.35988,33.80021 193.35988,33.80021"
           id="path91989"
           sodipodi:nodetypes="cc" />
        <path
           style="fill:#88590e;fill-opacity:1;stroke:#88590e;stroke-width:0.264583px;stroke-linecap:butt;stroke-linejoin:miter;stroke-opacity:1"
           d="m 193.35988,33.80021 c 1.28925,-0.119499 1.73606,-2.696115 1.23595,-8.827369 -0.50011,-6.131255 -1.95791,-11.89624 -3.43183,-12.494498 -1.47391,-0.598258 -1.54808,3.662935 -0.94061,11.061329 0.60746,7.398395 1.17442,10.393264 3.13649,10.260538"
           id="path91991" />
        <path
           style="fill:#88590e;fill-opacity:1;stroke:#88590e;stroke-width:0.264583px;stroke-linecap:butt;stroke-linejoin:miter;stroke-opacity:1"
           d="m 110.91906,30.538171 c 1.82823,-0.602028 3.26381,-3.624797 1.86222,-10.749292 -1.40159,-7.124494 -4.4244,-11.6845471 -5.94472,-11.3456831 -1.52032,0.338865 -1.81381,5.3687841 -0.5183,12.1800031 1.29552,6.811219 2.13011,9.764152 4.6008,9.914972"
           id="path91993" />
        <path
           style="fill:#88590e;fill-opacity:1;stroke:#88590e;stroke-width:0.264583px;stroke-linecap:butt;stroke-linejoin:miter;stroke-opacity:1"
           d="m 179.56609,55.027138 c 2.25978,0.333089 4.82853,-2.686857 5.21916,-9.884844 0.39063,-7.197989 -0.35739,-12.691655 -2.30011,-13.085712 -1.94272,-0.394057 -3.82105,4.765265 -4.63946,12.296296 -0.8184,7.531034 -0.16839,9.708743 1.72041,10.67426 z"
           id="path91995" />
        <path
           style="fill:#88590e;fill-opacity:1;stroke:#88590e;stroke-width:0.264583px;stroke-linecap:butt;stroke-linejoin:miter;stroke-opacity:1"
           d="m 139.01204,35.414851 c 2.84729,0.390025 4.4679,-5.497269 4.92908,-8.528754 0.46118,-3.031484 0.45584,-11.763157 -1.42403,-12.063756 -1.87986,-0.300598 -3.79063,4.426495 -4.68041,9.626512 -0.88979,5.200018 -1.42079,9.662671 1.17536,10.965998"
           id="path91997" />
        <path
           style="fill:#88590e;fill-opacity:1;stroke:#88590e;stroke-width:0.264583px;stroke-linecap:butt;stroke-linejoin:miter;stroke-opacity:1"
           d="m 156.33264,30.377714 c 2.21571,-0.379217 3.62654,-4.834167 2.29724,-11.684021 -1.3293,-6.849855 -4.29111,-10.3856436 -5.63371,-10.2696506 -1.34261,0.115993 -2.14143,4.5687836 -0.96047,12.3151496 1.18097,7.746367 2.32761,9.18842 4.29694,9.638522"
           id="path91999" />
        <path
           style="fill:#88590e;fill-opacity:1;stroke:#88590e;stroke-width:0.264583px;stroke-linecap:butt;stroke-linejoin:miter;stroke-opacity:1"
           d="m 83.646884,44.407525 c 2.08665,0.535149 4.03997,-3.955224 5.13362,-7.583172 1.09366,-3.627946 1.01717,-8.332261 0.11563,-9.151726 -0.90154,-0.819467 -3.91757,2.378866 -5.43818,6.414169 -1.52061,4.035304 -2.08503,9.346462 0.18893,10.320729"
           id="path92001" />
        <path
           style="fill:#88590e;fill-opacity:1;stroke:#88590e;stroke-width:0.264583px;stroke-linecap:butt;stroke-linejoin:miter;stroke-opacity:1"
           d="m 91.79478,30.238215 c 2.52483,-0.983966 1.32836,-7.362742 -0.84906,-11.290408 -2.17624,-3.925522 -4.49215,-8.746029 -7.20889,-7.836548 -2.71674,0.909481 -0.2234,6.223331 1.77174,11.138396 1.99515,4.915065 3.55361,7.818517 6.28621,7.98856"
           id="path92003"
           sodipodi:nodetypes="csssc" />
      </g>
      <g
         id="g91947">
        <path
           style="fill:none;stroke:#e09316;stroke-width:3;stroke-linecap:round;stroke-linejoin:miter;stroke-miterlimit:4;stroke-dasharray:none;stroke-opacity:1"
           d="M 59.059767,139.73757 C 59.554541,92.861546 72.290196,30.538163 72.290196,30.538163"
           id="path876"
           sodipodi:nodetypes="cc" />
        <path
           style="fill:none;stroke:#e09316;stroke-width:3;stroke-linecap:round;stroke-linejoin:miter;stroke-miterlimit:4;stroke-dasharray:none;stroke-opacity:1"
           d="M 90.688999,139.73757 C 92.918519,90.653612 85.905297,35.414849 85.905297,35.414849"
           id="path878"
           sodipodi:nodetypes="cc" />
        <path
           style="fill:none;stroke:#e09316;stroke-width:3;stroke-linecap:round;stroke-linejoin:miter;stroke-miterlimit:4;stroke-dasharray:none;stroke-opacity:1"
           d="m 112.07103,139.73757 c 2.01692,-66.278919 8.12661,-109.359858 8.12661,-109.359858"
           id="path880"
           sodipodi:nodetypes="cc" />
        <path
           style="fill:none;stroke:#e09316;stroke-width:3;stroke-linecap:round;stroke-linejoin:miter;stroke-miterlimit:4;stroke-dasharray:none;stroke-opacity:1"
           d="M 142.25697,139.73757 C 141.03107,82.627978 128.65072,44.407515 128.65072,44.407515"
           id="path882"
           sodipodi:nodetypes="cc" />
        <path
           style="fill:none;stroke:#e09316;stroke-width:3;stroke-linecap:round;stroke-linejoin:miter;stroke-miterlimit:4;stroke-dasharray:none;stroke-opacity:1"
           d="M 128.66707,139.73757 C 129.48441,72.966554 148.94332,30.238213 148.94332,30.238213"
           id="path884"
           sodipodi:nodetypes="cc" />
        <path
           style="fill:none;stroke:#e09316;stroke-width:3;stroke-linecap:round;stroke-linejoin:miter;stroke-miterlimit:4;stroke-dasharray:none;stroke-opacity:1"
           d="M 78.307717,139.73757 C 78.121334,75.357254 75.920483,55.027136 75.920483,55.027136"
           id="path886"
           sodipodi:nodetypes="cc" />
        <path
           style="fill:none;stroke:#e09316;stroke-width:3;stroke-linecap:round;stroke-linejoin:miter;stroke-miterlimit:4;stroke-dasharray:none;stroke-opacity:1"
           d="M 35.47524,139.73757 C 35.696585,86.081131 39.987706,33.800208 39.987706,33.800208"
           id="path888"
           sodipodi:nodetypes="cc" />
        <path
           style="fill:#e09316;fill-opacity:1;stroke:#e09316;stroke-width:0.264583px;stroke-linecap:butt;stroke-linejoin:miter;stroke-opacity:1"
           d="m 39.987706,33.800208 c -1.289251,-0.119499 -1.736058,-2.696115 -1.235945,-8.827369 0.500113,-6.131255 1.957909,-11.89624 3.431826,-12.494498 1.473917,-0.598258 1.548079,3.662935 0.940617,11.061329 -0.607462,7.398395 -1.174422,10.393264 -3.136498,10.260538"
           id="path1128" />
        <path
           style="fill:#e09316;fill-opacity:1;stroke:#e09316;stroke-width:0.264583px;stroke-linecap:butt;stroke-linejoin:miter;stroke-opacity:1"
           d="m 72.290196,30.538163 c -1.828229,-0.602028 -3.263805,-3.624797 -1.862215,-10.749292 1.401588,-7.124494 4.424397,-11.6845479 5.944717,-11.3456836 1.520322,0.3388643 1.813816,5.3687846 0.5183,12.1800036 -1.295516,6.811219 -2.130105,9.764152 -4.600802,9.914972"
           id="path1130" />
        <path
           style="fill:#e09316;fill-opacity:1;stroke:#e09316;stroke-width:0.264583px;stroke-linecap:butt;stroke-linejoin:miter;stroke-opacity:1"
           d="m 75.920483,55.027136 c -2.25978,0.333089 -4.828538,-2.686857 -5.219163,-9.884844 -0.390628,-7.197989 0.357391,-12.691655 2.30011,-13.085712 1.942719,-0.394057 3.821054,4.765265 4.639458,12.296296 0.818404,7.531034 0.168392,9.708743 -1.720405,10.67426 z"
           id="path1132" />
        <path
           style="fill:#e09316;fill-opacity:1;stroke:#e09316;stroke-width:0.264583px;stroke-linecap:butt;stroke-linejoin:miter;stroke-opacity:1"
           d="m 85.905297,35.414849 c -2.84729,0.390025 -4.4679,-5.497269 -4.929082,-8.528754 -0.461179,-3.031484 -0.455832,-11.763157 1.424032,-12.063756 1.879865,-0.300598 3.790628,4.426495 4.680413,9.626512 0.889786,5.200018 1.420794,9.662671 -1.175363,10.965998"
           id="path1134" />
        <path
           style="fill:#e09316;fill-opacity:1;stroke:#e09316;stroke-width:0.264583px;stroke-linecap:butt;stroke-linejoin:miter;stroke-opacity:1"
           d="m 120.19764,30.377712 c -2.21571,-0.379217 -3.62654,-4.834167 -2.29724,-11.684021 1.3293,-6.849855 4.29111,-10.385644 5.63371,-10.2696509 1.34261,0.115993 2.14143,4.5687839 0.96047,12.3151499 -1.18097,7.746367 -2.32761,9.18842 -4.29694,9.638522"
           id="path1136" />
        <path
           style="fill:#e09316;fill-opacity:1;stroke:#e09316;stroke-width:0.264583px;stroke-linecap:butt;stroke-linejoin:miter;stroke-opacity:1"
           d="m 128.65072,44.407515 c -2.08665,0.535149 -4.03997,-3.955224 -5.13362,-7.583172 -1.09366,-3.627946 -1.01717,-8.332261 -0.11563,-9.151726 0.90154,-0.819467 3.91757,2.378866 5.43818,6.414169 1.52061,4.035304 2.08503,9.346462 -0.18893,10.320729"
           id="path1138" />
        <path
           style="fill:#e09316;fill-opacity:1;stroke:#e09316;stroke-width:0.264583px;stroke-linecap:butt;stroke-linejoin:miter;stroke-opacity:1"
           d="m 148.94332,30.238213 c -2.52483,-0.983966 -1.32836,-7.362742 0.84906,-11.290408 2.17624,-3.925522 4.49215,-8.746029 7.20889,-7.836548 2.71674,0.909481 0.2234,6.223331 -1.77174,11.138396 -1.99515,4.915065 -3.55361,7.818517 -6.28621,7.98856"
           id="path1140"
           sodipodi:nodetypes="csssc" />
        <path
           style="fill:none;stroke:#e09316;stroke-width:3;stroke-linecap:round;stroke-linejoin:miter;stroke-miterlimit:4;stroke-dasharray:none;stroke-opacity:1"
           d="M 46.299822,139.73757 C 45.805052,92.861548 33.069392,30.538165 33.069392,30.538165"
           id="path7846"
           sodipodi:nodetypes="cc" />
        <path
           style="fill:none;stroke:#e09316;stroke-width:3;stroke-linecap:round;stroke-linejoin:miter;stroke-miterlimit:4;stroke-dasharray:none;stroke-opacity:1"
           d="m 134.22834,139.73757 c -2.22952,-49.083956 4.7837,-104.322719 4.7837,-104.322719"
           id="path7848"
           sodipodi:nodetypes="cc" />
        <path
           style="fill:none;stroke:#e09316;stroke-width:3;stroke-linecap:round;stroke-linejoin:miter;stroke-miterlimit:4;stroke-dasharray:none;stroke-opacity:1"
           d="M 65.579981,139.73757 C 63.563061,73.458653 57.453371,30.377714 57.453371,30.377714"
           id="path7850"
           sodipodi:nodetypes="cc" />
        <path
           style="fill:none;stroke:#e09316;stroke-width:3;stroke-linecap:round;stroke-linejoin:miter;stroke-miterlimit:4;stroke-dasharray:none;stroke-opacity:1"
           d="m 46.299822,139.73757 c 1.2259,-57.10959 13.60625,-95.330053 13.60625,-95.330053"
           id="path7852"
           sodipodi:nodetypes="cc" />
        <path
           style="fill:none;stroke:#e09316;stroke-width:3;stroke-linecap:round;stroke-linejoin:miter;stroke-miterlimit:4;stroke-dasharray:none;stroke-opacity:1"
           d="M 112.07103,139.73757 C 111.25369,72.966556 91.79478,30.238215 91.79478,30.238215"
           id="path7854"
           sodipodi:nodetypes="cc" />
        <path
           style="fill:none;stroke:#e09316;stroke-width:3;stroke-linecap:round;stroke-linejoin:miter;stroke-miterlimit:4;stroke-dasharray:none;stroke-opacity:1"
           d="m 100.76785,139.73757 c 0.18639,-64.380314 2.38724,-84.710432 2.38724,-84.710432"
           id="path7856"
           sodipodi:nodetypes="cc" />
        <path
           style="fill:none;stroke:#e09316;stroke-width:3;stroke-linecap:round;stroke-linejoin:miter;stroke-miterlimit:4;stroke-dasharray:none;stroke-opacity:1"
           d="M 117.90858,139.73757 C 117.68723,86.081133 113.39611,33.80021 113.39611,33.80021"
           id="path7858"
           sodipodi:nodetypes="cc" />
        <path
           style="fill:#e09316;fill-opacity:1;stroke:#e09316;stroke-width:0.264583px;stroke-linecap:butt;stroke-linejoin:miter;stroke-opacity:1"
           d="m 113.39611,33.80021 c 1.28925,-0.119499 1.73606,-2.696115 1.23595,-8.827369 -0.50011,-6.131255 -1.95791,-11.89624 -3.43183,-12.494498 -1.47391,-0.598258 -1.54808,3.662935 -0.94061,11.061329 0.60746,7.398395 1.17442,10.393264 3.13649,10.260538"
           id="path7860" />
        <path
           style="fill:#e09316;fill-opacity:1;stroke:#e09316;stroke-width:0.264583px;stroke-linecap:butt;stroke-linejoin:miter;stroke-opacity:1"
           d="m 33.069392,30.538165 c 1.82823,-0.602028 3.26381,-3.624797 1.86222,-10.749292 -1.40159,-7.124494 -4.4244,-11.6845476 -5.94472,-11.3456836 -1.52032,0.338865 -1.81381,5.3687846 -0.5183,12.1800036 1.29552,6.811219 2.13011,9.764152 4.6008,9.914972"
           id="path7862" />
        <path
           style="fill:#e09316;fill-opacity:1;stroke:#e09316;stroke-width:0.264583px;stroke-linecap:butt;stroke-linejoin:miter;stroke-opacity:1"
           d="m 103.15509,55.027138 c 2.25978,0.333089 4.82853,-2.686857 5.21916,-9.884844 0.39063,-7.197989 -0.35739,-12.691655 -2.30011,-13.085712 -1.94272,-0.394057 -3.82105,4.765265 -4.63946,12.296296 -0.8184,7.531034 -0.16839,9.708743 1.72041,10.67426 z"
           id="path7864" />
        <path
           style="fill:#e09316;fill-opacity:1;stroke:#e09316;stroke-width:0.264583px;stroke-linecap:butt;stroke-linejoin:miter;stroke-opacity:1"
           d="m 139.01204,35.414851 c 2.84729,0.390025 4.4679,-5.497269 4.92908,-8.528754 0.46118,-3.031484 0.45584,-11.763157 -1.42403,-12.063756 -1.87986,-0.300598 -3.79063,4.426495 -4.68041,9.626512 -0.88979,5.200018 -1.42079,9.662671 1.17536,10.965998"
           id="path7866" />
        <path
           style="fill:#e09316;fill-opacity:1;stroke:#e09316;stroke-width:0.264583px;stroke-linecap:butt;stroke-linejoin:miter;stroke-opacity:1"
           d="m 57.453371,30.377714 c 2.21571,-0.379217 3.62654,-4.834167 2.29724,-11.684021 -1.3293,-6.849855 -4.29111,-10.3856436 -5.63371,-10.2696506 -1.34261,0.115993 -2.14143,4.5687836 -0.96047,12.3151496 1.18097,7.746367 2.32761,9.18842 4.29694,9.638522"
           id="path7868" />
        <path
           style="fill:#e09316;fill-opacity:1;stroke:#e09316;stroke-width:0.264583px;stroke-linecap:butt;stroke-linejoin:miter;stroke-opacity:1"
           d="m 59.906072,44.407517 c 2.08665,0.535149 4.03997,-3.955224 5.13362,-7.583172 1.093662,-3.627946 1.017172,-8.332261 0.11563,-9.151726 -0.90154,-0.819467 -3.91757,2.378866 -5.43818,6.414169 -1.52061,4.035304 -2.08503,9.346462 0.18893,10.320729"
           id="path7870" />
        <path
           style="fill:#e09316;fill-opacity:1;stroke:#e09316;stroke-width:0.264583px;stroke-linecap:butt;stroke-linejoin:miter;stroke-opacity:1"
           d="m 91.79478,30.238215 c 2.52483,-0.983966 1.32836,-7.362742 -0.84906,-11.290408 -2.17624,-3.925522 -4.49215,-8.746029 -7.20889,-7.836548 -2.71674,0.909481 -0.2234,6.223331 1.77174,11.138396 1.99515,4.915065 3.55361,7.818517 6.28621,7.98856"
           id="path7872"
           sodipodi:nodetypes="csssc" />
        <path
           style="fill:#ab7012;fill-opacity:1;stroke:#ab7012;stroke-width:0.264583px;stroke-linecap:butt;stroke-linejoin:miter;stroke-opacity:1"
           d="m 33.069392,30.538165 c 1.82823,-0.602028 3.26381,-3.624797 1.86222,-10.749292 -1.40159,-7.124494 -4.4244,-11.6845476 -5.94472,-11.3456836 -1.52032,0.338865 2.603346,0.6316925 3.898856,7.4429116 1.29552,6.811219 -2.287046,14.501244 0.183644,14.652064"
           id="path7874"
           sodipodi:nodetypes="csscc" />
        <path
           style="fill:#ab7012;fill-opacity:1;stroke:#ab7012;stroke-width:0.264583px;stroke-linecap:butt;stroke-linejoin:miter;stroke-opacity:1"
           d="m 39.987706,33.800208 c -1.289251,-0.119499 1.910081,-9.291823 2.410194,-15.423077 0.500113,-6.131255 -1.68823,-5.300532 -0.214313,-5.89879 1.473917,-0.598258 1.548079,3.662935 0.940617,11.061329 -0.607462,7.398395 -1.174422,10.393264 -3.136498,10.260538"
           id="path12790"
           sodipodi:nodetypes="csssc" />
        <path
           style="fill:#ab7012;fill-opacity:1;stroke:#ab7012;stroke-width:0.264583px;stroke-linecap:butt;stroke-linejoin:miter;stroke-opacity:1"
           d="m 59.906072,44.407517 c 2.08665,0.535149 4.03997,-3.955224 5.13362,-7.583172 1.093662,-3.627946 1.017172,-8.332261 0.11563,-9.151726 -0.90154,-0.819467 0.848107,2.054152 -0.672503,6.089455 -1.52061,4.035304 -6.850707,9.671176 -4.576747,10.645443"
           id="path19123"
           sodipodi:nodetypes="csssc" />
        <path
           style="fill:#ab7012;fill-opacity:1;stroke:#ab7012;stroke-width:0.264583px;stroke-linecap:butt;stroke-linejoin:miter;stroke-opacity:1"
           d="M 72.290196,30.538163 C 70.461967,29.936135 74.81282,23.888845 76.21441,16.76435 77.615998,9.6398563 74.852378,8.1043231 76.372698,8.4431874 c 1.520322,0.3388643 1.813816,5.3687846 0.5183,12.1800036 -1.295516,6.811219 -2.130105,9.764152 -4.600802,9.914972"
           id="path24720"
           sodipodi:nodetypes="csssc" />
        <path
           style="fill:#ab7012;fill-opacity:1;stroke:#ab7012;stroke-width:0.264583px;stroke-linecap:butt;stroke-linejoin:miter;stroke-opacity:1"
           d="m 75.920483,55.027136 c -2.25978,0.333089 -0.236187,-7.715044 -0.626812,-14.913031 -0.390628,-7.197989 -4.23496,-7.663468 -2.292241,-8.057525 1.942719,-0.394057 3.821054,4.765265 4.639458,12.296296 0.818404,7.531034 0.168392,9.708743 -1.720405,10.67426 z"
           id="path30779"
           sodipodi:nodetypes="csssc" />
        <path
           style="fill:#ab7012;fill-opacity:1;stroke:#ab7012;stroke-width:0.264583px;stroke-linecap:butt;stroke-linejoin:miter;stroke-opacity:1"
           d="m 85.905297,35.414849 c -2.84729,0.390025 -0.268873,-5.372643 -0.698323,-12.697027 -0.569094,-9.706037 -4.686591,-7.594884 -2.806727,-7.895483 1.879865,-0.300598 3.790628,4.426495 4.680413,9.626512 0.889786,5.200018 1.420794,9.662671 -1.175363,10.965998"
           id="path36726"
           sodipodi:nodetypes="csssc" />
        <path
           style="fill:#ab7012;fill-opacity:1;stroke:#ab7012;stroke-width:0.264583px;stroke-linecap:butt;stroke-linejoin:miter;stroke-opacity:1"
           d="m 91.79478,30.238215 c 2.52483,-0.983966 1.32836,-7.362742 -0.84906,-11.290408 -2.17624,-3.925522 -4.49215,-8.746029 -7.20889,-7.836548 -2.71674,0.909481 1.627491,-1.1190336 3.663676,3.77917 4.579957,11.017453 1.661674,15.177743 4.394274,15.347786"
           id="path42224"
           sodipodi:nodetypes="csssc" />
        <path
           style="fill:#ab7012;fill-opacity:1;stroke:#ab7012;stroke-width:0.264583px;stroke-linecap:butt;stroke-linejoin:miter;stroke-opacity:1"
           d="m 120.19764,30.377712 c -2.21571,-0.379217 2.41367,-6.925555 3.74297,-13.775409 1.3293,-6.8498546 -1.7491,-8.294256 -0.4065,-8.1782629 1.34261,0.115993 2.14143,4.5687839 0.96047,12.3151499 -1.18097,7.746367 -2.32761,9.18842 -4.29694,9.638522"
           id="path49443"
           sodipodi:nodetypes="csssc" />
        <path
           style="fill:#ab7012;fill-opacity:1;stroke:#ab7012;stroke-width:0.264583px;stroke-linecap:butt;stroke-linejoin:miter;stroke-opacity:1"
           d="m 128.65072,44.407515 c -2.08665,0.535149 0.0675,-6.899662 -1.10702,-10.502226 -2.3208,-7.118219 -5.04377,-5.413207 -4.14223,-6.232672 0.90154,-0.819467 3.91757,2.378866 5.43818,6.414169 1.52061,4.035304 2.08503,9.346462 -0.18893,10.320729"
           id="path56406"
           sodipodi:nodetypes="csssc" />
        <path
           style="fill:#ab7012;fill-opacity:1;stroke:#ab7012;stroke-width:0.264583px;stroke-linecap:butt;stroke-linejoin:miter;stroke-opacity:1"
           d="m 139.01204,35.414851 c 2.84729,0.390025 4.4679,-5.497269 4.92908,-8.528754 0.46118,-3.031484 0.45584,-11.763157 -1.42403,-12.063756 -1.87986,-0.300598 2.01224,-0.636008 0.23405,9.812481 -0.8851,5.200817 -6.33525,9.476702 -3.7391,10.780029"
           id="path62471"
           sodipodi:nodetypes="csssc" />
        <path
           style="fill:#ab7012;fill-opacity:1;stroke:#ab7012;stroke-width:0.264583px;stroke-linecap:butt;stroke-linejoin:miter;stroke-opacity:1"
           d="m 57.453371,30.377714 c 2.21571,-0.379217 3.62654,-4.834167 2.29724,-11.684021 -1.3293,-6.849855 -4.29111,-10.3856436 -5.63371,-10.2696506 -1.34261,0.115993 2.55471,0.9413737 3.73567,8.6877396 1.18097,7.746367 -2.36853,12.81583 -0.3992,13.265932"
           id="path70170"
           sodipodi:nodetypes="csssc" />
        <path
           style="fill:#ab7012;fill-opacity:1;stroke:#ab7012;stroke-width:0.264583px;stroke-linecap:butt;stroke-linejoin:miter;stroke-opacity:1"
           d="m 148.94332,30.238213 c -2.52483,-0.983966 3.34404,-6.717098 5.89125,-10.415672 5.5986,-8.129218 -0.55004,-9.620765 2.1667,-8.711284 2.71674,0.909481 0.2234,6.223331 -1.77174,11.138396 -1.99515,4.915065 -3.55361,7.818517 -6.28621,7.98856"
           id="path76079"
           sodipodi:nodetypes="csssc" />
        <path
           style="fill:#ab7012;fill-opacity:1;stroke:#ab7012;stroke-width:0.264583px;stroke-linecap:butt;stroke-linejoin:miter;stroke-opacity:1"
           d="m 103.15509,55.027138 c 2.25978,0.333089 4.82853,-2.686857 5.21916,-9.884844 0.39063,-7.197989 -0.35739,-12.691655 -2.30011,-13.085712 -1.94272,-0.394057 1.91662,1.480937 1.09821,9.011968 -0.8184,7.531034 -5.90606,12.993071 -4.01726,13.958588 z"
           id="path81986"
           sodipodi:nodetypes="csssc" />
        <path
           style="fill:#ab7012;fill-opacity:1;stroke:#ab7012;stroke-width:0.264583px;stroke-linecap:butt;stroke-linejoin:miter;stroke-opacity:1"
           d="m 113.39611,33.80021 c 1.28925,-0.119499 1.73606,-2.696115 1.23595,-8.827369 -0.50011,-6.131255 -1.95791,-11.89624 -3.43183,-12.494498 -1.47391,-0.598258 1.5796,-0.514349 2.18707,6.884045 0.60746,7.398395 -1.95326,14.570548 0.009,14.437822"
           id="path87193"
           sodipodi:nodetypes="csssc" />
        <path
           style="fill:none;stroke:#e09316;stroke-width:3;stroke-linecap:round;stroke-linejoin:miter;stroke-miterlimit:4;stroke-dasharray:none;stroke-opacity:1"
           d="m 151.27604,139.73757 c 0.18639,-64.380314 2.38724,-84.710432 2.38724,-84.710432"
           id="path105055"
           sodipodi:nodetypes="cc" />
        <path
           style="fill:#e09316;fill-opacity:1;stroke:#e09316;stroke-width:0.264583px;stroke-linecap:butt;stroke-linejoin:miter;stroke-opacity:1"
           d="m 153.66328,55.027138 c 2.25978,0.333089 4.82853,-2.686857 5.21916,-9.884844 0.39063,-7.197989 -0.35739,-12.691655 -2.30011,-13.085712 -1.94272,-0.394057 -3.82105,4.765265 -4.63946,12.296296 -0.8184,7.531034 -0.16839,9.708743 1.72041,10.67426 z"
           id="path105057" />
        <path
           style="fill:#ab7012;fill-opacity:1;stroke:#ab7012;stroke-width:0.264583px;stroke-linecap:butt;stroke-linejoin:miter;stroke-opacity:1"
           d="m 153.66328,55.027138 c 2.25978,0.333089 4.82853,-2.686857 5.21916,-9.884844 0.39063,-7.197989 -0.35739,-12.691655 -2.30011,-13.085712 -1.94272,-0.394057 1.91662,1.480937 1.09821,9.011968 -0.8184,7.531034 -5.90606,12.993071 -4.01726,13.958588 z"
           id="path105059"
           sodipodi:nodetypes="csssc" />
      </g>
    </g>
  </g>
  <metadata
     id="metadata112325">
    <rdf:RDF>
      <cc:Work
         rdf:about="">
        <dc:creator>
          <cc:Agent>
            <dc:title>IcterusGames</dc:title>
          </cc:Agent>
        </dc:creator>
        <cc:license
           rdf:resource="http://creativecommons.org/publicdomain/zero/1.0/" />
      </cc:Work>
      <cc:License
         rdf:about="http://creativecommons.org/publicdomain/zero/1.0/">
        <cc:permits
           rdf:resource="http://creativecommons.org/ns#Reproduction" />
        <cc:permits
           rdf:resource="http://creativecommons.org/ns#Distribution" />
        <cc:permits
           rdf:resource="http://creativecommons.org/ns#DerivativeWorks" />
      </cc:License>
    </rdf:RDF>
  </metadata>
</svg>
