<?xml version="1.0" encoding="UTF-8" standalone="no"?>
<!-- Created with Inkscape (http://www.inkscape.org/) -->

<svg
   width="256"
   height="256"
   viewBox="0 0 67.733333 67.733335"
   version="1.1"
   id="svg5"
   inkscape:version="1.1.2 (0a00cf5339, 2022-02-04)"
   sodipodi:docname="medal.svg"
   xmlns:inkscape="http://www.inkscape.org/namespaces/inkscape"
   xmlns:sodipodi="http://sodipodi.sourceforge.net/DTD/sodipodi-0.dtd"
   xmlns="http://www.w3.org/2000/svg"
   xmlns:svg="http://www.w3.org/2000/svg"
   xmlns:rdf="http://www.w3.org/1999/02/22-rdf-syntax-ns#"
   xmlns:cc="http://creativecommons.org/ns#"
   xmlns:dc="http://purl.org/dc/elements/1.1/">
  <title
     id="title897">Todogodot Medal</title>
  <sodipodi:namedview
     id="namedview7"
     pagecolor="#505050"
     bordercolor="#ffffff"
     borderopacity="1"
     inkscape:pageshadow="0"
     inkscape:pageopacity="0"
     inkscape:pagecheckerboard="1"
     inkscape:document-units="px"
     showgrid="false"
     units="px"
     inkscape:zoom="2.825665"
     inkscape:cx="94.314082"
     inkscape:cy="85.466607"
     inkscape:window-width="1920"
     inkscape:window-height="1007"
     inkscape:window-x="0"
     inkscape:window-y="0"
     inkscape:window-maximized="1"
     inkscape:current-layer="g20928"
     inkscape:snap-global="false"
     showguides="true"
     inkscape:guide-bbox="true">
    <inkscape:grid
       type="xygrid"
       id="grid1033"
       spacingx="8.4666667"
       spacingy="8.4666667" />
    <sodipodi:guide
       position="135.46666,160.86667"
       orientation="1,0"
       id="guide15180" />
    <sodipodi:guide
       position="169.33333,135.46667"
       orientation="0,-1"
       id="guide15182" />
  </sodipodi:namedview>
  <defs
     id="defs2" />
  <g
     inkscape:label="Capa 1"
     inkscape:groupmode="layer"
     id="layer1">
    <g
       id="g20928"
       transform="matrix(0.25550538,0,0,0.25550538,-0.74579332,-0.74579332)">
      <path
         sodipodi:type="star"
         style="fill:#ffd600;fill-opacity:1;stroke:#ffff00;stroke-width:2.7;stroke-opacity:1;paint-order:fill markers stroke"
         id="path2352"
         inkscape:flatsided="false"
         sodipodi:sides="5"
         sodipodi:cx="101.58817"
         sodipodi:cy="81.145782"
         sodipodi:r1="110.05839"
         sodipodi:r2="68.134071"
         sodipodi:arg1="0.94496021"
         sodipodi:arg2="1.5732787"
         inkscape:rounded="0"
         inkscape:randomized="0"
         d="m 166.05764,170.3452 -64.6386,-21.06556 -64.742397,20.74439 0.06011,-67.98458 -39.7355798,-55.163313 64.6757508,-20.951221 40.184454,-54.837182 39.9117,55.036011 64.57094,21.272068 -40.00896,54.965347 z"
         transform="matrix(1.1144745,0,0,1.1144745,23.444507,46.540356)"
         inkscape:transform-center-x="-0.34182832"
         inkscape:transform-center-y="0.0074777843" />
      <g
         id="g12447"
         inkscape:label="LogoTodoGodot">
        <path
           id="path26176"
           style="opacity:1;fill:none;fill-opacity:1;stroke:#a67700;stroke-width:11.3386;stroke-linecap:butt;stroke-linejoin:miter;stroke-miterlimit:4;stroke-dasharray:none;stroke-opacity:1"
           d="m 536.92969,270.22461 c -2.41069,0.0481 -4.05615,0.50493 -5.28907,1.21484 -3.28772,1.89312 -7.55614,13.96311 -11.74609,24.45117 -4.18995,10.48807 -13.87701,8.80352 -21.29883,9.3418 -7.42182,0.53829 -11.287,-7.42746 -12.3789,-9.45508 -1.09191,-2.02761 -7.36656,-10.49267 -10.75782,-14.73632 -3.39125,-4.24365 -7.90933,-3.57422 -13.76953,-1.15821 -5.86023,2.41602 -17.35414,7.9196 -26.21093,13.50781 -8.8568,5.58823 -11.53564,10.39426 -10.41993,25.94727 1.11572,15.55302 0.6382,14.27161 -4.53125,22.21094 -5.16941,7.93933 -11.95611,7.52585 -17.16211,6.30273 -5.20599,-1.22312 -10.41208,-1.32927 -14.27343,4.01367 -3.8614,5.34296 -12.5141,19.4594 -18.29688,34.11133 -5.78278,14.65191 -2.6914,12.43413 -0.48047,17.75 2.21093,5.31587 -0.27014,15.91707 -4.13086,27.69922 -3.8607,11.78211 -15.31058,54.37913 -15.52148,104.61328 0,0 -3.94118,53.58823 25.22461,118.56836 29.16578,64.9801 71.31134,94.72064 119.29297,94.36914 47.98159,-0.35149 103.06889,-20.45833 139.53906,-86.18359 36.47017,-65.72527 27.49785,-112.09452 26.00195,-136.95508 -1.49593,-24.8606 -17.60382,-53.70917 -33.08008,-58.375 -15.47621,-4.66586 -62.37661,8.73762 -97.41015,24.70703 -35.0335,15.96938 -51.79114,27.12457 -54.22852,25.00196 -2.43734,-2.12263 3.63441,-37.55129 9.61328,-59.60547 5.97888,-22.05423 20.60857,-43.25826 30.33789,-52.69336 9.7293,-9.43514 11.97272,-2.26702 12.74219,6.37695 0.76951,8.64397 3.25287,23.74092 8.23047,29.55273 4.97764,5.81182 14.35243,5.51697 30.65039,3.82227 16.29797,-1.6947 34.84244,-7.95977 43.90235,-19.70117 9.0599,-11.74141 7.5381,-56.45322 5.61523,-64.15235 -1.92283,-7.69913 -12.34477,-15.11849 -16.36328,-21.44726 -4.01851,-6.32877 -2.92812,-40.20597 -6.34961,-46.70508 -3.42153,-6.49911 -21.58779,-13.87441 -37.40625,-18.51758 -9.88654,-2.90198 -16.02711,-3.95705 -20.04492,-3.87695 z M 425.09375,403.06836 c 21.58431,0.14438 30.52684,37.28623 29.27344,62.32617 -1.25341,25.0399 -13.02421,67.73191 -36.27344,67.34375 -23.2492,-0.38816 -28.72556,-40.82143 -28.02148,-62.37695 0.97918,-29.97796 13.43717,-67.43735 35.02148,-67.29297 z m 0.70117,29.66797 c -6.42376,-0.15462 -16.14137,15.06037 -16.66797,36.80664 -0.5266,21.74627 5.38274,35.74007 12.16211,35.88672 6.77938,0.14661 15.31203,-12.85847 16.53516,-35.07227 1.22309,-22.21376 -5.6055,-37.46651 -12.0293,-37.62109 z m 125.4043,131.5664 c 0,0 3.95502,21.13218 -1.34766,34.98438 -5.30271,13.85219 -20.32752,29.90156 -39.85547,31.19922 -15.06493,1.00108 -31.2954,-21.8274 -31.83398,-38.375 6.36809,-1.60449 19.72625,-4.88582 35.10156,-10.72266 15.37531,-5.83684 37.93555,-17.08594 37.93555,-17.08594 z"
           transform="scale(0.26458333)"
           sodipodi:nodetypes="ssssssssssssssscsssssssssssssssssssssssssssscsscsc" />
        <path
           id="path14958"
           style="opacity:1;fill:none;fill-opacity:1;stroke:#ffffff;stroke-width:11.3386;stroke-linecap:butt;stroke-linejoin:miter;stroke-miterlimit:4;stroke-dasharray:none;stroke-opacity:1"
           d="m 536.92969,270.22461 c -2.41069,0.0481 -4.05615,0.50493 -5.28907,1.21484 -3.28772,1.89312 -7.55614,13.96311 -11.74609,24.45117 -4.18995,10.48807 -13.87701,8.80352 -21.29883,9.3418 -7.42182,0.53829 -11.287,-7.42746 -12.3789,-9.45508 -1.09191,-2.02761 -7.36656,-10.49267 -10.75782,-14.73632 -3.39125,-4.24365 -7.90933,-3.57422 -13.76953,-1.15821 -5.86023,2.41602 -17.35414,7.9196 -26.21093,13.50781 -8.8568,5.58823 -11.53564,10.39426 -10.41993,25.94727 1.11572,15.55302 0.6382,14.27161 -4.53125,22.21094 -5.16941,7.93933 -11.95611,7.52585 -17.16211,6.30273 -5.20599,-1.22312 -10.41208,-1.32927 -14.27343,4.01367 -3.8614,5.34296 -12.5141,19.4594 -18.29688,34.11133 -5.78278,14.65191 -2.6914,12.43413 -0.48047,17.75 2.21093,5.31587 -0.27014,15.91707 -4.13086,27.69922 -3.8607,11.78211 -15.31058,54.37913 -15.52148,104.61328 0,0 -3.94118,53.58823 25.22461,118.56836 60.33425,133.29292 203.19474,87.75519 254.64949,-0.91653 36.47017,-65.72527 25.31364,-112.36693 23.81774,-137.22749 -1.49593,-24.8606 -11.23707,-44.33468 -26.71333,-49.00051 -15.47621,-4.66586 -62.37661,8.73762 -97.41015,24.70703 -35.0335,15.96938 -51.3232,23.58584 -54.22852,25.00196 -13.95443,6.80173 -14.17642,-38.01095 -8.19755,-60.06513 5.97888,-22.05423 40.84637,-63.59662 50.57569,-73.03172 9.7293,-9.43514 10.52848,-8.1788 11.29795,0.46517 0.76951,8.64397 2.27014,50.45072 7.24774,56.26253 4.97764,5.81182 14.44108,-11.55811 30.73904,-13.25281 16.29797,-1.6947 29.39906,-0.65819 38.45897,-12.39959 9.0599,-11.74141 0.8903,-42.90135 -1.03257,-50.60048 -1.92283,-7.69913 -5.12449,-14.80649 -9.143,-21.13526 -4.01851,-6.32877 2.31802,-44.64594 -5.08128,-53.78016 -4.62316,-5.70715 -16.99207,-10.90176 -32.81053,-15.54493 -9.88654,-2.90198 -17.10891,-3.94499 -21.12672,-3.86489 z M 418.86485,390.09527 c 30.98624,0.14438 36.75574,50.25932 35.50234,75.29926 -1.25341,25.0399 -13.02421,67.73191 -36.27344,67.34375 -23.2492,-0.38816 -39.65584,-31.03198 -38.95176,-52.5875 0.97918,-29.97796 18.1383,-90.15608 39.72286,-90.05551 z m 6.93007,42.64106 c -1.63106,-6.21516 -16.14137,15.06037 -16.66797,36.80664 -0.5266,21.74627 6.71675,39.92768 12.16211,35.88672 0,0 8.56203,-10.20727 9.78516,-32.42107 1.22309,-22.21376 -2.02605,-27.87575 -5.2793,-40.27229 z m 125.4043,131.5664 c 0,0 3.95502,21.13218 -1.34766,34.98438 -5.30271,13.85219 -20.32752,29.90156 -39.85547,31.19922 -15.06493,1.00108 -48.30488,-24.11847 -48.84346,-40.66607 6.36809,-1.60449 52.79743,-29.03012 68.17274,-34.86696 15.37531,-5.83684 21.87385,9.34943 21.87385,9.34943 z"
           transform="scale(0.26458333)"
           sodipodi:nodetypes="ssssssssssssssscccssssssssssssssssssssssssscsscsc" />
        <path
           id="path8115"
           style="opacity:1;fill:#ffb800;fill-opacity:1;stroke:none;stroke-width:1.00157;stroke-linecap:butt;stroke-linejoin:miter;stroke-miterlimit:4;stroke-dasharray:none;stroke-opacity:1"
           d="m 536.92969,270.22461 c -2.41069,0.0481 -4.05615,0.50493 -5.28907,1.21484 -3.28772,1.89312 -7.55614,13.96311 -11.74609,24.45117 -4.18995,10.48807 -13.87701,8.80352 -21.29883,9.3418 -7.42182,0.53829 -11.287,-7.42746 -12.3789,-9.45508 -1.09191,-2.02761 -7.36656,-10.49267 -10.75782,-14.73632 -3.39125,-4.24365 -7.90933,-3.57422 -13.76953,-1.15821 -5.86023,2.41602 -17.35414,7.9196 -26.21093,13.50781 -8.8568,5.58823 -11.53564,10.39426 -10.41993,25.94727 1.11572,15.55302 0.6382,14.27161 -4.53125,22.21094 -5.16941,7.93933 -11.95611,7.52585 -17.16211,6.30273 -5.20599,-1.22312 -10.41208,-1.32927 -14.27343,4.01367 -3.8614,5.34296 -12.5141,19.4594 -18.29688,34.11133 -5.78278,14.65191 -2.6914,12.43413 -0.48047,17.75 2.21093,5.31587 -0.27014,15.91707 -4.13086,27.69922 -3.8607,11.78211 -15.31058,54.37913 -15.52148,104.61328 0,0 -3.94118,53.58823 25.22461,118.56836 29.16578,64.9801 71.31134,94.72064 119.29297,94.36914 47.98159,-0.35149 103.06889,-20.45833 139.53906,-86.18359 36.47017,-65.72527 27.49785,-112.09452 26.00195,-136.95508 -1.49593,-24.8606 -17.60382,-53.70917 -33.08008,-58.375 -15.47621,-4.66586 -62.37661,8.73762 -97.41015,24.70703 -35.0335,15.96938 -51.79114,27.12457 -54.22852,25.00196 -2.43734,-2.12263 3.63441,-37.55129 9.61328,-59.60547 5.97888,-22.05423 20.60857,-43.25826 30.33789,-52.69336 9.7293,-9.43514 11.97272,-2.26702 12.74219,6.37695 0.76951,8.64397 3.25287,23.74092 8.23047,29.55273 4.97764,5.81182 14.35243,5.51697 30.65039,3.82227 16.29797,-1.6947 34.84244,-7.95977 43.90235,-19.70117 9.0599,-11.74141 7.5381,-56.45322 5.61523,-64.15235 -1.92283,-7.69913 -12.34477,-15.11849 -16.36328,-21.44726 -4.01851,-6.32877 -2.92812,-40.20597 -6.34961,-46.70508 -3.42153,-6.49911 -21.58779,-13.87441 -37.40625,-18.51758 -9.88654,-2.90198 -16.02711,-3.95705 -20.04492,-3.87695 z M 425.09375,403.06836 c 21.58431,0.14438 30.52684,37.28623 29.27344,62.32617 -1.25341,25.0399 -13.02421,67.73191 -36.27344,67.34375 -23.2492,-0.38816 -28.72556,-40.82143 -28.02148,-62.37695 0.97918,-29.97796 13.43717,-67.43735 35.02148,-67.29297 z m 0.70117,29.66797 c -6.42376,-0.15462 -16.14137,15.06037 -16.66797,36.80664 -0.5266,21.74627 5.38274,35.74007 12.16211,35.88672 6.77938,0.14661 15.31203,-12.85847 16.53516,-35.07227 1.22309,-22.21376 -5.6055,-37.46651 -12.0293,-37.62109 z m 125.4043,131.5664 c 0,0 3.95502,21.13218 -1.34766,34.98438 -5.30271,13.85219 -20.32752,29.90156 -39.85547,31.19922 -15.06493,1.00108 -31.2954,-21.8274 -31.83398,-38.375 6.36809,-1.60449 19.72625,-4.88582 35.10156,-10.72266 15.37531,-5.83684 37.93555,-17.08594 37.93555,-17.08594 z"
           transform="scale(0.26458333)"
           sodipodi:nodetypes="ssssssssssssssscsssssssssssssssssssssssssssscsscsc" />
      </g>
      <path
         style="fill:#ffffff;fill-opacity:1;stroke:none;stroke-width:1.03553px;stroke-linecap:butt;stroke-linejoin:miter;stroke-opacity:1"
         d="M 28.131359,101.35264 94.55412,79.208149 136.68274,20.598859 97.375473,82.645566 Z"
         id="path8295" />
      <path
         style="fill:#ffb800;fill-opacity:1;stroke:none;stroke-width:1.03553px;stroke-linecap:butt;stroke-linejoin:miter;stroke-opacity:1"
         d="m 203.78765,229.52701 -0.0469,-71.24918 41.78288,-56.93405 -46.51227,57.12288 z"
         id="path8839" />
      <path
         style="fill:#a67700;fill-opacity:1;stroke:none;stroke-width:1.03553px;stroke-linecap:butt;stroke-linejoin:miter;stroke-opacity:1"
         d="m 105.3079,102.71052 c 0.0771,-0.4372 2.39759,-5.186445 5.08795,-6.836493 2.69036,-1.650047 7.38693,-1.903134 7.98023,-1.175709 0.59328,0.727421 -4.04131,-0.321441 -7.86459,2.148217 -3.82328,2.469643 -5.20359,5.863985 -5.20359,5.863985 z"
         id="path1645" />
      <path
         style="fill:#ffffff;fill-opacity:1;stroke:none;stroke-width:1.03553px;stroke-linecap:butt;stroke-linejoin:miter;stroke-opacity:1"
         d="m 105.53397,102.26366 c 0,0 3.2145,-3.592178 6.12524,-4.904248 2.91073,-1.312074 5.78419,-1.736692 6.45974,-2.220165 -0.28219,-0.264456 0.065,-0.961412 0.56903,-0.01213 0.41409,0.780097 -4.45691,1.65719 -7.01322,3.059517 -2.5563,1.402323 -6.38136,4.491196 -6.38136,4.491196 z"
         id="path1713"
         sodipodi:nodetypes="cscsscc" />
    </g>
  </g>
  <metadata
     id="metadata21089">
    <rdf:RDF>
      <cc:Work
         rdf:about="">
        <dc:creator>
          <cc:Agent>
            <dc:title>IcterusGames</dc:title>
          </cc:Agent>
        </dc:creator>
        <cc:license
           rdf:resource="http://creativecommons.org/publicdomain/zero/1.0/" />
        <dc:title>Todogodot Medal</dc:title>
        <dc:date>2024-08-01</dc:date>
      </cc:Work>
      <cc:License
         rdf:about="http://creativecommons.org/publicdomain/zero/1.0/">
        <cc:permits
           rdf:resource="http://creativecommons.org/ns#Reproduction" />
        <cc:permits
           rdf:resource="http://creativecommons.org/ns#Distribution" />
        <cc:permits
           rdf:resource="http://creativecommons.org/ns#DerivativeWorks" />
      </cc:License>
    </rdf:RDF>
  </metadata>
</svg>
