<?xml version="1.0" encoding="UTF-8" standalone="no"?>
<!-- Created with Inkscape (http://www.inkscape.org/) -->

<svg
   width="179.09044mm"
   height="176.99104mm"
   viewBox="0 0 179.09044 176.99104"
   version="1.1"
   id="svg5"
   inkscape:version="1.1.2 (0a00cf5339, 2022-02-04)"
   sodipodi:docname="nitrous.svg"
   xmlns:inkscape="http://www.inkscape.org/namespaces/inkscape"
   xmlns:sodipodi="http://sodipodi.sourceforge.net/DTD/sodipodi-0.dtd"
   xmlns="http://www.w3.org/2000/svg"
   xmlns:svg="http://www.w3.org/2000/svg"
   xmlns:rdf="http://www.w3.org/1999/02/22-rdf-syntax-ns#"
   xmlns:cc="http://creativecommons.org/ns#"
   xmlns:dc="http://purl.org/dc/elements/1.1/">
  <sodipodi:namedview
     id="namedview7"
     pagecolor="#505050"
     bordercolor="#ffffff"
     borderopacity="1"
     inkscape:pageshadow="0"
     inkscape:pageopacity="0"
     inkscape:pagecheckerboard="1"
     inkscape:document-units="mm"
     showgrid="false"
     fit-margin-left="2"
     fit-margin-bottom="2"
     fit-margin-top="2"
     fit-margin-right="2"
     inkscape:zoom="0.81134749"
     inkscape:cx="318.60578"
     inkscape:cy="370.98777"
     inkscape:window-width="1920"
     inkscape:window-height="1007"
     inkscape:window-x="0"
     inkscape:window-y="0"
     inkscape:window-maximized="1"
     inkscape:current-layer="layer1" />
  <defs
     id="defs2" />
  <g
     inkscape:label="Capa 1"
     inkscape:groupmode="layer"
     id="layer1"
     transform="translate(-14.512421,-53.143974)">
    <path
       style="fill:#0038b7;stroke-width:3.77953;stroke-linecap:round;stroke-linejoin:round"
       id="path846"
       sodipodi:type="arc"
       sodipodi:cx="104.05764"
       sodipodi:cy="141.6395"
       sodipodi:rx="87.545219"
       sodipodi:ry="86.495522"
       sodipodi:start="0.29068145"
       sodipodi:end="0.28400521"
       sodipodi:open="true"
       sodipodi:arc-type="arc"
       d="M 187.93023,166.42956 A 87.545219,86.495522 0 0 1 79.106752,224.54769 87.545219,86.495522 0 0 1 20.101759,117.12619 87.545219,86.495522 0 0 1 128.72827,58.649477 87.545219,86.495522 0 0 1 188.09587,165.87577" />
    <path
       style="fill:#0032a1;fill-opacity:1;stroke-width:3.77953;stroke-linecap:round;stroke-linejoin:round"
       id="path846-3"
       sodipodi:type="arc"
       sodipodi:cx="103.07318"
       sodipodi:cy="141.22208"
       sodipodi:rx="67.888092"
       sodipodi:ry="67.074089"
       sodipodi:start="0.29068145"
       sodipodi:end="0.28400521"
       sodipodi:open="true"
       sodipodi:arc-type="arc"
       d="M 168.11329,160.44586 A 67.888092,67.074089 0 0 1 83.724687,205.51432 67.888092,67.074089 0 0 1 37.968489,122.21291 67.888092,67.074089 0 0 1 122.20435,76.866376 67.888092,67.074089 0 0 1 168.24174,160.01641" />
    <path
       style="fill:#00287b;fill-opacity:1;stroke-width:3.77953;stroke-linecap:round;stroke-linejoin:round"
       id="path1416"
       sodipodi:type="arc"
       sodipodi:cx="103.07318"
       sodipodi:cy="141.22208"
       sodipodi:rx="67.888092"
       sodipodi:ry="67.074089"
       sodipodi:start="2.4555713"
       sodipodi:end="5.5331843"
       sodipodi:arc-type="slice"
       d="M 50.543245,183.71107 A 67.888092,67.074089 0 0 1 58.410409,90.707531 67.888092,67.074089 0 0 1 152.7461,95.501728 L 103.07318,141.22208 Z" />
    <path
       style="fill:#2b6fff;fill-opacity:1;stroke-width:3.77953;stroke-linecap:round;stroke-linejoin:round"
       id="path1783"
       sodipodi:type="arc"
       sodipodi:cx="103.07318"
       sodipodi:cy="141.22208"
       sodipodi:rx="67.888092"
       sodipodi:ry="67.074089"
       sodipodi:start="5.6588187"
       sodipodi:end="2.1086661"
       sodipodi:arc-type="arc"
       d="m 158.15307,102.01167 a 67.888092,67.074089 0 0 1 -5.04519,84.54403 67.888092,67.074089 0 0 1 -84.814292,12.26974"
       sodipodi:open="true" />
    <path
       style="fill:#0032a1;fill-opacity:1;stroke-width:3.77953;stroke-linecap:round;stroke-linejoin:round"
       id="path3024"
       sodipodi:type="arc"
       sodipodi:cx="96.676544"
       sodipodi:cy="134.60506"
       sodipodi:rx="69.421295"
       sodipodi:ry="70.671638"
       sodipodi:start="5.791063"
       sodipodi:end="2.0325893"
       sodipodi:open="true"
       sodipodi:arc-type="arc"
       d="M 157.85976,101.21289 A 69.421295,70.671638 0 0 1 146.50355,183.81392 69.421295,70.671638 0 0 1 65.745609,197.8742" />
    <path
       style="fill:#0032a1;fill-opacity:1;stroke-width:3.77953;stroke-linecap:round;stroke-linejoin:round"
       id="path3330"
       sodipodi:type="arc"
       sodipodi:cx="107.11735"
       sodipodi:cy="145.27283"
       sodipodi:rx="69.310043"
       sodipodi:ry="66.149963"
       sodipodi:start="2.484242"
       sodipodi:end="5.4732504"
       sodipodi:open="true"
       sodipodi:arc-type="arc"
       d="m 52.25056,185.69189 a 69.310043,66.149963 0 0 1 8.458189,-89.5513 69.310043,66.149963 0 0 1 94.201031,1.223636" />
    <path
       style="fill:#feff45;fill-opacity:1;stroke:#000000;stroke-width:2;stroke-linecap:butt;stroke-linejoin:miter;stroke-miterlimit:4;stroke-dasharray:none;stroke-opacity:1"
       d="m 60.401127,175.58234 1.218649,-73.55233 23.713535,-0.0647 31.161349,41.59188 -0.0751,-40.67403 26.21362,-0.15158 -0.866,70.92144 -28.6402,-0.018 -27.167012,-33.38276 -0.01826,35.06329 z"
       id="path3563" />
    <path
       style="fill:#000000;fill-opacity:1;stroke:#000000;stroke-width:1;stroke-linecap:butt;stroke-linejoin:miter;stroke-miterlimit:4;stroke-dasharray:none;stroke-opacity:1"
       d="m 60.401127,175.58234 5.098301,4.92799 24.652012,-0.43713 v -26.79577 l 22.38606,26.89906 34.97559,0.41696 0.0335,-69.96611 -4.91345,-7.89576 -0.866,70.92144 -28.6402,-0.018 -27.167014,-33.38276 -0.01826,35.06329 -25.540581,0.26679"
       id="path4902"
       sodipodi:nodetypes="ccccccccccccc" />
  </g>
  <metadata
     id="metadata829">
    <rdf:RDF>
      <cc:Work
         rdf:about="">
        <dc:creator>
          <cc:Agent>
            <dc:title>IcterusGames</dc:title>
          </cc:Agent>
        </dc:creator>
        <cc:license
           rdf:resource="http://creativecommons.org/publicdomain/zero/1.0/" />
      </cc:Work>
      <cc:License
         rdf:about="http://creativecommons.org/publicdomain/zero/1.0/">
        <cc:permits
           rdf:resource="http://creativecommons.org/ns#Reproduction" />
        <cc:permits
           rdf:resource="http://creativecommons.org/ns#Distribution" />
        <cc:permits
           rdf:resource="http://creativecommons.org/ns#DerivativeWorks" />
      </cc:License>
    </rdf:RDF>
  </metadata>
</svg>
