<?xml version="1.0" encoding="UTF-8" standalone="no"?>
<!-- Created with Inkscape (http://www.inkscape.org/) -->

<svg
   width="256"
   height="256"
   viewBox="0 0 67.73333 67.733334"
   version="1.1"
   id="svg5"
   inkscape:version="1.1.2 (0a00cf5339, 2022-02-04)"
   sodipodi:docname="sawmill_log_02.svg"
   xmlns:inkscape="http://www.inkscape.org/namespaces/inkscape"
   xmlns:sodipodi="http://sodipodi.sourceforge.net/DTD/sodipodi-0.dtd"
   xmlns="http://www.w3.org/2000/svg"
   xmlns:svg="http://www.w3.org/2000/svg"
   xmlns:rdf="http://www.w3.org/1999/02/22-rdf-syntax-ns#"
   xmlns:cc="http://creativecommons.org/ns#"
   xmlns:dc="http://purl.org/dc/elements/1.1/">
  <sodipodi:namedview
     id="namedview7"
     pagecolor="#505050"
     bordercolor="#ffffff"
     borderopacity="1"
     inkscape:pageshadow="0"
     inkscape:pageopacity="0"
     inkscape:pagecheckerboard="1"
     inkscape:document-units="mm"
     showgrid="true"
     units="px"
     width="512px"
     inkscape:snap-global="false"
     inkscape:zoom="1.6226949"
     inkscape:cx="229.86453"
     inkscape:cy="110.00219"
     inkscape:window-width="1920"
     inkscape:window-height="1007"
     inkscape:window-x="0"
     inkscape:window-y="0"
     inkscape:window-maximized="1"
     inkscape:current-layer="layer1"
     inkscape:object-paths="true"
     inkscape:snap-intersection-paths="true"
     showguides="true"
     inkscape:guide-bbox="true"
     inkscape:snap-object-midpoints="true" />
  <defs
     id="defs2" />
  <g
     inkscape:label="Capa 1"
     inkscape:groupmode="layer"
     id="layer1">
    <path
       style="fill:#865e3c;stroke:#63452c;stroke-width:2.6356;stroke-linecap:butt;stroke-linejoin:miter;stroke-miterlimit:4;stroke-dasharray:none;stroke-opacity:1"
       d="M 4.9041391,35.595213 C 4.768632,28.279723 6.0273182,22.051062 8.6705375,17.036966 9.0729196,16.273661 16.181228,19.143454 16.647748,18.436894 17.590165,17.009576 11.460063,12.819109 12.21067,11.384146 15.088122,5.8832197 24.340325,3.5481216 32.775157,2.733968 51.6544,0.91169111 62.25428,22.378067 62.818749,34.206729 c 0.56448,11.828686 -11.016326,28.760922 -25.945127,30.669279 -4.466808,0.570986 -9.002634,0.08362 -13.202202,-1.449804 -1.350546,-0.493126 2.478759,-7.267583 1.211242,-7.976679 -1.622495,-0.907672 -5.391691,5.031331 -7.167875,4.179394 C 10.772782,56.299164 5.5496959,45.837186 4.9041391,35.595213 Z"
       id="path16225"
       sodipodi:nodetypes="csssssssssc" />
    <path
       style="fill:none;stroke:#63452c;stroke-width:1.31779;stroke-linecap:round;stroke-linejoin:miter;stroke-miterlimit:4;stroke-dasharray:none;stroke-opacity:1"
       d="m 15.597168,27.009767 c -1.932473,9.831783 -0.936652,13.876965 0.811985,17.100138 1.748636,3.223173 9.038522,10.044468 13.816672,11.623964 4.778149,1.57947 10.645311,-0.968459 13.191171,-2.835026"
       id="path18285" />
    <path
       style="fill:none;stroke:#63452c;stroke-width:1.31779;stroke-linecap:round;stroke-linejoin:miter;stroke-miterlimit:4;stroke-dasharray:none;stroke-opacity:1"
       d="M 53.257834,38.853467 C 55.189565,28.207366 52.080811,19.07832 48.061442,15.587152 44.042078,12.095984 37.922145,9.1458377 30.248182,11.059381"
       id="path18287" />
    <path
       style="fill:none;stroke:#63452c;stroke-width:1.31779;stroke-linecap:round;stroke-linejoin:miter;stroke-miterlimit:4;stroke-dasharray:none;stroke-opacity:1"
       d="M 23.397215,45.558853 C 18.04787,37.056316 18.750327,33.910176 18.750327,28.285815 c 0,-5.624361 2.20721,-9.576977 3.736876,-11.490886"
       id="path18289" />
    <path
       style="fill:none;stroke:#63452c;stroke-width:1.31779;stroke-linecap:round;stroke-linejoin:miter;stroke-miterlimit:4;stroke-dasharray:none;stroke-opacity:1"
       d="m 30.607178,49.397713 c 7.099799,1.65554 12.205518,1.195091 16.128884,-4.955849 3.923366,-6.15094 4.731233,-13.376628 2.800828,-19.240657 -1.930394,-5.86402 -5.137842,-8.40529 -8.252023,-9.265715"
       id="path18291" />
    <path
       style="fill:none;stroke:#63452c;stroke-width:1.31779;stroke-linecap:round;stroke-linejoin:miter;stroke-miterlimit:4;stroke-dasharray:none;stroke-opacity:1"
       d="m 22.834432,30.740493 c 1.793099,7.942106 3.412606,15.945024 11.517861,16.220042 8.105248,0.275018 11.501966,-7.293126 11.447935,-11.543005 -0.05399,-4.249905 0.266807,-11.650681 -6.138781,-14.576253"
       id="path18293" />
    <path
       style="fill:none;stroke:#63452c;stroke-width:1.31779;stroke-linecap:round;stroke-linejoin:miter;stroke-miterlimit:4;stroke-dasharray:none;stroke-opacity:1"
       d="m 33.728121,16.859549 c -6.075043,1.196695 -7.072697,3.151714 -7.981275,5.050697"
       id="path18295" />
    <path
       style="fill:none;stroke:#63452c;stroke-width:1.31779;stroke-linecap:round;stroke-linejoin:miter;stroke-miterlimit:4;stroke-dasharray:none;stroke-opacity:1"
       d="m 27.995101,29.080279 c 0.108771,6.990773 1.395822,9.78123 2.980777,11.340395"
       id="path18297" />
    <path
       style="fill:none;stroke:#63452c;stroke-width:1.31779;stroke-linecap:round;stroke-linejoin:miter;stroke-miterlimit:4;stroke-dasharray:none;stroke-opacity:1"
       d="M 34.707362,42.10905 C 38.77255,41.16194 41.742823,37.317468 41.409523,32.75081 41.076218,28.184149 38.031902,21.038952 30.189372,23.49883"
       id="path18299" />
    <path
       style="fill:none;stroke:#63452c;stroke-width:1.84491;stroke-linecap:butt;stroke-linejoin:miter;stroke-miterlimit:4;stroke-dasharray:none;stroke-opacity:1"
       d="m 30.03295,64.271328 c 5.732157,-0.639068 6.131999,-0.387374 8.549845,-1.543051 2.417838,-1.155654 3.010039,-1.263304 5.215501,-1.656717 2.20547,-0.393411 4.549919,-1.777083 5.57829,-3.524162 1.028372,-1.747052 4.188612,-5.011398 6.201602,-7.350625 2.012994,-2.339252 2.758878,-3.161024 4.493957,-6.293244 1.735075,-3.132195 2.357592,-5.478902 1.748855,-8.483995 -0.608737,-3.005091 -1.943024,-5.423913 -1.837052,-7.406948 0.10596,-1.983009 0.206727,-3.982154 -1.469884,-6.466327 C 56.837445,19.062075 57.051431,18.850982 54.617952,16.349971 52.184463,13.84896 54.249315,15.660165 52.078487,11.721333 49.907658,7.7825088 48.152619,7.2148571 45.472129,6.7088411 42.791635,6.2028277 41.668302,5.0906044 39.632785,4.2347236 37.597273,3.378851 35.259864,4.6090335 32.300547,4.3911909 29.341239,4.1733506 26.825856,3.0057841 25.577268,4.4980945 c -1.248593,1.4923018 -2.29251,1.6974774 -4.568897,2.435738 -2.276386,0.7382583 -3.941787,0.2695418 -5.108305,1.0650002 -1.166513,0.7954581 -2.705383,2.1729113 -2.705383,2.1729113"
       id="path18486"
       sodipodi:nodetypes="cssssssssssssssssc" />
    <path
       style="fill:none;stroke:#63452c;stroke-width:2.6356;stroke-linecap:butt;stroke-linejoin:miter;stroke-miterlimit:4;stroke-dasharray:none;stroke-opacity:1"
       d="m 9.4745633,17.143834 c -1.2200337,2.709947 -1.7047158,5.884654 -1.7047158,7.32113 0,1.436442 -1.960111,4.997183 -1.9594222,5.725332 6.866e-4,0.728121 1.0531939,4.193341 1.0194062,6.071957 -0.033775,1.878616 -0.07006,4.23473 0.236969,5.60165 0.3070293,1.36692 -0.9258108,1.376218 1.256077,3.294619 2.1818835,1.918401 1.5860148,0.900885 1.4813618,2.777338 -0.10465,1.876425 1.9929527,3.98277 2.3702887,4.767722 0.37733,0.784978 1.161046,1.865284 2.037654,3.106276 0.87661,1.240994 1.082531,-0.159776 2.311453,0.166986 1.228924,0.326747 0.135507,-0.08362 0.48571,1.052009 0.350216,1.135587 1.162589,2.297276 1.162589,2.297276"
       id="path18915"
       sodipodi:nodetypes="cssssssssssc" />
    <path
       style="fill:none;stroke:#63452c;stroke-width:1.31779;stroke-linecap:butt;stroke-linejoin:miter;stroke-miterlimit:4;stroke-dasharray:none;stroke-opacity:1"
       d="m 32.296054,32.646872 c 1.308503,2.126195 1.191585,3.530015 2.553609,3.396098 1.362019,-0.133855 1.432663,-0.883545 1.547976,-2.488452 0.115294,-1.604934 0.09064,-3.4167 -1.179727,-3.801774 -1.270358,-0.385074 -2.697066,-0.265587 -2.984697,1.042684 -0.287634,1.308299 0.06285,1.851444 0.06285,1.851444 z"
       id="path19374" />
  </g>
  <metadata
     id="metadata868">
    <rdf:RDF>
      <cc:Work
         rdf:about="">
        <dc:creator>
          <cc:Agent>
            <dc:title>IcterusGames</dc:title>
          </cc:Agent>
        </dc:creator>
        <cc:license
           rdf:resource="http://creativecommons.org/publicdomain/zero/1.0/" />
      </cc:Work>
      <cc:License
         rdf:about="http://creativecommons.org/publicdomain/zero/1.0/">
        <cc:permits
           rdf:resource="http://creativecommons.org/ns#Reproduction" />
        <cc:permits
           rdf:resource="http://creativecommons.org/ns#Distribution" />
        <cc:permits
           rdf:resource="http://creativecommons.org/ns#DerivativeWorks" />
      </cc:License>
    </rdf:RDF>
  </metadata>
</svg>
