<?xml version="1.0" encoding="UTF-8" standalone="no"?>
<!-- Created with Inkscape (http://www.inkscape.org/) -->

<svg
   width="256"
   height="256"
   viewBox="0 0 67.73333 67.733334"
   version="1.1"
   id="svg5"
   inkscape:version="1.1.2 (0a00cf5339, 2022-02-04)"
   sodipodi:docname="sawmill_log_01.svg"
   xmlns:inkscape="http://www.inkscape.org/namespaces/inkscape"
   xmlns:sodipodi="http://sodipodi.sourceforge.net/DTD/sodipodi-0.dtd"
   xmlns="http://www.w3.org/2000/svg"
   xmlns:svg="http://www.w3.org/2000/svg"
   xmlns:rdf="http://www.w3.org/1999/02/22-rdf-syntax-ns#"
   xmlns:cc="http://creativecommons.org/ns#"
   xmlns:dc="http://purl.org/dc/elements/1.1/">
  <sodipodi:namedview
     id="namedview7"
     pagecolor="#505050"
     bordercolor="#ffffff"
     borderopacity="1"
     inkscape:pageshadow="0"
     inkscape:pageopacity="0"
     inkscape:pagecheckerboard="1"
     inkscape:document-units="mm"
     showgrid="true"
     units="px"
     width="512px"
     inkscape:snap-global="false"
     inkscape:zoom="1.6226949"
     inkscape:cx="229.86453"
     inkscape:cy="110.00219"
     inkscape:window-width="1920"
     inkscape:window-height="1007"
     inkscape:window-x="0"
     inkscape:window-y="0"
     inkscape:window-maximized="1"
     inkscape:current-layer="layer1"
     inkscape:object-paths="true"
     inkscape:snap-intersection-paths="true"
     showguides="true"
     inkscape:guide-bbox="true"
     inkscape:snap-object-midpoints="true" />
  <defs
     id="defs2" />
  <g
     inkscape:label="Capa 1"
     inkscape:groupmode="layer"
     id="layer1">
    <path
       style="fill:#865e3c;stroke:#63452c;stroke-width:2.77307;stroke-linecap:butt;stroke-linejoin:miter;stroke-miterlimit:4;stroke-dasharray:none;stroke-opacity:1"
       d="m 4.3073801,30.861292 c 0.1597067,14.404219 7.9727899,28.469211 19.1382929,31.826177 1.543311,0.464015 4.256541,-7.325242 5.867556,-6.940918 1.477122,0.352398 -0.197753,8.15923 1.396927,8.26164 C 46.626999,65.030236 63.797801,54.472077 63.420307,36.490567 63.097388,21.108639 58.221713,7.2016618 44.268992,4.6555439 42.937478,4.4125583 41.294294,11.972437 39.798129,11.789947 38.644699,11.649266 38.19162,3.7084379 36.92936,3.6741188 16.872467,3.1288112 5.1021467,15.338601 4.3073801,30.861292 Z"
       id="path16223"
       sodipodi:nodetypes="csssssssc" />
    <path
       style="fill:none;stroke:#63452c;stroke-width:1.29377;stroke-linecap:round;stroke-linejoin:miter;stroke-miterlimit:4;stroke-dasharray:none;stroke-opacity:1"
       d="m 33.860706,31.208366 c 1.432026,0 3.512272,0.270136 3.822475,1.612104 0.310212,1.341969 0.380027,3.376326 -1.798302,3.927983 -2.17832,0.551655 -3.829979,0.545857 -4.029693,-1.498599 -0.199733,-2.044458 0.990036,-4.094844 2.00552,-4.041488 z"
       id="path22215" />
    <path
       style="fill:none;stroke:#63452c;stroke-width:1.29377;stroke-linecap:round;stroke-linejoin:miter;stroke-miterlimit:4;stroke-dasharray:none;stroke-opacity:1"
       d="m 36.383753,27.770893 c 2.200276,0.548796 3.803075,0.36575 4.18911,2.445043 0.386037,2.079267 0.940009,4.177159 0.743086,5.487309 -0.196911,1.310124 -1.176833,3.691634 -2.22674,4.124091"
       id="path22217" />
    <path
       style="fill:none;stroke:#63452c;stroke-width:1.29377;stroke-linecap:round;stroke-linejoin:miter;stroke-miterlimit:4;stroke-dasharray:none;stroke-opacity:1"
       d="m 32.72921,40.853422 c -3.370493,-1.031725 -3.925102,-1.567274 -3.925102,-3.184049 0,-1.616772 -0.777898,-3.748242 -0.104027,-5.668177"
       id="path22219" />
    <path
       style="fill:none;stroke:#63452c;stroke-width:1.29377;stroke-linecap:round;stroke-linejoin:miter;stroke-miterlimit:4;stroke-dasharray:none;stroke-opacity:1"
       d="m 25.226511,33.957962 c 1.319059,-5.706108 0.469795,-5.711539 2.590496,-6.984753 2.120698,-1.273215 2.759691,-3.241129 5.651052,-3.453633 2.891356,-0.212477 5.012619,0.321366 6.133199,0.751491 1.120574,0.430096 2.778051,1.246275 3.33116,2.807621 0.553106,1.561343 1.439799,4.13933 1.471884,5.759016"
       id="path22221" />
    <path
       style="fill:none;stroke:#63452c;stroke-width:1.29377;stroke-linecap:round;stroke-linejoin:miter;stroke-miterlimit:4;stroke-dasharray:none;stroke-opacity:1"
       d="m 43.644447,39.324813 c -2.363202,3.378583 -2.489383,4.754968 -4.937622,4.754968 -2.448227,0 -4.136152,-0.419186 -6.049817,0 -1.913666,0.419185 -3.68791,0.371258 -4.741725,-0.422544 -1.053819,-0.793827 -1.89295,-3.480912 -2.053062,-4.056151"
       id="path22223" />
    <path
       style="fill:none;stroke:#63452c;stroke-width:1.29377;stroke-linecap:round;stroke-linejoin:miter;stroke-miterlimit:4;stroke-dasharray:none;stroke-opacity:1"
       d="m 26.094503,45.852057 c -2.411752,-3.129461 -3.12083,-1.575328 -3.847818,-6.167894 -0.726991,-4.592566 -0.88726,-7.065232 -0.420641,-9.304985 0.466617,-2.239755 1.501681,-2.891301 2.202003,-4.021945 0.700322,-1.130671 1.997054,-3.770208 2.883897,-4.757419 0.886847,-0.987205 2.323273,-0.567463 4.263714,-0.773346 1.94044,-0.205885 3.78674,-0.09545 5.277807,-0.407588"
       id="path22225" />
    <path
       style="fill:none;stroke:#63452c;stroke-width:1.29377;stroke-linecap:round;stroke-linejoin:miter;stroke-miterlimit:4;stroke-dasharray:none;stroke-opacity:1"
       d="m 46.02087,26.488365 c 0.72829,3.395659 1.981723,4.679736 1.906852,6.909336 -0.07485,2.229628 1.633472,4.234371 0.133205,6.934493 -1.500253,2.700095 -2.838195,0.819562 -4.38724,3.587808 -1.549045,2.76822 -2.69852,4.138204 -4.863949,4.233636 -2.165423,0.09547 -4.647222,-0.417664 -6.450904,-0.163941"
       id="path22227" />
    <path
       style="fill:none;stroke:#63452c;stroke-width:1.29377;stroke-linecap:round;stroke-linejoin:miter;stroke-miterlimit:4;stroke-dasharray:none;stroke-opacity:1"
       d="m 40.245615,51.131844 c -5.531572,0.64024 -4.929389,1.200815 -8.651625,0.53332 -3.722233,-0.667549 -2.397946,-1.348422 -4.696867,-1.883078 -2.29892,-0.534633 -2.279299,-0.0158 -4.715298,-2.836109 -2.436002,-2.820423 -2.933499,-5.165837 -3.037541,-6.076686"
       id="path22229" />
    <path
       style="fill:none;stroke:#63452c;stroke-width:1.29377;stroke-linecap:round;stroke-linejoin:miter;stroke-miterlimit:4;stroke-dasharray:none;stroke-opacity:1"
       d="m 17.895784,32.087761 c 0,-3.408642 0.216492,-4.415264 1.845849,-6.60001 1.629349,-2.184798 0.866303,-2.677624 2.780002,-4.423301 1.913699,-1.745673 0.733182,-2.58057 3.674827,-3.465694 2.941644,-0.885115 4.029014,-0.885115 6.149538,-0.885115"
       id="path22231" />
    <path
       style="fill:none;stroke:#63452c;stroke-width:1.29377;stroke-linecap:round;stroke-linejoin:miter;stroke-miterlimit:4;stroke-dasharray:none;stroke-opacity:1"
       d="m 37.955913,16.562053 c 3.566824,1.732144 4.106966,2.286197 6.170603,2.973605 2.063633,0.687401 2.691884,0.469613 3.381208,1.907076 0.689332,1.437457 2.138653,4.041792 2.850529,5.840193 0.711865,1.798378 0.124799,4.167375 0.51587,6.450778 0.391051,2.283405 2.550356,3.276936 1.620194,5.900277 -0.930154,2.623314 -2.844582,4.554686 -4.446559,6.108347 -1.601969,1.553633 -1.400712,3.031351 -2.788395,3.496548"
       id="path22233" />
    <path
       style="fill:none;stroke:#63452c;stroke-width:1.29377;stroke-linecap:round;stroke-linejoin:miter;stroke-miterlimit:4;stroke-dasharray:none;stroke-opacity:1"
       d="m 36.962386,56.27229 c 5.036526,-0.474062 2.979074,-0.38755 6.331024,-1.633668 3.351957,-1.246091 0.991287,1.24583 4.132878,-1.140482 3.141595,-2.386337 2.43032,-2.254731 3.709924,-4.179442 1.279608,-1.924733 -0.531412,-2.171077 1.457641,-3.527185 1.989048,-1.356082 3.010293,-3.674662 3.49087,-6.000508 0.480584,-2.325871 1.217689,-5.234327 -0.417283,-7.064891 -1.634965,-1.830564 -0.508847,-4.612476 -1.322841,-7.55422 -0.813994,-2.941714 -1.150225,-4.477171 -2.714411,-5.484281 -1.564179,-1.007107 -2.695237,-1.830358 -3.831936,-3.080392 -1.136706,-1.250026 -0.827685,-2.188688 -2.206865,-2.734531"
       id="path22235" />
    <path
       style="fill:none;stroke:#63452c;stroke-width:1.29377;stroke-linecap:round;stroke-linejoin:miter;stroke-miterlimit:4;stroke-dasharray:none;stroke-opacity:1"
       d="m 34.13553,10.775682 c -4.234036,1.318959 -6.058741,1.738138 -7.667687,1.738138 -1.608944,0 0.0011,-0.411551 -2.707078,1.519 -2.708154,1.930546 -2.436718,3.591394 -5.021812,5.135688 -2.585099,1.544282 -4.561992,2.739958 -4.949383,4.88924 -0.387394,2.149282 -1.210065,4.276789 -0.699516,6.362219 0.510546,2.085458 0.726966,3.82888 1.123818,5.554017 0.396848,1.725137 1.101515,4.148828 1.328081,5.324617 0.226572,1.175817 -0.08991,2.30898 1.864357,3.677363 1.954285,1.368358 3.119712,4.321278 3.393063,5.242434 0.273353,0.921159 1.592581,2.257015 2.705525,2.502598"
       id="path22237" />
    <path
       style="fill:none;stroke:#63452c;stroke-width:2.58754;stroke-linecap:butt;stroke-linejoin:miter;stroke-miterlimit:4;stroke-dasharray:none;stroke-opacity:1"
       d="m 31.272966,62.812228 c 3.472445,0.207233 4.128262,-1.051188 5.450652,-1.146279 1.32238,-0.09522 0.239156,0.778534 2.87373,0.942117 2.634553,0.163689 3.761057,-0.03095 5.377019,-1.917758 1.615967,-1.886856 2.019156,-2.25447 3.357543,-2.558418 1.338395,-0.303921 0.631148,1.457967 2.815105,-0.357854 2.183962,-1.815821 2.411824,-1.068057 3.240244,-3.412448 0.828425,-2.344393 1.32913,-3.142996 2.159249,-3.070568 0.830114,0.07241 1.447545,-0.787768 2.208245,-1.625142 0.760697,-0.837347 2.806887,-2.642098 1.697072,-4.303361 -1.109813,-1.661288 -0.224763,-1.87778 1.284759,-2.777244 1.509524,-0.899436 0.03588,-1.74321 0.05132,-3.637857 0.01559,-1.894648 0.748097,-2.650492 0.01559,-4.880147 -0.732645,-2.229654 0.265392,-2.506687 -0.34657,-4.462928 -0.611963,-1.956239 -0.412771,-0.650418 -0.314419,-3.644651 0.09834,-2.994261 -0.75585,-4.117439 -1.653651,-4.474085 -0.897811,-0.356643 -1.891426,-2.41128 -1.579112,-4.298608 0.312316,-1.887326 -0.463181,-2.660652 -1.506528,-3.140962 C 55.359862,13.565717 54.222029,12.250573 53.527538,11.049089 52.833046,9.8476099 52.800726,8.844061 50.853234,8.8243295 48.905748,8.8046555 48.200506,8.9726968 47.226563,7.9491722 46.25262,6.9256556 46.529852,5.718411 45.182008,5.718411 h -1.900151"
       id="path22394"
       sodipodi:nodetypes="cccssssssssccsssssscssc" />
    <path
       style="fill:none;stroke:#63452c;stroke-width:2.58754;stroke-linecap:butt;stroke-linejoin:miter;stroke-miterlimit:4;stroke-dasharray:none;stroke-opacity:1"
       d="m 23.976459,61.785068 c -1.986466,-0.757417 -3.054383,-1.076948 -2.612958,-1.443408 0.441423,-0.366485 -0.860853,-2.085431 -1.643335,-2.181912 -0.782483,-0.09653 -1.26674,0.379076 -2.163289,0.240021 -0.896548,-0.139019 -1.864443,-0.368321 -1.864443,-1.445898 0,-1.077551 -0.124019,-1.660161 -0.587931,-2.000441 -0.463908,-0.34028 0.126295,-0.429099 -1.336779,-1.342964 -1.463059,-0.913865 -3.641026,-1.379743 -2.86864,-2.465375 0.772391,-1.085658 0.639484,-2.783722 0.09002,-3.210096 C 10.43964,47.508597 10.422428,48.174492 9.3579468,46.662175 8.2934675,45.149883 7.4107474,43.766993 7.7006168,42.712918 7.9904841,41.658844 8.8194082,41.603021 7.9904841,40.491658 7.16156,39.380267 6.5686924,38.867881 6.5686924,38.867881 c 0,0 -0.7030063,-2.094955 -0.5755064,-2.896836 0.1274957,-0.801855 -0.020013,-0.163941 0.5698648,-1.669683 0.5898697,-1.505812 0.600363,-1.89685 -0.012429,-3.048375 -0.612824,-1.1515 -0.8813675,-2.135011 -0.2005128,-3.554941 0.6808694,-1.419904 1.0765421,-1.970482 0.8697577,-2.688081 -0.2067908,-0.717572 -0.6954202,-0.511679 -0.00969,-2.101486 0.6857548,-1.589784 -0.6504807,-1.436072 1.1731982,-3.11256 1.8236771,-1.676491 1.4095098,-1.05958 2.4865911,-2.572234 1.077082,-1.512656 0.522754,-1.731229 1.680162,-2.916473 1.157407,-1.185251 0.486266,-1.120968 2.41392,-2.175322 C 16.8917,11.077537 18.375832,9.9244063 17.45899,9.5488555 16.542146,9.1733047 17.163079,9.3342267 18.9835,8.9594471 c 1.820418,-0.3747876 3.007512,-0.078931 3.161828,-1.0296944 0.154313,-0.9507678 0.748777,-2.0464798 2.101317,-1.7546453 1.352541,0.2918345 2.341416,0.2635802 3.637686,0.079954 1.29627,-0.1836237 1.065535,-0.016263 2.085593,-0.6072384 1.02006,-0.5910741 1.476398,-0.9120575 2.745136,-0.5910741 1.268742,0.320986 3.022406,0.320986 3.022406,0.320986 L 37.10735,5.1302378"
       id="path22637" />
  </g>
  <metadata
     id="metadata868">
    <rdf:RDF>
      <cc:Work
         rdf:about="">
        <dc:creator>
          <cc:Agent>
            <dc:title>IcterusGames</dc:title>
          </cc:Agent>
        </dc:creator>
        <cc:license
           rdf:resource="http://creativecommons.org/publicdomain/zero/1.0/" />
      </cc:Work>
      <cc:License
         rdf:about="http://creativecommons.org/publicdomain/zero/1.0/">
        <cc:permits
           rdf:resource="http://creativecommons.org/ns#Reproduction" />
        <cc:permits
           rdf:resource="http://creativecommons.org/ns#Distribution" />
        <cc:permits
           rdf:resource="http://creativecommons.org/ns#DerivativeWorks" />
      </cc:License>
    </rdf:RDF>
  </metadata>
</svg>
