<?xml version="1.0" encoding="UTF-8" standalone="no"?>
<!-- Created with Inkscape (http://www.inkscape.org/) -->

<svg
   width="256"
   height="256"
   viewBox="0 0 67.73333 67.733334"
   version="1.1"
   id="svg5"
   inkscape:version="1.1.2 (0a00cf5339, 2022-02-04)"
   sodipodi:docname="sawmill_log_03.svg"
   xmlns:inkscape="http://www.inkscape.org/namespaces/inkscape"
   xmlns:sodipodi="http://sodipodi.sourceforge.net/DTD/sodipodi-0.dtd"
   xmlns="http://www.w3.org/2000/svg"
   xmlns:svg="http://www.w3.org/2000/svg"
   xmlns:rdf="http://www.w3.org/1999/02/22-rdf-syntax-ns#"
   xmlns:cc="http://creativecommons.org/ns#"
   xmlns:dc="http://purl.org/dc/elements/1.1/">
  <sodipodi:namedview
     id="namedview7"
     pagecolor="#505050"
     bordercolor="#ffffff"
     borderopacity="1"
     inkscape:pageshadow="0"
     inkscape:pageopacity="0"
     inkscape:pagecheckerboard="1"
     inkscape:document-units="mm"
     showgrid="true"
     units="px"
     width="512px"
     inkscape:snap-global="false"
     inkscape:zoom="1.6226949"
     inkscape:cx="229.86453"
     inkscape:cy="110.00219"
     inkscape:window-width="1920"
     inkscape:window-height="1007"
     inkscape:window-x="0"
     inkscape:window-y="0"
     inkscape:window-maximized="1"
     inkscape:current-layer="layer1"
     inkscape:object-paths="true"
     inkscape:snap-intersection-paths="true"
     showguides="true"
     inkscape:guide-bbox="true"
     inkscape:snap-object-midpoints="true" />
  <defs
     id="defs2" />
  <g
     inkscape:label="Capa 1"
     inkscape:groupmode="layer"
     id="layer1">
    <path
       style="fill:#865e3c;stroke:#63452c;stroke-width:2.57886;stroke-linecap:butt;stroke-linejoin:miter;stroke-miterlimit:4;stroke-dasharray:none;stroke-opacity:1"
       d="M 5.1095836,35.452058 C 4.8621979,20.977 11.083854,10.857123 19.321648,7.4946007 c 1.374166,-0.5609084 5.234172,4.8197773 6.537578,4.2617733 1.20108,-0.514194 -1.392194,-7.2430158 -0.173028,-7.5784439 2.51465,-0.691855 5.031807,-1.0149797 7.403185,-1.0169903 6.207822,-0.00523 19.017456,2.6370196 25.549929,15.4860592 0.414273,0.814831 -5.626368,3.612772 -5.265867,4.511622 0.531179,1.324474 5.765951,-0.09803 7.010343,1.087349 2.385464,2.272265 2.071552,7.412616 2.225705,11.095655 0.558053,13.333674 -9.967339,25.008599 -18.59721,27.956761 -1.625156,0.555217 -5.089564,-7.966368 -5.889827,-6.745503 -1.24013,1.891899 -0.93319,7.923571 -2.257283,8.005533 C 30.790786,64.872534 6.3124733,59.246902 5.1095941,35.452058 Z"
       id="path16227"
       sodipodi:nodetypes="csssssssssssc" />
    <path
       style="fill:none;stroke:#63452c;stroke-width:1.28942;stroke-linecap:butt;stroke-linejoin:miter;stroke-miterlimit:4;stroke-dasharray:none;stroke-opacity:1"
       d="m 31.515915,32.888705 c -0.05734,1.937442 -0.08776,3.981185 2.252714,4.685971 2.340495,0.704785 3.894623,-1.502356 3.527822,-2.753496 -0.3668,-1.251139 -1.794967,-4.070099 -3.108432,-3.556215 -1.313464,0.513909 -1.625945,0.267399 -2.672104,1.62374 z"
       id="path20527" />
    <path
       style="fill:none;stroke:#63452c;stroke-width:1.28942;stroke-linecap:round;stroke-linejoin:miter;stroke-miterlimit:4;stroke-dasharray:none;stroke-opacity:1"
       d="m 27.489049,32.832967 c -0.311073,4.219563 1.127583,5.829318 2.519572,6.527203 1.391982,0.697883 3.38445,0.859296 3.38445,0.859296"
       id="path20529" />
    <path
       style="fill:none;stroke:#63452c;stroke-width:1.28942;stroke-linecap:round;stroke-linejoin:miter;stroke-miterlimit:4;stroke-dasharray:none;stroke-opacity:1"
       d="m 37.961521,39.632615 c 2.603382,-1.600553 3.24523,-4.50929 2.687072,-5.551934 -0.558158,-1.042616 -1.496177,-6.066913 -3.567981,-6.277396 -2.071779,-0.210458 -4.328606,-6.81e-4 -6.401857,1.615165"
       id="path20531" />
    <path
       style="fill:none;stroke:#63452c;stroke-width:1.28942;stroke-linecap:round;stroke-linejoin:miter;stroke-miterlimit:4;stroke-dasharray:none;stroke-opacity:1"
       d="m 24.651722,36.604425 c -0.665831,-5.122651 0.9994,-7.777269 2.01506,-9.00577 1.015655,-1.228498 3.637387,-4.621811 6.638986,-4.40087 3.001602,0.220916 5.871255,0.500915 6.382929,1.437178"
       id="path20533" />
    <path
       style="fill:none;stroke:#63452c;stroke-width:1.28942;stroke-linecap:round;stroke-linejoin:miter;stroke-miterlimit:4;stroke-dasharray:none;stroke-opacity:1"
       d="m 42.691128,29.858582 c 1.4001,4.16427 1.813574,4.553211 1.4001,6.64553 -0.413475,2.092317 -2.0186,4.769865 -3.997434,5.71452 -1.978834,0.944631 -6.746593,2.789732 -9.958351,1.643716"
       id="path20535" />
    <path
       style="fill:none;stroke:#63452c;stroke-width:1.28942;stroke-linecap:round;stroke-linejoin:miter;stroke-miterlimit:4;stroke-dasharray:none;stroke-opacity:1"
       d="M 25.789265,45.308991 C 21.24274,40.7951 20.947084,37.591093 21.389512,32.114456 c 0.442433,-5.476665 2.389201,-9.160122 5.101012,-11.223383"
       id="path20537" />
    <path
       style="fill:none;stroke:#63452c;stroke-width:1.28942;stroke-linecap:round;stroke-linejoin:miter;stroke-miterlimit:4;stroke-dasharray:none;stroke-opacity:1"
       d="m 36.044235,19.710614 c 4.450961,1.257924 6.972689,1.812471 8.988664,5.205763 2.015997,3.393288 1.953051,6.960981 2.293942,8.530422 0.340913,1.569467 0.669417,7.41523 -1.833814,9.199938"
       id="path20539" />
    <path
       style="fill:none;stroke:#63452c;stroke-width:1.28942;stroke-linecap:round;stroke-linejoin:miter;stroke-miterlimit:4;stroke-dasharray:none;stroke-opacity:1"
       d="m 20.117603,44.443004 c 3.685333,3.986936 6.941311,6.786548 9.810536,7.17217 2.869231,0.385648 10.052696,-0.255163 12.64938,-1.704865 2.596705,-1.449782 7.299668,-4.849997 7.891441,-8.589744 0.591773,-3.73972 0.626311,-7.668537 -0.363672,-10.89108"
       id="path20541" />
    <path
       style="fill:none;stroke:#63452c;stroke-width:1.28942;stroke-linecap:round;stroke-linejoin:miter;stroke-miterlimit:4;stroke-dasharray:none;stroke-opacity:1"
       d="m 48.602455,25.70639 c -2.654738,-4.275918 -1.701413,-4.998637 -4.969235,-6.976306 -3.267821,-1.977663 -5.928984,-4.283665 -9.442132,-3.970328 -3.513143,0.313345 -5.338821,0.203661 -7.452727,1.678639"
       id="path20543" />
    <path
       style="fill:none;stroke:#63452c;stroke-width:1.28942;stroke-linecap:round;stroke-linejoin:miter;stroke-miterlimit:4;stroke-dasharray:none;stroke-opacity:1"
       d="m 20.553218,21.562577 c -1.875155,4.290506 -3.010593,6.424421 -3.010593,9.18589 0,2.761494 -0.196418,7.266288 0,7.86242"
       id="path20545" />
    <path
       style="fill:none;stroke:#63452c;stroke-width:1.28942;stroke-linecap:round;stroke-linejoin:miter;stroke-miterlimit:4;stroke-dasharray:none;stroke-opacity:1"
       d="M 24.589229,54.084537 C 16.513536,48.767405 14.453502,44.33448 14.246116,41.492749 14.038738,38.651044 12.305455,30.181694 13.105505,27.818108 c 0.800051,-2.363561 2.666598,-6.326599 4.064514,-8.617404 1.397928,-2.290805 5.156071,-4.632416 6.075164,-5.161965"
       id="path20547" />
    <path
       style="fill:none;stroke:#63452c;stroke-width:1.28942;stroke-linecap:round;stroke-linejoin:miter;stroke-miterlimit:4;stroke-dasharray:none;stroke-opacity:1"
       d="m 30.87321,10.825489 c 4.680697,0 8.478332,0.205908 10.086313,0.417708 1.60796,0.211817 3.79224,2.571782 5.091558,3.617012 1.299318,1.04522 3.506525,2.915396 4.314851,3.847691"
       id="path20549" />
    <path
       style="fill:none;stroke:#63452c;stroke-width:1.28942;stroke-linecap:round;stroke-linejoin:miter;stroke-miterlimit:4;stroke-dasharray:none;stroke-opacity:1"
       d="m 56.020772,28.159442 c 0.451519,7.7831 1.409148,8.305166 -0.471277,12.938143 -1.880426,4.632975 -0.853405,5.826992 -4.254719,8.589271 -3.401336,2.76228 -5.740083,4.739644 -5.740083,4.739644"
       id="path20551" />
    <path
       style="fill:none;stroke:#63452c;stroke-width:2.57886;stroke-linecap:butt;stroke-linejoin:miter;stroke-miterlimit:4;stroke-dasharray:none;stroke-opacity:1"
       d="m 36.218137,64.297343 c -2.94956,-0.79399 -2.078296,-1.603664 -3.820084,-1.903403 -1.741793,-0.299739 -6.122566,-2.691743 -7.965763,-2.691743 -1.843208,0 -2.794876,0.471426 -4.837213,-1.043505 -2.042349,-1.514905 -3.984156,-2.253338 -5.512136,-4.980873 -1.527977,-2.727535 0.269463,-2.122175 -2.26243,-4.244714 -2.5319012,-2.122541 -3.7732262,-3.850491 -4.349794,-6.007151 -0.5765656,-2.15663 0.1384269,-1.389492 0.1384269,-4.103327 0,-2.71381 -0.2033466,-3.145079 -0.7173545,-5.608587 -0.5140038,-2.463508 -0.4782265,-3.284791 -0.026497,-5.57235 0.4516749,-2.287561 0.1238556,-1.899716 1.5302787,-4.612506 1.4064315,-2.712762 1.9011879,-2.402386 1.4864179,-3.819116 -0.4147723,-1.41673 0.272919,-3.852245 1.661968,-4.795857 1.389038,-0.943613 1.291251,-0.855176 2.618211,-1.721157 1.326957,-0.865983 1.030655,-1.624262 1.793136,-2.258164 0.762481,-0.633902 1.892676,-0.9996284 2.903129,-1.4113574 1.010449,-0.4117183 1.592771,-0.8655231 1.592771,-0.8655231"
       id="path20720"
       sodipodi:nodetypes="csssssssssssssssc" />
    <path
       style="fill:none;stroke:#63452c;stroke-width:2.57886;stroke-linecap:butt;stroke-linejoin:miter;stroke-miterlimit:4;stroke-dasharray:none;stroke-opacity:1"
       d="m 27.044515,4.7102579 c 2.106718,-0.2085494 2.105009,-0.6856694 3.480883,-0.2085494 1.37587,0.4771146 2.888596,0.2190331 4.506413,0.1174896 1.617816,-0.1015431 1.642969,-0.644085 3.004372,-0.1015431 1.361425,0.5425317 0.619719,0.4294362 2.262889,1.3324993 1.643191,0.903058 5.187993,1.5581887 5.68142,1.3204576 0.493428,-0.2377261 3.175166,0.3716895 2.668133,1.6500398 -0.507012,1.2783533 -0.691504,0.9359229 0.709624,2.0753063 1.401128,1.139393 2.421829,1.121762 3.104704,1.121762 0.682853,0 2.441964,0.832085 2.499262,2.399638 0.05732,1.567555 0.353615,1.828682 0.786028,2.556582 0.432434,0.727898 1.11722,1.642174 1.11722,1.642174 l 1.193036,0.791924"
       id="path21031" />
    <path
       style="fill:none;stroke:#63452c;stroke-width:2.57886;stroke-linecap:butt;stroke-linejoin:miter;stroke-miterlimit:4;stroke-dasharray:none;stroke-opacity:1"
       d="m 44.056647,62.117939 c 1.663221,-0.242614 1.875176,-1.102772 2.56183,-1.590617 0.686676,-0.487843 0.553876,-1.254851 1.954101,-1.326565 1.400225,-0.07164 1.778573,-1.019872 2.699438,-1.859715 0.920844,-0.839845 -0.0147,-0.911609 1.324387,-2.035901 1.338623,-1.124316 3.028425,-2.830149 3.642097,-2.907194 0.613651,-0.07712 0.856386,0.549412 0.960086,-1.376004 0.10372,-1.925415 -0.341144,-3.113862 1.036931,-4.424948 1.378074,-1.311089 0.648966,-0.208638 1.941754,-2.86351 1.292768,-2.654828 1.142982,-2.867744 0.957146,-4.626884 -0.185815,-1.759142 -0.944044,-1.522567 -0.185815,-3.524897 0.75823,-2.00233 1.103635,-2.220527 0.343453,-4.203512 -0.760182,-1.982984 -0.476757,-0.400157 -0.881896,-2.108081 -0.405118,-1.707926 -1.179578,-1.988554 -0.482531,-2.72866 0.697048,-0.740106 0.942134,-1.539374 0.395503,-1.739794 -0.546632,-0.200533 -0.997291,-0.458039 -0.997291,-0.458039"
       id="path21066" />
  </g>
  <metadata
     id="metadata868">
    <rdf:RDF>
      <cc:Work
         rdf:about="">
        <dc:creator>
          <cc:Agent>
            <dc:title>IcterusGames</dc:title>
          </cc:Agent>
        </dc:creator>
        <cc:license
           rdf:resource="http://creativecommons.org/publicdomain/zero/1.0/" />
      </cc:Work>
      <cc:License
         rdf:about="http://creativecommons.org/publicdomain/zero/1.0/">
        <cc:permits
           rdf:resource="http://creativecommons.org/ns#Reproduction" />
        <cc:permits
           rdf:resource="http://creativecommons.org/ns#Distribution" />
        <cc:permits
           rdf:resource="http://creativecommons.org/ns#DerivativeWorks" />
      </cc:License>
    </rdf:RDF>
  </metadata>
</svg>
