<?xml version="1.0" encoding="UTF-8" standalone="no"?>
<!-- Created with Inkscape (http://www.inkscape.org/) -->

<svg
   width="512"
   height="128"
   viewBox="0 0 135.46666 33.866667"
   version="1.1"
   id="svg5"
   inkscape:version="1.1.2 (0a00cf5339, 2022-02-04)"
   sodipodi:docname="sawmill_logs.svg"
   xmlns:inkscape="http://www.inkscape.org/namespaces/inkscape"
   xmlns:sodipodi="http://sodipodi.sourceforge.net/DTD/sodipodi-0.dtd"
   xmlns="http://www.w3.org/2000/svg"
   xmlns:svg="http://www.w3.org/2000/svg"
   xmlns:rdf="http://www.w3.org/1999/02/22-rdf-syntax-ns#"
   xmlns:cc="http://creativecommons.org/ns#"
   xmlns:dc="http://purl.org/dc/elements/1.1/">
  <sodipodi:namedview
     id="namedview7"
     pagecolor="#505050"
     bordercolor="#ffffff"
     borderopacity="1"
     inkscape:pageshadow="0"
     inkscape:pageopacity="0"
     inkscape:pagecheckerboard="1"
     inkscape:document-units="mm"
     showgrid="true"
     units="px"
     width="512px"
     inkscape:snap-global="false"
     inkscape:zoom="1.6226949"
     inkscape:cx="231.71331"
     inkscape:cy="7.7032349"
     inkscape:window-width="1920"
     inkscape:window-height="1007"
     inkscape:window-x="0"
     inkscape:window-y="0"
     inkscape:window-maximized="1"
     inkscape:current-layer="layer1"
     inkscape:object-paths="true"
     inkscape:snap-intersection-paths="true"
     showguides="true"
     inkscape:guide-bbox="true"
     inkscape:snap-object-midpoints="true" />
  <defs
     id="defs2" />
  <g
     inkscape:label="Capa 1"
     inkscape:groupmode="layer"
     id="layer1">
    <path
       style="fill:#865e3c;stroke:#63452c;stroke-width:1.31633;stroke-linecap:butt;stroke-linejoin:miter;stroke-miterlimit:4;stroke-dasharray:none;stroke-opacity:1"
       d="m 22.91498,15.325741 c 0.07581,6.837435 3.784546,13.513844 9.084618,15.107338 0.732583,0.22026 2.020507,-3.477166 2.785228,-3.294734 0.701164,0.167277 -0.09387,3.873046 0.663097,3.921658 C 43.003374,31.54515 51.154058,26.533374 50.974868,17.997861 50.821584,10.696325 48.507185,4.0949221 41.884069,2.8863238 41.252022,2.7709827 40.472031,6.3595267 39.761827,6.272902 39.214314,6.206123 38.999245,2.4367489 38.400072,2.4204582 28.87941,2.1616101 23.292242,7.957387 22.91498,15.325741 Z"
       id="path16223"
       sodipodi:nodetypes="csssssssc" />
    <path
       style="fill:#865e3c;stroke:#63452c;stroke-width:1.22826;stroke-linecap:butt;stroke-linejoin:miter;stroke-miterlimit:4;stroke-dasharray:none;stroke-opacity:1"
       d="m 54.597522,17.370913 c -0.06315,-3.409217 0.523432,-6.311942 1.755244,-8.6486474 0.187521,-0.3557206 3.500186,0.9816807 3.717597,0.6524047 0.439192,-0.665169 -2.417602,-2.6180406 -2.067799,-3.2867722 1.340971,-2.5635812 5.652749,-3.6518004 9.58361,-4.0312181 8.79824,-0.8492305 13.738072,9.154684 14.00113,14.667162 0.263063,5.512489 -5.133907,13.403371 -12.091134,14.292717 -2.081654,0.266095 -4.195472,0.03897 -6.152585,-0.675648 -0.629391,-0.22981 1.155169,-3.386891 0.564472,-3.717349 -0.756127,-0.423 -2.512675,2.344737 -3.340425,1.947711 -3.235163,-1.551756 -5.669263,-6.427322 -5.97011,-11.20036 z"
       id="path16225"
       sodipodi:nodetypes="csssssssssc" />
    <path
       style="fill:#865e3c;stroke:#63452c;stroke-width:1.22826;stroke-linecap:butt;stroke-linejoin:miter;stroke-miterlimit:4;stroke-dasharray:none;stroke-opacity:1"
       d="m 85.19964,17.990851 c -0.117825,-6.894189 2.845429,-11.7140902 6.76893,-13.3155939 0.654489,-0.2671498 2.492935,2.295566 3.113722,2.0297997 0.572051,-0.2449009 -0.663075,-3.4497076 -0.08241,-3.6094655 1.197679,-0.3295171 2.396552,-0.4834151 3.525993,-0.4843727 2.956665,-0.00249 9.057645,1.2559612 12.168935,7.3757087 0.19731,0.3880887 -2.67973,1.7206937 -2.50803,2.1487987 0.25299,0.630821 2.74621,-0.04669 3.33889,0.517883 1.13615,1.082236 0.98664,3.530485 1.06006,5.284645 0.26579,6.35057 -4.74725,11.91111 -8.85749,13.315262 -0.77403,0.264439 -2.42406,-3.794226 -2.80521,-3.212752 -0.59065,0.901075 -0.44446,3.773843 -1.0751,3.81288 -2.416832,0.149608 -14.075377,-2.529771 -14.648285,-13.862793 z"
       id="path16227"
       sodipodi:nodetypes="csssssssssssc" />
    <path
       style="fill:none;stroke:#63452c;stroke-width:0.614128;stroke-linecap:round;stroke-linejoin:miter;stroke-miterlimit:4;stroke-dasharray:none;stroke-opacity:1"
       d="m 59.580764,13.369862 c -0.900585,4.581878 -0.436505,6.467043 0.378407,7.969129 0.814912,1.502086 4.212197,4.680995 6.438945,5.417083 2.226747,0.736076 4.961004,-0.451328 6.147444,-1.321199"
       id="path18285" />
    <path
       style="fill:none;stroke:#63452c;stroke-width:0.614128;stroke-linecap:round;stroke-linejoin:miter;stroke-miterlimit:4;stroke-dasharray:none;stroke-opacity:1"
       d="M 77.131658,18.889348 C 78.031897,13.927976 76.583133,9.6735923 74.709998,8.0466129 72.836865,6.419634 69.98481,5.0447855 66.408535,5.9365489"
       id="path18287" />
    <path
       style="fill:none;stroke:#63452c;stroke-width:0.614128;stroke-linecap:round;stroke-linejoin:miter;stroke-miterlimit:4;stroke-dasharray:none;stroke-opacity:1"
       d="m 63.215798,22.01424 c -2.49294,-3.962413 -2.165576,-5.4286 -2.165576,-8.049705 0,-2.621105 1.02862,-4.4631317 1.741486,-5.3550653"
       id="path18289" />
    <path
       style="fill:none;stroke:#63452c;stroke-width:0.614128;stroke-linecap:round;stroke-linejoin:miter;stroke-miterlimit:4;stroke-dasharray:none;stroke-opacity:1"
       d="m 66.575837,23.803253 c 3.308699,0.771527 5.688103,0.556945 7.516498,-2.30956 1.828395,-2.866505 2.204883,-6.233872 1.305262,-8.966669 C 74.497981,9.7942313 73.003223,8.6099304 71.55193,8.2089487"
       id="path18291" />
    <path
       style="fill:none;stroke:#63452c;stroke-width:0.614128;stroke-linecap:round;stroke-linejoin:miter;stroke-miterlimit:4;stroke-dasharray:none;stroke-opacity:1"
       d="m 62.953526,15.108482 c 0.835633,3.701237 1.590367,7.430814 5.367636,7.55898 3.777266,0.128166 5.360229,-3.398795 5.335049,-5.379354 -0.02516,-1.980571 0.124339,-5.429534 -2.860839,-6.79293"
       id="path18293" />
    <path
       style="fill:none;stroke:#63452c;stroke-width:0.614128;stroke-linecap:round;stroke-linejoin:miter;stroke-miterlimit:4;stroke-dasharray:none;stroke-opacity:1"
       d="M 68.030281,8.6395844 C 65.199146,9.197277 64.734212,10.108369 64.31079,10.993347"
       id="path18295" />
    <path
       style="fill:none;stroke:#63452c;stroke-width:0.614128;stroke-linecap:round;stroke-linejoin:miter;stroke-miterlimit:4;stroke-dasharray:none;stroke-opacity:1"
       d="m 65.358538,14.334777 c 0.05069,3.25789 0.650491,4.558319 1.389123,5.284932"
       id="path18297" />
    <path
       style="fill:none;stroke:#63452c;stroke-width:0.614128;stroke-linecap:round;stroke-linejoin:miter;stroke-miterlimit:4;stroke-dasharray:none;stroke-opacity:1"
       d="M 68.486634,20.406538 C 70.381122,19.965159 71.76535,18.173531 71.610023,16.045344 71.454694,13.917156 70.03596,10.5873 66.381128,11.73367"
       id="path18299" />
    <path
       style="fill:none;stroke:#63452c;stroke-width:0.859779;stroke-linecap:butt;stroke-linejoin:miter;stroke-miterlimit:4;stroke-dasharray:none;stroke-opacity:1"
       d="m 66.308231,30.734762 c 2.671341,-0.297823 2.857678,-0.180527 3.98446,-0.719104 1.126778,-0.538566 1.40276,-0.588734 2.430565,-0.772075 1.027809,-0.18334 2.120386,-0.828169 2.599635,-1.642355 0.479249,-0.814174 1.952007,-2.335448 2.890115,-3.425591 0.93811,-1.090155 1.285712,-1.473123 2.094306,-2.932823 0.808592,-1.459688 1.098702,-2.553317 0.815014,-3.953772 -0.283688,-1.400454 -0.905502,-2.527691 -0.856116,-3.451839 0.04938,-0.924136 0.09634,-1.855792 -0.685006,-3.013484 C 78.799854,9.6660213 78.899577,9.5676463 77.76551,8.4021073 76.631438,7.2365683 77.593715,8.0806391 76.58205,6.2450361 75.570385,4.4094372 74.752489,4.1448961 73.503308,3.9090789 72.254125,3.6732629 71.730621,3.1549366 70.782015,2.7560729 69.833411,2.357213 68.744115,2.9305115 67.364993,2.8289909 65.985875,2.7274714 64.813638,2.1833537 64.231762,2.8788109 63.649884,3.5742641 63.16339,3.6698815 62.102532,4.013931 61.041674,4.3579794 60.265552,4.1395448 59.721923,4.51025 59.178296,4.8809551 58.461141,5.5228855 58.461141,5.5228855"
       id="path18486"
       sodipodi:nodetypes="cssssssssssssssssc" />
    <path
       style="fill:none;stroke:#63452c;stroke-width:1.22826;stroke-linecap:butt;stroke-linejoin:miter;stroke-miterlimit:4;stroke-dasharray:none;stroke-opacity:1"
       d="m 56.727464,8.7720691 c -0.568569,1.2629089 -0.794444,2.7424089 -0.794444,3.4118459 0,0.669421 -0.913465,2.328823 -0.913144,2.66816 3.2e-4,0.339324 0.490817,1.954211 0.475071,2.829697 -0.01574,0.875486 -0.03265,1.973499 0.110434,2.610521 0.143084,0.637022 -0.431453,0.641355 0.585366,1.535382 1.016817,0.894027 0.739126,0.419837 0.690355,1.294315 -0.04877,0.874465 0.92877,1.856079 1.104619,2.221888 0.175846,0.365821 0.541079,0.869273 0.949602,1.447609 0.408524,0.578337 0.504489,-0.07446 1.0772,0.07782 0.572712,0.152273 0.06315,-0.03897 0.226354,0.490265 0.16321,0.529214 0.541798,1.070593 0.541798,1.070593"
       id="path18915"
       sodipodi:nodetypes="cssssssssssc" />
    <path
       style="fill:none;stroke:#63452c;stroke-width:0.614128;stroke-linecap:butt;stroke-linejoin:miter;stroke-miterlimit:4;stroke-dasharray:none;stroke-opacity:1"
       d="m 67.362899,15.996906 c 0.609798,0.990865 0.555311,1.645083 1.190051,1.582674 0.634738,-0.06238 0.66766,-0.411756 0.721399,-1.159686 0.05373,-0.747943 0.04224,-1.592275 -0.549785,-1.77173 -0.592021,-0.179455 -1.256906,-0.123771 -1.39095,0.485919 -0.134045,0.609703 0.02929,0.862823 0.02929,0.862823 z"
       id="path19374" />
    <path
       style="fill:none;stroke:#63452c;stroke-width:0.614128;stroke-linecap:butt;stroke-linejoin:miter;stroke-miterlimit:4;stroke-dasharray:none;stroke-opacity:1"
       d="m 97.776463,16.769976 c -0.02731,0.922766 -0.0418,1.896161 1.072924,2.231837 1.114732,0.335675 1.854933,-0.715543 1.680233,-1.311437 -0.1747,-0.595893 -0.854908,-1.938509 -1.480486,-1.693756 -0.625577,0.244765 -0.774406,0.127357 -1.272671,0.773356 z"
       id="path20527" />
    <path
       style="fill:none;stroke:#63452c;stroke-width:0.614128;stroke-linecap:round;stroke-linejoin:miter;stroke-miterlimit:4;stroke-dasharray:none;stroke-opacity:1"
       d="m 95.858545,16.743429 c -0.148158,2.009696 0.537046,2.776391 1.200023,3.10878 0.662974,0.332388 1.611948,0.409266 1.611948,0.409266"
       id="path20529" />
    <path
       style="fill:none;stroke:#63452c;stroke-width:0.614128;stroke-linecap:round;stroke-linejoin:miter;stroke-miterlimit:4;stroke-dasharray:none;stroke-opacity:1"
       d="m 100.84638,19.981969 c 1.23994,-0.762312 1.54564,-2.147687 1.2798,-2.644278 -0.26584,-0.496578 -0.7126,-2.889553 -1.69936,-2.989802 -0.986748,-0.100237 -2.061631,-3.24e-4 -3.04908,0.769272"
       id="path20531" />
    <path
       style="fill:none;stroke:#63452c;stroke-width:0.614128;stroke-linecap:round;stroke-linejoin:miter;stroke-miterlimit:4;stroke-dasharray:none;stroke-opacity:1"
       d="m 94.507181,18.539701 c -0.317122,-2.439819 0.475995,-3.704162 0.959734,-4.289273 0.483737,-0.58511 1.732417,-2.201279 3.16202,-2.096049 1.429605,0.105218 2.796365,0.238576 3.040065,0.6845"
       id="path20533" />
    <path
       style="fill:none;stroke:#63452c;stroke-width:0.614128;stroke-linecap:round;stroke-linejoin:miter;stroke-miterlimit:4;stroke-dasharray:none;stroke-opacity:1"
       d="m 103.099,15.326787 c 0.66684,1.983361 0.86377,2.168606 0.66684,3.165137 -0.19693,0.99653 -0.96142,2.271794 -1.9039,2.721715 -0.94248,0.449909 -3.213271,1.328695 -4.742969,0.78287"
       id="path20535" />
    <path
       style="fill:none;stroke:#63452c;stroke-width:0.614128;stroke-linecap:round;stroke-linejoin:miter;stroke-miterlimit:4;stroke-dasharray:none;stroke-opacity:1"
       d="m 95.048971,22.685517 c -2.165422,-2.149879 -2.306237,-3.675885 -2.095517,-6.284301 0.210722,-2.608429 1.13793,-4.362788 2.429513,-5.345479"
       id="path20537" />
    <path
       style="fill:none;stroke:#63452c;stroke-width:0.614128;stroke-linecap:round;stroke-linejoin:miter;stroke-miterlimit:4;stroke-dasharray:none;stroke-opacity:1"
       d="m 99.933214,10.493507 c 2.119906,0.599125 3.320956,0.863245 4.281126,2.479404 0.96018,1.616157 0.9302,3.31538 1.09256,4.062874 0.16237,0.747507 0.31883,3.53173 -0.87341,4.381752"
       id="path20539" />
    <path
       style="fill:none;stroke:#63452c;stroke-width:0.614128;stroke-linecap:round;stroke-linejoin:miter;stroke-miterlimit:4;stroke-dasharray:none;stroke-opacity:1"
       d="m 92.347668,22.273064 c 1.755253,1.8989 3.306012,3.232301 4.672568,3.415965 1.366559,0.183677 4.787904,-0.121529 6.024654,-0.811994 1.23676,-0.690503 3.47669,-2.309959 3.75854,-4.091128 0.28185,-1.781156 0.2983,-3.652375 -0.17321,-5.18721"
       id="path20541" />
    <path
       style="fill:none;stroke:#63452c;stroke-width:0.614128;stroke-linecap:round;stroke-linejoin:miter;stroke-miterlimit:4;stroke-dasharray:none;stroke-opacity:1"
       d="m 105.91445,13.349179 c -1.2644,-2.036537 -0.81035,-2.380754 -2.36675,-3.322679 -1.5564,-0.941923 -2.82386,-2.0402273 -4.497104,-1.8909908 -1.673242,0.1492399 -2.542777,0.097 -3.549589,0.799503"
       id="path20543" />
    <path
       style="fill:none;stroke:#63452c;stroke-width:0.614128;stroke-linecap:round;stroke-linejoin:miter;stroke-miterlimit:4;stroke-dasharray:none;stroke-opacity:1"
       d="m 92.555143,11.375561 c -0.8931,2.043485 -1.433887,3.059827 -1.433887,4.375061 0,1.315246 -0.09355,3.460792 0,3.744718"
       id="path20545" />
    <path
       style="fill:none;stroke:#63452c;stroke-width:0.614128;stroke-linecap:round;stroke-linejoin:miter;stroke-miterlimit:4;stroke-dasharray:none;stroke-opacity:1"
       d="m 94.477417,26.865139 c -3.846296,-2.532447 -4.82745,-4.643763 -4.926224,-5.997224 -0.09877,-1.353449 -0.924299,-5.387236 -0.543251,-6.512966 0.381049,-1.125718 1.270049,-3.013236 1.935849,-4.104302 0.665806,-1.0910666 2.455737,-2.2063302 2.893483,-2.458544"
       id="path20547" />
    <path
       style="fill:none;stroke:#63452c;stroke-width:0.614128;stroke-linecap:round;stroke-linejoin:miter;stroke-miterlimit:4;stroke-dasharray:none;stroke-opacity:1"
       d="m 97.470355,6.2616941 c 2.229325,0 4.038065,0.09807 4.803915,0.1989462 0.76584,0.1008845 1.80617,1.2248902 2.42501,1.7227125 0.61884,0.4978181 1.67009,1.3885465 2.05508,1.8325812"
       id="path20549" />
    <path
       style="fill:none;stroke:#63452c;stroke-width:0.614128;stroke-linecap:round;stroke-linejoin:miter;stroke-miterlimit:4;stroke-dasharray:none;stroke-opacity:1"
       d="m 109.44765,14.51752 c 0.21505,3.706939 0.67115,3.955589 -0.22446,6.162186 -0.89561,2.206596 -0.40646,2.775283 -2.02644,4.090903 -1.61999,1.31562 -2.73389,2.2574 -2.73389,2.2574"
       id="path20551" />
    <path
       style="fill:none;stroke:#63452c;stroke-width:1.22826;stroke-linecap:butt;stroke-linejoin:miter;stroke-miterlimit:4;stroke-dasharray:none;stroke-opacity:1"
       d="m 100.01604,31.7293 c -1.404818,-0.378162 -0.989852,-0.763794 -1.819432,-0.906554 -0.829582,-0.14276 -2.916059,-1.282025 -3.793938,-1.282025 -0.877884,0 -1.331145,0.224531 -2.303871,-0.497001 -0.972731,-0.72152 -1.897576,-1.073221 -2.625323,-2.372293 -0.727746,-1.299072 0.12834,-1.010751 -1.077552,-2.021675 -1.205895,-1.010925 -1.797114,-1.833914 -2.071722,-2.861089 -0.274607,-1.027161 0.06593,-0.661788 0.06593,-1.954335 0,-1.292535 -0.09685,-1.49794 -0.341662,-2.671261 -0.24481,-1.173321 -0.22777,-1.564482 -0.01262,-2.654002 0.215124,-1.089521 0.05899,-0.904798 0.728842,-2.196847 0.669856,-1.292036 0.905499,-1.14421 0.707952,-1.818971 C 87.275096,9.8184853 87.60263,8.6584974 88.264207,8.2090732 88.925779,7.7596486 88.879205,7.8017694 89.51121,7.3893195 90.143214,6.9768685 90.002091,6.6157151 90.365246,6.3137999 90.728401,6.0118848 91.266691,5.8376965 91.74795,5.641598 92.229207,5.4455045 92.506556,5.2293661 92.506556,5.2293661"
       id="path20720"
       sodipodi:nodetypes="csssssssssssssssc" />
    <path
       style="fill:none;stroke:#63452c;stroke-width:1.22826;stroke-linecap:butt;stroke-linejoin:miter;stroke-miterlimit:4;stroke-dasharray:none;stroke-opacity:1"
       d="m 95.646822,3.3491287 c 1.003389,-0.099328 1.002575,-0.326571 1.657877,-0.099328 0.6553,0.2272404 1.375782,0.1043212 2.146317,0.055958 0.770534,-0.048363 0.782514,-0.3067652 1.430924,-0.048363 0.64842,0.2583973 0.29516,0.2045321 1.07777,0.6346435 0.78262,0.430109 2.47094,0.742135 2.70595,0.6289083 0.23501,-0.1132243 1.51227,0.1770285 1.27078,0.7858819 -0.24148,0.6088546 -0.32935,0.4457621 0.33798,0.9884279 0.66733,0.5426708 1.15347,0.5342733 1.47871,0.5342733 0.32523,0 1.16306,0.3963061 1.19035,1.1429013 0.0273,0.7465956 0.16842,0.8709655 0.37437,1.2176499 0.20596,0.3466835 0.53211,0.7821355 0.53211,0.7821355 l 0.56822,0.3771787"
       id="path21031" />
    <path
       style="fill:none;stroke:#63452c;stroke-width:1.22826;stroke-linecap:butt;stroke-linejoin:miter;stroke-miterlimit:4;stroke-dasharray:none;stroke-opacity:1"
       d="m 103.74937,30.691292 c 0.79216,-0.115552 0.89311,-0.525229 1.22015,-0.75758 0.32705,-0.23235 0.2638,-0.597661 0.9307,-0.631817 0.6669,-0.03412 0.8471,-0.485745 1.28569,-0.885746 0.43858,-0.400002 -0.007,-0.434182 0.63078,-0.96966 0.63756,-0.53549 1.44238,-1.347945 1.73466,-1.38464 0.29227,-0.03673 0.40788,0.261674 0.45727,-0.655364 0.0494,-0.917038 -0.16248,-1.483072 0.49387,-2.107517 0.65635,-0.624446 0.30909,-0.09937 0.92482,-1.363834 0.61572,-1.264443 0.54438,-1.365851 0.45587,-2.203695 -0.0885,-0.837845 -0.44963,-0.725169 -0.0885,-1.67884 0.36113,-0.953671 0.52564,-1.057594 0.16358,-2.002051 -0.36206,-0.944457 -0.22707,-0.190587 -0.42003,-1.004038 -0.19295,-0.813452 -0.56181,-0.94711 -0.22982,-1.299608 0.33199,-0.352498 0.44872,-0.733174 0.18837,-0.82863 -0.26035,-0.09551 -0.47499,-0.218155 -0.47499,-0.218155"
       id="path21066" />
    <path
       style="fill:none;stroke:#63452c;stroke-width:0.614128;stroke-linecap:round;stroke-linejoin:miter;stroke-miterlimit:4;stroke-dasharray:none;stroke-opacity:1"
       d="m 36.943435,15.490491 c 0.679758,0 1.667215,0.128229 1.814463,0.765238 0.147252,0.63701 0.180392,1.602684 -0.853623,1.864546 -1.034011,0.261861 -1.818025,0.259109 -1.912826,-0.711359 -0.09481,-0.970469 0.469953,-1.943752 0.951986,-1.918425 z"
       id="path22215" />
    <path
       style="fill:none;stroke:#63452c;stroke-width:0.614128;stroke-linecap:round;stroke-linejoin:miter;stroke-miterlimit:4;stroke-dasharray:none;stroke-opacity:1"
       d="m 38.141082,13.858782 c 1.044433,0.260504 1.805254,0.173615 1.988498,1.16062 0.183245,0.986992 0.446206,1.982825 0.35273,2.604731 -0.09347,0.621893 -0.558622,1.752355 -1.056995,1.957635"
       id="path22217" />
    <path
       style="fill:none;stroke:#63452c;stroke-width:0.614128;stroke-linecap:round;stroke-linejoin:miter;stroke-miterlimit:4;stroke-dasharray:none;stroke-opacity:1"
       d="m 36.406333,20.068833 c -1.599915,-0.489742 -1.863178,-0.743958 -1.863178,-1.511413 0,-0.767454 -0.369255,-1.779226 -0.04938,-2.690586"
       id="path22219" />
    <path
       style="fill:none;stroke:#63452c;stroke-width:0.614128;stroke-linecap:round;stroke-linejoin:miter;stroke-miterlimit:4;stroke-dasharray:none;stroke-opacity:1"
       d="m 32.844931,16.795677 c 0.626135,-2.708591 0.223004,-2.711169 1.229664,-3.315542 1.006659,-0.604373 1.309978,-1.538508 2.682457,-1.63938 1.372477,-0.100859 2.379404,0.152547 2.911324,0.35672 0.531917,0.204159 1.318693,0.591585 1.581244,1.332729 0.26255,0.741143 0.683448,1.964869 0.698678,2.733706"
       id="path22221" />
    <path
       style="fill:none;stroke:#63452c;stroke-width:0.614128;stroke-linecap:round;stroke-linejoin:miter;stroke-miterlimit:4;stroke-dasharray:none;stroke-opacity:1"
       d="m 41.587608,19.343229 c -1.121771,1.603755 -1.181667,2.257101 -2.343804,2.257101 -1.162131,0 -1.96336,-0.19898 -2.871744,0 -0.908384,0.19898 -1.750587,0.17623 -2.250815,-0.200574 -0.50023,-0.376816 -0.898551,-1.652329 -0.974553,-1.925385"
       id="path22223" />
    <path
       style="fill:none;stroke:#63452c;stroke-width:0.614128;stroke-linecap:round;stroke-linejoin:miter;stroke-miterlimit:4;stroke-dasharray:none;stroke-opacity:1"
       d="m 33.256952,22.441599 c -1.144817,-1.485501 -1.481404,-0.747781 -1.826493,-2.927793 -0.34509,-2.180012 -0.421167,-3.353744 -0.199671,-4.416916 0.221495,-1.063173 0.712822,-1.372451 1.045253,-1.909148 0.332431,-0.53671 0.947967,-1.789653 1.368936,-2.258265 0.420971,-0.468609 1.102818,-0.269365 2.023912,-0.367094 0.921093,-0.09773 1.7975,-0.04531 2.505284,-0.193475"
       id="path22225" />
    <path
       style="fill:none;stroke:#63452c;stroke-width:0.614128;stroke-linecap:round;stroke-linejoin:miter;stroke-miterlimit:4;stroke-dasharray:none;stroke-opacity:1"
       d="m 42.715655,13.249988 c 0.345707,1.611861 0.94069,2.22139 0.90515,3.279743 -0.03553,1.058366 0.775381,2.009983 0.06323,3.291684 -0.712144,1.281689 -1.347242,0.389032 -2.082547,1.703071 -0.735305,1.314026 -1.280941,1.964334 -2.308833,2.009634 -1.027889,0.04532 -2.205956,-0.198258 -3.062133,-0.07782"
       id="path22227" />
    <path
       style="fill:none;stroke:#63452c;stroke-width:0.614128;stroke-linecap:round;stroke-linejoin:miter;stroke-miterlimit:4;stroke-dasharray:none;stroke-opacity:1"
       d="m 39.974241,24.947823 c -2.625742,0.303911 -2.339896,0.570006 -4.106777,0.253158 -1.76688,-0.316874 -1.138264,-0.640073 -2.229522,-0.893865 -1.091258,-0.253781 -1.081944,-0.0075 -2.238271,-1.346252 -1.156328,-1.338806 -1.392481,-2.452134 -1.441868,-2.884498"
       id="path22229" />
    <path
       style="fill:none;stroke:#63452c;stroke-width:0.614128;stroke-linecap:round;stroke-linejoin:miter;stroke-miterlimit:4;stroke-dasharray:none;stroke-opacity:1"
       d="m 29.365161,15.907925 c 0,-1.618024 0.102765,-2.09585 0.876193,-3.132911 0.773424,-1.037086 0.411219,-1.271022 1.319619,-2.099665 0.9084,-0.8286417 0.348029,-1.2249527 1.744377,-1.6451054 1.396348,-0.4201488 1.912504,-0.4201488 2.91908,-0.4201488"
       id="path22231" />
    <path
       style="fill:none;stroke:#63452c;stroke-width:0.614128;stroke-linecap:round;stroke-linejoin:miter;stroke-miterlimit:4;stroke-dasharray:none;stroke-opacity:1"
       d="m 38.887359,8.5381383 c 1.69311,0.822219 1.949506,1.085218 2.929079,1.411519 0.979571,0.3262977 1.277791,0.2229177 1.605001,0.9052567 0.327214,0.682336 1.015182,1.918569 1.353097,2.772239 0.33791,0.853659 0.05924,1.978181 0.244875,3.062073 0.185625,1.083893 1.21061,1.555505 0.769078,2.80076 -0.441528,1.245242 -1.350274,2.162031 -2.110705,2.899527 -0.760427,0.737483 -0.664894,1.43893 -1.323603,1.659751"
       id="path22233" />
    <path
       style="fill:none;stroke:#63452c;stroke-width:0.614128;stroke-linecap:round;stroke-linejoin:miter;stroke-miterlimit:4;stroke-dasharray:none;stroke-opacity:1"
       d="m 38.415749,27.387904 c 2.390752,-0.225029 1.414115,-0.183963 3.005228,-0.775474 1.591116,-0.591498 0.470547,0.591374 1.961806,-0.541367 1.491261,-1.132753 1.153631,-1.070282 1.761037,-1.983909 0.607408,-0.913638 -0.252252,-1.030573 0.691917,-1.674294 0.944167,-0.643709 1.428934,-1.744299 1.657056,-2.848338 0.228125,-1.104051 0.578016,-2.484645 -0.198077,-3.353582 -0.77609,-0.868937 -0.241541,-2.189463 -0.62793,-3.585858 C 46.280397,11.228701 46.120794,10.499846 45.378302,10.021788 44.635813,9.5437313 44.098919,9.1529486 43.559348,8.5595791 43.019773,7.9662129 43.16646,7.5206462 42.511787,7.2615441"
       id="path22235" />
    <path
       style="fill:none;stroke:#63452c;stroke-width:0.614128;stroke-linecap:round;stroke-linejoin:miter;stroke-miterlimit:4;stroke-dasharray:none;stroke-opacity:1"
       d="m 37.073889,5.791448 c -2.009824,0.6260867 -2.87598,0.825064 -3.639719,0.825064 -0.763738,0 5.13e-4,-0.1953564 -1.285003,0.7210429 -1.285514,0.9163971 -1.156668,1.7047731 -2.383768,2.4378224 -1.227102,0.7330447 -2.165499,1.3006117 -2.349387,2.3208387 -0.183889,1.020227 -0.574397,2.030118 -0.332048,3.020036 0.242347,0.989931 0.345078,1.817503 0.533457,2.636396 0.188377,0.818893 0.52287,1.969377 0.630417,2.527504 0.10755,0.55814 -0.04268,1.096033 0.884978,1.745581 0.927666,0.649536 1.480874,2.051236 1.610629,2.488493 0.129756,0.437258 0.755971,1.071366 1.284266,1.18794"
       id="path22237" />
    <path
       style="fill:none;stroke:#63452c;stroke-width:1.22826;stroke-linecap:butt;stroke-linejoin:miter;stroke-miterlimit:4;stroke-dasharray:none;stroke-opacity:1"
       d="m 35.715079,30.4923 c 1.64831,0.09837 1.959615,-0.498981 2.587331,-0.544119 0.627711,-0.0452 0.113523,0.369557 1.36411,0.447207 1.250577,0.0777 1.785309,-0.01469 2.552378,-0.910327 0.767072,-0.895658 0.958459,-1.070158 1.593768,-1.214437 0.635313,-0.144266 0.299595,0.692072 1.336282,-0.169867 1.036689,-0.861939 1.144851,-0.506988 1.538088,-1.61983 0.393239,-1.112843 0.630915,-1.491926 1.024958,-1.457546 0.394041,0.03437 0.687125,-0.37394 1.048216,-0.771427 0.36109,-0.397474 1.332381,-1.254158 0.805571,-2.042731 -0.526809,-0.788585 -0.106691,-0.89135 0.609853,-1.31831 0.716545,-0.426947 0.01703,-0.827472 0.02436,-1.726828 0.0074,-0.899357 0.355109,-1.258143 0.0074,-2.316522 -0.347774,-1.058378 0.125977,-1.189881 -0.164511,-2.118475 -0.290488,-0.928593 -0.195935,-0.308742 -0.149249,-1.730053 0.04668,-1.421324 -0.358789,-1.954477 -0.78496,-2.123771 C 48.682499,10.705972 48.210847,9.7306703 48.359097,8.8347888 48.507349,7.9389073 48.139234,7.5718231 47.643975,7.3438281 47.148714,7.1158293 46.608604,6.4915532 46.278941,5.9212294 45.949278,5.3509081 45.933936,4.8745407 45.009495,4.8651745 44.085057,4.8558356 43.750291,4.9356019 43.287977,4.4497524 42.825663,3.9639067 42.95726,3.3908485 42.317462,3.3908485 h -0.901969"
       id="path22394"
       sodipodi:nodetypes="cccssssssssccsssssscssc" />
    <path
       style="fill:none;stroke:#63452c;stroke-width:1.22826;stroke-linecap:butt;stroke-linejoin:miter;stroke-miterlimit:4;stroke-dasharray:none;stroke-opacity:1"
       d="m 32.251553,30.004725 c -0.942941,-0.359533 -1.449863,-0.511209 -1.240326,-0.685161 0.209536,-0.173964 -0.408632,-0.989918 -0.780063,-1.035716 -0.371431,-0.04582 -0.6013,0.179941 -1.026876,0.113934 -0.425576,-0.06599 -0.885019,-0.174836 -0.885019,-0.686343 0,-0.511495 -0.05887,-0.78805 -0.279081,-0.949575 -0.220209,-0.161525 0.05995,-0.203686 -0.634546,-0.637482 -0.694489,-0.433796 -1.728332,-0.65494 -1.361694,-1.170271 0.366641,-0.515343 0.303552,-1.321385 0.04273,-1.523777 -0.26082,-0.202404 -0.26899,0.113685 -0.774281,-0.604186 -0.50529,-0.717859 -0.924302,-1.374293 -0.786706,-1.874644 0.137595,-0.500351 0.531071,-0.526849 0.137595,-1.054394 -0.393476,-0.527558 -0.6749,-0.770779 -0.6749,-0.770779 0,0 -0.333705,-0.994439 -0.273183,-1.375078 0.06052,-0.380627 -0.0095,-0.07782 0.270505,-0.79257 0.280001,-0.714783 0.284982,-0.900402 -0.0059,-1.447011 -0.290897,-0.546597 -0.41837,-1.013453 -0.09518,-1.687469 0.323197,-0.674004 0.511016,-0.935354 0.412859,-1.275986 -0.09816,-0.340619 -0.330104,-0.242885 -0.0046,-0.997539 0.325516,-0.754643 -0.308772,-0.681679 0.556897,-1.477479 0.865668,-0.7958017 0.66907,-0.5029647 1.180342,-1.2209951 0.511272,-0.718032 0.248142,-0.8217846 0.797544,-1.3843994 0.549401,-0.5626186 0.230822,-0.5321042 1.145846,-1.0325883 0.915023,-0.5004828 1.619515,-1.0478542 1.184306,-1.2261217 -0.43521,-0.1782675 -0.140464,-0.1018806 0.723659,-0.279782 0.864121,-0.1779052 1.427614,-0.037467 1.500865,-0.4887782 0.07325,-0.4513131 0.355432,-0.9714287 0.997459,-0.8328999 0.642028,0.1385288 1.11143,0.125117 1.726747,0.037953 0.615317,-0.087163 0.505791,-0.00772 0.989995,-0.2882456 0.484205,-0.2805727 0.700821,-0.432938 1.303069,-0.2805727 0.60225,0.1523665 1.434684,0.1523665 1.434684,0.1523665 l 0.650261,-0.1174828"
       id="path22637" />
  </g>
  <metadata
     id="metadata868">
    <rdf:RDF>
      <cc:Work
         rdf:about="">
        <dc:creator>
          <cc:Agent>
            <dc:title>IcterusGames</dc:title>
          </cc:Agent>
        </dc:creator>
        <cc:license
           rdf:resource="http://creativecommons.org/publicdomain/zero/1.0/" />
      </cc:Work>
      <cc:License
         rdf:about="http://creativecommons.org/publicdomain/zero/1.0/">
        <cc:permits
           rdf:resource="http://creativecommons.org/ns#Reproduction" />
        <cc:permits
           rdf:resource="http://creativecommons.org/ns#Distribution" />
        <cc:permits
           rdf:resource="http://creativecommons.org/ns#DerivativeWorks" />
      </cc:License>
    </rdf:RDF>
  </metadata>
</svg>
