<?xml version="1.0" encoding="UTF-8" standalone="no"?>
<!-- Created with Inkscape (http://www.inkscape.org/) -->

<svg
   width="512"
   height="768"
   viewBox="0 0 135.46667 203.19999"
   version="1.1"
   id="svg5"
   inkscape:version="1.1.2 (0a00cf5339, 2022-02-04)"
   sodipodi:docname="scarecrow.svg"
   xmlns:inkscape="http://www.inkscape.org/namespaces/inkscape"
   xmlns:sodipodi="http://sodipodi.sourceforge.net/DTD/sodipodi-0.dtd"
   xmlns="http://www.w3.org/2000/svg"
   xmlns:svg="http://www.w3.org/2000/svg"
   xmlns:rdf="http://www.w3.org/1999/02/22-rdf-syntax-ns#"
   xmlns:cc="http://creativecommons.org/ns#"
   xmlns:dc="http://purl.org/dc/elements/1.1/">
  <title
     id="title85528">Scarecrow</title>
  <sodipodi:namedview
     id="namedview7"
     pagecolor="#505050"
     bordercolor="#ffffff"
     borderopacity="1"
     inkscape:pageshadow="0"
     inkscape:pageopacity="0"
     inkscape:pagecheckerboard="1"
     inkscape:document-units="mm"
     showgrid="false"
     inkscape:zoom="0.81134749"
     inkscape:cx="239.72466"
     inkscape:cy="356.19756"
     inkscape:window-width="1920"
     inkscape:window-height="1007"
     inkscape:window-x="0"
     inkscape:window-y="0"
     inkscape:window-maximized="1"
     inkscape:current-layer="layer1"
     inkscape:snap-global="false"
     fit-margin-top="0"
     fit-margin-left="0"
     fit-margin-right="0"
     fit-margin-bottom="0"
     units="px"
     width="512px" />
  <defs
     id="defs2" />
  <g
     inkscape:label="Capa 1"
     inkscape:groupmode="layer"
     id="layer1"
     transform="translate(-18.931856,-48.701906)">
    <g
       id="g132639"
       transform="matrix(0.93742212,0,0,0.93742212,2.6585766,19.319876)">
      <path
         style="fill:#996219;fill-opacity:1;stroke:#54340f;stroke-width:1.5;stroke-linecap:butt;stroke-linejoin:miter;stroke-miterlimit:4;stroke-dasharray:none;stroke-opacity:1"
         d="m 83.073109,149.77301 c 0,0 0.523261,30.97238 0.721424,38.73456 0.198165,7.76218 -1.254382,23.82199 -1.114584,28.16864 0.04922,1.53021 0.3133,4.77034 0.617527,8.5026 0.05488,0.6733 1.982086,0.21406 2.038556,0.91224 0.07483,0.92517 -1.97046,1.64964 -1.963448,2.63009 0.04168,5.82851 1.122089,12.45864 0.923268,14.47446 -0.397412,4.0293 0.0059,3.49009 0.618091,3.7837 0.612214,0.29362 5.737042,0.17069 7.071674,0.13644 1.334633,-0.0342 3.153778,0.064 3.255063,-1.03613 0.101283,-1.10016 -0.976199,-7.17048 -1.105326,-10.72381 -0.129124,-3.55333 0.190335,-15.23172 -0.163565,-21.20692 -0.17327,-2.92548 0.612804,-9.29558 0.249885,-15.15483 -0.03796,-0.61286 -2.916555,-0.90319 -2.912959,-1.50809 0.0032,-0.54609 2.55144,-1.02091 2.554585,-1.55569 0.0281,-4.77677 0.0466,-8.99452 -0.04419,-10.72406 -0.219874,-4.18824 -0.701207,-20.35529 -0.696098,-23.79004 0.0051,-3.43474 -0.916032,-12.97933 -0.916032,-12.97933 z"
         id="path119392"
         sodipodi:nodetypes="csssssssssssssssscc" />
      <path
         style="fill:#2c1a08;fill-opacity:1;stroke:none;stroke-width:0.264583px;stroke-linecap:butt;stroke-linejoin:miter;stroke-opacity:1"
         d="m 90.899257,198.23599 c 0.133919,0.0602 1.920605,-0.82321 1.920605,-0.82321 l 1.359175,-0.56516 0.611952,-0.82372 -0.117872,-5.07091 c 0,0 -0.0088,-6.63892 -0.07073,-6.95582 -0.06195,-0.31691 -0.173472,-4.2312 -0.173472,-4.2312 l -0.07814,-2.78526 -0.08684,-14.11266 -1.776185,-0.95523 -0.09295,2.69675 0.260123,9.79837 0.24285,7.31682 0.167703,4.66525 0.05351,6.71935 -0.01519,2.50494 -1.862926,0.85402 -0.702235,0.61485 -0.0016,0.73151 z"
         id="path132070" />
      <path
         style="fill:#996219;fill-opacity:1;stroke:#54340f;stroke-width:1.5;stroke-linecap:butt;stroke-linejoin:miter;stroke-miterlimit:4;stroke-dasharray:none;stroke-opacity:1"
         d="m 43.905974,85.614676 -20.580618,-1.03186 c 0,0 -1.883515,-0.239307 -2.602395,0.332894 -0.71888,0.572201 -0.898094,3.267378 -0.898094,3.983849 0,0.716473 4.254546,1.504202 4.254546,1.504202 0,0 -4.324186,0.399314 -4.376511,1.224261 -0.05233,0.824947 -0.03919,3.884867 0.508427,4.056587 0.547616,0.17172 4.212862,0.290446 7.170252,-0.184857 2.957388,-0.475303 16.854916,-2.1048 16.854916,-2.1048 z"
         id="path93536"
         sodipodi:nodetypes="ccsscssscc" />
      <path
         style="fill:#2c1a08;fill-opacity:1;stroke:none;stroke-width:0.264583px;stroke-linecap:butt;stroke-linejoin:miter;stroke-opacity:1"
         d="m 20.643744,94.971459 -1.20765,1.074674 0.530316,0.371461 1.877649,0.175205 3.059451,-0.09024 3.699186,-0.382651 3.898188,-0.554114 5.814113,-0.514596 0.435899,-1.990117 -6.849753,1.000641 -4.962433,0.691851 -2.534815,0.295558 h -2.838798 z"
         id="path131708" />
      <path
         style="fill:#996219;fill-opacity:1;stroke:#54340f;stroke-width:1.5;stroke-linecap:butt;stroke-linejoin:miter;stroke-miterlimit:4;stroke-dasharray:none;stroke-opacity:1"
         d="m 134.19013,88.288372 c 4.17168,-0.204314 22.6733,-1.23758 24.1392,-1.23758 1.4659,0 1.10853,4.102279 1.1656,5.55548 0.0571,1.4532 0.0327,4.512008 -0.44066,4.940972 -0.47341,0.428966 -24.45779,-2.252703 -24.45779,-2.252703 z"
         id="path85720" />
      <path
         style="fill:#332308;fill-opacity:1;stroke:none;stroke-width:0.264583px;stroke-linecap:butt;stroke-linejoin:miter;stroke-opacity:1"
         d="m 62.574429,68.287899 c 6.446932,0.555509 6.902518,0.893271 11.018556,0.147878 4.116039,-0.745389 9.403305,-1.527791 11.881271,-0.737129 2.477966,0.790665 10.136584,2.89061 13.264166,2.557494 3.127578,-0.333118 8.271468,-2.908117 10.663188,-3.437059 2.39173,-0.528939 3.59029,-1.781331 9.08996,-1.554641 0,0 -9.32488,-4.204649 -25.026532,-3.141181 -6.153181,0.416753 -16.090345,-1.582163 -21.622091,1.024625 -5.53175,2.606789 -9.268518,5.140013 -9.268518,5.140013 z"
         id="path20806"
         sodipodi:nodetypes="csssscssc" />
      <path
         style="fill:#d2b17d;fill-opacity:1;stroke:none;stroke-width:0.264583px;stroke-linecap:butt;stroke-linejoin:miter;stroke-opacity:1"
         d="M 88.521235,84.656156 C 78.959164,84.309208 74.615137,77.28542 74.650554,70.237294 c 0.03542,-7.048127 5.51267,-14.73889 14.420929,-14.28277 8.908259,0.456121 11.610757,8.597448 11.108387,14.225728 -0.502376,5.628277 -0.17978,13.448937 -11.658635,14.475904 z"
         id="path1498" />
      <path
         style="fill:#9d845c;fill-opacity:1;stroke:none;stroke-width:0.264583px;stroke-linecap:butt;stroke-linejoin:miter;stroke-opacity:1"
         d="m 75.990756,63.90446 c -0.984001,2.701628 -1.58328,4.045037 -1.445609,6.903516 0.137673,2.858479 1.012515,5.562462 1.385453,6.227789 0.372938,0.665326 1.363118,3.051982 1.363118,3.051982 0,0 -0.549771,-7.328436 1.195807,-9.722741 1.745578,-2.394301 5.015914,-3.821593 14.067318,-2.007665 5.652629,1.132804 7.707747,0.645559 7.707747,0.645559 0.52743,-7.824905 -14.337283,-7.720353 -24.273834,-5.09844 z"
         id="path30750"
         sodipodi:nodetypes="csscsscc" />
      <path
         style="fill:#000000;fill-opacity:1;stroke:#000000;stroke-width:0.264583px;stroke-linecap:butt;stroke-linejoin:miter;stroke-opacity:1"
         d="m 91.462613,65.747822 c 1.465604,-0.111852 2.20105,1.133282 2.231615,2.424999 0.03056,1.291715 -0.62488,2.901281 -1.966947,2.939548 -1.342067,0.03827 -1.883323,-1.60301 -1.810152,-2.757755 0.07317,-1.154745 0.384828,-2.378811 1.545484,-2.606792 z"
         id="path22411" />
      <path
         style="fill:#ffa514;fill-opacity:1;stroke:none;stroke-width:0.264583px;stroke-linecap:butt;stroke-linejoin:miter;stroke-opacity:1"
         d="m 81.152782,85.285357 c -2.415474,-2.727881 -6.507824,-3.764675 -7.906067,-3.612753 -1.398244,0.151921 -1.290053,0.535215 -1.290053,0.535215 0,0 0.936329,-2.469851 3.758398,-1.539267 2.82207,0.930585 1.222309,0.558462 -0.714333,-1.336929 -1.936638,-1.895393 -1.44899,-3.299499 -1.44899,-3.299499 0,0 0.900319,1.745779 1.981218,2.132721 1.0809,0.386943 1.760763,1.922904 1.760763,1.922904 0,0 -0.601565,-2.71681 -1.392852,-2.879108 -0.791286,-0.162298 -1.1729,-0.09876 -1.1729,-0.09876 0,0 2.247813,-1.135444 2.828295,-0.340236 0.580485,0.795208 1.771309,3.180649 1.813224,3.708347 0.04192,0.527696 -0.155805,0.435499 -0.155805,0.435499 0,0 0.308869,-1.897007 0.776981,-2.249832 0.468114,-0.352824 1.553151,-0.681513 1.553151,-0.681513 0,0 -1.268724,1.385136 -1.304882,1.690266 -0.03616,0.305131 0.09838,2.185636 0.962612,2.62512 0.864235,0.439486 1.638279,0.77167 1.638279,0.77167 0,0 -0.599601,-2.034389 -1.040945,-2.045308 -0.441344,-0.01093 1.301567,-0.433242 1.599033,1.131379 0.297469,1.564621 0.521022,1.406202 0.521022,1.406202 0,0 0.729873,0.408898 1.14679,-0.873535 0.416917,-1.282433 -0.07994,-1.479635 -0.07994,-1.479635 0,0 1.669159,0.221605 1.314945,0.896655 -0.354211,0.675052 -0.969603,1.845611 -0.969603,1.845611 0,0 1.219015,-1.451464 1.944735,-1.628272 0.725721,-0.176808 1.162836,-0.0024 1.162836,-0.0024 0,0 -1.277596,0.602811 -1.280829,1.205598 -0.0032,0.602784 0.203848,0.90202 0.203848,0.90202 0,0 1.02367,-0.338283 0.907643,-0.846193 -0.116031,-0.50791 -0.318823,-0.811022 -0.318823,-0.811022 0,0 1.072054,0.07894 1.209526,0.527412 0.137473,0.448477 0.08899,0.880489 0.08899,0.880489 0,0 0.380453,-2.160485 0.62333,-2.696247 0.242877,-0.535766 1.133578,-1.528419 1.133578,-1.528419 0,0 -1.130567,2.547506 -0.788249,3.042692 0.342317,0.495187 0.923581,0.495187 0.923581,0.495187 0,0 1.123151,-1.172824 0.525108,-1.713992 -0.598043,-0.541168 -0.851705,-0.578874 -0.851705,-0.578874 0,0 1.541439,-0.548571 1.668042,0.103301 0.126606,0.65187 -0.02313,1.651466 -0.02313,1.651466 0,0 0.626796,-2.420641 1.068115,-2.715398 0.441323,-0.294759 1.386761,-0.208648 1.386761,-0.208648 0,0 -0.987563,0.504508 -1.146172,1.176544 -0.15861,0.672037 0.279778,1.105189 0.279778,1.105189 0,0 1.20482,-0.58719 1.427602,-1.503791 0.222779,-0.916599 -0.589373,-2.179566 -0.589373,-2.179566 0,0 1.312876,0.212846 1.312876,0.999624 0,0.786781 -0.08002,1.51247 -0.08002,1.51247 0,0 0.574154,-1.990535 1.257393,-2.696416 0.683236,-0.70588 2.266558,-1.361499 2.266558,-1.361499 0,0 -1.083492,0.953461 -1.245865,1.348672 -0.162372,0.395213 -0.666027,2.050012 -0.666027,2.050012 0,0 1.394325,-1.458973 2.162828,-1.378201 0.768502,0.08077 2.041342,0.650946 2.041342,0.650946 0,0 -1.49034,-0.25781 -2.218277,0.343408 -0.727937,0.601218 -1.495075,1.671217 -1.495075,1.671217 0,0 1.810052,0.352735 2.726992,-0.367175 0.91694,-0.71991 1.16152,-1.21461 1.16152,-1.21461 0,0 0.14119,1.933035 -1.06331,2.214594 -1.204484,0.281562 -2.650699,0.582433 -3.214846,0.363594 -0.564145,-0.21884 1.790372,0.328498 2.297716,0.90752 0.50734,0.579022 0.64628,1.772299 0.64628,1.772299 0,0 -0.954052,-1.476923 -2.505957,-1.68074 -1.551906,-0.203813 -2.517802,0.146939 -2.792963,0.898896 -0.275164,0.751956 -0.976432,2.416667 -0.976432,2.416667 l -0.326104,2.38933 -11.685616,-0.137742 z"
         id="path14216"
         sodipodi:nodetypes="cscsscscscsscscsscsscscscscccscscscscscscscscscscscscscscscssscsscccc" />
      <path
         style="fill:#ffa514;fill-opacity:1;stroke:none;stroke-width:0.237703px;stroke-linecap:butt;stroke-linejoin:miter;stroke-opacity:1"
         d="m 39.2076,83.25595 c -1.964132,-1.767459 -3.136199,-1.895507 -3.86004,-3.531278 -0.723839,-1.635768 -1.169011,-1.790686 -1.169011,-1.790686 0,0 0.368323,4.850828 2.374216,5.311293 2.005893,0.460465 -1.693492,0.496827 -3.016745,-0.954119 -1.323252,-1.450943 -1.204093,-1.450943 -1.204093,-1.450943 0,0 -0.181354,3.037075 0.325291,3.332233 0.506645,0.295156 4.475046,1.087763 4.475046,1.087763 0,0 -3.930875,-0.370369 -4.993186,0.603118 -1.062312,0.973487 -1.642267,2.649257 -1.642267,2.649257 0,0 3.114649,-2.023427 4.774774,-1.704025 1.660124,0.3194 1.313724,0.603962 1.313724,0.603962 0,0 -3.006313,2.595829 -4.653474,0.783412 -1.647163,-1.812417 -0.219589,2.560529 2.174636,2.138847 2.394224,-0.42168 1.754507,-0.637524 1.754507,-0.637524 0,0 -3.359863,2.200891 -5.417803,1.254882 -2.057942,-0.946008 -1.723311,-0.889424 -1.723311,-0.889424 0,0 2.242525,3.88737 4.217566,2.915285 1.975043,-0.972084 2.967206,-0.66974 2.967206,-0.66974 0,0 -3.020383,0.77987 -3.761565,1.388618 -0.741184,0.608746 -1.295776,4.022405 -1.295776,4.022405 0,0 1.571023,-3.117188 2.419018,-3.334451 0.847994,-0.21726 2.62989,-0.21726 2.62989,-0.21726 0,0 -2.474573,1.097727 -2.894973,2.151634 -0.420402,1.053907 0.260667,3.30608 0.260667,3.30608 0,0 0.332502,-3.008929 1.438178,-3.450574 1.105678,-0.441648 3.852565,-1.192975 4.637718,-1.249553 0.785153,-0.05658 1.437333,-2.974205 1.602719,-4.717418 0.165384,-1.74321 -0.174693,-4.983768 -0.174693,-4.983768 z"
         id="path11071" />
      <path
         style="fill:#2c1a08;fill-opacity:1;stroke:none;stroke-width:0.264583px;stroke-linecap:butt;stroke-linejoin:miter;stroke-opacity:1"
         d="m 141.40366,95.327058 17.03549,1.486784 0.10329,-0.49294 c 0,0 0.14037,-4.27732 0.14037,-4.691962 0,-0.414644 0.0981,-2.243182 0.0981,-2.243182 l 0.9603,-2.13959 0.55593,2.108798 c 0,0 -0.005,7.268323 -0.0638,7.540974 -0.0585,0.272653 -0.53094,1.480928 -0.91833,1.546958 -0.38739,0.06603 -6.63497,-0.405654 -6.63497,-0.405654 l -10.8357,-1.129515 z"
         id="path131428"
         sodipodi:nodetypes="cccsccccsccc" />
      <path
         style="fill:#ffa514;fill-opacity:1;stroke:none;stroke-width:0.22493px;stroke-linecap:butt;stroke-linejoin:miter;stroke-opacity:1"
         d="m 138.63906,86.325807 c 1.86281,-0.800016 6.72102,-5.275083 6.72102,-5.275083 0,0 0.0622,3.528349 -2.35451,4.5974 -2.41672,1.069052 -1.82056,0.308354 -1.82056,0.308354 0,0 3.21078,-0.716479 5.444,0.497255 2.2332,1.213734 1.82946,1.503852 1.82946,1.503852 0,0 -3.9983,-1.471581 -5.76336,-0.893649 -1.76507,0.577932 2.22398,0.206663 3.62713,1.658787 1.40315,1.452123 1.34623,1.822455 1.34623,1.822455 0,0 -2.2204,-1.337067 -3.80418,-1.482167 -1.5838,-0.1451 -2.07223,0.194157 -2.07223,0.194157 0,0 5.12692,2.507879 6.78871,0.788458 1.6618,-1.719424 1.02113,-1.096372 1.02113,-1.096372 0,0 -0.30291,3.630567 -3.50975,3.222691 -3.20685,-0.407879 -3.99393,-0.727824 -3.99393,-0.727824 0,0 1.64591,0.218355 3.59451,1.701115 1.94859,1.482759 1.85053,2.092645 1.85053,2.092645 0,0 -4.02434,-2.321124 -5.45953,-1.810414 -1.43519,0.510709 -0.86348,0.193704 -0.86348,0.193704 0,0 2.8424,2.831796 3.95141,2.311363 1.10902,-0.520433 1.10902,-0.520433 1.10902,-0.520433 0,0 -0.0896,1.807112 -1.44397,1.807112 -1.35441,0 -3.47269,-1.452255 -3.47269,-1.452255 0,0 4.4865,3.128581 4.94882,4.986862 0.46231,1.85828 0.25204,1.96452 0.25204,1.96452 0,0 -0.46538,-1.56539 -2.26434,-2.6147 -1.79896,-1.049306 -3.36732,-1.11088 -5.67215,-3.386159 -2.30484,-2.275279 -1.19505,-2.438897 -1.19505,-2.438897 z"
         id="path9504" />
      <path
         style="fill:#ffa514;fill-opacity:1;stroke:none;stroke-width:0.264583px;stroke-linecap:butt;stroke-linejoin:miter;stroke-opacity:1"
         d="m 69.01353,200.11352 c 0,0 -1.102218,3.25092 -3.237477,3.77053 -2.135258,0.51961 -1.897115,-0.0826 -1.897115,-0.0826 0,0 -1.242774,1.49314 0.983941,1.12703 2.226712,-0.36612 4.016036,-0.60213 4.016036,-0.60213 0,0 -3.017102,1.73431 -3.555905,1.49064 -0.538803,-0.24366 3.002172,1.67448 3.654576,0.58563 0.652407,-1.08884 1.594226,-3.23336 1.594226,-3.23336 0,0 -0.68512,2.12121 -0.337617,2.61109 0.347501,0.48989 2.575282,2.36436 2.575282,2.36436 0,0 -1.872527,-2.06804 -1.465408,-2.90148 0.40712,-0.83344 1.851168,-3.09693 1.851168,-3.09693 0,0 0.431131,2.44283 -0.05575,2.78746 -0.486878,0.34463 -0.314058,0.98229 -0.314058,0.98229 0,0 2.957894,-1.73416 2.367508,-2.31722 -0.590386,-0.58306 0.367093,-1.75923 0.442145,-0.42052 0.07505,1.33871 -1.057844,3.19422 -1.057844,3.19422 0,0 1.342655,-0.60752 1.707592,-1.96793 0.36494,-1.36042 0.894469,-1.58971 0.894469,-1.58971 0,0 -0.604838,1.93202 0.182176,2.55874 0.787011,0.62672 0.408241,2.18909 0.408241,2.18909 0,0 1.356072,-2.65314 0.586179,-2.93249 -0.769889,-0.27935 0.699482,-1.46819 0.699482,-1.46819 0,0 -0.400095,1.66727 0.16279,2.9233 0.562888,1.25602 2.040747,1.49445 2.040747,1.49445 0,0 -1.664869,-1.66728 -1.101352,-3.05441 0.563515,-1.38714 2.085123,-1.88672 1.667524,-0.72887 -0.417598,1.15786 -0.686851,1.93721 -0.686851,1.93721 0,0 0.962261,0.49737 1.450113,-0.91897 0.487849,-1.41635 -0.09078,-2.62312 -0.787816,-3.55534 -0.697034,-0.93222 -1.185436,-2.01967 -1.185436,-2.01967 l -8.571397,-1.15796 z"
         id="path48680" />
      <path
         style="fill:#ffa514;fill-opacity:1;stroke:none;stroke-width:0.264583px;stroke-linecap:butt;stroke-linejoin:miter;stroke-opacity:1"
         d="m 100.29072,199.9423 c -0.319793,2.37725 -1.833725,4.26484 -2.639355,4.55236 -0.80563,0.28752 -0.855488,1.01592 -0.855488,1.01592 0,0 2.085753,0.7944 3.143838,-1.35899 1.058085,-2.15338 1.058085,-2.15338 1.058085,-2.15338 0,0 -0.61878,4.15814 -1.274157,4.96241 -0.655381,0.80426 -2.124785,0.99161 -2.124785,0.99161 0,0 5.090412,-0.0881 4.604292,-3.57674 -0.48612,-3.48866 0.62057,-1.35285 0.90881,0.10141 0.28823,1.45426 -0.93932,2.18789 -1.16991,2.87822 -0.23059,0.69033 0.049,2.23884 0.049,2.23884 0,0 -0.10719,-1.19341 1.37041,-2.67612 1.47761,-1.48271 1.26052,-3.09344 1.26052,-3.09344 0,0 -1.30956,3.93733 -0.47459,5.14175 0.83496,1.20441 1.04563,0.90165 1.04563,0.90165 0,0 -1.1402,-4.06592 0.0776,-4.4367 1.21779,-0.37078 1.74931,-2.49695 1.74931,-2.49695 0,0 0.0302,3.81448 -0.62549,4.12748 -0.65572,0.313 -1.0158,0.313 -1.0158,0.313 0,0 2.40533,1.83355 2.8336,-1.32385 0.42827,-3.1574 0.86159,-3.78295 0.86159,-3.78295 0,0 -0.72808,4.44369 0.65725,4.96224 1.38533,0.51854 1.81523,0.22914 1.81523,0.22914 0,0 -1.25991,-0.53713 -1.14928,-2.08829 0.11063,-1.55116 1.22414,-1.41653 1.32327,-0.6757 0.0991,0.74083 -0.38114,1.44195 -0.38114,1.44195 0,0 2.82407,-0.86652 2.27142,-1.60677 -0.55265,-0.74025 -1.09678,-1.47944 -1.09678,-1.47944 0,0 0.71213,1.28038 2.10505,1.79493 1.39291,0.51456 2.691,-0.34521 2.691,-0.34521 0,0 -3.0828,-0.76842 -3.77589,-1.96655 -0.69309,-1.19812 -1.52733,-3.39567 -1.52733,-3.39567 l -3.9852,-1.54621 -6.05701,1.02689 z"
         id="path51918" />
      <path
         style="fill:#c87b00;fill-opacity:1;stroke:none;stroke-width:0.264583px;stroke-linecap:butt;stroke-linejoin:miter;stroke-opacity:1"
         d="m 68.803702,202.64077 c 1.054822,-1.38434 1.633291,-2.68248 1.633291,-2.68248 0,0 0.390242,1.3327 -0.523642,2.12658 -0.913884,0.79388 -1.918772,1.79506 -2.546395,1.88153 -0.627623,0.0865 -1.036582,0.0865 -1.036582,0.0865 0,0 1.4018,-0.0966 2.473328,-1.4121 z"
         id="path83579" />
      <path
         style="fill:#c87b00;fill-opacity:1;stroke:none;stroke-width:0.264583px;stroke-linecap:butt;stroke-linejoin:miter;stroke-opacity:1"
         d="m 77.53977,202.65539 c -0.537218,-1.72415 -0.526907,-3.00713 -0.526907,-3.00713 0,0 0.461515,0.68144 0.602945,1.29457 0.141431,0.61312 -0.248623,1.00295 -0.07604,1.71256 z"
         id="path83760" />
      <path
         style="fill:#c87b00;fill-opacity:1;stroke:none;stroke-width:0.264583px;stroke-linecap:butt;stroke-linejoin:miter;stroke-opacity:1"
         d="m 73.992893,203.23043 c 0.384595,-1.90326 -0.141629,-3.57897 -0.141629,-3.57897 0,0 0.811598,0.83914 0.697164,1.97847 -0.114435,1.13933 -0.417217,2.63289 -0.824101,3.19312 -0.406887,0.56023 -0.179284,0.31145 0.268566,-1.59262 z"
         id="path83941" />
      <path
         style="fill:#c87b00;fill-opacity:1;stroke:none;stroke-width:0.264583px;stroke-linecap:butt;stroke-linejoin:miter;stroke-opacity:1"
         d="m 70.912272,203.78993 c 0.2725,-2.2479 1.035537,-4.14859 1.035537,-4.14859 0,0 0.180959,1.5018 -0.03589,2.10366 -0.216847,0.60187 -0.591508,1.02439 -0.999646,2.04493 z"
         id="path84122" />
      <path
         style="fill:#c87b00;fill-opacity:1;stroke:none;stroke-width:0.264583px;stroke-linecap:butt;stroke-linejoin:miter;stroke-opacity:1"
         d="m 78.865322,199.94324 c 0.604041,1.45382 1.028332,2.12708 0.797742,2.88417 -0.23059,0.75709 -0.436917,1.48093 -0.436917,1.48093 0,0 1.067435,-1.78023 1.067435,-2.47199 0,-0.69177 -1.150271,-2.14343 -1.150271,-2.14343 z"
         id="path84303" />
      <path
         style="fill:#c87b00;fill-opacity:1;stroke:none;stroke-width:0.264583px;stroke-linecap:butt;stroke-linejoin:miter;stroke-opacity:1"
         d="m 101.06413,204.37656 c 0.35698,-2.37178 1.1597,-4.15859 0.87826,-4.77768 -0.28144,-0.6191 0.40498,-0.45565 0.40498,-0.45565 0,0 0.7026,1.05419 0.38469,1.36161 -0.31791,0.30741 -1.18539,2.04003 -1.21109,2.25988 -0.0257,0.21985 -0.45684,1.61184 -0.45684,1.61184 z"
         id="path84484" />
      <path
         style="fill:#c87b00;fill-opacity:1;stroke:none;stroke-width:0.264583px;stroke-linecap:butt;stroke-linejoin:miter;stroke-opacity:1"
         d="m 104.12636,205.39236 c -0.33172,-2.74599 -0.66355,-3.01998 -0.43349,-4.04931 0.23005,-1.02933 0.5499,-1.89282 0.2877,-2.27652 -0.2622,-0.3837 0.68341,-0.46928 0.68341,-0.46928 0,0 -0.70913,2.76032 -0.65254,2.97458 0.0566,0.21426 0.1718,2.05185 0.20033,2.58861 0.0285,0.53676 -0.0854,1.23192 -0.0854,1.23192 z"
         id="path84665" />
      <path
         style="fill:#c87b00;fill-opacity:1;stroke:none;stroke-width:0.264583px;stroke-linecap:butt;stroke-linejoin:miter;stroke-opacity:1"
         d="m 109.47746,204.13519 c 0.1153,-2.09997 -0.60112,-3.00672 -0.79804,-3.68441 -0.19693,-0.6777 0.072,-1.9282 0.072,-1.9282 l 0.45246,0.13628 c 0,0 -0.22989,1.38465 -0.0711,1.71517 0.15878,0.33051 1.22271,1.90262 0.34469,3.76116 z"
         id="path85027" />
      <path
         style="fill:#c87b00;fill-opacity:1;stroke:none;stroke-width:0.264583px;stroke-linecap:butt;stroke-linejoin:miter;stroke-opacity:1"
         d="m 112.57911,203.3604 c -1.19994,-0.35307 -1.75808,-1.55098 -1.99288,-2.31683 -0.2348,-0.76585 0.003,-2.20145 0.003,-2.20145 l 0.7021,0.46064 c 0,0 -0.38868,0.6663 -0.29711,1.06038 0.0916,0.39408 0.26701,1.37547 0.71042,1.93927 0.44342,0.5638 0.87406,1.05799 0.87406,1.05799 z"
         id="path85208" />
      <path
         style="opacity:1;fill:#244181;fill-opacity:1;stroke:none;stroke-width:0.264583px;stroke-linecap:butt;stroke-linejoin:miter;stroke-opacity:1"
         d="m 70.033085,143.0735 c 0.203933,6.73381 1.257137,5.92442 -0.02435,10.2764 -1.281485,4.35198 3.321643,11.30439 1.8165,14.75426 -1.505146,3.44988 -3.149537,15.47506 -4.409784,18.18262 -1.260248,2.70756 2.352519,10.46343 2.352519,10.46343 l -1.982597,3.90272 c 0,0 9.885899,-1.5655 13.574839,0.14294 3.688937,1.70844 -1.179639,-5.69224 -0.685707,-7.31281 0.493932,-1.62058 1.095962,-9.60767 2.767203,-14.22326 1.671243,-4.61558 1.696042,-6.32076 1.023244,-11.3053 -0.672798,-4.98453 3.830095,-10.57957 3.933753,-11.6132 0.103659,-1.03364 4.377002,0.80597 3.389527,3.26289 -0.987478,2.45693 0.321524,3.16566 1.521376,8.00477 1.199848,4.8391 -0.912122,4.39881 1.199848,10.76805 2.11197,6.36924 4.376862,6.94645 4.402151,10.80335 0.02529,3.85689 2.738993,3.64605 2.287313,6.07392 -0.45169,2.42786 -2.382614,6.04556 -2.382614,6.04556 0,0 4.671314,-2.69163 8.301734,-2.41581 3.63043,0.27582 7.74484,1.86706 7.74484,1.86706 0,0 -4.91106,-4.53113 -4.17741,-7.28743 0.73365,-2.75629 2.34496,-7.78564 0.61065,-8.76655 -1.73432,-0.98091 -4.41533,-5.97676 -3.1146,-9.01329 1.30073,-3.03653 0.46787,-4.49563 0.32242,-8.56286 -0.14544,-4.06722 -2.07097,-2.16019 -1.92116,-5.57619 0.14982,-3.41599 1.03306,-4.05279 0.55443,-7.88643 -0.47863,-3.83365 -1.60558,-2.27204 -2.25274,-5.10391 -0.64716,-2.83188 -0.65323,-1.00249 -1.22838,-3.41805 -0.57515,-2.41555 -0.37041,-5.1911 -3.38656,-5.46522 -3.016152,-0.27412 -0.10651,0.31605 -11.196278,0.46385 -11.089772,0.1478 -17.474866,-2.61753 -18.434666,-0.31774 -0.9598,2.29978 -0.605502,3.25623 -0.605501,3.25623 z"
         id="path1208"
         sodipodi:nodetypes="csssccsssssssssscscsssssssssssc" />
      <path
         style="fill:#c87b00;fill-opacity:1;stroke:none;stroke-width:0.264583px;stroke-linecap:butt;stroke-linejoin:miter;stroke-opacity:1"
         d="m 35.981359,93.877605 c 1.453105,-0.837599 3.691051,-1.284893 3.691051,-1.284893 0,0 -1.149215,-0.600708 -2.262195,-0.171588 -1.11298,0.429123 -1.428856,1.456481 -1.428856,1.456481 z"
         id="path26324" />
      <path
         style="fill:#c87b00;fill-opacity:1;stroke:none;stroke-width:0.264583px;stroke-linecap:butt;stroke-linejoin:miter;stroke-opacity:1"
         d="m 106.06133,203.562 c 0.68476,-1.87952 1.26656,-2.26383 1.03917,-2.94985 -0.2274,-0.68601 -0.98588,-1.2982 -0.7849,-2.051 0.20099,-0.7528 0.37574,-0.18644 0.37574,-0.18644 0,0 -0.0162,0.83103 0.1802,0.97454 0.19644,0.1435 0.66645,0.93713 0.59683,1.41071 -0.0696,0.47358 -1.40704,2.80204 -1.40704,2.80204 z"
         id="path84846" />
      <path
         style="opacity:1;fill:#182e5a;fill-opacity:1;stroke:none;stroke-width:0.264583px;stroke-linecap:butt;stroke-linejoin:miter;stroke-opacity:1"
         d="m 100.10316,148.07319 c 0.53618,2.75679 2.6493,6.03431 1.66183,8.49123 -0.98748,2.45693 1.43304,7.59805 2.63289,12.43716 1.19985,4.8391 -3.00775,3.76894 -0.89578,10.13818 2.11197,6.36924 4.75327,4.51149 4.77856,8.36839 0.0253,3.85689 -1.544,4.30611 -1.99568,6.73398 -0.45169,2.42786 -7.468674,7.05766 -7.468674,7.05766 0,0 4.671314,-2.69163 8.301734,-2.41581 3.63043,0.27582 7.74484,1.86706 7.74484,1.86706 0,0 -4.91106,-4.53113 -4.17741,-7.28743 0.73365,-2.75629 2.34496,-7.78564 0.61065,-8.76655 -1.73432,-0.98091 -4.41533,-5.97676 -3.1146,-9.01329 1.30073,-3.03653 0.46787,-4.49563 0.32242,-8.56286 -0.14544,-4.06722 -2.07097,-2.16019 -1.92116,-5.57619 0.14982,-3.41599 1.03306,-4.05279 0.55443,-7.88643 -0.47863,-3.83365 -1.60558,-2.27204 -2.25274,-5.10391 -0.64716,-2.83188 -0.65323,-1.00249 -1.22838,-3.41805 -0.57515,-2.41555 -0.37041,-5.1911 -3.38656,-5.46522 -6.046428,0.15918 -0.94009,3.74707 -0.16637,8.40208 z"
         id="path42704"
         sodipodi:nodetypes="cssssscscsssssssscc" />
      <path
         style="fill:#ffa514;fill-opacity:1;stroke:none;stroke-width:0.264583px;stroke-linecap:butt;stroke-linejoin:miter;stroke-opacity:1"
         d="m 70.033083,143.0735 c 0.360513,1.47041 0.114914,3.83773 -0.914236,4.45929 -1.029147,0.62155 -1.422204,0.38391 -1.422204,0.38391 0,0 1.460587,0.86598 3.256015,-1.71567 1.795431,-2.58165 0.990672,-2.22054 1.533178,-1.31789 0.542507,0.90265 -0.259042,2.25157 -0.259042,2.25157 0,0 1.514123,-1.4808 1.34118,-2.41214 -0.172942,-0.93133 0.05205,2.42381 0.674653,2.71436 0.622602,0.29054 1.371524,0.41256 1.371524,0.41256 0,0 -1.194491,-0.75776 -0.970212,-1.95601 0.22428,-1.19826 1.378654,-2.62286 1.378654,-2.62286 0,0 -1.682535,-1.38276 -3.466367,-1.20945 -1.783834,0.1733 -2.523143,1.01233 -2.523143,1.01233 z"
         id="path75805" />
      <path
         style="fill:#ffa514;fill-opacity:1;stroke:none;stroke-width:0.264583px;stroke-linecap:butt;stroke-linejoin:miter;stroke-opacity:1"
         d="m 100.27681,143.54537 c 0.4335,2.33715 3.70901,4.47993 4.66614,4.4737 0.95713,-0.006 1.66633,-0.29055 1.66633,-0.29055 0,0 -1.09679,1.51374 -3.22961,0.86378 -2.13282,-0.64996 -2.65012,-1.69739 -2.65012,-1.69739 0,0 2.42932,2.31995 3.04393,3.60234 0.6146,1.28239 -0.131,2.43537 -0.131,2.43537 0,0 -0.3807,-2.75736 -1.82037,-3.04824 -1.43967,-0.29088 -2.393211,-0.10639 -2.393211,-0.10639 0,0 0.527114,2.73703 1.729361,2.25063 1.20224,-0.4864 0.78815,-1.06249 0.78815,-1.06249 0,0 1.04291,2.54427 -0.962,2.0151 -2.004913,-0.52916 -2.283647,-1.57827 -2.283647,-1.57827 0,0 0.704935,2.49564 -0.659167,3.1355 -1.364101,0.63986 -1.834954,0.0396 -1.834954,0.0396 0,0 1.910948,-2.58334 1.476724,-4.95603 -0.434223,-2.37268 -1.135546,-2.33034 -1.135546,-2.33034 0,0 -0.507074,3.27916 0.08635,3.8583 0.593421,0.57913 -1.461074,-0.0597 -1.522177,-1.4942 -0.0611,-1.43455 -0.01188,-2.88567 -0.01188,-2.88567 0,0 -1.290388,3.74515 -2.521751,3.97444 -1.231361,0.2293 -2.88448,-0.15872 -2.88448,-0.15872 0,0 1.840987,-0.32603 3.02382,-2.21204 1.182833,-1.886 1.964507,-4.32918 1.964507,-4.32918 z"
         id="path80815" />
      <path
         style="fill:#c87b00;fill-opacity:1;stroke:none;stroke-width:0.264583px;stroke-linecap:butt;stroke-linejoin:miter;stroke-opacity:1"
         d="m 73.786287,144.20562 c 0.201769,0.9983 0.298085,1.85553 0.298085,1.85553 0,0 0.01654,-1.15556 -0.03869,-1.69707 -0.05524,-0.54151 -0.05524,-1.14997 -0.05524,-1.14997 z"
         id="path83398" />
      <path
         style="opacity:1;fill:#ff7a14;fill-opacity:1;stroke:none;stroke-width:0.264583px;stroke-linecap:butt;stroke-linejoin:miter;stroke-opacity:1"
         d="m 42.34216,94.240035 c 5.020291,-0.51077 6.742659,1.430456 8.986313,1.718095 2.243656,0.287641 8.569277,-1.205551 10.188011,-1.205551 1.618734,0 5.076002,3.050572 5.076002,3.050572 0,0 3.284424,-2.11397 4.249478,-0.682977 0.965055,1.430991 -2.253863,10.589066 -1.638937,13.169366 0.614928,2.5803 1.064993,1.98603 1.064993,8.78775 0,6.80172 -3.711559,4.64212 -3.063452,10.33126 0.648107,5.68914 2.561328,7.61824 1.989831,10.93939 -0.571498,3.32114 -1.212599,6.21522 -1.212599,6.21522 0,0 1.630836,-1.89093 4.343006,-2.76445 2.712169,-0.87353 8.548804,1.9829 10.7155,2.14595 2.166697,0.16305 8.053012,-0.16039 9.073211,0.11842 1.020196,0.27881 9.162613,-0.86939 10.887083,-1.18779 1.72446,-0.3184 4.1237,0.78889 4.1237,0.78889 0,0 -1.84649,-8.72193 -2.12569,-13.84484 -0.2792,-5.12292 0.95589,-7.95932 1.09707,-9.86129 0.14119,-1.90196 -2.74075,-5.67403 -1.98709,-7.51497 0.75366,-1.84094 3.16184,-6.38275 3.30814,-8.27209 0.1463,-1.88934 -2.78464,-5.11125 -2.67577,-6.190781 0.10888,-1.079526 -0.9542,-2.541884 0.61083,-3.351027 1.56503,-0.809144 2.70748,-0.199052 4.37738,0.0613 1.6699,0.260355 2.70211,0.423407 5.78168,0.423407 3.07956,0 4.72341,-2.456754 6.45767,-1.620176 1.73425,0.836576 4.17835,2.528462 6.07482,2.528462 1.89647,0 3.97764,-3.332814 7.00255,-2.073103 3.02491,1.25971 4.42647,2.393151 4.42647,2.393151 0,0 -1.24974,-5.01169 -0.88625,-6.557979 0.36348,-1.546291 1.95336,-6.738945 1.95336,-6.738945 0,0 -4.29508,2.085356 -5.80413,1.935419 -1.50904,-0.149934 -4.72545,-1.692547 -6.57766,-1.542603 -1.85222,0.149948 -4.65883,1.430208 -5.50086,0.851212 -0.84203,-0.578995 -2.67085,-0.397692 -6.21315,-0.886849 -3.54231,-0.489156 -3.42054,-0.489156 -5.39733,-0.489156 -1.97678,0 -4.19403,1.520447 -8.38085,-0.0589 -4.186823,-1.579351 -5.714728,-0.344146 -6.98449,-0.344146 -1.269762,0 -1.978168,3.725142 -7.13033,3.572486 -5.152166,-0.152657 -7.156347,-4.252211 -9.277374,-4.415264 -2.121027,-0.163049 -6.694797,0.272206 -9.36674,-0.33479 -2.671945,-0.606997 -5.956456,1.014108 -7.316372,1.014108 -1.359916,0 -2.339004,-0.705495 -4.801063,-0.868548 -2.462056,-0.163049 -0.136961,0.65522 -6.074753,-0.163049 -5.93779,-0.818272 -5.07023,-0.825084 -7.539468,0.348314 -2.469239,1.173398 -6.279508,-2.068032 -6.279508,-2.068032 0,0 0.958331,2.343203 1.173903,4.36711 0.215575,2.023906 1.555377,2.6123 0.704729,4.906152 -0.850646,2.293851 -2.126854,5.674056 -2.126854,5.674056 z"
         id="path857"
         sodipodi:nodetypes="csscssssscsssscssssssssssscscsssssssssssssscsscc" />
      <g
         id="g5246"
         style="stroke:#cc4309;stroke-width:1;stroke-miterlimit:4;stroke-dasharray:none;stroke-opacity:1">
        <path
           style="fill:none;stroke:#cc4309;stroke-width:1;stroke-linecap:butt;stroke-linejoin:miter;stroke-miterlimit:4;stroke-dasharray:none;stroke-opacity:1"
           d="m 45.800232,82.700335 c 1.172173,5.917893 -0.0066,11.419581 -0.0066,11.419581"
           id="path5100" />
        <path
           style="fill:none;stroke:#cc4309;stroke-width:1;stroke-linecap:butt;stroke-linejoin:miter;stroke-miterlimit:4;stroke-dasharray:none;stroke-opacity:1"
           d="M 52.416479,95.812257 C 52.034117,90.775572 53.19523,83.684953 53.19523,83.684953"
           id="path5102" />
        <path
           style="fill:none;stroke:#cc4309;stroke-width:1;stroke-linecap:butt;stroke-linejoin:miter;stroke-miterlimit:4;stroke-dasharray:none;stroke-opacity:1"
           d="m 58.285332,94.817315 c 0.691771,-4.56312 0.916569,-11.016768 0.916569,-11.016768"
           id="path5104" />
        <path
           style="fill:none;stroke:#cc4309;stroke-width:1;stroke-linecap:butt;stroke-linejoin:miter;stroke-miterlimit:4;stroke-dasharray:none;stroke-opacity:1"
           d="m 66.592486,97.803149 c -1.694397,-6.506456 -0.9032,-7.17721 -0.641718,-9.807356 0.261485,-2.630146 1.977954,-2.430248 1.087528,-4.577609"
           id="path5108" />
        <path
           style="fill:none;stroke:#cc4309;stroke-width:1;stroke-linecap:butt;stroke-linejoin:miter;stroke-miterlimit:4;stroke-dasharray:none;stroke-opacity:1"
           d="m 73.746983,83.656976 c -1.028977,5.645245 -1.037886,6.974956 -0.858125,9.813332 0.17976,2.838376 0.964377,11.617452 0.639955,14.073652 -0.324421,2.4562 -0.72972,8.61998 -0.38527,12.38965 0.34445,3.76966 2.161064,8.67139 0.777523,11.85832 -1.383541,3.18693 -1.734823,9.10665 -1.172977,11.82745"
           id="path5110" />
        <path
           style="fill:none;stroke:#cc4309;stroke-width:1;stroke-linecap:butt;stroke-linejoin:miter;stroke-miterlimit:4;stroke-dasharray:none;stroke-opacity:1"
           d="m 81.152782,85.285357 c -0.18088,5.023953 -1.941753,10.474949 -1.487239,11.817622 0.454517,1.34267 1.706147,12.702951 1.249275,14.873761 -0.456874,2.17081 -0.456874,5.67781 -0.226284,10.2515 0.230589,4.57369 2.017664,5.17829 0.229605,9.23461 -1.788057,4.05632 -1.838423,8.59211 -0.519814,10.56569 1.31861,1.97358 -0.0108,3.11593 -0.0108,3.11593"
           id="path5112" />
        <path
           style="fill:none;stroke:#cc4309;stroke-width:1;stroke-linecap:butt;stroke-linejoin:miter;stroke-miterlimit:4;stroke-dasharray:none;stroke-opacity:1"
           d="m 89.71681,87.992639 c -0.789755,6.307678 1.094295,10.085044 0.383125,13.436991 -0.711171,3.35195 -0.852954,3.7091 -0.20205,8.11577 0.650907,4.40667 1.913705,8.68803 0.535612,11.55208 -1.378092,2.86404 -1.599472,4.97839 -1.378092,7.15979 0.221376,2.1814 0.560374,1.89437 0.560374,6.21481 0,4.32044 -1.263862,6.5191 -1.485805,7.36592 -0.22194,0.84683 0.779947,4.07001 0.779947,4.07001"
           id="path5114" />
        <path
           style="fill:none;stroke:#cc4309;stroke-width:1;stroke-linecap:butt;stroke-linejoin:miter;stroke-miterlimit:4;stroke-dasharray:none;stroke-opacity:1"
           d="m 97.46717,84.445299 c -0.697076,5.699387 0.10999,6.741081 0.455874,9.74979 0.345885,3.00871 -0.345884,2.720703 -0.345884,6.768741 0,4.04804 1.261586,7.2407 0.685112,8.31571 -0.576474,1.07502 0.24415,6.84467 0.24415,8.47442 0,1.62976 1.052097,5.02561 0.29047,6.93689 -0.761627,1.91128 -2.154555,7.56712 -2.134465,10.09876 0.02008,2.53164 1.677315,9.39806 1.677315,9.39806 v 1.29398"
           id="path5116" />
        <path
           style="fill:none;stroke:#cc4309;stroke-width:1;stroke-linecap:butt;stroke-linejoin:miter;stroke-miterlimit:4;stroke-dasharray:none;stroke-opacity:1"
           d="m 104.74321,85.417815 c 0.53521,4.151863 1.5875,4.619805 1.30799,7.370093 -0.2795,2.750286 -0.50865,3.919024 -0.50865,3.919024"
           id="path5118" />
        <path
           style="fill:none;stroke:#cc4309;stroke-width:1;stroke-linecap:butt;stroke-linejoin:miter;stroke-miterlimit:4;stroke-dasharray:none;stroke-opacity:1"
           d="m 112.73004,84.983676 c -0.69626,3.549399 0.12431,5.225315 0.53573,6.839381 0.41142,1.614067 -0.11962,5.073282 -0.11962,5.073282"
           id="path5120" />
        <path
           style="fill:none;stroke:#cc4309;stroke-width:1;stroke-linecap:butt;stroke-linejoin:miter;stroke-miterlimit:4;stroke-dasharray:none;stroke-opacity:1"
           d="m 120.67861,85.951694 c -1.27964,3.853389 -1.06401,5.064604 -0.52427,6.602465 0.53973,1.537859 0.77825,2.736853 0.77825,2.736853"
           id="path5122" />
        <path
           style="fill:none;stroke:#cc4309;stroke-width:1;stroke-linecap:butt;stroke-linejoin:miter;stroke-miterlimit:4;stroke-dasharray:none;stroke-opacity:1"
           d="m 127.22005,85.784244 c 0.98011,4.868974 1.97401,7.115093 0.88089,8.415314 -1.09312,1.300221 -0.62006,3.636359 -0.62006,3.636359"
           id="path5124" />
        <path
           style="fill:none;stroke:#cc4309;stroke-width:1;stroke-linecap:butt;stroke-linejoin:miter;stroke-miterlimit:4;stroke-dasharray:none;stroke-opacity:1"
           d="m 134.45426,95.44225 c 1.463,-4.465764 0.22897,-8.229462 0.22897,-8.229462"
           id="path5126" />
        <path
           style="fill:none;stroke:#cc4309;stroke-width:1;stroke-linecap:butt;stroke-linejoin:miter;stroke-miterlimit:4;stroke-dasharray:none;stroke-opacity:1"
           d="m 39.157158,85.982454 c 2.969281,0.920922 9.773169,0.704895 10.611427,0.502513 0.838255,-0.202383 5.545915,-0.473451 7.533034,0.248076 1.987118,0.721527 4.524081,1.508294 9.433538,1.052131 4.909458,-0.456162 8.029906,-2.063697 9.973757,-0.761672 1.943852,1.302023 7.03992,2.318515 8.314386,2.6644 1.274466,0.345884 11.133331,-2.286561 13.196292,-1.915615 2.062958,0.370943 6.504098,0.404513 9.453838,0.825984 2.94974,0.421468 9.66206,0.169497 12.4608,0.169497 2.79873,0 5.7968,2.525956 7.32781,2.639811 1.53101,0.113856 5.91372,-1.794261 7.65991,-1.794261 1.74618,0 4.05857,-0.155482 4.05857,-0.155482"
           id="path5128" />
        <path
           style="fill:none;stroke:#cc4309;stroke-width:1;stroke-linecap:butt;stroke-linejoin:miter;stroke-miterlimit:4;stroke-dasharray:none;stroke-opacity:1"
           d="m 39.323787,92.659556 c 6.469843,1.46036 10.265474,-2.029436 13.37232,-1.599462 3.106843,0.429975 9.562594,1.582926 11.303918,1.582926 1.741326,0 3.305032,1.498835 7.225313,1.268243 3.920281,-0.23059 5.334214,-1.037654 9.946015,-0.345885 4.611801,0.691772 10.162789,1.797884 13.53856,0.993706 3.375771,-0.804177 4.949079,-2.238975 8.254907,-1.597948 3.30583,0.641025 10.30887,0.777973 12.29419,1.299533 1.98532,0.521557 6.38162,-1.151509 8.2551,-0.400804 1.87347,0.750705 6.42405,0.631055 7.6162,0.631055 1.19214,0 5.95613,-1.601055 8.34205,3.851301"
           id="path5130" />
        <path
           style="fill:none;stroke:#cc4309;stroke-width:1;stroke-linecap:butt;stroke-linejoin:miter;stroke-miterlimit:4;stroke-dasharray:none;stroke-opacity:1"
           d="m 70.482451,101.5403 c 4.422309,-0.70948 5.223097,-1.744992 10.200066,-0.70948 4.976968,1.03551 7.153669,1.49312 10.942508,1.26466 3.788838,-0.22845 7.291088,-1.08218 9.571835,-0.80349 2.28075,0.27868 4.61188,1.04021 4.61188,1.04021"
           id="path5132" />
        <path
           style="fill:none;stroke:#cc4309;stroke-width:1;stroke-linecap:butt;stroke-linejoin:miter;stroke-miterlimit:4;stroke-dasharray:none;stroke-opacity:1"
           d="m 69.243693,108.41569 c 4.950473,-1.43555 5.608966,-1.67623 9.278366,-0.63858 3.669398,1.03766 6.913226,0.92236 8.975103,0.92236 2.061877,0 7.863179,0.0931 10.056056,-0.46118 2.19288,-0.55431 4.820252,-0.15249 5.720732,0.25276 0.90047,0.40524 2.62338,1.76269 2.62338,1.76269"
           id="path5134" />
        <path
           style="fill:none;stroke:#cc4309;stroke-width:1;stroke-linecap:butt;stroke-linejoin:miter;stroke-miterlimit:4;stroke-dasharray:none;stroke-opacity:1"
           d="m 70.275695,115.63048 c 3.9864,1.18289 3.161223,0.60497 7.028701,0.0299 3.867478,-0.57503 5.203913,0.42149 7.723907,0.98442 2.519998,0.56294 6.079617,0.77613 7.969523,0.66297 1.889905,-0.11317 3.254391,-3.07077 5.624658,-2.84883 2.370266,0.22194 5.671126,2.25339 5.671126,2.25339"
           id="path5136" />
        <path
           style="fill:none;stroke:#cc4309;stroke-width:1;stroke-linecap:butt;stroke-linejoin:miter;stroke-miterlimit:4;stroke-dasharray:none;stroke-opacity:1"
           d="m 69.524744,123.22451 c 5.195443,0.90788 6.404787,-7.9e-4 10.408587,-7.9e-4 4.003802,0 4.414329,0.69547 6.803379,1.57707 2.38905,0.8816 5.124979,0.2507 6.942555,0.19127 1.817579,-0.0594 8.430735,-1.8518 9.872935,-1.28659 1.44219,0.56521 1.84702,1.19018 1.84702,1.19018"
           id="path5138" />
        <path
           style="fill:none;stroke:#cc4309;stroke-width:1;stroke-linecap:butt;stroke-linejoin:miter;stroke-miterlimit:4;stroke-dasharray:none;stroke-opacity:1"
           d="m 67.355428,130.11427 c 5.047044,0.32991 8.595799,0.97942 12.685861,0.63354 4.090058,-0.34589 6.151141,-2.52591 9.538327,-1.76796 3.387185,0.75794 5.417859,2.40488 8.543673,2.03258 3.125821,-0.3723 6.452651,0.24258 6.452651,0.24258"
           id="path5140" />
        <path
           style="fill:none;stroke:#cc4309;stroke-width:1;stroke-linecap:butt;stroke-linejoin:miter;stroke-miterlimit:4;stroke-dasharray:none;stroke-opacity:1"
           d="m 69.104173,136.69858 c 4.797444,-0.96961 4.676841,-1.43221 9.235633,-0.62515 4.558792,0.80707 5.939115,1.02798 8.872101,0.80707 2.932988,-0.22092 6.74588,-0.84117 8.586081,-0.68065 1.840203,0.16051 4.189066,1.2875 6.041322,1.50192 1.85226,0.21442 3.77694,0.055 3.77694,0.055"
           id="path5142" />
      </g>
      <path
         style="fill:#a06b18;fill-opacity:1;stroke:none;stroke-width:0.264583px;stroke-linecap:butt;stroke-linejoin:miter;stroke-opacity:1"
         d="m 62.57443,68.287899 c 7.170256,-1.315516 10.691776,-5.280213 18.375766,-4.308451 7.683989,0.971762 15.550586,4.597448 18.020945,4.271346 2.470359,-0.326104 10.487639,-4.224673 14.682599,-3.725381 4.19497,0.499295 4.83783,0.739029 4.83783,0.739029 0,0 -7.64255,-7.280564 -16.80485,-5.790979 -1.923828,0.606211 -0.21767,-10.390377 -13.755511,-10.728737 -12.818792,-0.320387 -12.484075,8.991523 -12.484075,8.991523 0,0 -10.500944,3.573553 -12.872704,10.55165 z"
         id="path18202"
         sodipodi:nodetypes="csssccscc" />
      <path
         style="fill:#332308;fill-opacity:1;stroke:none;stroke-width:0.264583px;stroke-linecap:butt;stroke-linejoin:miter;stroke-opacity:1"
         d="m 77.170636,57.863207 c 8.028903,-0.554892 10.267199,-0.242226 14.564127,0.407938 4.296926,0.650166 5.169169,0.985585 7.556545,1.321959 0,0 -4.112723,-1.851671 -9.77869,-2.216862 -5.665965,-0.365194 -6.590559,-0.470789 -12.341982,0.486965 z"
         id="path21598"
         sodipodi:nodetypes="cscsc" />
      <path
         style="fill:#000000;fill-opacity:1;stroke:#000000;stroke-width:0.264583px;stroke-linecap:butt;stroke-linejoin:miter;stroke-opacity:1"
         d="m 79.846486,75.042153 c 0,0 4.371256,1.843837 8.237615,1.751079 3.866358,-0.09276 7.459442,-2.45859 7.459442,-2.45859 0,0 -2.586468,4.848463 -7.192682,4.560948 -4.606213,-0.287518 -8.504375,-3.853437 -8.504375,-3.853437 z"
         id="path21917" />
      <path
         style="fill:#000000;fill-opacity:1;stroke:#000000;stroke-width:0.264583px;stroke-linecap:butt;stroke-linejoin:miter;stroke-opacity:1"
         d="m 82.945335,65.534793 c 1.149472,-0.05481 1.844871,1.179566 1.767993,2.37875 -0.07687,1.199187 -0.366659,2.855087 -1.620972,3.060406 -1.254316,0.20532 -1.907892,-1.346941 -1.870549,-2.892687 0.03734,-1.545746 0.774499,-2.44281 1.723528,-2.546469 z"
         id="path22263" />
      <path
         style="fill:#c87b00;fill-opacity:1;stroke:none;stroke-width:0.264583px;stroke-linecap:butt;stroke-linejoin:miter;stroke-opacity:1"
         d="m 92.459602,82.953317 c 0.01347,2.162915 -1.118044,3.403737 -1.575961,4.018094 -0.457917,0.614358 -1.166831,1.021226 -1.166831,1.021226 0,0 0.973349,-1.253744 1.564793,-2.632538 0.591442,-1.378797 1.177999,-2.406782 1.177999,-2.406782 z"
         id="path22601" />
      <path
         style="fill:#c87b00;fill-opacity:1;stroke:none;stroke-width:0.264583px;stroke-linecap:butt;stroke-linejoin:miter;stroke-opacity:1"
         d="m 79.21368,80.91349 c 1.004027,1.83632 3.749712,3.467505 3.938148,4.301781 0.188436,0.834274 0.359529,-1.042577 -1.401924,-2.323923 C 79.988451,81.610003 79.21368,80.91349 79.21368,80.91349 Z"
         id="path25441" />
      <path
         style="fill:#c87b00;fill-opacity:1;stroke:none;stroke-width:0.264583px;stroke-linecap:butt;stroke-linejoin:miter;stroke-opacity:1"
         d="m 93.958634,84.645211 c 1.217062,-1.580679 2.077968,-2.005053 3.17069,-2.441192 1.092723,-0.436139 1.092723,-0.436139 1.092723,-0.436139 0,0 -2.006798,-0.390557 -2.84521,0.461746 -0.838409,0.852302 -1.418203,2.415585 -1.418203,2.415585 z"
         id="path25509" />
      <path
         style="fill:#c87b00;fill-opacity:1;stroke:none;stroke-width:0.264583px;stroke-linecap:butt;stroke-linejoin:miter;stroke-opacity:1"
         d="m 87.759221,87.875077 c -1.500513,-1.326256 -1.78068,-1.537097 -2.26347,-2.440305 -0.482791,-0.903205 -0.164629,-1.484201 -0.164629,-1.484201 0,0 -0.843399,1.570611 -0.09188,2.463128 0.751523,0.892516 2.519976,1.461378 2.519976,1.461378 z"
         id="path25690" />
      <path
         style="fill:#c87b00;fill-opacity:1;stroke:none;stroke-width:0.264583px;stroke-linecap:butt;stroke-linejoin:miter;stroke-opacity:1"
         d="m 138.70372,91.848129 c 1.98057,-0.908412 4.2965,-0.251243 4.2965,-0.251243 0,0 -0.58804,-0.980098 -1.6466,-0.980098 -1.05856,0 -2.6499,1.231341 -2.6499,1.231341 z"
         id="path25871" />
      <path
         style="fill:#c87b00;fill-opacity:1;stroke:none;stroke-width:0.264583px;stroke-linecap:butt;stroke-linejoin:miter;stroke-opacity:1"
         d="m 139.8878,88.594021 c 1.29721,-2.637543 2.2546,-2.799445 2.70874,-2.821344 0.45414,-0.02191 -0.8876,0.512654 -1.40772,1.471835 -0.52012,0.959183 -1.30102,1.349509 -1.30102,1.349509 z"
         id="path25939" />
      <path
         style="fill:#c87b00;fill-opacity:1;stroke:none;stroke-width:0.264583px;stroke-linecap:butt;stroke-linejoin:miter;stroke-opacity:1"
         d="m 139.36368,94.91184 c 1.40267,2.143429 2.31485,2.704476 3.22324,3.346966 0.90838,0.64249 1.43466,1.148199 1.43466,1.148199 0,0 -1.65282,-1.958708 -2.57787,-2.807015 -0.92506,-0.848307 -2.08003,-1.68815 -2.08003,-1.68815 z"
         id="path26007" />
      <path
         style="fill:#c87b00;fill-opacity:1;stroke:none;stroke-width:0.264583px;stroke-linecap:butt;stroke-linejoin:miter;stroke-opacity:1"
         d="m 34.336955,91.95037 c 1.987227,-1.17461 2.313424,-1.291194 3.282217,-1.338787 0.968796,-0.0476 2.496791,-1.378849 2.496791,-1.378849 0,0 -1.987941,0.839903 -3.036123,0.839903 -1.048184,0 -2.742885,1.877733 -2.742885,1.877733 z"
         id="path26188" />
      <path
         style="fill:#c87b00;fill-opacity:1;stroke:none;stroke-width:0.264583px;stroke-linecap:butt;stroke-linejoin:miter;stroke-opacity:1"
         d="m 39.515444,87.962424 c -1.79305,-1.151863 -3.647475,-1.64579 -5.129782,-1.559319 -1.482304,0.08647 1.690772,-0.941652 2.981555,-0.401122 1.290783,0.540528 2.148227,1.960441 2.148227,1.960441 z"
         id="path26256" />
      <path
         style="fill:#da9220;fill-opacity:1;stroke:none;stroke-width:0.264583px;stroke-linecap:butt;stroke-linejoin:miter;stroke-opacity:1"
         d="m 75.447132,57.736247 c 0.259329,-6.10091 5.443773,-8.945184 12.147597,-9.034341 0,0 -3.526265,0.960148 -6.073603,2.585084 -1.799369,1.147809 -3.885813,2.859017 -6.073994,6.449257"
         id="path26572"
         sodipodi:nodetypes="ccsc" />
      <path
         style="fill:#da9220;fill-opacity:1;stroke:none;stroke-width:0.264583px;stroke-linecap:butt;stroke-linejoin:miter;stroke-opacity:1"
         d="m 62.574429,68.287899 c 1.105415,-6.25517 12.872703,-10.551652 12.872703,-10.551652 0,0 -4.090257,2.800939 -8.019432,5.740459 -2.967888,2.220355 -4.853271,4.811193 -4.853271,4.811193"
         id="path30169"
         sodipodi:nodetypes="ccsc" />
      <path
         style="fill:#da9220;fill-opacity:1;stroke:none;stroke-width:0.264583px;stroke-linecap:butt;stroke-linejoin:miter;stroke-opacity:1"
         d="m 86.350807,58.89322 c 8.703432,2.097429 9.938377,1.869829 14.394843,1.647841 4.45646,-0.221986 8.04856,-0.650796 8.04856,-0.650796 0,0 -2.17334,-0.835417 -7.10749,-0.416803 -4.934147,0.418615 -9.295023,0.184539 -15.335913,-0.580242 z"
         id="path30529" />
      <path
         style="opacity:0.525464;fill:#7b3a0a;fill-opacity:1;stroke:none;stroke-width:0.264583px;stroke-linecap:butt;stroke-linejoin:miter;stroke-opacity:1"
         d="m 90.631316,145.98246 c 4.589274,-2.07087 6.920124,-2.7817 7.6635,-6.49087 0.743376,-3.70918 -2.52312,-3.99768 -2.228932,-7.83571 0.29419,-3.83803 0.233606,-6.31042 1.36843,-10.75181 1.134824,-4.44139 -0.178789,-6.92319 -1.301573,-8.61769 -1.122783,-1.6945 0.79543,-4.75589 1.794719,-7.31602 0.999289,-2.56012 1.979145,-4.76835 1.261946,-6.540855 -0.717198,-1.772508 -1.844802,-4.772504 0.903624,-5.407139 2.74842,-0.634635 5.16251,0.892217 7.67304,1.29228 2.51053,0.400061 5.16215,-1.48963 6.56225,-1.719611 1.4001,-0.229981 6.19289,0.183374 7.0014,0.666803 0.80851,0.483428 4.74216,0.562678 5.87628,0.718153 1.13411,0.155474 6.4416,-2.299983 8.33447,-1.000694 1.89287,1.299287 2.9406,1.526096 3.15414,1.923148 0.21355,0.397052 1.18532,3.005166 1.18532,3.005166 0,0 0.42668,0.375727 -0.40757,0.43461 -0.83425,0.05888 -1.22586,-0.781727 -1.51699,-0.810191 -0.29113,-0.02846 -1.8657,-1.424988 -4.17261,-1.756238 -2.3069,-0.331248 -4.26743,2.599843 -5.73327,2.417239 -1.46585,-0.182605 -2.62892,-0.659641 -3.95931,-1.371076 -1.33039,-0.711433 -2.31836,-1.53374 -3.04123,-1.426488 -0.72288,0.107251 -3.75287,1.773465 -4.51461,1.773465 -0.76173,0 -4.30704,0.109011 -6.32805,-0.270807 -2.02101,-0.37982 -4.09501,-1.140759 -5.26043,0.09538 -1.16543,1.236141 0.39579,2.558283 0.22321,2.759329 -0.17258,0.201046 0.003,0.748266 0.85434,2.159186 0.85132,1.41091 1.69833,3.89775 1.62785,4.23674 -0.0705,0.33899 -1.62773,4.88712 -2.08004,5.53689 -0.45231,0.64975 -1.59342,2.89203 -1.56151,3.34468 0.0319,0.45264 1.3359,3.88886 1.56326,4.38474 0.22736,0.49588 0.85887,2.05214 0.7724,2.48423 -0.0865,0.4321 -0.85186,3.83449 -0.90699,4.35817 -0.0551,0.52369 -0.59852,4.33031 -0.14702,7.22142 0.45151,2.8911 0.70853,5.23604 1.21716,7.82613 0.50864,2.59008 1.02709,4.77094 1.02709,4.77094 0,0 -2.84832,-1.53976 -4.06616,-1.28207 -1.21785,0.25768 -6.463184,1.16296 -7.569277,1.24675 -1.106094,0.0838 -3.830593,0.57936 -5.268857,-0.0582 z"
         id="path35101" />
      <path
         style="opacity:0.655108;fill:#7b3a0a;fill-opacity:1;stroke:none;stroke-width:0.264583px;stroke-linecap:butt;stroke-linejoin:miter;stroke-opacity:1"
         d="m 39.824096,90.628927 c 2.113161,-0.01064 5.672291,0.818763 7.271139,0.416684 1.598848,-0.402079 5.590048,-1.115417 7.225937,-1.05777 1.63589,0.05765 4.165746,1.144185 4.654664,1.317128 0.488916,0.172942 4.162345,0.172942 6.42906,0.05765 2.266714,-0.115295 3.86111,-0.539737 5.012621,0.324255 1.151509,0.863992 2.508867,1.162878 2.335924,3.036247 -0.172945,1.873369 -2.318845,7.321939 -2.594652,8.592889 -0.275807,1.27094 1.119653,-5.560018 0.862195,-5.842169 -0.257455,-0.282152 -0.748533,-1.437042 -2.745907,-0.452745 -1.997374,0.984298 -1.975339,0.649071 -3.168652,-0.289338 -1.193311,-0.938408 -2.502932,-1.788369 -4.036714,-1.914067 -1.533779,-0.125695 -7.130229,1.429221 -8.880533,1.289307 -1.750306,-0.139917 -6.12421,-1.855473 -7.505509,-1.895986 -1.381302,-0.04051 -2.409735,0.03455 -4.731359,1.259713 -2.321623,1.225161 -2.578954,1.175486 -2.578954,1.175486 0,0 1.450692,-3.09671 2.45074,-6.017281 z"
         id="path39999" />
      <path
         style="fill:#45690a;fill-opacity:1;stroke:none;stroke-width:0.264583px;stroke-linecap:butt;stroke-linejoin:miter;stroke-opacity:1"
         d="m 75.604009,103.44939 c -1.059836,4.59532 -0.163052,6.64709 -0.163052,8.46258 0,1.81549 1.309336,6.46883 0.850553,6.92761 -0.458782,0.45879 5.27526,-2.76869 6.475984,-2.47066 1.200727,0.29803 4.459857,0.7819 4.459857,0.7819 0,0 -3.716518,-7.69396 -2.267244,-9.1139 1.449274,-1.41993 0.850278,-6.02241 0.850278,-6.02241 0,0 -3.683942,1.61858 -5.216969,1.25879 -1.53303,-0.3598 -3.988385,-0.12534 -4.989407,0.17609 z"
         id="path40267" />
      <path
         style="fill:none;stroke:#000000;stroke-width:0.7;stroke-linecap:round;stroke-linejoin:miter;stroke-miterlimit:4;stroke-dasharray:none;stroke-opacity:1"
         d="m 76.496639,105.36289 c -1.596723,-0.19947 -2.575761,0.4935 -2.575761,0.4935"
         id="path40580" />
      <path
         style="fill:none;stroke:#000000;stroke-width:0.7;stroke-linecap:round;stroke-linejoin:miter;stroke-miterlimit:4;stroke-dasharray:none;stroke-opacity:1"
         d="m 76.199536,108.15784 c -1.037177,-0.2033 -2.858045,0.91115 -2.858045,0.91115"
         id="path40582" />
      <path
         style="fill:none;stroke:#000000;stroke-width:0.7;stroke-linecap:round;stroke-linejoin:miter;stroke-miterlimit:4;stroke-dasharray:none;stroke-opacity:1"
         d="m 76.548783,111.27154 c -1.626182,0.12228 -2.600269,-0.12127 -2.600269,-0.12127"
         id="path40584" />
      <path
         style="fill:none;stroke:#000000;stroke-width:0.7;stroke-linecap:round;stroke-linejoin:miter;stroke-miterlimit:4;stroke-dasharray:none;stroke-opacity:1"
         d="m 77.200449,113.36485 c -1.516697,0.12229 -3.235526,0.91922 -3.235526,0.91922"
         id="path40586" />
      <path
         style="fill:none;stroke:#000000;stroke-width:0.7;stroke-linecap:round;stroke-linejoin:miter;stroke-miterlimit:4;stroke-dasharray:none;stroke-opacity:1"
         d="m 77.541423,115.8835 c -1.749385,1.05109 -2.697871,1.2549 -2.697871,1.2549"
         id="path40588" />
      <path
         style="fill:none;stroke:#000000;stroke-width:0.7;stroke-linecap:round;stroke-linejoin:miter;stroke-miterlimit:4;stroke-dasharray:none;stroke-opacity:1"
         d="m 78.754551,116.42757 c 0.202687,1.86263 -0.548727,3.12804 -0.548727,3.12804"
         id="path40590" />
      <path
         style="fill:none;stroke:#000000;stroke-width:0.7;stroke-linecap:round;stroke-linejoin:miter;stroke-miterlimit:4;stroke-dasharray:none;stroke-opacity:1"
         d="m 81.622425,115.26761 c 0.04076,1.45178 0.618231,2.85932 0.618231,2.85932"
         id="path40592" />
      <path
         style="fill:none;stroke:#000000;stroke-width:0.7;stroke-linecap:round;stroke-linejoin:miter;stroke-miterlimit:4;stroke-dasharray:none;stroke-opacity:1"
         d="m 84.633542,115.2693 c 0.066,1.32767 -0.631735,3.01214 -0.631735,3.01214"
         id="path40594" />
      <path
         style="fill:none;stroke:#000000;stroke-width:0.7;stroke-linecap:round;stroke-linejoin:miter;stroke-miterlimit:4;stroke-dasharray:none;stroke-opacity:1"
         d="m 83.529516,112.91702 c 1.334349,0.40407 3.87424,1.62696 3.87424,1.62696"
         id="path40596" />
      <path
         style="fill:none;stroke:#000000;stroke-width:0.7;stroke-linecap:round;stroke-linejoin:miter;stroke-miterlimit:4;stroke-dasharray:none;stroke-opacity:1"
         d="m 86.205988,110.66711 c -1.583426,0.46373 -3.568695,0.17827 -3.568695,0.17827"
         id="path40598" />
      <path
         style="fill:none;stroke:#000000;stroke-width:0.7;stroke-linecap:round;stroke-linejoin:miter;stroke-miterlimit:4;stroke-dasharray:none;stroke-opacity:1"
         d="m 83.668091,107.0413 c 1.498092,0.444 2.87315,0.93315 2.87315,0.93315"
         id="path40600" />
      <path
         style="fill:none;stroke:#000000;stroke-width:0.7;stroke-linecap:round;stroke-linejoin:miter;stroke-miterlimit:4;stroke-dasharray:none;stroke-opacity:1"
         d="m 87.263871,104.63189 c -1.740821,0.41363 -3.319981,0.29134 -3.319981,0.29134"
         id="path40602" />
      <path
         style="fill:none;stroke:#000000;stroke-width:0.7;stroke-linecap:round;stroke-linejoin:miter;stroke-miterlimit:4;stroke-dasharray:none;stroke-opacity:1"
         d="m 82.838815,104.57081 c 0,-1.1968 0.676511,-3.39167 0.676511,-3.39167"
         id="path40604" />
      <path
         style="fill:none;stroke:#000000;stroke-width:0.7;stroke-linecap:round;stroke-linejoin:miter;stroke-miterlimit:4;stroke-dasharray:none;stroke-opacity:1"
         d="m 79.65574,101.38537 c 0.365604,1.31482 1.352011,3.50802 1.352011,3.50802"
         id="path40606" />
      <path
         style="fill:none;stroke:#000000;stroke-width:0.7;stroke-linecap:round;stroke-linejoin:miter;stroke-miterlimit:4;stroke-dasharray:none;stroke-opacity:1"
         d="m 77.216277,101.61018 c 0.826135,0.93326 1.143741,2.56169 1.123304,3.08005"
         id="path40608" />
      <path
         style="opacity:1;fill:#182e5a;fill-opacity:1;stroke:none;stroke-width:0.264583px;stroke-linecap:butt;stroke-linejoin:miter;stroke-opacity:1"
         d="m 88.398705,156.3413 c 0,0 -3.860339,-2.41225 -5.141826,1.93973 -1.281485,4.35198 -1.400344,11.48056 -2.905487,14.93043 -1.505146,3.44988 -3.585408,10.48306 -4.845655,13.19062 -1.260248,2.70756 1.669337,10.37328 1.669337,10.37328 l -9.389701,3.87757 c 0,0 9.885899,-1.5655 13.574839,0.14294 3.688937,1.70844 -1.179639,-5.69224 -0.685707,-7.31281 0.493932,-1.62058 1.095962,-9.60767 2.767203,-14.22326 1.671243,-4.61558 1.696042,-6.32076 1.023244,-11.3053 -0.672798,-4.98453 3.830095,-10.57957 3.933753,-11.6132 z"
         id="path41216"
         sodipodi:nodetypes="csssccsssscc" />
      <path
         style="fill:#182e5a;fill-opacity:1;stroke:none;stroke-width:0.264583px;stroke-linecap:butt;stroke-linejoin:miter;stroke-opacity:1"
         d="m 74.744624,158.70864 c 1.198637,-4.56792 2.680174,-5.76708 4.97718,-7.67834 2.297007,-1.91127 5.282076,-2.64631 4.1412,-1.35563 -1.140875,1.29069 -5.693238,2.20117 -5.774764,3.67102 -0.08153,1.46984 -2.989773,8.28597 -3.343616,5.36295 z"
         id="path47993" />
      <path
         style="fill:#182e5a;fill-opacity:1;stroke:none;stroke-width:0.264583px;stroke-linecap:butt;stroke-linejoin:miter;stroke-opacity:1"
         d="m 94.828049,166.2293 c 0.163052,-3.1426 1.386065,-6.60263 2.08806,-7.17481 0.701998,-0.57217 2.729471,-2.71944 2.24767,-3.35248 -0.481801,-0.63304 -0.794443,-2.9367 0.145103,-1.04819 0.939548,1.8885 -0.45315,4.45601 -1.465411,5.23655 -1.012261,0.78054 -0.849209,2.68733 -0.849209,3.28654 0,0.59921 -3.406736,7.30497 -2.166213,3.05239 z"
         id="path48061" />
      <path
         style="fill:#182e5a;fill-opacity:1;stroke:none;stroke-width:0.264583px;stroke-linecap:butt;stroke-linejoin:miter;stroke-opacity:1"
         d="m 71.449667,181.23201 c 0.233985,-2.3514 1.642068,-3.19126 2.224781,-5.19579 0.582713,-2.00452 -0.231526,-5.40733 -0.231526,-6.50417 0,-1.09683 0.991367,-4.36867 1.787062,-4.05502 0.795692,0.31365 -0.344824,2.41217 -0.395251,2.82883 -0.05043,0.41666 0.362254,2.81053 0.439933,3.76523 0.07768,0.9547 -0.37974,3.0846 -0.692144,3.76648 -0.312404,0.68187 -2.14598,2.78736 -2.14598,3.69387 0,0.90651 -1.131038,4.4857 -0.986875,1.70057 z"
         id="path48242" />
      <path
         style="fill:#182e5a;fill-opacity:1;stroke:none;stroke-width:0.264583px;stroke-linecap:butt;stroke-linejoin:miter;stroke-opacity:1"
         d="m 94.638203,179.00453 c 0,0 2.620843,2.08038 4.061645,2.5216 1.440802,0.44122 4.583052,1.89401 4.791322,2.26532 0.20826,0.37132 0.49832,2.87987 -3.07053,-0.17845 -3.568854,-3.05832 -4.154588,-2.0386 -4.154588,-2.0386 0,0 -1.724803,-1.20303 -1.627849,-2.56987 z"
         id="path48423" />
      <path
         style="fill:none;stroke:#230e0e;stroke-width:1.5;stroke-linecap:round;stroke-linejoin:miter;stroke-miterlimit:4;stroke-dasharray:none;stroke-opacity:1"
         d="m 80.446675,194.20591 c -5.458896,-0.2571 -10.915697,2.51963 -10.915697,2.51963 0,0 -0.992469,-2.32442 -3.262433,-1.71414"
         id="path52196"
         sodipodi:nodetypes="ccc" />
      <path
         style="fill:none;stroke:#230e0e;stroke-width:1.5;stroke-linecap:round;stroke-linejoin:miter;stroke-miterlimit:4;stroke-dasharray:none;stroke-opacity:1"
         d="m 69.530978,196.72554 c -1.934385,2.18656 -1.639179,2.75288 -1.639179,2.75288"
         id="path52326"
         sodipodi:nodetypes="cc" />
      <path
         style="fill:none;stroke:#230e0e;stroke-width:1.5;stroke-linecap:round;stroke-linejoin:miter;stroke-miterlimit:4;stroke-dasharray:none;stroke-opacity:1"
         d="m 101.238,194.571 c 3.64117,-1.47425 9.48555,0.32681 9.48555,0.32681 0,0 0.83617,-2.49875 2.40412,-2.23304"
         id="path53709"
         sodipodi:nodetypes="ccc" />
      <path
         style="fill:none;stroke:#230e0e;stroke-width:1.5;stroke-linecap:round;stroke-linejoin:miter;stroke-miterlimit:4;stroke-dasharray:none;stroke-opacity:1"
         d="m 110.72355,194.89781 c 2.81062,0.20785 3.35666,1.72205 3.35666,1.72205"
         id="path53711"
         sodipodi:nodetypes="cc" />
      <path
         style="fill:none;stroke:#230e0e;stroke-width:1.5;stroke-linecap:round;stroke-linejoin:miter;stroke-miterlimit:4;stroke-dasharray:none;stroke-opacity:1"
         d="m 134.68323,87.212788 c -1.55697,3.550216 -0.22897,8.22946 -0.22897,8.22946 0,0 -2.11153,1.121984 -2.08877,3.009722"
         id="path58297" />
      <path
         style="fill:none;stroke:#230e0e;stroke-width:1.5;stroke-linecap:round;stroke-linejoin:miter;stroke-miterlimit:4;stroke-dasharray:none;stroke-opacity:1"
         d="m 134.45426,95.442248 c 1.14947,2.267206 1.65016,2.029306 1.65016,2.029306"
         id="path58299" />
      <path
         style="fill:none;stroke:#230e0e;stroke-width:1.5;stroke-linecap:round;stroke-linejoin:miter;stroke-miterlimit:4;stroke-dasharray:none;stroke-opacity:1"
         d="m 42.82183,84.00331 c 1.438934,5.049991 1.678223,7.00577 -0.479671,10.236724 -2.157894,3.230954 -0.15018,4.282519 -0.15018,4.282519"
         id="path71795" />
      <path
         style="fill:none;stroke:#230e0e;stroke-width:1.5;stroke-linecap:round;stroke-linejoin:miter;stroke-miterlimit:4;stroke-dasharray:none;stroke-opacity:1"
         d="m 42.342159,94.240034 c 2.865152,1.228984 2.028973,2.7594 2.028973,2.7594"
         id="path71799" />
      <path
         style="fill:#c87b00;fill-opacity:1;stroke:none;stroke-width:0.264583px;stroke-linecap:butt;stroke-linejoin:miter;stroke-opacity:1"
         d="m 98.526429,149.42991 c 0.08219,-1.47319 -0.50583,-2.82548 -0.912389,-2.89985 -0.406558,-0.0744 1.061778,-0.50435 1.107213,0.64051 0.04543,1.14486 -0.194824,2.25934 -0.194824,2.25934 z"
         id="path81084" />
      <path
         style="fill:#c87b00;fill-opacity:1;stroke:none;stroke-width:0.264583px;stroke-linecap:butt;stroke-linejoin:miter;stroke-opacity:1"
         d="m 99.767346,146.19445 c 0.126365,1.10223 0.790244,2.41148 1.773444,2.97541 0.98319,0.56393 1.4176,0.78574 1.4176,0.78574 0,0 -1.78919,-1.07197 -2.07528,-1.94926 -0.28609,-0.87729 -1.115764,-1.81189 -1.115764,-1.81189 z"
         id="path83330" />
      <path
         style="fill:#b8771f;fill-opacity:1;stroke:none;stroke-width:0.264583px;stroke-linecap:butt;stroke-linejoin:miter;stroke-opacity:1"
         d="m 157.76569,89.887884 -8.13761,-0.04477 4.22163,0.751099 z"
         id="path92936" />
      <path
         style="fill:#b8771f;fill-opacity:1;stroke:none;stroke-width:0.264583px;stroke-linecap:butt;stroke-linejoin:miter;stroke-opacity:1"
         d="m 149.4042,94.830068 7.53073,0.377621 -4.72587,-0.636582 z"
         id="path93249" />
      <path
         style="fill:#b8771f;fill-opacity:1;stroke:none;stroke-width:0.264583px;stroke-linecap:butt;stroke-linejoin:miter;stroke-opacity:1"
         d="m 23.655765,86.569893 6.623882,0.481655 -3.232344,0.343406 z"
         id="path96301" />
      <path
         style="fill:#b8771f;fill-opacity:1;stroke:none;stroke-width:0.264583px;stroke-linecap:butt;stroke-linejoin:miter;stroke-opacity:1"
         d="m 21.420165,93.839304 4.001316,0.04492 4.700947,-1.069589 -5.162996,0.518827 z"
         id="path98781" />
      <path
         style="fill:#b8771f;fill-opacity:1;stroke:none;stroke-width:0.264583px;stroke-linecap:butt;stroke-linejoin:miter;stroke-opacity:1"
         d="m 90.083157,168.09328 0.432075,8.95036 -0.88234,7.85878 -0.642961,-10.48024 z"
         id="path124880" />
      <path
         style="fill:#b8771f;fill-opacity:1;stroke:none;stroke-width:0.264583px;stroke-linecap:butt;stroke-linejoin:miter;stroke-opacity:1"
         d="m 86.165083,189.64559 -0.562967,13.50922 c 0,0 0.250674,16.17262 0.250674,15.72546 0,-0.44716 0.782368,-16.17502 0.782368,-16.17502 z"
         id="path126888" />
      <path
         style="fill:#b8771f;fill-opacity:1;stroke:none;stroke-width:0.264583px;stroke-linecap:butt;stroke-linejoin:miter;stroke-opacity:1"
         d="m 91.482957,211.66311 c 0,0 0.715724,28.14779 0.658077,27.72206 -0.05765,-0.42574 -1.720808,-10.33294 -1.720808,-10.33294 z"
         id="path126956" />
      <path
         style="fill:#b8771f;fill-opacity:1;stroke:none;stroke-width:0.264583px;stroke-linecap:butt;stroke-linejoin:miter;stroke-opacity:1"
         d="m 84.930011,246.04915 c -0.05765,-0.35329 0.166491,-3.05453 0.166491,-3.05453 0,0 -1.292947,-14.0237 -1.120005,-14.28076 0.172943,-0.25706 1.939743,-2.02511 1.939743,-2.02511 l -0.02101,-1.10639 0.207645,-0.70151 0.873686,1.95263 -1.571937,2.18176 -0.225928,6.97158 0.662953,6.79422 z"
         id="path127250" />
      <path
         style="fill:#b8771f;fill-opacity:1;stroke:none;stroke-width:0.264583px;stroke-linecap:butt;stroke-linejoin:miter;stroke-opacity:1"
         d="m 83.74917,222.69641 -0.345107,-7.62207 0.630801,-13.02497 0.458563,-11.50772 -0.262557,-11.94764 0.769427,6.51833 -0.06373,9.4076 -0.788437,15.73701 0.17328,8.60338 z"
         id="path127450" />
      <path
         style="fill:#b8771f;fill-opacity:1;stroke:none;stroke-width:0.264583px;stroke-linecap:butt;stroke-linejoin:miter;stroke-opacity:1"
         d="m 20.510792,88.581639 0.47116,-2.836807 0.433454,-0.451437 1.159731,-0.04076 9.470159,0.493014 -4.627962,0.326102 -5.042244,-0.529479 -0.769195,0.939974 z"
         id="path127631" />
      <path
         style="fill:#b8771f;fill-opacity:1;stroke:none;stroke-width:0.264583px;stroke-linecap:butt;stroke-linejoin:miter;stroke-opacity:1"
         d="m 20.619101,94.835217 -0.231272,-2.847012 0.253657,-0.374018 3.59811,-0.596588 -1.578106,0.840656 -1.653988,0.870884 z"
         id="path127699" />
      <path
         style="fill:#b8771f;fill-opacity:1;stroke:none;stroke-width:0.264583px;stroke-linecap:butt;stroke-linejoin:miter;stroke-opacity:1"
         d="m 149.43675,88.196858 8.62797,-0.470744 0.49278,0.137033 0.33135,1.665317 -0.84668,-0.837695 -2.65409,-0.356547 z"
         id="path127880" />
      <path
         style="fill:#2c1a08;fill-opacity:1;stroke:none;stroke-width:0.264583px;stroke-linecap:butt;stroke-linejoin:miter;stroke-opacity:1"
         d="m 82.651321,225.68847 c 0.161454,-0.1342 1.315638,-0.95908 1.422622,-0.95908 0.106982,0 2.072011,0.24149 2.072011,0.24149 l -0.269214,1.30401 -1.471443,0.16972 -0.821396,-0.0395 z"
         id="path131889" />
      <path
         style="fill:#2c1a08;fill-opacity:1;stroke:none;stroke-width:0.264583px;stroke-linecap:butt;stroke-linejoin:miter;stroke-opacity:1"
         d="m 93.527754,199.29859 1.424631,-0.93478 0.107476,6.20318 -0.08337,4.03128 -0.319228,4.51719 0.225719,4.13213 0.03275,3.80866 0.05986,6.19273 -0.02302,5.37814 -0.0602,2.90653 0.455861,4.32137 0.764728,5.62582 v 1.2179 l -0.99324,1.06001 -3.785743,0.34936 -6.345979,-0.17185 -1.483979,-0.86489 1.607945,-0.90644 1.742045,0.16336 6.360142,-0.0427 1.180957,-0.2492 0.05743,-1.2788 -0.915625,-6.41331 -0.351343,-5.62342 0.151694,-8.41629 -0.02442,-6.20187 -0.200732,-4.1004 0.08153,-3.33203 0.229897,-6.23938 z"
         id="path132251" />
    </g>
  </g>
  <metadata
     id="metadata85526">
    <rdf:RDF>
      <cc:Work
         rdf:about="">
        <dc:creator>
          <cc:Agent>
            <dc:title>IcterusGames</dc:title>
          </cc:Agent>
        </dc:creator>
        <dc:title>Scarecrow</dc:title>
        <cc:license
           rdf:resource="http://creativecommons.org/publicdomain/zero/1.0/" />
      </cc:Work>
      <cc:License
         rdf:about="http://creativecommons.org/publicdomain/zero/1.0/">
        <cc:permits
           rdf:resource="http://creativecommons.org/ns#Reproduction" />
        <cc:permits
           rdf:resource="http://creativecommons.org/ns#Distribution" />
        <cc:permits
           rdf:resource="http://creativecommons.org/ns#DerivativeWorks" />
      </cc:License>
    </rdf:RDF>
  </metadata>
</svg>
