<?xml version="1.0" encoding="UTF-8" standalone="no"?>
<!-- Creator: CorelDRAW X6 -->

<svg
   xml:space="preserve"
   width="512"
   height="256"
   version="1.1"
   style="clip-rule:evenodd;fill-rule:evenodd;image-rendering:optimizeQuality;shape-rendering:geometricPrecision;text-rendering:geometricPrecision"
   viewBox="0 0 7314.1153 3656.8786"
   id="svg2"
   inkscape:version="1.1.2 (0a00cf5339, 2022-02-04)"
   sodipodi:docname="stump.svg"
   xmlns:inkscape="http://www.inkscape.org/namespaces/inkscape"
   xmlns:sodipodi="http://sodipodi.sourceforge.net/DTD/sodipodi-0.dtd"
   xmlns:xlink="http://www.w3.org/1999/xlink"
   xmlns="http://www.w3.org/2000/svg"
   xmlns:svg="http://www.w3.org/2000/svg"
   xmlns:rdf="http://www.w3.org/1999/02/22-rdf-syntax-ns#"
   xmlns:cc="http://creativecommons.org/ns#"
   xmlns:dc="http://purl.org/dc/elements/1.1/"><metadata
   id="metadata2608"><rdf:RDF><cc:Work
       rdf:about=""><dc:format>image/svg+xml</dc:format><dc:type
         rdf:resource="http://purl.org/dc/dcmitype/StillImage" /></cc:Work></rdf:RDF></metadata><sodipodi:namedview
   pagecolor="#ffffff"
   bordercolor="#666666"
   borderopacity="1"
   objecttolerance="10"
   gridtolerance="10"
   guidetolerance="10"
   inkscape:pageopacity="0"
   inkscape:pageshadow="2"
   inkscape:window-width="1920"
   inkscape:window-height="1007"
   id="namedview2606"
   showgrid="false"
   inkscape:zoom="0.55750864"
   inkscape:cx="312.99963"
   inkscape:cy="358.73883"
   inkscape:window-x="0"
   inkscape:window-y="0"
   inkscape:window-maximized="1"
   inkscape:current-layer="_931599168"
   inkscape:pagecheckerboard="1"
   inkscape:document-units="mm"
   units="px"
   width="512px" />
 <defs
   id="defs4">
  <style
   type="text/css"
   id="style6">
   
    .str2 {stroke:#5E7F21;stroke-width:4.11419}
    .str3 {stroke:#747F20;stroke-width:4.11419}
    .str1 {stroke:#945E36;stroke-width:10.7984}
    .str0 {stroke:#633E25;stroke-width:18.6056}
    .fil16 {fill:none}
    .fil22 {fill:black}
    .fil67 {fill:#29C14F}
    .fil24 {fill:#331F0E}
    .fil66 {fill:#37D561}
    .fil15 {fill:#3B9CFB}
    .fil25 {fill:#4A661C}
    .fil33 {fill:#5B661B}
    .fil9 {fill:#5E3518}
    .fil29 {fill:#5E7F21}
    .fil3 {fill:#63391B}
    .fil21 {fill:#633E25}
    .fil65 {fill:#66E186}
    .fil8 {fill:#693C1C}
    .fil70 {fill:#69DF89}
    .fil61 {fill:#6B3E1F}
    .fil5 {fill:#6FA124}
    .fil28 {fill:#729A28}
    .fil36 {fill:#747F20}
    .fil32 {fill:#76A22A}
    .fil19 {fill:#7A4D2E}
    .fil0 {fill:#7B4720}
    .fil69 {fill:#80E49A}
    .fil27 {fill:#82AB36}
    .fil11 {fill:#82D2FF}
    .fil31 {fill:#8ABD31}
    .fil42 {fill:#8CA22A}
    .fil35 {fill:#8D9A27}
    .fil64 {fill:#8EF0C1}
    .fil2 {fill:#905833}
    .fil54 {fill:#91A224}
    .fil39 {fill:#92A229}
    .fil20 {fill:#945E36}
    .fil68 {fill:#98EAA2}
    .fil30 {fill:#99CE40}
    .fil34 {fill:#9DAB35}
    .fil12 {fill:#9FE1FF}
    .fil41 {fill:#A3BD31}
    .fil52 {fill:#A9BD2A}
    .fil38 {fill:#AABD30}
    .fil1 {fill:#AC6C48}
    .fil71 {fill:#ADEFB4}
    .fil17 {fill:#AE703E}
    .fil6 {fill:#B3D02A}
    .fil56 {fill:#B4B3B8}
    .fil40 {fill:#B4CE40}
    .fil53 {fill:#BACE38}
    .fil37 {fill:#BBCE3F}
    .fil23 {fill:#C07E4C}
    .fil72 {fill:#C5F8E9}
    .fil7 {fill:#C6DE5C}
    .fil26 {fill:#C98D63}
    .fil58 {fill:#D6AE70}
    .fil62 {fill:#DDF8FF}
    .fil59 {fill:#DEBB88}
    .fil55 {fill:#DFDDDE}
    .fil48 {fill:#E21664}
    .fil60 {fill:#E5C9A1}
    .fil57 {fill:#E7E5E6}
    .fil46 {fill:#EE4686}
    .fil45 {fill:#F0649B}
    .fil50 {fill:#FE3B00}
    .fil49 {fill:#FF6600}
    .fil44 {fill:#FFC979}
    .fil51 {fill:#FFCC00}
    .fil43 {fill:#FFDCA4}
    .fil47 {fill:white}
    .fil18 {fill:#633E25;fill-rule:nonzero}
    .fil4 {fill:black;fill-opacity:0.200000}
    .fil13 {fill:url(#id1)}
    .fil63 {fill:url(#id2)}
    .fil10 {fill:url(#id3)}
    .fil14 {fill:url(#id4)}
   
  </style>
     <clipPath
   id="id0">
      <path
   d="m 3379,161 h 241 v 241 h -241 z"
   id="path9" />
     </clipPath>
  <linearGradient
   id="id1"
   gradientUnits="userSpaceOnUse"
   x1="2850.6899"
   y1="207.394"
   x2="2850.6899"
   y2="510.80801">
   <stop
   offset="0"
   style="stop-color:#6BCBF1"
   id="stop12" />
   <stop
   offset="1"
   style="stop-color:#3B9CFB"
   id="stop14" />
  </linearGradient>
  <linearGradient
   id="id2"
   gradientUnits="objectBoundingBox"
   x1="0.49999902"
   y1="0"
   x2="0.49999902"
   y2="1">
   <stop
   offset="0"
   style="stop-color:#BDF7F9"
   id="stop17" />
   <stop
   offset="1"
   style="stop-color:#8EF0C1"
   id="stop19" />
  </linearGradient>
  <linearGradient
   id="id3"
   gradientUnits="userSpaceOnUse"
   xlink:href="#id1"
   x1="2850.7"
   y1="138.457"
   x2="2850.7"
   y2="435.81299">
  </linearGradient>
  <linearGradient
   id="id4"
   gradientUnits="userSpaceOnUse"
   xlink:href="#id1"
   x1="2850.7"
   y1="315.76099"
   x2="2850.7"
   y2="552.42999">
  </linearGradient>
 
  
  
  
  
  
  
  
  
  
  
  
  
  
  
  
  
  
  
  
  
  
 </defs>
 <g
   id="_931599168">
   
   
   
   
   
   
   
   
   
   
   
   
   <g
   id="_931599264"
   transform="matrix(9.8586018,0,0,9.8586018,-49806.14,-1923.0005)">
    <g
   id="g1786">
     <path
   style="fill:#ae703e"
   inkscape:connector-curvature="0"
   id="path1788"
   d="m 5533,389 c 8,42 19,77 33,112 15,10 23,27 45,35 22,7 59,6 76,30 h -129 -51 -185 -34 -129 c 27,-41 82,-55 119,-69 18,-7 34,-56 46,-108 z"
   class="fil17" />
     <polygon
   style="fill:#945e36"
   id="polygon1790"
   points="5305,566 5334,516 5351,400 5306,503 5235,556 5159,566 5288,566 "
   class="fil20" />
     <polygon
   style="fill:#945e36"
   id="polygon1792"
   points="5391,500 5376,555 5375,531 5374,449 5349,530 5321,566 5322,566 5404,566 "
   class="fil20" />
     <polygon
   style="fill:#945e36"
   id="polygon1794"
   points="5514,566 5496,543 5470,471 5471,551 5455,500 5451,551 5442,566 5507,566 "
   class="fil20" />
     <polygon
   style="fill:#945e36"
   id="polygon1796"
   points="5521,536 5533,566 5558,566 5687,566 5601,554 5548,521 5509,432 "
   class="fil20" />
     <path
   style="fill:#c07e4c"
   inkscape:connector-curvature="0"
   id="path1798"
   d="m 5320,389 c -9,36 -21,69 -33,101 l 4,-2 35,-52 5,-47 z"
   class="fil23" />
     <path
   style="fill:#945e36"
   inkscape:connector-curvature="0"
   id="path1800"
   d="m 5528,389 15,45 c -4,-14 -7,-29 -10,-45 z"
   class="fil20" />
     <polygon
   style="fill:#945e36"
   id="polygon1802"
   points="5395,548 5406,472 5414,508 5425,389 5432,389 5435,541 5444,513 5467,566 5395,566 "
   class="fil20" />
     <polygon
   style="fill:#c07e4c"
   id="polygon1804"
   points="5358,389 5353,389 5351,400 5334,516 5354,463 "
   class="fil23" />
     <polygon
   style="fill:#c07e4c"
   id="polygon1806"
   points="5433,462 5446,389 5432,389 "
   class="fil23" />
     <path
   style="fill:#945e36"
   inkscape:connector-curvature="0"
   id="path1808"
   d="m 5611,536 c -22,-8 -30,-25 -45,-35 -9,-21 -16,-42 -22,-64 l -16,-48 h -4 l 13,63 19,58 24,18 53,22 53,14 c -18,-22 -53,-21 -75,-28 z"
   class="fil20" />
     <polygon
   style="fill:#7a4d2e"
   id="polygon1810"
   points="5345,439 5334,516 5305,566 5238,566 5307,526 "
   class="fil19" />
     <polygon
   style="fill:#7a4d2e"
   id="polygon1812"
   points="5429,556 5442,543 5461,566 5393,566 5414,529 5425,474 "
   class="fil19" />
     <polygon
   style="fill:#7a4d2e"
   id="polygon1814"
   points="5610,566 5541,566 5528,536 5523,495 5543,540 "
   class="fil19" />
     <path
   style="fill:#c07e4c"
   inkscape:connector-curvature="0"
   id="path1816"
   d="m 5167,556 34,-13 75,-37 28,-30 3,-13 -14,19 c -2,3 -4,5 -6,8 -3,3 -6,6 -9,7 -34,13 -82,26 -111,59 z"
   class="fil23" />
    </g>
    <polygon
   style="fill:#945e36"
   id="polygon1818"
   points="5380,393 5374,393 5371,419 5377,566 "
   class="fil20" />
    <polygon
   style="fill:#945e36"
   id="polygon1820"
   points="5473,393 5472,393 5475,407 "
   class="fil20" />
    <g
   id="g1822">
     <path
   style="fill:#7a4d2e"
   inkscape:connector-curvature="0"
   id="path1824"
   d="m 5539,393 c 1,16 1,32 2,47 l -13,-29 v -18 z"
   class="fil19" />
     <path
   style="fill:#7a4d2e"
   inkscape:connector-curvature="0"
   id="path1826"
   d="m 5541,440 c -1,-15 -1,-31 -2,-47 h -11 v 18 z"
   class="fil19" />
    </g>
    <path
   style="fill:#c98d63"
   inkscape:connector-curvature="0"
   id="path1828"
   d="m 5319,393 c -2,10 -3,19 -4,28 l 20,-27 v -1 z"
   class="fil26" />
    <ellipse
   style="fill:#d6ae70"
   id="ellipse1830"
   ry="23"
   rx="110"
   cy="393"
   cx="5429"
   class="fil58" />
    <ellipse
   style="fill:#debb88"
   id="ellipse1832"
   ry="19"
   rx="92"
   cy="391"
   cx="5429"
   class="fil59" />
    <ellipse
   style="fill:#e5c9a1"
   id="ellipse1834"
   ry="14"
   rx="69"
   cy="388"
   cx="5429"
   class="fil60" />
    <polygon
   style="fill:#6b3e1f"
   id="polygon1836"
   points="5378,498 5386,415 5417,389 5380,414 "
   class="fil61" />
    <polygon
   style="fill:#c98d63"
   id="polygon1838"
   points="5380,421 5380,414 5417,389 5372,413 "
   class="fil26" />
   </g>
  </g>
</svg>
