<?xml version="1.0" encoding="UTF-8" standalone="no"?>
<!-- Creator: CorelDRAW X6 -->

<svg
   xml:space="preserve"
   width="1024"
   height="1024"
   version="1.1"
   style="clip-rule:evenodd;fill-rule:evenodd;image-rendering:optimizeQuality;shape-rendering:geometricPrecision;text-rendering:geometricPrecision"
   viewBox="0 0 14628.231 14627.516"
   id="svg2"
   inkscape:version="1.1.2 (0a00cf5339, 2022-02-04)"
   sodipodi:docname="tree_01.svg"
   xmlns:inkscape="http://www.inkscape.org/namespaces/inkscape"
   xmlns:sodipodi="http://sodipodi.sourceforge.net/DTD/sodipodi-0.dtd"
   xmlns:xlink="http://www.w3.org/1999/xlink"
   xmlns="http://www.w3.org/2000/svg"
   xmlns:svg="http://www.w3.org/2000/svg"
   xmlns:rdf="http://www.w3.org/1999/02/22-rdf-syntax-ns#"
   xmlns:cc="http://creativecommons.org/ns#"
   xmlns:dc="http://purl.org/dc/elements/1.1/"><metadata
   id="metadata2608"><rdf:RDF><cc:Work
       rdf:about=""><dc:format>image/svg+xml</dc:format><dc:type
         rdf:resource="http://purl.org/dc/dcmitype/StillImage" /></cc:Work></rdf:RDF></metadata><sodipodi:namedview
   pagecolor="#ffffff"
   bordercolor="#666666"
   borderopacity="1"
   objecttolerance="10"
   gridtolerance="10"
   guidetolerance="10"
   inkscape:pageopacity="0"
   inkscape:pageshadow="2"
   inkscape:window-width="1920"
   inkscape:window-height="1007"
   id="namedview2606"
   showgrid="false"
   inkscape:zoom="0.55750864"
   inkscape:cx="381.16001"
   inkscape:cy="426.89921"
   inkscape:window-x="0"
   inkscape:window-y="0"
   inkscape:window-maximized="1"
   inkscape:current-layer="_931599168"
   inkscape:pagecheckerboard="1"
   inkscape:document-units="mm"
   units="px"
   width="1024px" />
 <defs
   id="defs4">
  <style
   type="text/css"
   id="style6">
   
    .str2 {stroke:#5E7F21;stroke-width:4.11419}
    .str3 {stroke:#747F20;stroke-width:4.11419}
    .str1 {stroke:#945E36;stroke-width:10.7984}
    .str0 {stroke:#633E25;stroke-width:18.6056}
    .fil16 {fill:none}
    .fil22 {fill:black}
    .fil67 {fill:#29C14F}
    .fil24 {fill:#331F0E}
    .fil66 {fill:#37D561}
    .fil15 {fill:#3B9CFB}
    .fil25 {fill:#4A661C}
    .fil33 {fill:#5B661B}
    .fil9 {fill:#5E3518}
    .fil29 {fill:#5E7F21}
    .fil3 {fill:#63391B}
    .fil21 {fill:#633E25}
    .fil65 {fill:#66E186}
    .fil8 {fill:#693C1C}
    .fil70 {fill:#69DF89}
    .fil61 {fill:#6B3E1F}
    .fil5 {fill:#6FA124}
    .fil28 {fill:#729A28}
    .fil36 {fill:#747F20}
    .fil32 {fill:#76A22A}
    .fil19 {fill:#7A4D2E}
    .fil0 {fill:#7B4720}
    .fil69 {fill:#80E49A}
    .fil27 {fill:#82AB36}
    .fil11 {fill:#82D2FF}
    .fil31 {fill:#8ABD31}
    .fil42 {fill:#8CA22A}
    .fil35 {fill:#8D9A27}
    .fil64 {fill:#8EF0C1}
    .fil2 {fill:#905833}
    .fil54 {fill:#91A224}
    .fil39 {fill:#92A229}
    .fil20 {fill:#945E36}
    .fil68 {fill:#98EAA2}
    .fil30 {fill:#99CE40}
    .fil34 {fill:#9DAB35}
    .fil12 {fill:#9FE1FF}
    .fil41 {fill:#A3BD31}
    .fil52 {fill:#A9BD2A}
    .fil38 {fill:#AABD30}
    .fil1 {fill:#AC6C48}
    .fil71 {fill:#ADEFB4}
    .fil17 {fill:#AE703E}
    .fil6 {fill:#B3D02A}
    .fil56 {fill:#B4B3B8}
    .fil40 {fill:#B4CE40}
    .fil53 {fill:#BACE38}
    .fil37 {fill:#BBCE3F}
    .fil23 {fill:#C07E4C}
    .fil72 {fill:#C5F8E9}
    .fil7 {fill:#C6DE5C}
    .fil26 {fill:#C98D63}
    .fil58 {fill:#D6AE70}
    .fil62 {fill:#DDF8FF}
    .fil59 {fill:#DEBB88}
    .fil55 {fill:#DFDDDE}
    .fil48 {fill:#E21664}
    .fil60 {fill:#E5C9A1}
    .fil57 {fill:#E7E5E6}
    .fil46 {fill:#EE4686}
    .fil45 {fill:#F0649B}
    .fil50 {fill:#FE3B00}
    .fil49 {fill:#FF6600}
    .fil44 {fill:#FFC979}
    .fil51 {fill:#FFCC00}
    .fil43 {fill:#FFDCA4}
    .fil47 {fill:white}
    .fil18 {fill:#633E25;fill-rule:nonzero}
    .fil4 {fill:black;fill-opacity:0.200000}
    .fil13 {fill:url(#id1)}
    .fil63 {fill:url(#id2)}
    .fil10 {fill:url(#id3)}
    .fil14 {fill:url(#id4)}
   
  </style>
     <clipPath
   id="id0">
      <path
   d="m 3379,161 h 241 v 241 h -241 z"
   id="path9" />
     </clipPath>
  <linearGradient
   id="id1"
   gradientUnits="userSpaceOnUse"
   x1="2850.6899"
   y1="207.394"
   x2="2850.6899"
   y2="510.80801">
   <stop
   offset="0"
   style="stop-color:#6BCBF1"
   id="stop12" />
   <stop
   offset="1"
   style="stop-color:#3B9CFB"
   id="stop14" />
  </linearGradient>
  <linearGradient
   id="id2"
   gradientUnits="objectBoundingBox"
   x1="0.49999902"
   y1="0"
   x2="0.49999902"
   y2="1">
   <stop
   offset="0"
   style="stop-color:#BDF7F9"
   id="stop17" />
   <stop
   offset="1"
   style="stop-color:#8EF0C1"
   id="stop19" />
  </linearGradient>
  <linearGradient
   id="id3"
   gradientUnits="userSpaceOnUse"
   xlink:href="#id1"
   x1="2850.7"
   y1="138.457"
   x2="2850.7"
   y2="435.81299">
  </linearGradient>
  <linearGradient
   id="id4"
   gradientUnits="userSpaceOnUse"
   xlink:href="#id1"
   x1="2850.7"
   y1="315.76099"
   x2="2850.7"
   y2="552.42999">
  </linearGradient>
 
  
  
  
  
  
  
  
  
  
  
  
  
  
  
  
  
  
  
  
  
  
 </defs>
 <g
   id="_931599168">
   
   
   
   <g
   id="_918107552"
   transform="matrix(10.444696,0,0,10.444696,-33499.623,-5467.7216)">
    <path
   style="fill:#4a661c"
   inkscape:connector-curvature="0"
   id="path1407"
   d="m 3882,1225 h -1 z m -37,0 h -2 c 1,0 1,1 2,1 0,0 0,-1 0,-1 z m -63,0 h -2 c 0,0 1,1 1,1 0,0 1,-1 1,-1 z m -53,0 h -2 c 0,0 0,1 0,1 1,0 1,-1 2,-1 z m -291,-3 v 0 h -1 v -1 0 0 h -1 v 0 0 h -1 v 0 0 0 l -1,-1 v 0 0 h -1 v 0 0 0 0 h -1 v -1 0 h -1 v 0 0 h -1 v 0 0 -1 h -1 v 0 0 h -1 v 0 0 l -1,-1 v 0 0 h -1 v 0 0 0 h -1 v -1 0 0 h -1 v 0 0 l -1,-1 v 0 0 h -1 v 0 0 l -1,-1 v 0 0 h -1 v 0 0 l -1,-1 v 0 0 h -1 v 0 0 l -1,-1 v 0 0 h -1 v 0 -1 h -1 v 0 0 h -1 v 0 -1 h -1 v 0 0 l -1,-1 v 0 0 h -1 v 0 -1 h -1 v 0 0 l -1,-1 v 0 0 h -1 c 5,-8 10,-15 16,-21 -8,-3 -16,-7 -26,-13 12,-18 24,-30 36,-35 -12,-3 -25,-10 -42,-20 17,-27 34,-41 51,-47 -12,-4 -26,-11 -42,-21 v 0 0 0 h 1 v 0 0 0 0 -1 0 0 0 0 0 0 0 0 0 0 0 0 0 0 0 0 0 0 -1 0 0 0 0 0 0 h 1 v 0 0 0 0 0 0 0 0 0 0 0 0 -1 0 0 0 0 0 0 0 0 0 0 0 0 0 0 0 0 0 c 23,-36 47,-51 70,-52 -9,-8 -18,-20 -27,-34 27,-18 50,-23 68,-21 -7,-6 -13,-15 -20,-27 24,-15 44,-20 60,-17 -9,-16 -16,-38 -22,-68 47,-9 80,-3 102,12 -1,-12 0,-25 1,-41 26,3 46,10 59,19 8,-19 24,-39 51,-64 19,22 32,42 38,60 13,-7 31,-12 53,-15 2,19 2,34 1,46 21,-19 56,-27 109,-17 -6,30 -13,52 -23,68 16,-3 37,2 61,17 -1,3 -3,6 -5,8 22,-2 50,5 83,26 -19,30 -35,48 -52,57 18,5 36,20 54,48 -5,3 -9,6 -14,8 v 1 0 0 0 h -1 v 0 0 0 0 h -1 v 1 0 0 0 h -1 v 0 0 0 1 h -1 v 0 0 0 0 h -1 v 0 0 0 1 h -1 v 0 0 0 0 h -1 v 0 0 0 0 l -1,1 v 0 0 0 0 h -1 v 0 0 0 0 1 h -1 v 0 0 0 0 h -1 v 0 0 0 0 l -1,1 v 0 0 0 0 h -1 v 0 0 0 0 h -1 v 0 1 0 0 h -1 v 0 0 0 0 0 h -1 v 0 0 0 1 0 h -1 v 0 0 0 0 h -1 v 0 0 0 0 0 l -1,1 v 0 0 0 c 18,4 37,19 54,48 -16,10 -29,17 -41,20 12,5 24,17 35,35 -9,6 -17,10 -25,13 5,6 11,13 16,21 h -1 v 0 0 l -1,1 v 0 0 h -1 v 1 0 h -1 v 0 0 l -1,1 v 0 0 h -1 v 0 0 l -1,1 v 0 0 h -1 v 0 1 h -1 v 0 0 h -1 v 0 1 h -1 v 0 0 0 0 l -1,1 v 0 0 h -1 v 0 0 l -1,1 v 0 0 h -1 v 0 0 l -1,1 v 0 0 0 h -1 v 0 0 0 l -1,1 v 0 0 h -1 v 0 0 h -1 v 1 0 0 h -1 v 0 0 h -1 v 0 1 0 0 h -1 v 0 0 h -1 v 0 0 l -1,1 v 0 0 0 0 h -1 v 0 0 h -1 v 1 0 0 h -1 v 0 0 0 h -1 v 0 c 5,8 8,18 9,29 -19,0 -35,-4 -45,-11 0,11 -2,23 -7,34 -15,-10 -26,-20 -33,-29 -5,15 -22,30 -45,46 -4,-8 -7,-17 -8,-26 -8,-1 -14,-3 -19,-5 0,2 0,4 0,7 -20,-1 -35,-4 -44,-11 -1,11 -6,22 -13,33 -10,-8 -19,-16 -24,-24 -11,-1 -20,-5 -26,-9 -2,11 -6,22 -13,33 -8,-5 -14,-11 -19,-16 -5,5 -11,11 -18,16 -7,-11 -12,-22 -13,-33 -8,6 -21,10 -38,10 -6,11 -14,21 -24,28 -12,-21 -20,-39 -20,-54 -6,11 -18,22 -35,34 -5,-11 -8,-23 -8,-34 -7,5 -17,9 -30,10 1,14 -3,28 -9,41 -23,-16 -40,-31 -45,-46 -6,9 -18,19 -32,29 -5,-11 -8,-23 -8,-34 -10,7 -25,11 -45,11 1,-11 4,-20 9,-28 z"
   class="fil25" />
    <path
   style="fill:#4a661c"
   inkscape:connector-curvature="0"
   id="path1409"
   d="m 4301,1228 h -1 l 1,1 z m -42,0 h -2 c 0,0 1,1 1,2 0,-1 1,-1 1,-2 z m -73,0 h -2 c 0,0 1,1 1,2 0,-1 1,-1 1,-2 z m -61,0 h -3 c 1,1 1,1 1,2 1,-1 1,-2 2,-2 z m -335,-4 h -1 v 0 0 h -1 v 0 0 h -1 v 0 -1 h -1 v 0 0 h -1 v 0 0 h -1 v 0 -1 0 h -1 v 0 0 0 h -1 v -1 0 h -1 v 0 0 h -1 v -1 0 h -1 v 0 h -1 v 0 0 l -1,-1 v 0 0 h -1 v 0 h -1 v -1 0 h -1 v 0 0 h -1 v -1 0 h -1 v 0 0 l -1,-1 v 0 0 h -1 v 0 l -1,-1 v 0 0 h -1 v 0 0 l -1,-1 v 0 0 h -1 v -1 h -1 v 0 0 h -1 v -1 0 h -1 v 0 h -1 v -1 h -1 v 0 0 l -1,-1 v 0 0 l -1,-1 v 0 h -1 v 0 0 l -1,-1 v 0 0 h -1 l -1,-1 c 6,-9 12,-17 18,-23 -8,-4 -18,-9 -29,-15 14,-22 28,-35 41,-41 -13,-4 -29,-11 -48,-23 19,-31 39,-48 59,-54 -14,-5 -30,-13 -48,-24 v 0 -1 0 0 0 0 0 0 0 0 0 0 0 0 0 0 0 -1 0 0 0 0 h 1 v 0 0 0 0 0 0 0 0 0 0 0 0 -1 0 0 0 0 0 0 0 0 0 0 0 0 0 0 h 1 v 0 -1 0 0 0 0 0 0 0 0 0 0 0 0 c 26,-41 54,-58 80,-60 -10,-9 -20,-22 -31,-39 32,-20 58,-27 78,-24 -7,-7 -15,-18 -23,-31 28,-18 52,-23 70,-20 -11,-18 -19,-44 -26,-78 55,-10 93,-4 117,13 -1,-13 0,-28 2,-46 30,3 52,11 68,21 9,-21 27,-45 58,-73 23,25 37,48 44,69 16,-8 36,-14 61,-17 2,21 3,38 1,53 24,-22 65,-32 126,-20 -7,34 -15,60 -26,78 18,-3 42,2 70,20 -2,3 -4,6 -6,9 26,-3 58,6 96,30 -22,34 -41,56 -60,66 20,6 42,23 62,55 -6,4 -11,7 -16,10 v 0 0 h -1 v 0 0 0 1 h -1 v 0 0 0 h -1 v 0 0 1 h -1 v 0 0 0 0 h -1 v 0 0 1 h -1 v 0 0 0 h -1 v 0 0 1 0 h -1 v 0 0 0 h -1 v 0 0 1 0 h -1 v 0 0 0 0 h -1 v 0 1 0 h -1 v 0 0 0 h -1 v 0 0 0 1 h -1 v 0 0 0 h -1 v 0 0 0 0 l -1,1 v 0 0 0 h -1 v 0 0 0 0 h -1 v 1 0 0 0 h -1 v 0 0 0 h -1 v 0 0 1 0 h -1 v 0 0 0 0 h -1 v 0 0 0 0 c 20,6 42,23 63,56 -19,12 -35,19 -48,23 13,6 27,19 41,41 -11,6 -21,11 -29,15 6,6 12,14 17,23 v 1 h -1 v 0 0 l -1,1 v 0 0 h -1 v 0 l -1,1 v 0 0 h -1 v 1 0 h -1 v 0 0 l -1,1 v 0 h -1 v 0 0 l -1,1 v 0 0 h -1 v 1 0 h -1 v 0 0 l -1,1 v 0 0 h -1 v 0 h -1 v 1 0 h -1 v 0 0 h -1 v 1 0 h -1 v 0 0 l -1,1 v 0 0 h -1 v 0 0 l -1,1 v 0 0 h -1 v 0 0 l -1,1 v 0 0 h -1 v 0 0 h -1 v 1 0 h -1 v 0 0 h -1 v 0 0 l -1,1 v 0 0 h -1 v 0 0 0 h -1 v 1 0 0 h -1 v 0 0 h -1 v 0 0 l -1,1 v 0 0 h -1 c 6,9 9,21 11,33 -23,0 -41,-4 -52,-13 0,13 -3,27 -9,39 -17,-11 -30,-22 -37,-33 -6,17 -25,35 -52,53 -4,-10 -8,-20 -9,-30 -9,-1 -16,-3 -22,-6 0,3 0,5 0,8 -23,0 -41,-5 -50,-13 -2,13 -8,27 -16,39 -12,-9 -21,-19 -28,-28 -13,-1 -23,-5 -29,-11 -2,13 -8,27 -16,39 -8,-6 -15,-13 -21,-19 -6,6 -13,13 -21,19 -8,-12 -13,-26 -15,-39 -9,8 -24,12 -44,13 -6,12 -16,23 -27,32 -14,-24 -23,-46 -24,-63 -6,13 -20,26 -40,39 -6,-12 -9,-26 -9,-39 -8,6 -20,10 -34,12 0,16 -4,32 -11,47 -27,-18 -46,-36 -52,-53 -7,11 -20,22 -37,33 -6,-12 -9,-26 -9,-39 -11,9 -29,13 -52,13 2,-12 5,-23 11,-33 z"
   class="fil25" />
    <path
   style="fill:#4a661c"
   inkscape:connector-curvature="0"
   id="path1411"
   d="m 3725,1079 h 1 z m 41,0 h 2 c -1,0 -1,1 -1,1 -1,0 -1,-1 -1,-1 z m 71,0 h 2 c -1,0 -1,1 -1,1 -1,0 -1,-1 -1,-1 z m 59,0 h 3 c -1,0 -1,1 -1,1 -1,0 -1,-1 -2,-1 z m 326,-4 v 0 0 0 h 1 v 0 0 l 1,-1 v 0 0 h 1 v 0 0 h 1 v 0 0 l 1,-1 v 0 0 h 1 v 0 0 h 1 v 0 -1 h 1 v 0 0 0 0 h 1 v -1 0 h 1 v 0 0 h 1 v -1 0 h 1 v 0 0 h 1 v 0 l 1,-1 v 0 0 h 1 v 0 -1 h 1 v 0 0 h 1 v 0 -1 h 1 v 0 h 1 v 0 -1 h 1 v 0 0 h 1 v 0 -1 h 1 v 0 h 1 v 0 -1 h 1 v 0 0 l 1,-1 v 0 0 h 1 v 0 l 1,-1 v 0 0 h 1 v -1 0 h 1 v 0 0 l 1,-1 h 1 v 0 0 l 1,-1 v 0 0 h 1 c -6,-10 -12,-17 -17,-23 8,-4 17,-8 28,-15 -13,-21 -27,-33 -40,-39 13,-4 28,-12 47,-23 -19,-30 -39,-46 -57,-52 13,-5 29,-13 46,-24 v 0 0 0 0 0 0 0 0 0 -1 0 0 0 0 0 0 0 0 0 0 0 0 0 0 0 h -1 v -1 0 0 0 0 0 0 0 0 0 0 0 0 0 0 0 0 0 -1 0 0 0 0 0 0 0 0 h -1 v 0 0 0 0 0 0 0 0 -1 0 0 c -25,-39 -52,-56 -77,-57 9,-10 19,-22 30,-39 -31,-19 -56,-25 -76,-22 7,-8 14,-18 22,-31 -27,-17 -50,-23 -68,-20 11,-17 19,-42 25,-75 -53,-10 -90,-4 -113,13 0,-13 0,-28 -2,-45 -29,3 -51,10 -66,20 -8,-21 -27,-44 -56,-71 -23,24 -37,47 -44,67 -14,-8 -34,-14 -59,-16 -2,20 -2,37 -1,51 -23,-21 -62,-30 -121,-19 6,33 14,58 24,75 -17,-3 -40,3 -68,20 2,3 4,6 6,9 -25,-3 -56,5 -93,29 21,33 40,54 58,64 -19,6 -40,22 -60,54 5,3 10,6 15,9 h 1 v 0 0 0 0 l 1,1 v 0 0 h 1 v 0 0 0 0 l 1,1 v 0 0 0 0 h 1 v 0 0 1 0 h 1 v 0 0 h 1 v 0 0 0 0 l 1,1 v 0 0 0 0 h 1 v 0 0 0 1 h 1 v 0 0 0 h 1 v 0 0 0 0 l 1,1 v 0 0 0 0 h 1 v 0 0 0 0 l 1,1 v 0 0 0 h 1 v 0 0 h 1 v 0 1 0 0 h 1 v 0 0 0 0 h 1 v 0 0 1 0 0 h 1 v 0 0 0 0 h 1 v 0 0 0 0 l 1,1 v 0 0 0 0 h 1 v 0 0 0 c -20,5 -41,22 -61,54 18,11 33,19 47,23 -14,6 -27,18 -40,39 10,7 20,11 28,15 -6,6 -12,13 -17,23 v 0 h 1 v 0 1 h 1 v 0 h 1 v 1 0 h 1 v 0 0 l 1,1 v 0 0 h 1 v 0 1 h 1 v 0 h 1 v 1 0 h 1 v 0 0 h 1 v 1 0 h 1 v 0 0 l 1,1 v 0 0 h 1 v 0 0 l 1,1 v 0 0 h 1 v 0 1 h 1 v 0 0 h 1 v 0 1 h 1 v 0 0 h 1 v 0 1 h 1 v 0 0 h 1 v 0 0 l 1,1 v 0 0 h 1 v 0 0 h 1 v 1 0 0 h 1 v 0 0 h 1 v 1 0 0 h 1 v 0 0 h 1 v 0 0 l 1,1 v 0 0 h 1 v 0 0 0 h 1 v 0 1 0 h 1 c -5,9 -9,20 -11,32 23,0 40,-4 51,-12 0,12 3,25 9,37 16,-11 29,-22 36,-32 6,16 24,34 50,51 4,-9 8,-18 9,-28 9,-1 16,-3 22,-6 0,2 0,5 0,7 22,0 39,-4 48,-12 2,12 7,26 15,38 12,-10 21,-18 27,-27 13,-2 23,-6 29,-11 2,12 7,26 15,38 8,-7 15,-13 21,-19 5,6 12,12 20,19 8,-12 13,-26 15,-38 9,7 23,11 42,12 7,12 16,23 27,31 13,-23 22,-44 23,-61 6,13 20,25 39,38 6,-12 9,-25 8,-37 8,5 20,9 34,11 -1,15 3,31 10,45 26,-17 45,-35 50,-51 8,10 20,21 37,32 5,-12 8,-25 8,-37 11,8 29,12 51,12 -2,-12 -5,-23 -10,-32 z"
   class="fil25" />
    <g
   id="g1413">
     <path
   style="fill:#ae703e"
   inkscape:connector-curvature="0"
   id="path1415"
   d="m 4010,1308 c -31,331 -18,438 26,550 16,11 24,28 46,35 22,8 58,6 76,31 h -129 -51 -185 -34 -202 c 27,-41 79,-39 117,-54 32,-11 48,-42 79,-46 43,-72 92,-212 66,-516 l -27,-75 -270,-78 -62,-181 80,147 120,32 33,-82 -33,-99 63,99 -6,80 103,32 26,24 -17,-142 121,-78 6,-155 28,131 52,-30 37,-73 -13,103 -156,112 9,61 78,-67 -63,101 13,56 106,-56 95,-15 49,-93 -13,95 126,-38 2,-87 -39,-41 -7,-106 26,87 67,62 3,114 -199,78 -95,20 z"
   class="fil17" />
     <polygon
   style="fill:#945e36"
   id="polygon1417"
   points="3776,1924 3805,1873 3821,1758 3777,1860 3689,1902 3557,1924 3759,1924 "
   class="fil20" />
     <polygon
   style="fill:#945e36"
   id="polygon1419"
   points="3791,1924 3793,1924 3875,1924 3862,1858 3847,1913 3845,1889 3845,1807 3819,1888 "
   class="fil20" />
     <polygon
   style="fill:#945e36"
   id="polygon1421"
   points="3922,1909 3913,1924 3978,1924 3985,1924 3966,1900 3941,1829 3942,1909 3926,1858 "
   class="fil20" />
     <polygon
   style="fill:#945e36"
   id="polygon1423"
   points="3992,1893 4003,1924 4029,1924 4158,1924 4072,1912 4019,1879 3980,1790 "
   class="fil20" />
     <path
   style="fill:#c07e4c"
   inkscape:connector-curvature="0"
   id="path1425"
   d="m 3819,1308 c 17,200 2,330 -23,415 l 32,-65 36,-181 z"
   class="fil23" />
     <path
   style="fill:#945e36"
   inkscape:connector-curvature="0"
   id="path1427"
   d="m 3951,1437 14,210 49,145 c -26,-96 -28,-217 -3,-484 l 51,-62 98,-21 146,-57 50,-20 -3,-114 -16,100 -162,54 -113,8 -98,112 z"
   class="fil20" />
     <path
   style="fill:#c07e4c"
   inkscape:connector-curvature="0"
   id="path1429"
   d="m 3573,1907 101,-24 74,-44 38,-52 -6,-18 c -9,22 -18,40 -27,55 -31,4 -47,35 -79,46 -31,12 -73,13 -101,37 z"
   class="fil23" />
     <polygon
   style="fill:#945e36"
   id="polygon1431"
   points="3866,1905 3877,1829 3885,1866 3901,1690 3906,1898 3915,1870 3938,1924 3865,1924 "
   class="fil20" />
     <polygon
   style="fill:#c07e4c"
   id="polygon1433"
   points="3805,1873 3824,1821 3830,1722 3821,1758 "
   class="fil23" />
     <polygon
   style="fill:#c07e4c"
   id="polygon1435"
   points="3904,1819 3920,1726 3913,1550 3901,1690 "
   class="fil23" />
     <path
   style="fill:#945e36"
   inkscape:connector-curvature="0"
   id="path1437"
   d="m 4082,1893 c -22,-7 -30,-24 -46,-35 -8,-21 -15,-42 -22,-64 l -26,-78 19,94 19,58 24,18 53,22 54,14 c -19,-23 -54,-21 -75,-29 z"
   class="fil20" />
     <polygon
   style="fill:#945e36"
   id="polygon1439"
   points="3867,1579 3859,1641 3864,1758 "
   class="fil20" />
     <polygon
   style="fill:#945e36"
   id="polygon1441"
   points="3915,1376 3912,1450 3941,1631 "
   class="fil20" />
     <g
   id="g1443">
      <path
   style="fill:#7a4d2e"
   inkscape:connector-curvature="0"
   id="path1445"
   d="m 3987,1308 h 23 c -15,160 -20,268 -16,349 l -10,-22 -5,-164 z"
   class="fil19" />
      <path
   style="fill:#7a4d2e"
   inkscape:connector-curvature="0"
   id="path1447"
   d="m 3994,1657 c -4,-81 1,-189 16,-349 l 52,-62 95,-20 199,-78 -2,-94 -11,82 -43,27 -152,40 -86,16 -75,89 -8,163 5,164 z"
   class="fil19" />
     </g>
     <polygon
   style="fill:#7a4d2e"
   id="polygon1449"
   points="3805,1873 3776,1924 3709,1924 3778,1884 3816,1796 "
   class="fil19" />
     <polygon
   style="fill:#7a4d2e"
   id="polygon1451"
   points="3863,1924 3884,1887 3896,1832 3899,1913 3912,1901 3932,1924 "
   class="fil19" />
     <polygon
   style="fill:#7a4d2e"
   id="polygon1453"
   points="4012,1924 3999,1894 3994,1852 4014,1897 4081,1924 "
   class="fil19" />
     <path
   style="fill:#c98d63"
   inkscape:connector-curvature="0"
   id="path1455"
   d="m 3823,1364 c 7,118 2,208 -9,279 l 16,-22 13,-172 z"
   class="fil26" />
     <polygon
   style="fill:#945e36"
   id="polygon1457"
   points="3760,1196 3542,1147 3491,1065 3522,1155 3792,1233 3819,1308 3812,1232 "
   class="fil20" />
     <polygon
   style="fill:#945e36"
   id="polygon1459"
   points="3522,1155 3792,1233 3758,1210 3643,1180 3534,1151 3502,1096 "
   class="fil20" />
     <polygon
   style="fill:#945e36"
   id="polygon1461"
   points="3991,1069 3907,1174 3919,1267 3941,1226 3928,1170 "
   class="fil20" />
     <polygon
   style="fill:#945e36"
   id="polygon1463"
   points="3898,1159 3913,1136 3904,1075 4060,963 4073,860 4047,949 3872,1068 "
   class="fil20" />
     <polygon
   style="fill:#945e36"
   id="polygon1465"
   points="3723,1071 3697,1159 3747,1160 3717,1151 "
   class="fil20" />
     <polygon
   style="fill:#945e36"
   id="polygon1467"
   points="4306,1032 4304,1119 4321,1026 4267,991 "
   class="fil20" />
     <polygon
   style="fill:#7a4d2e"
   id="polygon1469"
   points="3720,1107 3705,1155 3729,1155 3717,1151 "
   class="fil19" />
     <polygon
   style="fill:#7a4d2e"
   id="polygon1471"
   points="3913,1136 3904,1075 4060,963 4065,918 4052,959 3889,1069 "
   class="fil19" />
     <polygon
   style="fill:#7a4d2e"
   id="polygon1473"
   points="3928,1170 3965,1111 3918,1171 3918,1199 3941,1226 "
   class="fil19" />
     <polygon
   style="fill:#7a4d2e"
   id="polygon1475"
   points="4306,1032 4305,1065 4314,1028 4280,1005 "
   class="fil19" />
     <polygon
   style="fill:#c07e4c"
   id="polygon1477"
   points="4277,976 4352,1033 4286,972 4260,885 4264,941 4266,923 "
   class="fil23" />
     <polygon
   style="fill:#c07e4c"
   id="polygon1479"
   points="4178,1157 4172,1173 4304,1119 "
   class="fil23" />
     <polygon
   style="fill:#c07e4c"
   id="polygon1481"
   points="4149,1163 4191,1062 4142,1155 4047,1170 3941,1226 3926,1253 4055,1183 "
   class="fil23" />
     <polygon
   style="fill:#c07e4c"
   id="polygon1483"
   points="3857,1244 3846,1207 3820,1183 3763,1165 3807,1192 "
   class="fil23" />
     <polygon
   style="fill:#c07e4c"
   id="polygon1485"
   points="3846,1207 3848,1072 3967,985 3956,832 3950,987 3829,1065 "
   class="fil23" />
     <polygon
   style="fill:#c07e4c"
   id="polygon1487"
   points="4036,933 3984,963 3985,976 4038,940 4065,874 "
   class="fil23" />
     <polygon
   style="fill:#c07e4c"
   id="polygon1489"
   points="3540,1121 3486,1022 3539,1135 3669,1164 3680,1104 3660,1153 "
   class="fil23" />
     <polygon
   style="fill:#c98d63"
   id="polygon1491"
   points="3829,1065 3835,1120 3837,1070 3950,987 "
   class="fil26" />
     <polygon
   style="fill:#c98d63"
   id="polygon1493"
   points="4047,1170 3941,1226 4050,1177 4146,1160 4162,1118 4142,1155 "
   class="fil26" />
     <polygon
   style="fill:#945e36"
   id="polygon1495"
   points="3838,1257 3852,1317 3887,1437 3860,1309 "
   class="fil20" />
     <polygon
   style="fill:#945e36"
   id="polygon1497"
   points="3868,1157 3872,1184 3889,1259 3877,1180 "
   class="fil20" />
     <polygon
   style="fill:#945e36"
   id="polygon1499"
   points="4120,1182 4082,1190 4025,1217 3978,1258 4028,1223 4088,1194 "
   class="fil20" />
     <polygon
   style="fill:#945e36"
   id="polygon1501"
   points="4330,1041 4326,1063 4323,1105 4333,1058 "
   class="fil20" />
     <polygon
   style="fill:#945e36"
   id="polygon1503"
   points="3693,1124 3678,1167 3735,1174 3797,1202 3736,1167 3687,1162 "
   class="fil20" />
     <polygon
   style="fill:#945e36"
   id="polygon1505"
   points="3856,1429 3849,1476 3851,1564 "
   class="fil20" />
     <polygon
   style="fill:#945e36"
   id="polygon1507"
   points="3507,1082 3525,1134 3568,1147 3527,1126 "
   class="fil20" />
     <polygon
   style="fill:#945e36"
   id="polygon1509"
   points="3965,935 3962,993 3899,1042 3969,995 "
   class="fil20" />
     <polygon
   style="fill:#7a4d2e"
   id="polygon1511"
   points="4003,1240 4032,1225 4091,1197 4111,1184 4083,1193 4024,1223 "
   class="fil19" />
     <polygon
   style="fill:#7a4d2e"
   id="polygon1513"
   points="3686,1144 3672,1169 3735,1174 3678,1166 "
   class="fil19" />
     <polygon
   style="fill:#7a4d2e"
   id="polygon1515"
   points="3918,1404 3919,1453 3933,1546 3927,1442 "
   class="fil19" />
    </g>
    <g
   id="g1517">
     <path
   style="fill:#82ab36"
   inkscape:connector-curvature="0"
   id="path1519"
   d="m 3722,1103 h -1 v 1 z m -34,0 h -2 c 0,1 1,1 1,2 0,-1 0,-1 1,-2 z m -59,0 h -2 c 0,1 1,1 1,2 0,-1 1,-1 1,-2 z m -50,0 h -1 c 0,1 0,1 0,2 1,-1 1,-1 1,-2 z m -269,-3 v 0 h -1 v 0 0 0 h -1 v 0 0 0 l -1,-1 v 0 0 0 h -1 v 0 0 0 h -1 v -1 0 0 h -1 v 0 0 h -1 v 0 0 -1 0 h -1 v 0 0 h -1 v 0 0 0 l -1,-1 v 0 0 h -1 v 0 0 0 h -1 v -1 0 0 h -1 v 0 0 l -1,-1 v 0 0 h -1 v 0 0 0 l -1,-1 v 0 0 h -1 v 0 0 -1 h -1 v 0 0 h -1 v 0 0 l -1,-1 v 0 0 0 h -1 v -1 0 h -1 v 0 0 l -1,-1 v 0 0 h -1 v 0 0 l -1,-1 v 0 0 h -1 v 0 -1 h -1 v 0 0 h -1 c 5,-8 10,-14 15,-19 -7,-3 -15,-7 -24,-13 11,-17 22,-27 33,-32 -11,-3 -23,-9 -38,-19 15,-25 31,-38 47,-43 -11,-4 -24,-11 -39,-20 v 0 0 0 0 0 0 0 0 0 0 0 0 l 1,-1 v 0 0 0 0 0 0 0 0 0 0 0 0 0 0 0 0 0 0 0 0 0 -1 0 0 0 0 0 0 0 0 0 0 0 h 1 v 0 0 0 0 0 0 0 0 -1 0 0 0 0 0 0 0 0 0 c 21,-33 44,-47 64,-48 -8,-7 -16,-18 -25,-32 26,-16 47,-21 63,-18 -6,-7 -12,-15 -18,-25 22,-15 41,-19 56,-17 -9,-14 -15,-35 -21,-62 44,-9 75,-4 94,10 0,-10 0,-23 2,-37 24,2 42,9 55,17 6,-17 21,-36 46,-59 19,20 30,38 36,55 12,-6 28,-11 49,-13 2,17 2,31 1,42 19,-17 52,-25 101,-15 -6,27 -12,48 -21,62 15,-2 34,2 56,17 -1,2 -3,4 -4,7 20,-3 46,4 77,24 -18,27 -33,44 -49,53 17,4 34,18 50,44 -4,3 -8,6 -12,8 h -1 v 0 0 0 0 l -1,1 v 0 0 0 0 0 h -1 v 0 0 0 0 l -1,1 v 0 0 0 0 h -1 v 0 0 0 0 1 h -1 v 0 0 0 0 0 h -1 v 0 0 0 1 0 h -1 v 0 0 0 0 h -1 v 0 0 0 0 1 h -1 v 0 0 0 0 h -1 v 0 0 0 0 1 h -1 v 0 0 0 0 h -1 v 0 0 0 0 0 h -1 v 1 0 0 0 h -1 v 0 0 0 0 0 h -1 v 0 0 0 1 0 0 h -1 v 0 0 0 0 h -1 v 0 0 0 0 0 l -1,1 c 17,4 35,18 51,44 -15,10 -27,16 -38,19 11,5 22,15 33,32 -9,6 -17,10 -24,13 5,5 10,11 15,19 h -1 v 0 0 h -1 v 1 0 h -1 v 0 0 l -1,1 v 0 0 h -1 v 0 0 l -1,1 v 0 0 0 h -1 v 0 1 0 h -1 v 0 0 h -1 v 1 0 h -1 v 0 0 0 l -1,1 v 0 0 h -1 v 0 0 0 l -1,1 v 0 0 0 h -1 v 0 0 l -1,1 v 0 0 0 h -1 v 0 0 0 l -1,1 v 0 0 0 h -1 v 0 0 l -1,1 v 0 0 0 0 h -1 v 0 0 h -1 v 1 0 0 h -1 v 0 0 0 h -1 v 0 0 1 h -1 v 0 0 0 0 h -1 v 0 0 h -1 v 1 0 0 h -1 v 0 0 c 4,8 7,17 9,27 -19,0 -33,-4 -42,-11 0,11 -3,22 -7,32 -14,-10 -24,-19 -30,-27 -5,14 -20,28 -42,42 -4,-7 -6,-15 -8,-23 -7,-1 -13,-3 -17,-5 0,2 0,4 0,6 -19,0 -33,-4 -41,-10 -1,10 -6,21 -12,31 -10,-8 -17,-15 -22,-22 -11,-2 -19,-5 -24,-9 -2,10 -6,21 -13,31 -6,-5 -12,-10 -17,-15 -4,5 -10,10 -17,15 -6,-10 -11,-21 -12,-31 -7,6 -19,9 -35,10 -5,10 -13,19 -22,26 -11,-20 -18,-37 -19,-51 -5,10 -17,21 -33,32 -4,-10 -7,-21 -7,-32 -6,5 -15,8 -27,10 0,12 -3,25 -9,37 -21,-14 -37,-28 -42,-42 -5,8 -16,17 -29,27 -5,-10 -8,-21 -7,-32 -9,7 -24,11 -43,11 2,-10 5,-19 9,-27 z"
   class="fil27" />
     <path
   style="fill:#729a28"
   inkscape:connector-curvature="0"
   id="path1521"
   d="m 3722,1103 h -1 v 1 z m -17,-229 h -1 v 1 z m -30,0 h -1 c 0,1 0,1 0,2 1,-1 1,-1 1,-2 z m -51,0 h -2 c 1,1 1,1 1,2 0,-1 1,-1 1,-2 z m -43,0 h -2 c 0,1 0,1 1,2 0,-1 0,-1 1,-2 z m 107,229 h -2 c 0,1 1,1 1,2 0,-1 0,-1 1,-2 z m -59,0 h -2 c 0,1 1,1 1,2 0,-1 1,-1 1,-2 z m -50,0 h -1 c 0,1 0,1 0,2 1,-1 1,-1 1,-2 z m -269,-3 v 0 h -1 v 0 0 0 h -1 v 0 0 0 l -1,-1 v 0 0 0 h -1 v 0 0 0 h -1 v -1 0 0 h -1 v 0 0 h -1 v 0 0 -1 0 h -1 v 0 0 h -1 v 0 0 0 l -1,-1 v 0 0 h -1 v 0 0 0 h -1 v -1 0 0 h -1 v 0 0 l -1,-1 v 0 0 h -1 v 0 0 0 l -1,-1 v 0 0 h -1 v 0 0 -1 h -1 v 0 0 h -1 v 0 0 l -1,-1 v 0 0 0 h -1 v -1 0 h -1 v 0 0 l -1,-1 v 0 0 h -1 v 0 0 l -1,-1 v 0 0 h -1 v 0 -1 h -1 v 0 0 h -1 c 5,-8 10,-14 15,-19 -7,-3 -15,-7 -24,-13 11,-17 22,-27 33,-32 -11,-3 -23,-9 -38,-19 15,-25 31,-38 47,-43 -11,-4 -24,-11 -39,-20 v 0 0 0 0 0 0 0 0 0 0 0 0 l 1,-1 v 0 0 0 0 0 0 0 0 0 0 0 0 0 0 0 0 0 0 0 0 0 -1 0 0 0 0 0 0 0 0 0 0 0 h 1 v 0 0 0 0 0 0 0 0 -1 0 0 0 0 0 0 0 0 0 c 20,-31 41,-45 61,-48 0,3 -1,5 -1,8 16,0 29,-4 37,-10 0,10 2,21 6,31 12,-9 21,-18 26,-27 4,14 18,28 37,43 4,-12 7,-25 7,-38 10,-1 18,-5 24,-9 0,10 2,21 6,31 14,-11 24,-21 29,-32 0,14 6,31 16,51 8,-7 15,-16 19,-26 14,-1 25,-4 31,-10 1,10 5,21 11,31 5,-5 10,-10 14,-15 4,5 9,10 15,15 6,-10 10,-21 11,-31 5,4 12,7 21,9 4,7 11,15 20,22 5,-10 9,-21 10,-31 7,7 19,10 35,10 1,-2 1,-4 0,-6 5,2 10,4 16,5 1,8 3,16 6,24 19,-15 33,-29 37,-43 5,9 14,18 26,27 4,-10 6,-21 6,-31 8,6 21,10 37,10 -1,-10 -4,-19 -8,-27 h 1 v 0 0 0 0 h 1 v 0 0 -1 h 1 v 0 0 0 0 h 1 v 0 0 0 -1 h 1 v 0 0 0 h 1 v 0 0 0 -1 h 1 v 0 0 0 h 1 v 0 0 -1 0 h 1 v 0 0 0 h 1 v 0 -1 0 0 h 1 v 0 0 0 h 1 v -1 0 0 h 1 v 0 0 0 l 1,-1 v 0 0 0 h 1 v 0 -1 0 h 1 v 0 0 0 l 1,-1 v 0 0 0 h 1 v 0 -1 0 h 1 v 0 0 0 l 1,-1 v 0 0 0 h 1 v -1 0 0 h 1 v 0 0 l 1,-1 v 0 0 h 1 c -5,-8 -9,-14 -13,-19 5,-2 10,-5 15,-9 10,4 19,9 30,16 -18,27 -33,44 -49,53 17,4 34,18 50,44 -4,3 -8,6 -12,8 h -1 v 0 0 0 0 l -1,1 v 0 0 0 0 0 h -1 v 0 0 0 0 l -1,1 v 0 0 0 0 h -1 v 0 0 0 0 1 h -1 v 0 0 0 0 0 h -1 v 0 0 0 1 0 h -1 v 0 0 0 0 h -1 v 0 0 0 0 1 h -1 v 0 0 0 0 h -1 v 0 0 0 0 1 h -1 v 0 0 0 0 h -1 v 0 0 0 0 0 h -1 v 1 0 0 0 h -1 v 0 0 0 0 0 h -1 v 0 0 0 1 0 0 h -1 v 0 0 0 0 h -1 v 0 0 0 0 0 l -1,1 c 17,4 35,18 51,44 -15,10 -27,16 -38,19 11,5 22,15 33,32 -9,6 -17,10 -24,13 5,5 10,11 15,19 h -1 v 0 0 h -1 v 1 0 h -1 v 0 0 l -1,1 v 0 0 h -1 v 0 0 l -1,1 v 0 0 0 h -1 v 0 1 0 h -1 v 0 0 h -1 v 1 0 h -1 v 0 0 0 l -1,1 v 0 0 h -1 v 0 0 0 l -1,1 v 0 0 0 h -1 v 0 0 l -1,1 v 0 0 0 h -1 v 0 0 0 l -1,1 v 0 0 0 h -1 v 0 0 l -1,1 v 0 0 0 0 h -1 v 0 0 h -1 v 1 0 0 h -1 v 0 0 0 h -1 v 0 0 1 h -1 v 0 0 0 0 h -1 v 0 0 h -1 v 1 0 0 h -1 v 0 0 c 4,8 7,17 9,27 -19,0 -33,-4 -42,-11 0,11 -3,22 -7,32 -14,-10 -24,-19 -30,-27 -5,14 -20,28 -42,42 -4,-7 -6,-15 -8,-23 -7,-1 -13,-3 -17,-5 0,2 0,4 0,6 -19,0 -33,-4 -41,-10 -1,10 -6,21 -12,31 -10,-8 -17,-15 -22,-22 -11,-2 -19,-5 -24,-9 -2,10 -6,21 -13,31 -6,-5 -12,-10 -17,-15 -4,5 -10,10 -17,15 -6,-10 -11,-21 -12,-31 -7,6 -19,9 -35,10 -5,10 -13,19 -22,26 -11,-20 -18,-37 -19,-51 -5,10 -17,21 -33,32 -4,-10 -7,-21 -7,-32 -6,5 -15,8 -27,10 0,12 -3,25 -9,37 -21,-14 -37,-28 -42,-42 -5,8 -16,17 -29,27 -5,-10 -8,-21 -7,-32 -9,7 -24,11 -43,11 2,-10 5,-19 9,-27 z m 30,-212 c -7,-8 -15,-17 -23,-30 2,-1 4,-2 6,-3 -1,1 -1,2 -2,3 h 1 v 0 0 l 1,1 v 0 0 0 l 1,1 v 0 0 h 1 v 0 0 l 1,1 v 0 0 0 0 l 1,1 v 0 0 h 1 v 0 0 1 h 1 v 0 0 0 h 1 v 1 0 0 h 1 v 0 0 l 1,1 v 0 0 0 h 1 v 0 0 1 h 1 v 0 0 0 h 1 v 0 1 0 h 1 v 0 0 0 h 1 v 1 0 0 h 1 v 0 0 0 0 l 1,1 v 0 0 0 h 1 v 0 0 0 0 l 1,1 v 0 0 0 h 1 v 0 0 0 h 1 v 0 1 0 h 1 v 0 0 0 0 h 1 v 0 0 0 l 1,1 c -3,4 -5,10 -6,16 z"
   class="fil28" />
     <path
   style="fill:#5e7f21;stroke:#5e7f21;stroke-width:4.11419"
   inkscape:connector-curvature="0"
   id="path1523"
   d="m 3722,1103 h -1 v 1 z m 0,-119 h -1 v 0 z m -34,0 h -2 c 0,0 1,1 1,1 0,0 0,-1 1,-1 z m -59,0 h -2 c 0,0 1,1 1,1 0,0 1,-1 1,-1 z m -50,0 h -1 c 0,0 0,1 0,1 1,0 1,-1 1,-1 z m 109,119 h -2 c 0,1 1,1 1,2 0,-1 0,-1 1,-2 z m -59,0 h -2 c 0,1 1,1 1,2 0,-1 1,-1 1,-2 z m -50,0 h -1 c 0,1 0,1 0,2 1,-1 1,-1 1,-2 z m -269,-3 v 0 h -1 v 0 0 0 h -1 v 0 0 0 l -1,-1 v 0 0 0 h -1 v 0 0 0 h -1 v -1 0 0 h -1 v 0 0 h -1 v 0 0 -1 0 h -1 v 0 0 h -1 v 0 0 0 l -1,-1 v 0 0 h -1 v 0 0 0 h -1 v -1 0 0 h -1 v 0 0 l -1,-1 v 0 0 h -1 v 0 0 0 l -1,-1 v 0 0 h -1 v 0 0 -1 h -1 v 0 0 h -1 v 0 0 l -1,-1 v 0 0 0 h -1 v -1 0 h -1 v 0 0 l -1,-1 v 0 0 h -1 v 0 0 l -1,-1 v 0 0 h -1 v 0 -1 h -1 v 0 0 h -1 c 5,-8 10,-14 15,-19 -7,-3 -15,-7 -24,-13 11,-17 22,-27 33,-32 -11,-3 -23,-9 -38,-19 8,-13 17,-23 25,-31 v 0 1 h 1 v 0 0 h 1 v 0 0 1 h 1 v 0 0 h 1 v 0 0 l 1,1 v 0 0 0 h 1 v 0 1 0 h 1 v 0 0 h 1 v 0 0 0 l 1,1 v 0 0 h 1 v 0 0 0 0 l 1,1 v 0 0 h 1 v 0 0 0 h 1 v 0 1 0 h 1 v 0 0 0 h 1 v 0 0 0 l 1,1 v 0 0 0 h 1 v 0 c -4,7 -7,16 -9,26 19,0 34,-3 43,-10 -1,10 2,21 7,31 13,-9 24,-18 29,-27 5,14 21,28 42,43 6,-12 9,-25 9,-38 12,-1 21,-4 27,-9 0,10 3,21 7,31 16,-11 28,-21 33,-31 1,13 8,31 19,50 9,-7 17,-16 22,-26 16,0 28,-4 35,-10 1,11 6,22 12,31 7,-5 13,-10 17,-15 5,5 11,10 17,15 7,-9 11,-20 13,-31 5,5 13,8 24,9 5,8 12,15 22,22 6,-9 11,-20 12,-31 8,7 22,10 41,11 0,-3 0,-5 0,-7 4,3 10,4 17,5 2,8 4,16 8,24 22,-15 37,-29 42,-43 6,9 16,18 30,27 4,-10 7,-21 7,-31 9,7 23,10 42,10 -2,-10 -5,-19 -9,-26 v -1 0 h 1 v 0 0 0 h 1 v 0 0 h 1 v 0 -1 0 0 h 1 v 0 0 0 h 1 v 0 0 -1 h 1 v 0 0 0 h 1 v 0 0 h 1 v -1 0 0 0 h 1 v 0 0 h 1 v -1 0 0 h 1 v 0 0 0 h 1 v -1 0 0 h 1 v 0 0 h 1 v -1 0 0 h 1 v 0 0 0 l 1,-1 v 0 c 8,8 17,18 25,31 -15,10 -27,16 -38,19 11,5 22,15 33,32 -9,6 -17,10 -24,13 5,5 10,11 15,19 h -1 v 0 0 h -1 v 1 0 h -1 v 0 0 l -1,1 v 0 0 h -1 v 0 0 l -1,1 v 0 0 0 h -1 v 0 1 0 h -1 v 0 0 h -1 v 1 0 h -1 v 0 0 0 l -1,1 v 0 0 h -1 v 0 0 0 l -1,1 v 0 0 0 h -1 v 0 0 l -1,1 v 0 0 0 h -1 v 0 0 0 l -1,1 v 0 0 0 h -1 v 0 0 l -1,1 v 0 0 0 0 h -1 v 0 0 h -1 v 1 0 0 h -1 v 0 0 0 h -1 v 0 0 1 h -1 v 0 0 0 0 h -1 v 0 0 h -1 v 1 0 0 h -1 v 0 0 c 4,8 7,17 9,27 -19,0 -33,-4 -42,-11 0,11 -3,22 -7,32 -14,-10 -24,-19 -30,-27 -5,14 -20,28 -42,42 -4,-7 -6,-15 -8,-23 -7,-1 -13,-3 -17,-5 0,2 0,4 0,6 -19,0 -33,-4 -41,-10 -1,10 -6,21 -12,31 -10,-8 -17,-15 -22,-22 -11,-2 -19,-5 -24,-9 -2,10 -6,21 -13,31 -6,-5 -12,-10 -17,-15 -4,5 -10,10 -17,15 -6,-10 -11,-21 -12,-31 -7,6 -19,9 -35,10 -5,10 -13,19 -22,26 -11,-20 -18,-37 -19,-51 -5,10 -17,21 -33,32 -4,-10 -7,-21 -7,-32 -6,5 -15,8 -27,10 0,12 -3,25 -9,37 -21,-14 -37,-28 -42,-42 -5,8 -16,17 -29,27 -5,-10 -8,-21 -7,-32 -9,7 -24,11 -43,11 2,-10 5,-19 9,-27 z"
   class="fil29 str2" />
    </g>
    <g
   id="g1525">
     <path
   style="fill:#82ab36"
   inkscape:connector-curvature="0"
   id="path1527"
   d="m 4379,1170 h -1 l 1,1 z m -30,0 h -2 c 0,0 1,1 1,1 0,0 0,-1 1,-1 z m -54,0 h -1 c 0,0 0,1 1,1 0,0 0,-1 0,-1 z m -44,0 h -2 c 0,0 1,1 1,1 0,0 0,-1 1,-1 z m -244,-2 v -1 0 0 h -1 v 0 0 0 0 h -1 v 0 0 0 l -1,-1 v 0 0 0 0 h -1 v 0 0 0 h -1 v 0 -1 h -1 v 0 0 0 0 h -1 v 0 0 -1 h -1 v 0 0 0 h -1 v 0 0 0 l -1,-1 v 0 0 0 h -1 v 0 0 0 l -1,-1 v 0 0 0 h -1 v 0 0 l -1,-1 v 0 0 0 h -1 v 0 0 -1 h -1 v 0 0 0 h -1 v 0 -1 h -1 v 0 0 0 h -1 v -1 0 0 h -1 v 0 0 l -1,-1 v 0 0 0 h -1 v 0 -1 h -1 v 0 0 h -1 v 0 -1 h -1 c 5,-7 9,-12 13,-17 -6,-2 -13,-6 -21,-11 10,-16 20,-25 30,-29 -10,-3 -21,-9 -35,-17 14,-23 29,-35 43,-40 -10,-3 -22,-9 -35,-17 v 0 0 0 0 -1 0 0 0 0 0 0 0 0 0 0 0 0 0 0 0 0 0 0 0 h 1 v 0 0 -1 0 0 0 0 0 0 0 0 0 0 0 0 0 0 0 0 0 0 0 0 0 0 0 0 -1 0 0 0 0 0 0 0 0 0 h 1 v 0 0 c 19,-30 39,-42 58,-43 -8,-7 -15,-17 -23,-29 23,-15 42,-19 57,-17 -6,-6 -11,-13 -17,-23 21,-13 38,-17 51,-14 -8,-14 -14,-32 -19,-57 40,-8 67,-3 85,10 0,-10 0,-21 2,-34 21,2 38,8 49,15 6,-15 20,-33 42,-53 17,18 27,35 32,50 12,-6 26,-10 45,-12 1,15 2,28 1,38 17,-15 46,-23 91,-14 -5,25 -11,43 -19,57 13,-3 30,1 51,14 -2,3 -3,5 -4,7 18,-2 41,4 69,21 -16,25 -30,41 -44,49 15,4 31,16 46,40 -4,2 -8,4 -12,6 v 1 0 0 h -1 v 0 0 0 0 0 0 l -1,1 v 0 0 0 0 0 h -1 v 0 0 0 0 l -1,1 v 0 0 0 0 0 0 h -1 v 0 0 0 0 0 l -1,1 v 0 0 0 0 0 h -1 v 0 0 0 0 0 l -1,1 v 0 0 0 0 0 h -1 v 0 0 0 0 0 0 h -1 v 1 0 0 0 h -1 v 0 0 0 0 0 h -1 v 0 1 0 0 0 0 h -1 v 0 0 0 0 0 h -1 v 0 0 0 0 1 0 h -1 v 0 0 0 0 0 0 h -1 v 0 0 0 0 c 15,4 31,17 46,41 -14,8 -25,14 -35,17 10,4 20,13 30,29 -8,5 -15,9 -22,11 5,5 9,10 13,17 v 0 1 0 h -1 v 0 0 h -1 v 1 0 h -1 v 0 0 0 h -1 v 1 0 0 h -1 v 0 0 1 h -1 v 0 0 h -1 v 0 0 1 0 h -1 v 0 0 h -1 v 1 0 0 h -1 v 0 0 0 h -1 v 1 0 0 h -1 v 0 0 0 h -1 v 1 0 0 h -1 v 0 0 0 h -1 v 0 1 0 0 h -1 v 0 0 0 h -1 v 0 1 0 h -1 v 0 0 0 h -1 v 0 0 1 0 h -1 v 0 0 0 h -1 v 0 0 0 0 h -1 v 1 0 0 h -1 v 0 0 0 0 h -1 c 4,7 7,15 8,24 -16,0 -30,-3 -38,-9 1,9 -2,19 -6,28 -12,-8 -22,-16 -27,-24 -4,12 -18,25 -38,39 -3,-7 -5,-15 -7,-22 -6,-1 -11,-2 -16,-4 0,1 0,3 0,5 -16,0 -29,-3 -36,-9 -1,9 -5,19 -11,28 -9,-7 -16,-13 -20,-20 -10,-1 -17,-4 -22,-8 -2,9 -6,19 -11,28 -6,-5 -12,-9 -16,-14 -4,5 -9,9 -15,14 -6,-9 -10,-19 -11,-28 -7,5 -17,8 -32,9 -5,9 -12,17 -20,24 -10,-18 -16,-34 -17,-46 -4,9 -15,18 -29,28 -4,-9 -7,-19 -7,-28 -5,4 -14,7 -24,9 0,11 -3,23 -8,34 -20,-14 -34,-27 -38,-39 -5,8 -15,16 -27,24 -4,-9 -7,-19 -6,-28 -8,6 -22,9 -38,9 1,-9 4,-17 7,-23 z"
   class="fil27" />
     <path
   style="fill:#729a28"
   inkscape:connector-curvature="0"
   id="path1529"
   d="m 4379,1170 h -1 l 1,1 z m -15,-207 h -1 l 1,1 z m -27,0 h -1 c 0,1 0,1 1,2 0,-1 0,-1 0,-2 z m -46,0 h -2 c 1,1 1,1 1,2 0,-1 1,-1 1,-2 z m -39,0 h -2 c 1,1 1,1 1,2 0,-1 1,-1 1,-2 z m 97,207 h -2 c 0,0 1,1 1,1 0,0 0,-1 1,-1 z m -54,0 h -1 c 0,0 0,1 1,1 0,0 0,-1 0,-1 z m -44,0 h -2 c 0,0 1,1 1,1 0,0 0,-1 1,-1 z m -244,-2 v -1 0 0 h -1 v 0 0 0 0 h -1 v 0 0 0 l -1,-1 v 0 0 0 0 h -1 v 0 0 0 h -1 v 0 -1 h -1 v 0 0 0 0 h -1 v 0 0 -1 h -1 v 0 0 0 h -1 v 0 0 0 l -1,-1 v 0 0 0 h -1 v 0 0 0 l -1,-1 v 0 0 0 h -1 v 0 0 l -1,-1 v 0 0 0 h -1 v 0 0 -1 h -1 v 0 0 0 h -1 v 0 -1 h -1 v 0 0 0 h -1 v -1 0 0 h -1 v 0 0 l -1,-1 v 0 0 0 h -1 v 0 -1 h -1 v 0 0 h -1 v 0 -1 h -1 c 5,-7 9,-12 13,-17 -6,-2 -13,-6 -21,-11 10,-16 20,-25 30,-29 -10,-3 -21,-9 -35,-17 14,-23 29,-35 43,-40 -10,-3 -22,-9 -35,-17 v 0 0 0 0 -1 0 0 0 0 0 0 0 0 0 0 0 0 0 0 0 0 0 0 0 h 1 v 0 0 -1 0 0 0 0 0 0 0 0 0 0 0 0 0 0 0 0 0 0 0 0 0 0 0 0 -1 0 0 0 0 0 0 0 0 0 h 1 v 0 0 c 18,-28 37,-41 55,-43 -1,2 -1,4 -1,7 14,0 26,-4 33,-10 0,10 2,20 5,29 11,-9 19,-17 24,-25 4,13 16,26 33,39 4,-11 7,-23 7,-34 9,-1 16,-4 21,-9 0,10 2,20 6,29 13,-10 22,-20 26,-29 0,13 6,28 14,46 8,-7 14,-15 18,-23 12,-1 22,-4 28,-10 1,10 4,20 9,29 6,-5 10,-10 14,-14 3,4 8,9 13,14 5,-9 9,-19 10,-29 4,4 10,7 19,9 4,6 10,13 17,20 5,-9 9,-19 10,-29 6,6 17,9 32,10 0,-2 0,-4 0,-6 4,2 8,4 14,5 1,7 3,14 6,21 17,-13 29,-26 33,-39 4,8 13,16 23,25 4,-9 6,-19 6,-29 7,6 19,10 33,10 -1,-9 -3,-18 -7,-24 v -1 0 h 1 v 0 0 0 h 1 v 0 0 0 0 0 l 1,-1 v 0 0 0 0 h 1 v 0 0 0 0 h 1 v -1 0 0 0 h 1 v 0 0 0 0 l 1,-1 v 0 0 0 0 h 1 v 0 0 0 l 1,-1 v 0 0 0 0 h 1 v 0 0 0 -1 h 1 v 0 0 0 h 1 v 0 0 -1 0 h 1 v 0 0 0 l 1,-1 v 0 0 0 0 h 1 v 0 0 -1 h 1 v 0 0 0 0 l 1,-1 v 0 0 0 h 1 v 0 -1 0 h 1 v 0 0 0 l 1,-1 v 0 0 0 0 h 1 v -1 c -4,-6 -7,-12 -11,-17 4,-2 9,-4 14,-8 8,4 17,8 26,14 -16,25 -30,41 -44,49 15,4 31,16 46,40 -4,2 -8,4 -12,6 v 1 0 0 h -1 v 0 0 0 0 0 0 l -1,1 v 0 0 0 0 0 h -1 v 0 0 0 0 l -1,1 v 0 0 0 0 0 0 h -1 v 0 0 0 0 0 l -1,1 v 0 0 0 0 0 h -1 v 0 0 0 0 0 l -1,1 v 0 0 0 0 0 h -1 v 0 0 0 0 0 0 h -1 v 1 0 0 0 h -1 v 0 0 0 0 0 h -1 v 0 1 0 0 0 0 h -1 v 0 0 0 0 0 h -1 v 0 0 0 0 1 0 h -1 v 0 0 0 0 0 0 h -1 v 0 0 0 0 c 15,4 31,17 46,41 -14,8 -25,14 -35,17 10,4 20,13 30,29 -8,5 -15,9 -22,11 5,5 9,10 13,17 v 0 1 0 h -1 v 0 0 h -1 v 1 0 h -1 v 0 0 0 h -1 v 1 0 0 h -1 v 0 0 1 h -1 v 0 0 h -1 v 0 0 1 0 h -1 v 0 0 h -1 v 1 0 0 h -1 v 0 0 0 h -1 v 1 0 0 h -1 v 0 0 0 h -1 v 1 0 0 h -1 v 0 0 0 h -1 v 0 1 0 0 h -1 v 0 0 0 h -1 v 0 1 0 h -1 v 0 0 0 h -1 v 0 0 1 0 h -1 v 0 0 0 h -1 v 0 0 0 0 h -1 v 1 0 0 h -1 v 0 0 0 0 h -1 c 4,7 7,15 8,24 -16,0 -30,-3 -38,-9 1,9 -2,19 -6,28 -12,-8 -22,-16 -27,-24 -4,12 -18,25 -38,39 -3,-7 -5,-15 -7,-22 -6,-1 -11,-2 -16,-4 0,1 0,3 0,5 -16,0 -29,-3 -36,-9 -1,9 -5,19 -11,28 -9,-7 -16,-13 -20,-20 -10,-1 -17,-4 -22,-8 -2,9 -6,19 -11,28 -6,-5 -12,-9 -16,-14 -4,5 -9,9 -15,14 -6,-9 -10,-19 -11,-28 -7,5 -17,8 -32,9 -5,9 -12,17 -20,24 -10,-18 -16,-34 -17,-46 -4,9 -15,18 -29,28 -4,-9 -7,-19 -7,-28 -5,4 -14,7 -24,9 0,11 -3,23 -8,34 -20,-14 -34,-27 -38,-39 -5,8 -15,16 -27,24 -4,-9 -7,-19 -6,-28 -8,6 -22,9 -38,9 1,-9 4,-17 7,-23 z m 27,-192 c -6,-7 -13,-16 -20,-27 2,-1 3,-2 5,-3 0,1 -1,2 -1,2 v 1 0 0 h 1 v 0 0 l 1,1 v 0 0 0 l 1,1 v 0 0 0 h 1 v 0 0 1 h 1 v 0 0 0 h 1 v 1 0 0 0 h 1 v 0 0 l 1,1 v 0 0 0 0 h 1 v 1 0 0 h 1 v 0 0 0 0 l 1,1 v 0 0 0 h 1 v 0 0 1 0 h 1 v 0 0 0 h 1 v 0 0 1 0 h 1 v 0 0 0 h 1 v 0 0 1 0 h 1 v 0 0 0 h 1 v 0 0 0 1 0 h 1 v 0 0 0 0 h 1 v 0 0 0 l 1,1 v 0 0 0 0 h 1 c -3,4 -4,9 -6,15 z"
   class="fil28" />
     <path
   style="fill:#5e7f21"
   inkscape:connector-curvature="0"
   id="path1531"
   d="m 4379,1170 h -1 l 1,1 z m 0,-108 h -1 l 1,1 z m -30,0 h -2 c 0,1 1,1 1,2 0,-1 0,-1 1,-2 z m -54,0 h -1 c 0,1 0,1 1,2 0,-1 0,-1 0,-2 z m -44,0 h -2 c 0,1 1,1 1,2 0,-1 0,-1 1,-2 z m 98,108 h -2 c 0,0 1,1 1,1 0,0 0,-1 1,-1 z m -54,0 h -1 c 0,0 0,1 1,1 0,0 0,-1 0,-1 z m -44,0 h -2 c 0,0 1,1 1,1 0,0 0,-1 1,-1 z m -244,-2 v -1 0 0 h -1 v 0 0 0 0 h -1 v 0 0 0 l -1,-1 v 0 0 0 0 h -1 v 0 0 0 h -1 v 0 -1 h -1 v 0 0 0 0 h -1 v 0 0 -1 h -1 v 0 0 0 h -1 v 0 0 0 l -1,-1 v 0 0 0 h -1 v 0 0 0 l -1,-1 v 0 0 0 h -1 v 0 0 l -1,-1 v 0 0 0 h -1 v 0 0 -1 h -1 v 0 0 0 h -1 v 0 -1 h -1 v 0 0 0 h -1 v -1 0 0 h -1 v 0 0 l -1,-1 v 0 0 0 h -1 v 0 -1 h -1 v 0 0 h -1 v 0 -1 h -1 c 5,-7 9,-12 13,-17 -6,-2 -13,-6 -21,-11 10,-16 20,-25 30,-29 -10,-3 -21,-9 -35,-17 8,-12 15,-22 23,-28 v 0 0 h 1 v 0 0 1 h 1 v 0 0 h 1 v 0 0 1 h 1 v 0 0 0 h 1 v 0 0 1 h 1 v 0 0 0 h 1 v 0 0 0 l 1,1 v 0 0 0 h 1 v 0 0 0 0 l 1,1 v 0 0 h 1 v 0 0 0 h 1 v 0 0 1 0 h 1 v 0 0 0 h 1 v 0 0 0 0 h 1 v 1 0 0 c -3,6 -6,14 -7,24 16,-1 30,-4 38,-10 -1,10 2,19 6,28 12,-8 22,-16 27,-24 4,13 18,25 38,39 5,-11 8,-23 8,-34 10,-2 19,-5 24,-9 0,10 3,19 7,28 14,-9 25,-19 29,-28 1,12 7,28 17,46 8,-7 15,-15 20,-24 15,0 25,-4 32,-9 1,9 5,19 11,28 6,-4 11,-9 15,-14 4,5 10,10 16,14 5,-9 9,-19 11,-28 5,4 12,7 22,8 4,7 11,13 20,20 6,-9 10,-19 11,-28 7,6 20,9 36,9 0,-2 0,-3 0,-5 5,2 10,3 16,4 2,8 4,15 7,22 20,-14 34,-26 38,-39 5,8 15,16 27,24 4,-9 7,-18 6,-28 8,6 22,9 38,10 -1,-10 -4,-18 -8,-25 h 1 v 0 0 0 0 h 1 v 0 0 0 l 1,-1 v 0 0 0 0 h 1 v 0 0 0 h 1 v 0 0 -1 0 h 1 v 0 0 0 h 1 v 0 0 0 l 1,-1 v 0 0 0 h 1 v 0 0 0 0 l 1,-1 v 0 0 0 h 1 v 0 0 0 l 1,-1 v 0 0 0 h 1 v 0 0 -1 h 1 v 0 0 0 h 1 v 0 c 7,6 15,16 23,28 -14,8 -25,14 -35,17 10,4 20,13 30,29 -8,5 -15,9 -22,11 5,5 9,10 13,17 v 0 1 0 h -1 v 0 0 h -1 v 1 0 h -1 v 0 0 0 h -1 v 1 0 0 h -1 v 0 0 1 h -1 v 0 0 h -1 v 0 0 1 0 h -1 v 0 0 h -1 v 1 0 0 h -1 v 0 0 0 h -1 v 1 0 0 h -1 v 0 0 0 h -1 v 1 0 0 h -1 v 0 0 0 h -1 v 0 1 0 0 h -1 v 0 0 0 h -1 v 0 1 0 h -1 v 0 0 0 h -1 v 0 0 1 0 h -1 v 0 0 0 h -1 v 0 0 0 0 h -1 v 1 0 0 h -1 v 0 0 0 0 h -1 c 4,7 7,15 8,24 -16,0 -30,-3 -38,-9 1,9 -2,19 -6,28 -12,-8 -22,-16 -27,-24 -4,12 -18,25 -38,39 -3,-7 -5,-15 -7,-22 -6,-1 -11,-2 -16,-4 0,1 0,3 0,5 -16,0 -29,-3 -36,-9 -1,9 -5,19 -11,28 -9,-7 -16,-13 -20,-20 -10,-1 -17,-4 -22,-8 -2,9 -6,19 -11,28 -6,-5 -12,-9 -16,-14 -4,5 -9,9 -15,14 -6,-9 -10,-19 -11,-28 -7,5 -17,8 -32,9 -5,9 -12,17 -20,24 -10,-18 -16,-34 -17,-46 -4,9 -15,18 -29,28 -4,-9 -7,-19 -7,-28 -5,4 -14,7 -24,9 0,11 -3,23 -8,34 -20,-14 -34,-27 -38,-39 -5,8 -15,16 -27,24 -4,-9 -7,-19 -6,-28 -8,6 -22,9 -38,9 1,-9 4,-17 7,-23 z"
   class="fil29" />
    </g>
    <g
   id="g1533">
     <path
   style="fill:#99ce40"
   inkscape:connector-curvature="0"
   id="path1535"
   d="m 4100,1102 h -1 l 1,1 z m -40,0 h -2 c 0,1 1,2 1,2 0,0 1,-1 1,-2 z m -70,0 h -2 c 0,1 1,2 1,2 1,0 1,-1 1,-2 z m -59,0 h -2 c 1,1 1,2 1,2 1,0 1,-1 1,-2 z m -320,-3 v 0 0 h -1 v 0 0 -1 h -1 v 0 0 h -1 v 0 0 h -1 v 0 -1 h -1 v 0 0 h -1 v 0 0 l -1,-1 v 0 0 0 0 h -1 v 0 0 l -1,-1 v 0 0 h -1 v 0 0 h -1 v -1 0 h -1 v 0 0 h -1 v -1 0 h -1 v 0 0 h -1 v -1 0 h -1 v 0 0 h -1 v -1 0 h -1 v 0 h -1 v -1 0 h -1 v 0 0 h -1 v -1 0 h -1 v 0 0 l -1,-1 v 0 h -1 v 0 -1 h -1 v 0 h -1 v 0 -1 h -1 v 0 0 l -1,-1 v 0 0 h -1 v 0 l -1,-1 v 0 0 h -1 v -1 0 h -1 -1 c 6,-9 12,-17 18,-23 -9,-3 -18,-8 -28,-14 13,-21 26,-33 39,-39 -13,-4 -28,-11 -46,-22 18,-30 38,-46 56,-52 -13,-5 -28,-12 -46,-23 v 0 0 0 0 0 0 -1 0 0 0 h 1 v 0 0 0 0 0 0 0 0 0 0 0 0 0 -1 0 0 0 0 0 0 0 0 0 0 0 0 0 h 1 v 0 0 0 -1 0 0 0 0 0 0 0 0 0 0 0 0 0 0 0 0 0 -1 0 0 0 0 c 26,-39 52,-55 77,-57 -10,-9 -19,-21 -30,-38 30,-19 55,-25 75,-22 -7,-7 -15,-17 -22,-29 27,-18 49,-23 67,-20 -11,-17 -19,-42 -25,-74 52,-10 88,-4 112,12 -1,-12 0,-27 2,-44 28,3 49,10 65,20 8,-20 26,-43 55,-70 22,24 36,46 42,66 15,-8 34,-13 59,-16 2,20 2,37 1,51 23,-21 61,-31 119,-19 -6,32 -14,57 -24,74 17,-3 40,2 67,20 -2,3 -4,5 -6,8 25,-3 55,5 92,28 -21,33 -39,54 -58,64 20,5 40,21 60,53 -5,3 -10,6 -15,8 l -1,1 v 0 0 0 0 h -1 v 0 0 1 0 h -1 v 0 0 0 h -1 v 0 1 0 h -1 v 0 0 0 0 0 h -1 v 0 1 0 h -1 v 0 0 0 h -1 v 0 1 0 0 h -1 v 0 0 0 0 h -1 v 0 1 0 0 h -1 v 0 0 0 0 h -1 v 0 1 0 0 h -1 v 0 0 0 h -1 v 0 0 1 h -1 v 0 0 0 0 h -1 v 0 0 0 0 l -1,1 v 0 0 0 0 h -1 v 0 0 0 0 h -1 v 0 1 0 0 h -1 v 0 0 0 0 h -1 v 0 0 0 1 h -1 v 0 c 20,5 41,21 60,53 -17,11 -32,18 -45,22 13,6 26,18 39,39 -11,6 -20,11 -28,14 6,6 11,14 17,23 h -1 v 0 0 l -1,1 v 0 0 h -1 v 1 0 h -1 v 0 0 l -1,1 v 0 0 h -1 v 0 l -1,1 v 0 0 h -1 v 1 0 h -1 v 0 0 h -1 v 1 0 h -1 v 0 0 l -1,1 v 0 0 h -1 v 0 0 l -1,1 v 0 0 h -1 v 0 0 l -1,1 v 0 0 h -1 v 0 0 l -1,1 v 0 0 h -1 v 0 0 l -1,1 v 0 0 h -1 v 0 0 l -1,1 v 0 0 0 h -1 v 0 0 h -1 v 1 0 0 h -1 v 0 0 h -1 v 0 1 h -1 v 0 0 h -1 v 0 0 0 h -1 v 1 0 0 h -1 v 0 0 h -1 v 0 0 l -1,1 c 6,9 9,19 11,31 -22,0 -39,-4 -50,-12 0,12 -3,25 -8,37 -17,-11 -29,-21 -36,-32 -6,17 -24,33 -50,51 -4,-9 -7,-19 -9,-28 -8,-1 -15,-3 -21,-6 0,2 0,5 0,7 -21,0 -38,-4 -48,-12 -1,12 -7,25 -14,37 -12,-9 -21,-17 -27,-26 -12,-2 -22,-6 -28,-11 -2,12 -8,25 -15,37 -8,-6 -15,-12 -20,-18 -6,6 -13,12 -20,18 -8,-12 -13,-25 -15,-37 -9,7 -23,11 -41,12 -7,12 -16,22 -27,31 -13,-23 -22,-44 -22,-60 -6,12 -20,24 -39,37 -6,-12 -9,-25 -8,-37 -8,6 -19,9 -33,11 0,15 -3,31 -10,45 -26,-18 -44,-34 -50,-51 -7,11 -19,21 -35,32 -6,-12 -9,-25 -9,-37 -10,8 -28,12 -50,12 2,-12 5,-22 10,-31 z"
   class="fil30" />
     <path
   style="fill:#8abd31"
   inkscape:connector-curvature="0"
   id="path1537"
   d="m 4100,1102 h -1 l 1,1 z m -20,-271 h -1 z m -35,0 h -2 c 1,0 1,1 1,1 1,0 1,-1 1,-1 z m -61,0 h -2 c 1,0 1,1 1,1 1,0 1,-1 1,-1 z m -51,0 h -2 c 0,0 1,1 1,1 0,0 0,-1 1,-1 z m 127,271 h -2 c 0,1 1,2 1,2 0,0 1,-1 1,-2 z m -70,0 h -2 c 0,1 1,2 1,2 1,0 1,-1 1,-2 z m -59,0 h -2 c 1,1 1,2 1,2 1,0 1,-1 1,-2 z m -320,-3 v 0 0 h -1 v 0 0 -1 h -1 v 0 0 h -1 v 0 0 h -1 v 0 -1 h -1 v 0 0 h -1 v 0 0 l -1,-1 v 0 0 0 0 h -1 v 0 0 l -1,-1 v 0 0 h -1 v 0 0 h -1 v -1 0 h -1 v 0 0 h -1 v -1 0 h -1 v 0 0 h -1 v -1 0 h -1 v 0 0 h -1 v -1 0 h -1 v 0 h -1 v -1 0 h -1 v 0 0 h -1 v -1 0 h -1 v 0 0 l -1,-1 v 0 h -1 v 0 -1 h -1 v 0 h -1 v 0 -1 h -1 v 0 0 l -1,-1 v 0 0 h -1 v 0 l -1,-1 v 0 0 h -1 v -1 0 h -1 -1 c 6,-9 12,-17 18,-23 -9,-3 -18,-8 -28,-14 13,-21 26,-33 39,-39 -13,-4 -28,-11 -46,-22 18,-30 38,-46 56,-52 -13,-5 -28,-12 -46,-23 v 0 0 0 0 0 0 -1 0 0 0 h 1 v 0 0 0 0 0 0 0 0 0 0 0 0 0 -1 0 0 0 0 0 0 0 0 0 0 0 0 0 h 1 v 0 0 0 -1 0 0 0 0 0 0 0 0 0 0 0 0 0 0 0 0 0 -1 0 0 0 0 c 24,-37 50,-54 73,-56 0,3 -1,6 -1,9 19,-1 34,-5 43,-13 0,13 3,26 8,37 14,-11 25,-21 31,-32 5,17 21,34 43,51 6,-14 9,-30 9,-45 12,-1 22,-5 28,-11 0,13 3,26 8,37 16,-12 28,-25 33,-37 1,16 8,37 20,60 9,-8 17,-19 23,-31 16,-1 29,-5 36,-12 2,13 6,26 13,37 7,-6 13,-12 18,-18 4,6 10,12 17,18 7,-11 11,-24 13,-37 6,6 14,9 25,11 5,9 13,17 23,26 7,-11 11,-24 13,-37 8,8 23,12 42,13 0,-3 0,-5 0,-8 5,3 11,5 18,6 2,10 4,19 8,28 22,-17 38,-34 43,-51 6,11 17,21 31,32 5,-11 8,-24 8,-37 9,8 24,12 43,13 -1,-13 -4,-23 -9,-32 v 0 h 1 v 0 -1 0 h 1 v 0 0 0 h 1 v 0 0 -1 h 1 v 0 0 0 h 1 v 0 0 l 1,-1 v 0 0 0 0 h 1 v 0 0 l 1,-1 v 0 0 0 h 1 v 0 0 l 1,-1 v 0 0 0 0 h 1 v -1 0 h 1 v 0 0 h 1 v 0 -1 0 h 1 v 0 0 0 l 1,-1 v 0 0 h 1 v 0 0 -1 h 1 v 0 0 l 1,-1 v 0 0 h 1 v 0 0 l 1,-1 v 0 0 0 h 1 v -1 0 0 h 1 v 0 -1 h 1 v 0 0 h 1 v -1 0 h 1 v 0 0 l 1,-1 v 0 0 h 1 v -1 0 h 1 c -5,-9 -10,-17 -15,-23 5,-2 11,-6 18,-10 11,4 23,11 35,18 -21,33 -39,54 -58,64 20,5 40,21 60,53 -5,3 -10,6 -15,8 l -1,1 v 0 0 0 0 h -1 v 0 0 1 0 h -1 v 0 0 0 h -1 v 0 1 0 h -1 v 0 0 0 0 0 h -1 v 0 1 0 h -1 v 0 0 0 h -1 v 0 1 0 0 h -1 v 0 0 0 0 h -1 v 0 1 0 0 h -1 v 0 0 0 0 h -1 v 0 1 0 0 h -1 v 0 0 0 h -1 v 0 0 1 h -1 v 0 0 0 0 h -1 v 0 0 0 0 l -1,1 v 0 0 0 0 h -1 v 0 0 0 0 h -1 v 0 1 0 0 h -1 v 0 0 0 0 h -1 v 0 0 0 1 h -1 v 0 c 20,5 41,21 60,53 -17,11 -32,18 -45,22 13,6 26,18 39,39 -11,6 -20,11 -28,14 6,6 11,14 17,23 h -1 v 0 0 l -1,1 v 0 0 h -1 v 1 0 h -1 v 0 0 l -1,1 v 0 0 h -1 v 0 l -1,1 v 0 0 h -1 v 1 0 h -1 v 0 0 h -1 v 1 0 h -1 v 0 0 l -1,1 v 0 0 h -1 v 0 0 l -1,1 v 0 0 h -1 v 0 0 l -1,1 v 0 0 h -1 v 0 0 l -1,1 v 0 0 h -1 v 0 0 l -1,1 v 0 0 h -1 v 0 0 l -1,1 v 0 0 0 h -1 v 0 0 h -1 v 1 0 0 h -1 v 0 0 h -1 v 0 1 h -1 v 0 0 h -1 v 0 0 0 h -1 v 1 0 0 h -1 v 0 0 h -1 v 0 0 l -1,1 c 6,9 9,19 11,31 -22,0 -39,-4 -50,-12 0,12 -3,25 -8,37 -17,-11 -29,-21 -36,-32 -6,17 -24,33 -50,51 -4,-9 -7,-19 -9,-28 -8,-1 -15,-3 -21,-6 0,2 0,5 0,7 -21,0 -38,-4 -48,-12 -1,12 -7,25 -14,37 -12,-9 -21,-17 -27,-26 -12,-2 -22,-6 -28,-11 -2,12 -8,25 -15,37 -8,-6 -15,-12 -20,-18 -6,6 -13,12 -20,18 -8,-12 -13,-25 -15,-37 -9,7 -23,11 -41,12 -7,12 -16,22 -27,31 -13,-23 -22,-44 -22,-60 -6,12 -20,24 -39,37 -6,-12 -9,-25 -8,-37 -8,6 -19,9 -33,11 0,15 -3,31 -10,45 -26,-18 -44,-34 -50,-51 -7,11 -19,21 -35,32 -6,-12 -9,-25 -9,-37 -10,8 -28,12 -50,12 2,-12 5,-22 10,-31 z m 36,-252 c -9,-9 -17,-21 -27,-36 2,-1 5,-2 7,-3 -1,1 -2,2 -2,3 v 0 l 1,1 v 0 0 h 1 v 0 1 h 1 v 0 0 l 1,1 v 0 0 h 1 v 0 1 h 1 v 0 0 l 1,1 v 0 0 h 1 v 0 1 h 1 v 0 0 h 1 v 0 1 0 h 1 v 0 1 h 1 v 0 0 h 1 v 0 1 0 h 1 v 0 0 l 1,1 v 0 0 h 1 v 0 0 l 1,1 v 0 0 0 h 1 v 0 1 0 h 1 v 0 0 h 1 v 0 0 1 h 1 v 0 0 h 1 v 0 0 l 1,1 v 0 0 0 0 h 1 v 0 0 l 1,1 v 0 0 0 h 1 v 0 0 h 1 v 0 1 0 0 h 1 v 0 0 h 1 c -3,6 -6,12 -7,20 z"
   class="fil31" />
     <path
   style="fill:#76a22a"
   inkscape:connector-curvature="0"
   id="path1539"
   d="m 4100,1102 h -1 l 1,1 z m 0,-142 h -1 l 1,1 z m -40,0 h -2 c 0,1 1,2 1,2 0,0 1,-1 1,-2 z m -70,0 h -2 c 0,1 1,2 1,2 1,0 1,-1 1,-2 z m -59,0 h -2 c 1,1 1,2 1,2 1,0 1,-1 1,-2 z m 129,142 h -2 c 0,1 1,2 1,2 0,0 1,-1 1,-2 z m -70,0 h -2 c 0,1 1,2 1,2 1,0 1,-1 1,-2 z m -59,0 h -2 c 1,1 1,2 1,2 1,0 1,-1 1,-2 z m -320,-3 v 0 0 h -1 v 0 0 -1 h -1 v 0 0 h -1 v 0 0 h -1 v 0 -1 h -1 v 0 0 h -1 v 0 0 l -1,-1 v 0 0 0 0 h -1 v 0 0 l -1,-1 v 0 0 h -1 v 0 0 h -1 v -1 0 h -1 v 0 0 h -1 v -1 0 h -1 v 0 0 h -1 v -1 0 h -1 v 0 0 h -1 v -1 0 h -1 v 0 h -1 v -1 0 h -1 v 0 0 h -1 v -1 0 h -1 v 0 0 l -1,-1 v 0 h -1 v 0 -1 h -1 v 0 h -1 v 0 -1 h -1 v 0 0 l -1,-1 v 0 0 h -1 v 0 l -1,-1 v 0 0 h -1 v -1 0 h -1 -1 c 6,-9 12,-17 18,-23 -9,-3 -18,-8 -28,-14 13,-21 26,-33 39,-39 -13,-4 -28,-11 -46,-22 10,-16 20,-28 30,-37 v 0 h 1 v 1 0 h 1 v 0 h 1 v 1 0 h 1 v 0 0 h 1 v 1 0 h 1 v 0 0 h 1 v 1 0 h 1 v 0 0 h 1 v 0 1 h 1 v 0 0 h 1 v 0 1 h 1 v 0 0 h 1 v 0 0 1 0 h 1 v 0 0 h 1 v 0 0 l 1,1 v 0 0 h 1 v 0 0 h 1 v 0 0 l 1,1 v 0 0 0 h 1 v 0 0 c -5,9 -8,20 -10,32 22,-1 40,-5 50,-13 0,13 3,26 9,37 16,-11 28,-21 35,-32 6,17 24,34 50,51 7,-14 10,-30 10,-45 14,-1 25,-5 33,-11 -1,13 2,26 8,37 19,-13 33,-25 39,-37 0,16 9,37 22,60 11,-8 20,-19 27,-31 18,-1 32,-5 41,-12 2,13 7,26 15,37 7,-6 14,-12 20,-18 5,6 12,12 20,18 7,-11 13,-24 15,-37 6,6 16,9 28,11 6,9 15,17 27,26 7,-11 13,-24 14,-37 10,8 27,12 48,13 0,-3 0,-6 0,-8 6,3 13,5 21,6 2,10 5,19 9,28 26,-17 44,-34 50,-51 7,11 19,21 36,32 5,-11 8,-24 8,-37 11,8 28,12 50,13 -2,-13 -5,-23 -11,-32 h 1 v 0 -1 h 1 v 0 0 h 1 v 0 0 0 h 1 v -1 0 0 h 1 v 0 0 h 1 v 0 0 l 1,-1 v 0 0 h 1 v 0 0 0 l 1,-1 v 0 0 h 1 v 0 0 0 l 1,-1 v 0 0 h 1 v 0 0 h 1 v -1 0 h 1 v 0 0 h 1 v -1 0 h 1 v 0 0 h 1 v -1 0 h 1 v 0 0 h 1 v -1 0 0 c 10,9 20,21 30,37 -17,11 -32,18 -45,22 13,6 26,18 39,39 -11,6 -20,11 -28,14 6,6 11,14 17,23 h -1 v 0 0 l -1,1 v 0 0 h -1 v 1 0 h -1 v 0 0 l -1,1 v 0 0 h -1 v 0 l -1,1 v 0 0 h -1 v 1 0 h -1 v 0 0 h -1 v 1 0 h -1 v 0 0 l -1,1 v 0 0 h -1 v 0 0 l -1,1 v 0 0 h -1 v 0 0 l -1,1 v 0 0 h -1 v 0 0 l -1,1 v 0 0 h -1 v 0 0 l -1,1 v 0 0 h -1 v 0 0 l -1,1 v 0 0 0 h -1 v 0 0 h -1 v 1 0 0 h -1 v 0 0 h -1 v 0 1 h -1 v 0 0 h -1 v 0 0 0 h -1 v 1 0 0 h -1 v 0 0 h -1 v 0 0 l -1,1 c 6,9 9,19 11,31 -22,0 -39,-4 -50,-12 0,12 -3,25 -8,37 -17,-11 -29,-21 -36,-32 -6,17 -24,33 -50,51 -4,-9 -7,-19 -9,-28 -8,-1 -15,-3 -21,-6 0,2 0,5 0,7 -21,0 -38,-4 -48,-12 -1,12 -7,25 -14,37 -12,-9 -21,-17 -27,-26 -12,-2 -22,-6 -28,-11 -2,12 -8,25 -15,37 -8,-6 -15,-12 -20,-18 -6,6 -13,12 -20,18 -8,-12 -13,-25 -15,-37 -9,7 -23,11 -41,12 -7,12 -16,22 -27,31 -13,-23 -22,-44 -22,-60 -6,12 -20,24 -39,37 -6,-12 -9,-25 -8,-37 -8,6 -19,9 -33,11 0,15 -3,31 -10,45 -26,-18 -44,-34 -50,-51 -7,11 -19,21 -35,32 -6,-12 -9,-25 -9,-37 -10,8 -28,12 -50,12 2,-12 5,-22 10,-31 z"
   class="fil32" />
    </g>
   </g>
   
   
   
   
   
   
   
   
   
  </g>
</svg>
