<?xml version="1.0" encoding="UTF-8" standalone="no"?>
<!-- Creator: CorelDRAW X6 -->

<svg
   xml:space="preserve"
   width="1024"
   height="1024"
   version="1.1"
   style="clip-rule:evenodd;fill-rule:evenodd;image-rendering:optimizeQuality;shape-rendering:geometricPrecision;text-rendering:geometricPrecision"
   viewBox="0 0 14628.231 14627.516"
   id="svg2"
   inkscape:version="1.1.2 (0a00cf5339, 2022-02-04)"
   sodipodi:docname="tree_02.svg"
   xmlns:inkscape="http://www.inkscape.org/namespaces/inkscape"
   xmlns:sodipodi="http://sodipodi.sourceforge.net/DTD/sodipodi-0.dtd"
   xmlns:xlink="http://www.w3.org/1999/xlink"
   xmlns="http://www.w3.org/2000/svg"
   xmlns:svg="http://www.w3.org/2000/svg"
   xmlns:rdf="http://www.w3.org/1999/02/22-rdf-syntax-ns#"
   xmlns:cc="http://creativecommons.org/ns#"
   xmlns:dc="http://purl.org/dc/elements/1.1/"><metadata
   id="metadata2608"><rdf:RDF><cc:Work
       rdf:about=""><dc:format>image/svg+xml</dc:format><dc:type
         rdf:resource="http://purl.org/dc/dcmitype/StillImage" /></cc:Work></rdf:RDF></metadata><sodipodi:namedview
   pagecolor="#ffffff"
   bordercolor="#666666"
   borderopacity="1"
   objecttolerance="10"
   gridtolerance="10"
   guidetolerance="10"
   inkscape:pageopacity="0"
   inkscape:pageshadow="2"
   inkscape:window-width="1920"
   inkscape:window-height="1007"
   id="namedview2606"
   showgrid="false"
   inkscape:zoom="0.55750864"
   inkscape:cx="381.16001"
   inkscape:cy="426.89921"
   inkscape:window-x="0"
   inkscape:window-y="0"
   inkscape:window-maximized="1"
   inkscape:current-layer="_931599168"
   inkscape:pagecheckerboard="1"
   inkscape:document-units="mm"
   units="px"
   width="1024px" />
 <defs
   id="defs4">
  <style
   type="text/css"
   id="style6">
   
    .str2 {stroke:#5E7F21;stroke-width:4.11419}
    .str3 {stroke:#747F20;stroke-width:4.11419}
    .str1 {stroke:#945E36;stroke-width:10.7984}
    .str0 {stroke:#633E25;stroke-width:18.6056}
    .fil16 {fill:none}
    .fil22 {fill:black}
    .fil67 {fill:#29C14F}
    .fil24 {fill:#331F0E}
    .fil66 {fill:#37D561}
    .fil15 {fill:#3B9CFB}
    .fil25 {fill:#4A661C}
    .fil33 {fill:#5B661B}
    .fil9 {fill:#5E3518}
    .fil29 {fill:#5E7F21}
    .fil3 {fill:#63391B}
    .fil21 {fill:#633E25}
    .fil65 {fill:#66E186}
    .fil8 {fill:#693C1C}
    .fil70 {fill:#69DF89}
    .fil61 {fill:#6B3E1F}
    .fil5 {fill:#6FA124}
    .fil28 {fill:#729A28}
    .fil36 {fill:#747F20}
    .fil32 {fill:#76A22A}
    .fil19 {fill:#7A4D2E}
    .fil0 {fill:#7B4720}
    .fil69 {fill:#80E49A}
    .fil27 {fill:#82AB36}
    .fil11 {fill:#82D2FF}
    .fil31 {fill:#8ABD31}
    .fil42 {fill:#8CA22A}
    .fil35 {fill:#8D9A27}
    .fil64 {fill:#8EF0C1}
    .fil2 {fill:#905833}
    .fil54 {fill:#91A224}
    .fil39 {fill:#92A229}
    .fil20 {fill:#945E36}
    .fil68 {fill:#98EAA2}
    .fil30 {fill:#99CE40}
    .fil34 {fill:#9DAB35}
    .fil12 {fill:#9FE1FF}
    .fil41 {fill:#A3BD31}
    .fil52 {fill:#A9BD2A}
    .fil38 {fill:#AABD30}
    .fil1 {fill:#AC6C48}
    .fil71 {fill:#ADEFB4}
    .fil17 {fill:#AE703E}
    .fil6 {fill:#B3D02A}
    .fil56 {fill:#B4B3B8}
    .fil40 {fill:#B4CE40}
    .fil53 {fill:#BACE38}
    .fil37 {fill:#BBCE3F}
    .fil23 {fill:#C07E4C}
    .fil72 {fill:#C5F8E9}
    .fil7 {fill:#C6DE5C}
    .fil26 {fill:#C98D63}
    .fil58 {fill:#D6AE70}
    .fil62 {fill:#DDF8FF}
    .fil59 {fill:#DEBB88}
    .fil55 {fill:#DFDDDE}
    .fil48 {fill:#E21664}
    .fil60 {fill:#E5C9A1}
    .fil57 {fill:#E7E5E6}
    .fil46 {fill:#EE4686}
    .fil45 {fill:#F0649B}
    .fil50 {fill:#FE3B00}
    .fil49 {fill:#FF6600}
    .fil44 {fill:#FFC979}
    .fil51 {fill:#FFCC00}
    .fil43 {fill:#FFDCA4}
    .fil47 {fill:white}
    .fil18 {fill:#633E25;fill-rule:nonzero}
    .fil4 {fill:black;fill-opacity:0.200000}
    .fil13 {fill:url(#id1)}
    .fil63 {fill:url(#id2)}
    .fil10 {fill:url(#id3)}
    .fil14 {fill:url(#id4)}
   
  </style>
     <clipPath
   id="id0">
      <path
   d="m 3379,161 h 241 v 241 h -241 z"
   id="path9" />
     </clipPath>
  <linearGradient
   id="id1"
   gradientUnits="userSpaceOnUse"
   x1="2850.6899"
   y1="207.394"
   x2="2850.6899"
   y2="510.80801">
   <stop
   offset="0"
   style="stop-color:#6BCBF1"
   id="stop12" />
   <stop
   offset="1"
   style="stop-color:#3B9CFB"
   id="stop14" />
  </linearGradient>
  <linearGradient
   id="id2"
   gradientUnits="objectBoundingBox"
   x1="0.49999902"
   y1="0"
   x2="0.49999902"
   y2="1">
   <stop
   offset="0"
   style="stop-color:#BDF7F9"
   id="stop17" />
   <stop
   offset="1"
   style="stop-color:#8EF0C1"
   id="stop19" />
  </linearGradient>
  <linearGradient
   id="id3"
   gradientUnits="userSpaceOnUse"
   xlink:href="#id1"
   x1="2850.7"
   y1="138.457"
   x2="2850.7"
   y2="435.81299">
  </linearGradient>
  <linearGradient
   id="id4"
   gradientUnits="userSpaceOnUse"
   xlink:href="#id1"
   x1="2850.7"
   y1="315.76099"
   x2="2850.7"
   y2="552.42999">
  </linearGradient>
 
  
  
  
  
  
  
  
  
  
  
  
  
  
  
  
  
  
  
  
  
  
 </defs>
 <g
   id="_931599168">
   
   
   
   
   
   <g
   id="_918089120"
   transform="matrix(11.147888,0,0,11.147888,-50793.371,-6820.663)">
    <path
   style="fill:#5b661b"
   inkscape:connector-curvature="0"
   id="path1549"
   d="m 5228,1317 h 1 z m 34,0 h 2 c 0,0 -1,1 -1,1 0,0 0,-1 -1,-1 z m 61,0 h 1 c 0,0 0,1 -1,1 0,0 0,-1 0,-1 z m 50,0 h 2 c 0,0 0,1 -1,1 0,0 0,-1 -1,-1 z m 276,-3 h 1 v 0 0 0 h 1 v -1 0 0 h 1 v 0 0 0 h 1 v 0 0 l 1,-1 v 0 0 0 0 h 1 v 0 0 h 1 v -1 0 0 h 1 v 0 0 h 1 v 0 -1 h 1 v 0 0 0 0 h 1 v 0 -1 h 1 v 0 0 h 1 v 0 0 -1 h 1 v 0 0 h 1 v 0 -1 h 1 v 0 0 0 h 1 v 0 -1 h 1 v 0 0 0 h 1 v -1 0 h 1 v 0 0 l 1,-1 v 0 0 h 1 v 0 0 l 1,-1 v 0 0 h 1 v 0 0 l 1,-1 v 0 0 h 1 v 0 -1 h 1 v 0 0 l 1,-1 v 0 0 h 1 c -5,-8 -10,-14 -15,-20 7,-2 15,-7 24,-12 -11,-18 -23,-28 -34,-33 11,-4 24,-10 40,-20 -16,-25 -33,-39 -49,-44 12,-4 25,-11 40,-20 v 0 0 0 0 0 0 -1 0 0 0 0 0 0 0 0 0 h -1 v 0 0 0 0 0 0 0 0 0 0 -1 0 0 0 0 0 0 0 0 0 0 0 0 0 0 0 0 0 0 0 0 -1 h -1 v 0 0 0 0 0 0 0 0 0 0 0 0 0 0 0 c -22,-34 -45,-48 -66,-49 8,-8 17,-19 26,-33 -26,-16 -48,-22 -65,-19 6,-7 13,-15 20,-26 -24,-15 -43,-19 -58,-17 9,-15 15,-35 21,-64 -45,-8 -76,-3 -97,11 1,-11 1,-23 -1,-38 -25,3 -43,9 -56,17 -7,-17 -22,-37 -48,-60 -19,20 -30,39 -36,57 -13,-7 -30,-12 -51,-14 -2,17 -2,32 -1,44 -19,-18 -53,-26 -103,-17 6,29 13,49 21,64 -15,-2 -34,2 -57,17 1,3 3,5 4,7 -21,-2 -47,5 -79,25 18,28 34,46 50,55 -17,4 -34,18 -51,45 4,3 9,6 13,8 v 0 0 0 h 1 v 0 0 1 0 h 1 v 0 0 0 0 0 h 1 v 0 1 0 0 h 1 v 0 0 0 0 h 1 v 0 1 0 0 h 1 v 0 0 0 0 0 0 h 1 v 1 0 0 0 h 1 v 0 0 0 0 h 1 v 0 1 0 0 0 h 1 v 0 0 0 0 h 1 v 0 0 1 0 h 1 v 0 0 0 0 h 1 v 0 0 0 0 1 h 1 v 0 0 0 0 0 h 1 v 0 0 0 0 0 l 1,1 v 0 0 0 0 h 1 v 0 0 0 0 0 h 1 v 0 0 1 0 0 c -17,4 -35,18 -52,45 16,10 29,16 40,20 -11,5 -23,15 -34,33 9,5 17,10 24,12 -5,6 -10,12 -15,20 h 1 v 0 0 l 1,1 v 0 0 h 1 v 0 1 h 1 v 0 0 h 1 v 1 0 h 1 v 0 0 h 1 v 1 0 0 h 1 v 0 1 0 h 1 v 0 0 h 1 v 1 0 h 1 v 0 0 0 h 1 v 0 1 h 1 v 0 0 0 h 1 v 1 0 h 1 v 0 0 0 h 1 v 1 0 h 1 v 0 0 0 0 l 1,1 v 0 0 h 1 v 0 0 0 h 1 v 0 1 h 1 v 0 0 0 0 h 1 v 0 0 l 1,1 v 0 0 0 h 1 v 0 0 0 h 1 v 1 0 0 h 1 v 0 0 0 0 h 1 v 0 0 l 1,1 c -5,7 -8,17 -9,27 19,0 34,-4 43,-11 -1,11 2,22 7,32 14,-9 25,-18 31,-27 5,14 20,28 42,44 4,-8 7,-16 8,-25 7,-1 13,-2 18,-5 0,2 0,4 0,7 19,-1 33,-4 42,-11 1,11 6,22 12,32 10,-8 18,-15 23,-23 11,-1 19,-4 25,-9 1,11 6,22 12,32 7,-5 13,-10 18,-16 5,6 10,11 17,16 7,-10 11,-21 13,-32 7,6 20,10 36,10 5,10 13,20 23,27 11,-20 18,-38 19,-52 5,11 17,21 33,32 5,-10 8,-21 7,-32 7,5 16,8 28,10 0,13 3,26 9,39 22,-16 38,-30 43,-44 6,9 17,18 31,27 5,-10 7,-21 7,-32 9,7 24,11 43,11 -1,-10 -4,-19 -9,-27 z"
   class="fil33" />
    <path
   style="fill:#5b661b"
   inkscape:connector-curvature="0"
   id="path1551"
   d="m 4898,1311 h 1 v 1 z m 37,0 h 2 c 0,0 -1,1 -1,2 0,-1 -1,-2 -1,-2 z m 64,0 h 2 c 0,0 -1,1 -1,2 0,-1 -1,-2 -1,-2 z m 54,0 h 2 c -1,0 -1,1 -1,2 -1,-1 -1,-2 -1,-2 z m 292,-3 v 0 0 h 1 v -1 0 h 1 v 0 0 0 h 1 v 0 0 h 1 v 0 -1 h 1 v 0 0 0 0 h 1 v 0 0 l 1,-1 v 0 0 h 1 v 0 0 0 l 1,-1 v 0 0 h 1 v 0 0 h 1 v 0 -1 0 h 1 v 0 0 h 1 v -1 0 0 h 1 v 0 0 h 1 v -1 0 h 1 v 0 0 h 1 v -1 0 h 1 v 0 0 l 1,-1 v 0 0 h 1 v 0 0 l 1,-1 v 0 0 h 1 v 0 0 l 1,-1 v 0 0 h 1 v 0 -1 h 1 v 0 0 l 1,-1 v 0 0 h 1 v 0 0 l 1,-1 v 0 0 h 1 v 0 -1 h 1 c -5,-8 -10,-15 -16,-21 8,-3 16,-7 26,-13 -12,-19 -24,-30 -36,-35 12,-4 26,-10 42,-20 -17,-27 -34,-42 -51,-48 12,-4 26,-11 42,-21 v 0 0 0 0 0 0 h -1 v 0 0 0 0 -1 0 0 0 0 0 0 0 0 0 0 0 0 0 0 0 0 0 0 -1 0 0 0 0 0 0 h -1 v 0 0 0 0 0 0 0 0 0 0 0 0 0 -1 0 0 0 0 0 0 0 0 0 0 0 0 0 c -23,-36 -48,-51 -70,-52 9,-8 17,-20 27,-35 -28,-17 -50,-23 -68,-20 6,-7 13,-16 20,-27 -25,-16 -45,-21 -61,-18 9,-16 16,-38 22,-68 -47,-9 -80,-3 -102,12 1,-12 0,-25 -2,-41 -26,3 -45,10 -59,19 -7,-19 -24,-40 -50,-65 -20,22 -33,42 -39,61 -14,-7 -31,-12 -53,-15 -2,18 -3,34 -1,46 -21,-19 -57,-27 -110,-17 6,30 13,52 23,68 -16,-3 -37,2 -61,18 1,3 3,5 5,7 -23,-2 -51,5 -84,26 19,30 36,49 53,58 -18,5 -37,20 -55,49 5,3 10,5 14,8 v 0 0 h 1 v 0 0 0 0 l 1,1 v 0 0 0 0 h 1 v 0 0 0 l 1,1 v 0 0 0 0 h 1 v 0 0 0 0 l 1,1 v 0 0 0 0 0 h 1 v 0 0 0 1 h 1 v 0 0 0 0 h 1 v 0 0 0 0 l 1,1 v 0 0 0 0 h 1 v 0 0 0 0 1 h 1 v 0 0 0 h 1 v 0 0 0 0 h 1 v 0 1 0 0 h 1 v 0 0 0 0 0 h 1 v 0 1 0 0 h 1 v 0 0 0 0 0 0 h 1 v 0 0 1 0 h 1 v 0 0 0 0 0 h 1 c -18,5 -37,20 -55,49 16,10 30,16 42,20 -12,5 -25,16 -36,35 9,6 18,10 25,13 -5,6 -10,13 -15,21 v 0 h 1 v 1 0 0 h 1 v 0 1 h 1 v 0 0 h 1 v 1 0 h 1 v 0 0 l 1,1 v 0 0 h 1 v 0 0 l 1,1 v 0 0 0 h 1 v 0 1 h 1 v 0 0 h 1 v 0 1 h 1 v 0 0 h 1 v 0 1 0 h 1 v 0 0 h 1 v 1 0 0 h 1 v 0 0 l 1,1 v 0 0 h 1 v 0 0 h 1 v 0 1 0 0 h 1 v 0 0 h 1 v 0 1 0 h 1 v 0 0 h 1 v 0 0 1 h 1 v 0 0 0 h 1 v 0 0 h 1 v 0 1 0 0 h 1 v 0 0 h 1 v 0 0 0 c -4,9 -7,18 -9,30 20,-1 36,-5 46,-12 -1,12 2,23 7,34 15,-10 26,-20 33,-29 5,15 22,30 45,46 4,-8 7,-17 8,-25 8,-1 14,-3 19,-6 0,2 0,5 0,7 20,0 36,-4 44,-11 2,11 7,23 13,34 11,-8 20,-16 25,-24 11,-2 20,-5 26,-10 2,11 6,23 13,34 8,-6 14,-11 19,-17 5,6 11,11 18,17 7,-11 12,-23 14,-34 7,6 20,10 37,11 6,10 15,20 25,28 12,-21 19,-40 20,-55 5,11 18,22 35,34 5,-11 8,-22 8,-34 7,5 17,9 30,10 -1,14 3,28 9,41 24,-16 40,-31 45,-46 7,9 18,19 33,29 5,-11 8,-22 8,-34 9,7 25,11 45,12 -1,-11 -4,-21 -9,-29 z"
   class="fil33" />
    <path
   style="fill:#5b661b"
   inkscape:connector-curvature="0"
   id="path1553"
   d="m 5395,1194 h -1 l 1,1 z m -41,0 h -2 c 1,1 1,2 1,2 1,0 1,-1 1,-2 z m -71,0 h -2 c 1,1 1,2 1,2 1,0 1,-1 1,-2 z m -59,0 h -3 c 1,1 1,2 1,2 1,0 1,-1 2,-2 z m -326,-3 v 0 0 h -1 v 0 0 -1 h -1 v 0 0 h -1 v 0 0 h -1 v 0 -1 h -1 v 0 0 h -1 v 0 0 l -1,-1 v 0 0 h -1 v 0 0 h -1 v 0 -1 0 h -1 v 0 0 h -1 v -1 0 h -1 v 0 0 h -1 v 0 -1 h -1 v 0 0 h -1 v 0 -1 h -1 v 0 0 h -1 v -1 h -1 v 0 0 h -1 v 0 -1 h -1 v 0 0 h -1 v -1 h -1 v 0 0 h -1 v -1 0 h -1 v 0 0 l -1,-1 v 0 0 h -1 v 0 l -1,-1 v 0 0 h -1 v -1 0 h -1 v 0 h -1 v -1 h -1 v 0 -1 h -1 v 0 0 l -1,-1 c 6,-9 11,-16 17,-22 -8,-4 -17,-9 -28,-15 13,-21 27,-34 40,-39 -13,-4 -29,-12 -47,-23 19,-30 38,-46 57,-53 -13,-4 -29,-12 -47,-23 h 1 v 0 0 0 0 0 -1 0 0 0 0 0 0 0 0 0 0 0 0 0 0 0 0 -1 0 0 0 h 1 v 0 0 0 0 0 0 0 0 0 0 0 0 0 0 -1 0 0 0 0 0 0 0 0 0 0 0 0 h 1 v 0 0 0 -1 0 0 0 0 0 c 25,-39 52,-56 77,-58 -9,-9 -19,-21 -30,-38 31,-19 56,-26 76,-23 -7,-7 -14,-17 -22,-30 27,-17 50,-23 68,-20 -11,-17 -19,-42 -25,-75 52,-10 90,-4 113,13 0,-13 0,-28 2,-46 29,4 51,11 66,21 8,-21 27,-44 56,-71 23,24 36,46 44,67 14,-8 34,-14 59,-17 2,21 2,38 1,52 23,-21 62,-31 121,-19 -6,33 -14,58 -25,75 18,-3 41,3 69,20 -2,3 -4,6 -6,9 25,-3 56,5 93,29 -21,33 -40,54 -59,64 20,5 41,22 61,54 -5,3 -11,6 -15,9 h -1 v 0 0 0 0 h -1 v 1 0 h -1 v 0 0 0 0 h -1 v 0 1 0 0 h -1 v 0 0 0 h -1 v 0 1 0 h -1 v 0 0 0 0 h -1 v 1 0 0 0 h -1 v 0 0 0 h -1 v 0 1 0 0 h -1 v 0 0 0 0 h -1 v 0 1 0 h -1 v 0 0 0 0 h -1 v 0 0 l -1,1 v 0 0 0 0 h -1 v 0 0 0 1 h -1 v 0 0 0 0 h -1 v 0 0 0 0 l -1,1 v 0 0 0 0 h -1 v 0 0 0 0 h -1 v 0 0 1 0 0 h -1 v 0 0 0 c 20,5 41,22 61,54 -18,11 -34,19 -47,23 13,5 27,18 40,39 -11,6 -20,11 -28,15 6,6 11,13 17,22 v 1 h -1 v 0 h -1 v 1 0 h -1 v 0 0 l -1,1 v 0 0 h -1 v 1 0 h -1 v 0 h -1 v 1 0 h -1 v 0 0 l -1,1 v 0 0 h -1 v 1 0 h -1 v 0 0 h -1 v 1 0 h -1 v 0 0 l -1,1 v 0 0 h -1 v 0 0 l -1,1 v 0 0 h -1 v 0 0 l -1,1 v 0 0 h -1 v 0 0 l -1,1 v 0 0 h -1 v 0 0 h -1 v 1 0 h -1 v 0 0 h -1 v 0 1 h -1 v 0 0 0 h -1 v 0 0 l -1,1 v 0 0 0 h -1 v 0 0 h -1 v 1 0 h -1 v 0 0 h -1 v 0 0 0 0 l -1,1 c 5,9 9,20 11,32 -23,0 -40,-5 -51,-12 0,12 -3,25 -9,37 -16,-11 -29,-22 -36,-32 -6,16 -24,33 -50,51 -5,-9 -8,-19 -9,-28 -9,-2 -16,-4 -22,-6 0,2 0,5 0,7 -22,0 -39,-4 -48,-12 -2,12 -8,25 -15,37 -12,-9 -21,-18 -27,-26 -13,-2 -23,-6 -29,-11 -2,12 -7,25 -15,37 -8,-6 -15,-12 -21,-18 -5,6 -12,12 -20,18 -8,-12 -13,-25 -15,-37 -9,7 -23,11 -42,12 -7,12 -16,23 -27,31 -14,-23 -22,-44 -23,-61 -6,12 -20,25 -39,38 -6,-12 -9,-25 -9,-37 -7,5 -19,9 -33,11 1,15 -3,31 -10,45 -26,-18 -45,-35 -51,-51 -7,10 -19,21 -36,32 -5,-12 -8,-25 -8,-37 -11,7 -29,12 -51,12 2,-12 5,-23 10,-32 z"
   class="fil33" />
    <g
   id="g1555">
     <path
   style="fill:#ae703e"
   inkscape:connector-curvature="0"
   id="path1557"
   d="m 5140,1445 c 24,257 14,341 -20,428 -13,8 -19,21 -36,27 -17,6 -46,5 -59,24 h 100 40 144 26 157 c -21,-32 -61,-31 -91,-42 -24,-9 -37,-32 -61,-36 -33,-56 -72,-165 -52,-401 l 21,-59 210,-60 49,-141 -62,114 -94,25 -25,-64 25,-77 -49,77 5,63 -80,25 -21,18 14,-111 -94,-60 -5,-121 -22,102 -40,-23 -29,-57 10,80 121,88 -7,47 -60,-52 49,79 -10,43 -83,-43 -74,-12 -38,-72 10,74 -97,-31 -2,-67 30,-32 5,-82 -20,67 -52,49 -3,88 156,61 74,15 z"
   class="fil17" />
     <polygon
   style="fill:#945e36"
   id="polygon1559"
   points="5492,1924 5335,1924 5322,1924 5299,1884 5287,1795 5321,1874 5390,1907 "
   class="fil20" />
     <polygon
   style="fill:#945e36"
   id="polygon1561"
   points="5310,1924 5309,1924 5245,1924 5255,1873 5267,1915 5268,1897 5268,1833 5288,1896 "
   class="fil20" />
     <polygon
   style="fill:#945e36"
   id="polygon1563"
   points="5208,1912 5216,1924 5165,1924 5159,1924 5174,1905 5194,1850 5193,1912 5205,1873 "
   class="fil20" />
     <polygon
   style="fill:#945e36"
   id="polygon1565"
   points="5133,1889 5163,1819 5154,1900 5145,1924 5125,1924 5025,1924 5092,1915 "
   class="fil20" />
     <path
   style="fill:#c07e4c"
   inkscape:connector-curvature="0"
   id="path1567"
   d="m 5288,1445 c -13,155 -1,256 19,323 l -25,-51 -28,-141 z"
   class="fil23" />
     <path
   style="fill:#945e36"
   inkscape:connector-curvature="0"
   id="path1569"
   d="m 5186,1545 -11,163 -38,113 c 20,-74 22,-169 2,-376 l -39,-49 -77,-16 -113,-45 -40,-15 3,-88 13,77 125,42 88,7 77,87 z"
   class="fil20" />
     <path
   style="fill:#c07e4c"
   inkscape:connector-curvature="0"
   id="path1571"
   d="m 5480,1910 -79,-18 -57,-34 -30,-41 5,-14 c 7,17 14,31 21,43 24,4 37,27 61,36 25,9 57,10 79,28 z"
   class="fil23" />
     <polygon
   style="fill:#945e36"
   id="polygon1573"
   points="5252,1910 5244,1850 5237,1879 5225,1742 5221,1904 5214,1882 5196,1924 5253,1924 "
   class="fil20" />
     <polygon
   style="fill:#c07e4c"
   id="polygon1575"
   points="5299,1884 5284,1844 5280,1767 5287,1795 "
   class="fil23" />
     <polygon
   style="fill:#c07e4c"
   id="polygon1577"
   points="5222,1843 5210,1770 5216,1633 5225,1742 "
   class="fil23" />
     <path
   style="fill:#945e36"
   inkscape:connector-curvature="0"
   id="path1579"
   d="m 5084,1900 c 17,-6 23,-19 36,-27 6,-17 12,-33 16,-50 l 21,-61 -15,73 -15,45 -19,14 -41,17 -41,11 c 14,-17 41,-16 58,-22 z"
   class="fil20" />
     <polygon
   style="fill:#945e36"
   id="polygon1581"
   points="5254,1795 5251,1656 5258,1704 "
   class="fil20" />
     <polygon
   style="fill:#945e36"
   id="polygon1583"
   points="5193,1696 5214,1498 5216,1555 "
   class="fil20" />
     <g
   id="g1585">
      <path
   style="fill:#7a4d2e"
   inkscape:connector-curvature="0"
   id="path1587"
   d="m 5158,1445 h -18 c 12,124 15,208 12,271 l 8,-17 4,-127 z"
   class="fil19" />
      <path
   style="fill:#7a4d2e"
   inkscape:connector-curvature="0"
   id="path1589"
   d="m 5152,1716 c 3,-63 0,-147 -12,-271 l -40,-49 -74,-15 -156,-61 2,-73 9,64 33,21 119,31 66,13 59,69 6,127 -4,127 z"
   class="fil19" />
     </g>
     <polygon
   style="fill:#7a4d2e"
   id="polygon1591"
   points="5291,1824 5299,1884 5322,1924 5374,1924 5320,1893 "
   class="fil19" />
     <polygon
   style="fill:#7a4d2e"
   id="polygon1593"
   points="5229,1852 5226,1916 5216,1906 5201,1924 5254,1924 5238,1895 "
   class="fil19" />
     <polygon
   style="fill:#7a4d2e"
   id="polygon1595"
   points="5085,1924 5139,1924 5148,1900 5152,1868 5137,1903 "
   class="fil19" />
     <path
   style="fill:#c98d63"
   inkscape:connector-curvature="0"
   id="path1597"
   d="m 5285,1488 c -5,92 -1,162 8,217 l -13,-17 -10,-133 z"
   class="fil26" />
     <polygon
   style="fill:#945e36"
   id="polygon1599"
   points="5288,1445 5294,1386 5335,1357 5504,1320 5544,1255 5519,1326 5309,1386 "
   class="fil20" />
     <polygon
   style="fill:#945e36"
   id="polygon1601"
   points="5336,1369 5425,1345 5510,1323 5535,1280 5519,1326 5309,1386 "
   class="fil20" />
     <polygon
   style="fill:#945e36"
   id="polygon1603"
   points="5204,1338 5155,1259 5220,1340 5211,1413 5194,1381 "
   class="fil20" />
     <polygon
   style="fill:#945e36"
   id="polygon1605"
   points="5111,1165 5247,1258 5227,1329 5215,1311 5222,1264 5101,1176 5091,1096 "
   class="fil20" />
     <polygon
   style="fill:#945e36"
   id="polygon1607"
   points="5363,1260 5383,1329 5345,1330 5368,1323 "
   class="fil20" />
     <polygon
   style="fill:#945e36"
   id="polygon1609"
   points="4910,1230 4912,1297 4898,1225 4940,1198 "
   class="fil20" />
     <polygon
   style="fill:#7a4d2e"
   id="polygon1611"
   points="5365,1288 5377,1326 5359,1325 5368,1323 "
   class="fil19" />
     <polygon
   style="fill:#7a4d2e"
   id="polygon1613"
   points="5101,1176 5097,1142 5107,1173 5234,1259 5215,1311 5222,1264 "
   class="fil19" />
     <polygon
   style="fill:#7a4d2e"
   id="polygon1615"
   points="5194,1381 5204,1338 5175,1291 5212,1338 5211,1360 "
   class="fil19" />
     <polygon
   style="fill:#7a4d2e"
   id="polygon1617"
   points="4910,1230 4911,1256 4904,1227 4930,1209 "
   class="fil19" />
     <polygon
   style="fill:#c07e4c"
   id="polygon1619"
   points="4925,1183 4945,1116 4942,1159 4941,1145 4932,1186 4874,1231 "
   class="fil23" />
     <polygon
   style="fill:#c07e4c"
   id="polygon1621"
   points="4912,1297 5009,1328 5014,1339 "
   class="fil23" />
     <polygon
   style="fill:#c07e4c"
   id="polygon1623"
   points="5205,1402 5105,1348 5032,1332 4999,1254 5037,1326 5111,1338 5194,1381 "
   class="fil23" />
     <polygon
   style="fill:#c07e4c"
   id="polygon1625"
   points="5298,1355 5259,1395 5267,1366 5288,1348 5332,1334 "
   class="fil23" />
     <polygon
   style="fill:#c07e4c"
   id="polygon1627"
   points="5173,1193 5182,1074 5187,1195 5281,1255 5267,1366 5266,1261 "
   class="fil23" />
     <polygon
   style="fill:#c07e4c"
   id="polygon1629"
   points="5097,1107 5120,1153 5160,1176 5159,1187 5118,1158 "
   class="fil23" />
     <polygon
   style="fill:#c07e4c"
   id="polygon1631"
   points="5506,1310 5405,1333 5397,1286 5412,1324 5506,1299 5548,1222 "
   class="fil23" />
     <polygon
   style="fill:#c98d63"
   id="polygon1633"
   points="5281,1255 5276,1298 5275,1259 5187,1195 "
   class="fil26" />
     <polygon
   style="fill:#c98d63"
   id="polygon1635"
   points="5108,1342 5034,1329 5022,1297 5037,1326 5111,1338 5194,1381 "
   class="fil26" />
     <polygon
   style="fill:#945e36"
   id="polygon1637"
   points="5273,1405 5263,1452 5236,1545 5257,1446 "
   class="fil20" />
     <polygon
   style="fill:#945e36"
   id="polygon1639"
   points="5250,1328 5247,1349 5234,1407 5243,1345 "
   class="fil20" />
     <polygon
   style="fill:#945e36"
   id="polygon1641"
   points="5128,1374 5165,1406 5126,1378 5080,1356 5054,1346 5084,1353 "
   class="fil20" />
     <polygon
   style="fill:#945e36"
   id="polygon1643"
   points="4891,1237 4894,1254 4896,1287 4889,1251 "
   class="fil20" />
     <polygon
   style="fill:#945e36"
   id="polygon1645"
   points="5354,1340 5306,1362 5353,1335 5391,1331 5386,1302 5398,1335 "
   class="fil20" />
     <polygon
   style="fill:#945e36"
   id="polygon1647"
   points="5263,1644 5260,1539 5265,1575 "
   class="fil20" />
     <polygon
   style="fill:#945e36"
   id="polygon1649"
   points="5531,1269 5517,1309 5484,1320 5516,1303 "
   class="fil20" />
     <polygon
   style="fill:#945e36"
   id="polygon1651"
   points="5175,1155 5177,1200 5226,1238 5172,1201 "
   class="fil20" />
     <polygon
   style="fill:#7a4d2e"
   id="polygon1653"
   points="5076,1358 5061,1348 5083,1355 5129,1378 5145,1392 5123,1381 "
   class="fil19" />
     <polygon
   style="fill:#7a4d2e"
   id="polygon1655"
   points="5392,1317 5403,1337 5354,1340 5398,1334 "
   class="fil19" />
     <polygon
   style="fill:#7a4d2e"
   id="polygon1657"
   points="5212,1519 5210,1557 5200,1630 5204,1549 "
   class="fil19" />
    </g>
    <g
   id="g1659">
     <path
   style="fill:#9dab35"
   inkscape:connector-curvature="0"
   id="path1661"
   d="m 5398,1219 h 1 v 1 z m 34,0 h 2 c 0,0 -1,1 -1,1 0,0 0,-1 -1,-1 z m 59,0 h 2 c 0,0 -1,1 -1,1 0,0 -1,-1 -1,-1 z m 50,0 h 1 c 0,0 0,1 0,1 -1,0 -1,-1 -1,-1 z m 269,-3 v 0 0 h 1 v 0 0 0 h 1 v 0 -1 h 1 v 0 0 0 0 h 1 v 0 0 l 1,-1 v 0 0 0 h 1 v 0 0 h 1 v 0 -1 0 0 h 1 v 0 0 h 1 v 0 0 -1 h 1 v 0 0 h 1 v 0 0 -1 h 1 v 0 0 0 h 1 v 0 0 l 1,-1 v 0 0 h 1 v 0 0 -1 h 1 v 0 0 h 1 v 0 -1 0 h 1 v 0 0 h 1 v -1 0 0 h 1 v 0 0 l 1,-1 v 0 0 h 1 v 0 0 l 1,-1 v 0 0 h 1 v 0 -1 h 1 v 0 0 h 1 v 0 -1 h 1 v 0 0 l 1,-1 c -5,-7 -10,-13 -15,-19 7,-2 15,-6 24,-12 -11,-17 -22,-27 -33,-32 11,-3 23,-10 38,-19 -15,-25 -31,-38 -47,-44 11,-3 24,-10 39,-19 v 0 0 0 0 0 0 0 0 0 -1 h -1 v 0 0 0 0 0 0 0 0 0 0 0 0 0 0 0 0 0 0 0 -1 0 0 0 0 0 0 0 0 0 0 0 0 0 h -1 v 0 0 0 0 0 0 0 -1 0 0 0 0 0 0 0 0 0 0 0 0 c -21,-33 -44,-47 -64,-48 8,-8 16,-18 24,-32 -25,-16 -46,-21 -62,-19 6,-6 12,-14 18,-25 -22,-14 -41,-18 -56,-16 9,-15 15,-35 21,-63 -44,-8 -75,-3 -94,11 0,-10 0,-23 -2,-37 -24,2 -42,8 -55,17 -7,-18 -21,-37 -46,-59 -19,20 -30,38 -36,55 -12,-6 -28,-11 -49,-13 -2,17 -2,31 -1,42 -19,-17 -52,-25 -101,-16 6,28 12,48 21,63 -15,-2 -34,2 -56,16 1,3 3,5 4,8 -20,-3 -46,4 -77,23 18,28 33,45 49,54 -17,4 -34,18 -50,44 4,3 8,5 12,8 h 1 v 0 0 0 0 0 h 1 v 1 0 0 0 h 1 v 0 0 0 0 h 1 v 0 1 0 0 0 0 h 1 v 0 0 0 0 l 1,1 v 0 0 0 0 h 1 v 0 0 0 0 0 l 1,1 v 0 0 0 0 h 1 v 0 0 0 0 0 l 1,1 v 0 0 0 0 h 1 v 0 0 0 0 0 0 l 1,1 v 0 0 0 h 1 v 0 0 0 0 0 h 1 v 0 0 1 0 0 h 1 v 0 0 0 0 0 h 1 v 0 0 0 1 0 h 1 v 0 0 0 0 0 h 1 v 0 0 0 0 h 1 c -17,5 -35,18 -51,45 15,9 27,16 38,19 -11,5 -22,15 -33,32 9,6 17,10 24,12 -5,6 -10,12 -15,19 l 1,1 v 0 0 h 1 v 0 1 h 1 v 0 0 h 1 v 1 0 h 1 v 0 0 0 l 1,1 v 0 0 h 1 v 0 0 1 h 1 v 0 0 h 1 v 0 0 1 h 1 v 0 0 h 1 v 0 1 h 1 v 0 0 0 0 l 1,1 v 0 0 h 1 v 0 0 h 1 v 1 0 0 0 h 1 v 0 0 h 1 v 1 0 0 h 1 v 0 0 h 1 v 0 1 0 0 h 1 v 0 0 h 1 v 0 0 1 h 1 v 0 0 0 0 h 1 v 0 0 l 1,1 v 0 0 0 0 h 1 v 0 0 0 h 1 v 0 1 h 1 v 0 0 c -4,7 -7,16 -9,27 19,-1 33,-4 42,-11 0,11 3,22 7,31 14,-9 24,-18 30,-27 5,14 20,29 42,43 4,-7 6,-15 8,-23 7,-1 13,-3 17,-5 0,2 0,4 0,6 19,0 33,-4 41,-10 1,10 6,21 12,31 10,-8 17,-15 22,-22 11,-2 19,-5 24,-9 2,10 6,21 13,31 6,-5 12,-11 17,-16 4,5 10,11 17,16 6,-10 11,-21 12,-31 7,5 19,9 35,10 5,9 13,18 22,26 11,-20 18,-37 19,-51 5,10 17,21 33,31 4,-9 7,-20 7,-31 6,5 15,8 27,10 0,12 3,25 9,37 21,-14 37,-29 41,-43 6,9 17,18 30,27 5,-9 8,-20 7,-31 9,7 24,10 42,11 -1,-10 -4,-19 -8,-27 z"
   class="fil34" />
     <path
   style="fill:#8d9a27"
   inkscape:connector-curvature="0"
   id="path1663"
   d="m 5398,1219 h 1 v 1 z m 17,-229 h 1 l -1,1 z m 30,0 h 1 c 0,1 0,1 -1,2 0,-1 0,-1 0,-2 z m 51,0 h 2 c -1,1 -1,1 -1,2 0,-1 -1,-1 -1,-2 z m 43,0 h 2 c 0,1 -1,1 -1,2 0,-1 0,-1 -1,-2 z m -107,229 h 2 c 0,0 -1,1 -1,1 0,0 0,-1 -1,-1 z m 59,0 h 2 c 0,0 -1,1 -1,1 0,0 -1,-1 -1,-1 z m 50,0 h 1 c 0,0 0,1 0,1 -1,0 -1,-1 -1,-1 z m 269,-3 v 0 0 h 1 v 0 0 0 h 1 v 0 -1 h 1 v 0 0 0 0 h 1 v 0 0 l 1,-1 v 0 0 0 h 1 v 0 0 h 1 v 0 -1 0 0 h 1 v 0 0 h 1 v 0 0 -1 h 1 v 0 0 h 1 v 0 0 -1 h 1 v 0 0 0 h 1 v 0 0 l 1,-1 v 0 0 h 1 v 0 0 -1 h 1 v 0 0 h 1 v 0 -1 0 h 1 v 0 0 h 1 v -1 0 0 h 1 v 0 0 l 1,-1 v 0 0 h 1 v 0 0 l 1,-1 v 0 0 h 1 v 0 -1 h 1 v 0 0 h 1 v 0 -1 h 1 v 0 0 l 1,-1 c -5,-7 -10,-13 -15,-19 7,-2 15,-6 24,-12 -11,-17 -22,-27 -33,-32 11,-3 23,-10 38,-19 -15,-25 -31,-38 -47,-44 11,-3 24,-10 39,-19 v 0 0 0 0 0 0 0 0 0 -1 h -1 v 0 0 0 0 0 0 0 0 0 0 0 0 0 0 0 0 0 0 0 -1 0 0 0 0 0 0 0 0 0 0 0 0 0 h -1 v 0 0 0 0 0 0 0 -1 0 0 0 0 0 0 0 0 0 0 0 0 c -20,-31 -42,-45 -61,-48 0,3 1,5 1,8 -16,0 -29,-4 -37,-10 0,10 -2,21 -6,31 -12,-10 -21,-19 -26,-27 -4,14 -18,28 -37,43 -5,-12 -7,-26 -7,-38 -10,-2 -18,-5 -24,-9 0,10 -2,21 -6,31 -14,-11 -24,-22 -29,-32 0,14 -6,31 -16,51 -8,-7 -15,-16 -20,-26 -13,-1 -24,-4 -30,-10 -1,10 -5,21 -11,31 -5,-5 -11,-10 -14,-15 -4,5 -9,10 -15,15 -6,-10 -10,-21 -11,-31 -5,4 -12,7 -21,9 -4,7 -11,14 -20,22 -5,-10 -9,-21 -10,-31 -7,6 -20,10 -36,10 0,-2 0,-4 0,-6 -4,2 -9,4 -15,5 -1,8 -3,16 -7,24 -18,-15 -32,-29 -36,-43 -5,8 -14,17 -26,27 -4,-10 -7,-21 -6,-31 -8,6 -21,10 -37,10 1,-10 4,-19 8,-27 h -1 v 0 0 0 0 h -1 v -1 0 0 h -1 v 0 0 0 0 h -1 v 0 0 -1 0 h -1 v 0 0 0 h -1 v 0 0 -1 0 h -1 v 0 0 0 h -1 v 0 -1 0 0 h -1 v 0 0 0 h -1 v -1 0 0 0 h -1 v 0 0 l -1,-1 v 0 0 0 0 h -1 v 0 0 -1 h -1 v 0 0 h -1 v 0 -1 0 0 h -1 v 0 0 -1 h -1 v 0 0 0 h -1 v -1 0 0 h -1 v 0 0 l -1,-1 v 0 0 0 0 h -1 v -1 0 h -1 v 0 0 -1 h -1 v 0 0 h -1 c 5,-8 9,-14 13,-19 -5,-2 -10,-5 -15,-9 -10,4 -19,9 -30,15 18,28 33,45 49,54 -17,4 -34,18 -50,44 4,3 8,5 12,8 h 1 v 0 0 0 0 0 h 1 v 1 0 0 0 h 1 v 0 0 0 0 h 1 v 0 1 0 0 0 0 h 1 v 0 0 0 0 l 1,1 v 0 0 0 0 h 1 v 0 0 0 0 0 l 1,1 v 0 0 0 0 h 1 v 0 0 0 0 0 l 1,1 v 0 0 0 0 h 1 v 0 0 0 0 0 0 l 1,1 v 0 0 0 h 1 v 0 0 0 0 0 h 1 v 0 0 1 0 0 h 1 v 0 0 0 0 0 h 1 v 0 0 0 1 0 h 1 v 0 0 0 0 0 h 1 v 0 0 0 0 h 1 c -17,5 -35,18 -51,45 15,9 27,16 38,19 -11,5 -22,15 -33,32 9,6 17,10 24,12 -5,6 -10,12 -15,19 l 1,1 v 0 0 h 1 v 0 1 h 1 v 0 0 h 1 v 1 0 h 1 v 0 0 0 l 1,1 v 0 0 h 1 v 0 0 1 h 1 v 0 0 h 1 v 0 0 1 h 1 v 0 0 h 1 v 0 1 h 1 v 0 0 0 0 l 1,1 v 0 0 h 1 v 0 0 h 1 v 1 0 0 0 h 1 v 0 0 h 1 v 1 0 0 h 1 v 0 0 h 1 v 0 1 0 0 h 1 v 0 0 h 1 v 0 0 1 h 1 v 0 0 0 0 h 1 v 0 0 l 1,1 v 0 0 0 0 h 1 v 0 0 0 h 1 v 0 1 h 1 v 0 0 c -4,7 -7,16 -9,27 19,-1 33,-4 42,-11 0,11 3,22 7,31 14,-9 24,-18 30,-27 5,14 20,29 42,43 4,-7 6,-15 8,-23 7,-1 13,-3 17,-5 0,2 0,4 0,6 19,0 33,-4 41,-10 1,10 6,21 12,31 10,-8 17,-15 22,-22 11,-2 19,-5 24,-9 2,10 6,21 13,31 6,-5 12,-11 17,-16 4,5 10,11 17,16 6,-10 11,-21 12,-31 7,5 19,9 35,10 5,9 13,18 22,26 11,-20 18,-37 19,-51 5,10 17,21 33,31 4,-9 7,-20 7,-31 6,5 15,8 27,10 0,12 3,25 9,37 21,-14 37,-29 41,-43 6,9 17,18 30,27 5,-9 8,-20 7,-31 9,7 24,10 42,11 -1,-10 -4,-19 -8,-27 z m -30,-212 c 7,-8 15,-17 22,-30 -1,-1 -3,-2 -5,-3 1,1 1,2 2,3 h -1 v 0 0 l -1,1 v 0 0 h -1 v 0 0 1 h -1 v 0 0 h -1 v 1 0 0 0 h -1 v 1 0 h -1 v 0 0 h -1 v 1 0 0 h -1 v 0 0 1 h -1 v 0 0 0 h -1 v 1 0 0 h -1 v 0 0 0 l -1,1 v 0 0 0 h -1 v 0 0 1 h -1 v 0 0 0 h -1 v 0 0 1 h -1 v 0 0 0 0 h -1 v 1 0 0 h -1 v 0 0 h -1 v 0 0 1 0 h -1 v 0 0 0 h -1 v 0 0 0 0 l -1,1 v 0 0 0 h -1 v 0 0 0 0 h -1 c 3,5 5,11 6,17 z"
   class="fil35" />
     <path
   style="fill:#747f20;stroke:#747f20;stroke-width:4.11419"
   inkscape:connector-curvature="0"
   id="path1665"
   d="m 5398,1219 h 1 v 1 z m 0,-119 h 1 v 0 z m 34,0 h 2 c 0,0 -1,1 -1,1 0,0 0,-1 -1,-1 z m 59,0 h 2 c 0,0 -1,1 -1,1 0,0 -1,-1 -1,-1 z m 50,0 h 1 c 0,0 0,1 0,1 -1,0 -1,-1 -1,-1 z m -109,119 h 2 c 0,0 -1,1 -1,1 0,0 0,-1 -1,-1 z m 59,0 h 2 c 0,0 -1,1 -1,1 0,0 -1,-1 -1,-1 z m 50,0 h 1 c 0,0 0,1 0,1 -1,0 -1,-1 -1,-1 z m 269,-3 v 0 0 h 1 v 0 0 0 h 1 v 0 -1 h 1 v 0 0 0 0 h 1 v 0 0 l 1,-1 v 0 0 0 h 1 v 0 0 h 1 v 0 -1 0 0 h 1 v 0 0 h 1 v 0 0 -1 h 1 v 0 0 h 1 v 0 0 -1 h 1 v 0 0 0 h 1 v 0 0 l 1,-1 v 0 0 h 1 v 0 0 -1 h 1 v 0 0 h 1 v 0 -1 0 h 1 v 0 0 h 1 v -1 0 0 h 1 v 0 0 l 1,-1 v 0 0 h 1 v 0 0 l 1,-1 v 0 0 h 1 v 0 -1 h 1 v 0 0 h 1 v 0 -1 h 1 v 0 0 l 1,-1 c -5,-7 -10,-13 -15,-19 7,-2 15,-6 24,-12 -11,-17 -22,-27 -33,-32 11,-3 23,-10 38,-19 -8,-13 -17,-23 -25,-31 v 0 0 l -1,1 v 0 0 h -1 v 0 0 0 l -1,1 v 0 0 h -1 v 0 0 l -1,1 v 0 0 0 h -1 v 0 0 0 l -1,1 v 0 0 h -1 v 0 0 0 l -1,1 v 0 0 h -1 v 0 0 0 0 h -1 v 1 0 h -1 v 0 0 0 h -1 v 0 0 l -1,1 v 0 0 0 0 h -1 v 0 0 h -1 v 0 0 1 h -1 v 0 0 c 4,7 7,16 8,26 -18,0 -33,-4 -42,-10 1,10 -2,21 -7,31 -13,-9 -24,-18 -30,-27 -4,14 -20,28 -41,43 -6,-12 -9,-25 -9,-38 -12,-1 -21,-4 -27,-9 0,10 -3,21 -7,31 -16,-11 -28,-21 -33,-31 -1,13 -8,31 -19,50 -9,-7 -17,-16 -22,-26 -16,-1 -28,-4 -35,-10 -1,11 -6,21 -12,31 -7,-5 -13,-10 -17,-15 -5,5 -11,10 -17,15 -7,-10 -11,-20 -13,-31 -5,5 -13,8 -24,9 -5,7 -12,15 -22,22 -6,-10 -11,-20 -12,-31 -8,7 -22,10 -41,11 0,-3 0,-5 0,-7 -4,2 -10,4 -17,5 -2,8 -4,16 -8,24 -22,-15 -37,-29 -42,-43 -6,9 -16,18 -30,27 -4,-10 -7,-21 -7,-31 -9,6 -23,10 -42,10 2,-10 5,-19 9,-27 v 0 0 h -1 v 0 0 h -1 v 0 0 0 l -1,-1 v 0 0 0 0 h -1 v 0 0 h -1 v 0 0 -1 0 h -1 v 0 0 0 h -1 v 0 0 l -1,-1 v 0 0 0 0 h -1 v 0 0 l -1,-1 v 0 0 0 h -1 v 0 0 l -1,-1 v 0 0 0 0 h -1 v 0 0 l -1,-1 v 0 0 h -1 v 0 0 -1 0 h -1 v 0 c -8,8 -17,18 -25,31 15,9 27,16 38,19 -11,5 -22,15 -33,32 9,6 17,10 24,12 -5,6 -10,12 -15,19 l 1,1 v 0 0 h 1 v 0 1 h 1 v 0 0 h 1 v 1 0 h 1 v 0 0 0 l 1,1 v 0 0 h 1 v 0 0 1 h 1 v 0 0 h 1 v 0 0 1 h 1 v 0 0 h 1 v 0 1 h 1 v 0 0 0 0 l 1,1 v 0 0 h 1 v 0 0 h 1 v 1 0 0 0 h 1 v 0 0 h 1 v 1 0 0 h 1 v 0 0 h 1 v 0 1 0 0 h 1 v 0 0 h 1 v 0 0 1 h 1 v 0 0 0 0 h 1 v 0 0 l 1,1 v 0 0 0 0 h 1 v 0 0 0 h 1 v 0 1 h 1 v 0 0 c -4,7 -7,16 -9,27 19,-1 33,-4 42,-11 0,11 3,22 7,31 14,-9 24,-18 30,-27 5,14 20,29 42,43 4,-7 6,-15 8,-23 7,-1 13,-3 17,-5 0,2 0,4 0,6 19,0 33,-4 41,-10 1,10 6,21 12,31 10,-8 17,-15 22,-22 11,-2 19,-5 24,-9 2,10 6,21 13,31 6,-5 12,-11 17,-16 4,5 10,11 17,16 6,-10 11,-21 12,-31 7,5 19,9 35,10 5,9 13,18 22,26 11,-20 18,-37 19,-51 5,10 17,21 33,31 4,-9 7,-20 7,-31 6,5 15,8 27,10 0,12 3,25 9,37 21,-14 37,-29 41,-43 6,9 17,18 30,27 5,-9 8,-20 7,-31 9,7 24,10 42,11 -1,-10 -4,-19 -8,-27 z"
   class="fil36 str3" />
    </g>
    <g
   id="g1667">
     <path
   style="fill:#9dab35"
   inkscape:connector-curvature="0"
   id="path1669"
   d="m 4741,1225 z m 30,0 h 2 c 0,0 -1,1 -1,1 0,0 0,-1 -1,-1 z m 53,0 h 2 c 0,0 -1,1 -1,1 0,0 0,-1 -1,-1 z m 45,0 h 2 c 0,0 -1,1 -1,1 0,0 -1,-1 -1,-1 z m 244,-3 v 0 0 0 h 1 v 0 0 0 0 h 1 v 0 -1 0 h 1 v 0 0 0 0 h 1 v 0 0 0 l 1,-1 v 0 0 0 0 h 1 v 0 0 h 1 v -1 0 0 h 1 v 0 0 0 0 h 1 v -1 0 h 1 v 0 0 0 h 1 v 0 -1 0 h 1 v 0 0 0 h 1 v 0 -1 0 h 1 v 0 0 0 h 1 v -1 0 h 1 v 0 0 0 l 1,-1 v 0 0 h 1 v 0 0 0 l 1,-1 v 0 0 0 h 1 v 0 -1 h 1 v 0 0 0 l 1,-1 v 0 0 h 1 v 0 0 l 1,-1 v 0 0 h 1 c -5,-7 -9,-13 -13,-17 6,-3 13,-6 21,-11 -10,-16 -20,-25 -30,-30 10,-3 21,-8 35,-17 -14,-22 -29,-34 -43,-39 10,-3 22,-9 35,-17 v -1 0 0 0 0 0 0 0 0 0 0 0 0 0 0 0 0 0 0 0 0 0 h -1 v -1 0 0 0 0 0 0 0 0 0 0 0 0 0 0 0 0 0 0 0 0 0 0 0 -1 0 0 0 0 0 0 0 0 0 0 0 h -1 v 0 0 0 0 0 c -19,-30 -39,-42 -58,-44 8,-6 15,-16 23,-28 -23,-15 -42,-19 -57,-17 5,-6 11,-13 17,-23 -21,-13 -38,-17 -51,-15 8,-13 14,-31 19,-56 -40,-8 -68,-3 -85,9 0,-9 0,-20 -2,-33 -21,2 -38,8 -49,15 -6,-16 -20,-33 -42,-53 -17,18 -27,35 -32,50 -12,-6 -26,-10 -45,-12 -1,15 -2,28 -1,38 -17,-16 -46,-23 -91,-14 5,25 11,43 19,56 -13,-2 -30,2 -51,15 1,2 3,5 4,7 -18,-2 -41,4 -69,21 16,25 30,41 43,48 -14,4 -30,17 -45,41 4,2 8,4 12,6 v 0 0 1 0 0 h 1 v 0 0 0 0 h 1 v 0 0 1 0 0 h 1 v 0 0 0 0 0 h 1 v 0 1 0 0 0 h 1 v 0 0 0 0 0 h 1 v 0 1 0 0 0 h 1 v 0 0 0 0 0 0 h 1 v 0 1 0 0 0 h 1 v 0 0 0 0 0 h 1 v 0 0 1 0 h 1 v 0 0 0 0 0 0 h 1 v 0 0 0 1 0 h 1 v 0 0 0 0 0 0 h 1 v 0 0 0 0 0 0 l 1,1 v 0 0 0 0 0 0 h 1 v 0 0 0 c -15,4 -31,16 -46,40 14,9 25,14 35,17 -10,5 -20,14 -30,30 8,5 15,8 22,11 -5,4 -9,10 -13,17 v 0 0 0 l 1,1 v 0 0 h 1 v 0 0 1 h 1 v 0 0 h 1 v 0 1 0 h 1 v 0 0 0 l 1,1 v 0 0 h 1 v 0 0 0 1 h 1 v 0 0 h 1 v 0 0 1 h 1 v 0 0 0 0 h 1 v 0 1 h 1 v 0 0 0 h 1 v 0 1 0 0 h 1 v 0 0 h 1 v 0 0 1 0 h 1 v 0 0 0 h 1 v 0 0 1 0 h 1 v 0 0 0 h 1 v 0 0 0 h 1 v 1 0 0 h 1 v 0 0 0 0 h 1 v 0 0 1 h 1 v 0 0 0 0 h 1 c -4,7 -7,15 -8,24 16,0 30,-3 38,-9 -1,9 2,19 6,28 12,-8 22,-16 27,-24 4,12 18,25 38,38 3,-6 5,-14 7,-21 6,-1 11,-2 16,-5 0,2 0,4 0,6 16,0 29,-3 36,-9 1,9 5,19 11,28 9,-7 16,-13 20,-20 10,-1 17,-4 22,-8 1,9 6,19 11,28 6,-5 12,-9 16,-14 4,5 9,9 15,14 6,-9 10,-19 11,-28 7,5 17,8 32,9 4,9 12,17 20,23 10,-17 16,-33 17,-45 4,9 15,18 29,28 4,-9 7,-19 6,-28 6,4 15,7 25,8 0,12 3,24 8,34 20,-13 33,-26 38,-38 5,8 15,16 27,24 4,-9 6,-19 6,-28 8,6 22,9 38,9 -1,-9 -4,-17 -7,-24 z"
   class="fil34" />
     <path
   style="fill:#8d9a27"
   inkscape:connector-curvature="0"
   id="path1671"
   d="m 4741,1225 z m 15,-207 h 1 l -1,1 z m 27,0 h 1 c 0,1 0,1 -1,2 0,-1 0,-1 0,-2 z m 46,0 h 1 c 0,1 0,1 0,2 -1,-1 -1,-1 -1,-2 z m 39,0 h 1 c 0,1 0,1 0,2 0,-1 -1,-1 -1,-2 z m -97,207 h 2 c 0,0 -1,1 -1,1 0,0 0,-1 -1,-1 z m 53,0 h 2 c 0,0 -1,1 -1,1 0,0 0,-1 -1,-1 z m 45,0 h 2 c 0,0 -1,1 -1,1 0,0 -1,-1 -1,-1 z m 244,-3 v 0 0 0 h 1 v 0 0 0 0 h 1 v 0 -1 0 h 1 v 0 0 0 0 h 1 v 0 0 0 l 1,-1 v 0 0 0 0 h 1 v 0 0 h 1 v -1 0 0 h 1 v 0 0 0 0 h 1 v -1 0 h 1 v 0 0 0 h 1 v 0 -1 0 h 1 v 0 0 0 h 1 v 0 -1 0 h 1 v 0 0 0 h 1 v -1 0 h 1 v 0 0 0 l 1,-1 v 0 0 h 1 v 0 0 0 l 1,-1 v 0 0 0 h 1 v 0 -1 h 1 v 0 0 0 l 1,-1 v 0 0 h 1 v 0 0 l 1,-1 v 0 0 h 1 c -5,-7 -9,-13 -13,-17 6,-3 13,-6 21,-11 -10,-16 -20,-25 -30,-30 10,-3 21,-8 35,-17 -14,-22 -29,-34 -43,-39 10,-3 22,-9 35,-17 v -1 0 0 0 0 0 0 0 0 0 0 0 0 0 0 0 0 0 0 0 0 0 h -1 v -1 0 0 0 0 0 0 0 0 0 0 0 0 0 0 0 0 0 0 0 0 0 0 0 -1 0 0 0 0 0 0 0 0 0 0 0 h -1 v 0 0 0 0 0 c -18,-28 -37,-41 -55,-43 0,2 1,4 1,7 -14,-1 -26,-4 -33,-10 0,10 -2,19 -6,28 -10,-8 -19,-16 -23,-24 -4,13 -16,25 -33,39 -5,-11 -7,-23 -7,-34 -9,-2 -16,-4 -22,-9 1,10 -1,19 -5,28 -13,-9 -22,-19 -26,-28 0,12 -6,28 -15,46 -7,-7 -13,-15 -17,-24 -13,0 -22,-4 -28,-9 -1,10 -4,19 -9,28 -6,-4 -10,-9 -14,-13 -3,4 -8,9 -13,13 -5,-9 -9,-18 -10,-28 -4,4 -11,7 -19,8 -4,7 -10,14 -18,20 -5,-9 -8,-18 -9,-28 -6,6 -18,9 -32,10 0,-2 0,-4 0,-6 -4,2 -8,3 -14,4 -1,8 -3,15 -6,22 -17,-14 -29,-26 -33,-39 -4,8 -13,16 -23,24 -4,-9 -6,-18 -6,-28 -7,6 -19,9 -33,10 1,-10 3,-18 7,-25 h -1 v 0 0 0 0 0 h -1 v 0 0 0 0 l -1,-1 v 0 0 0 0 0 h -1 v 0 0 0 -1 h -1 v 0 0 0 h -1 v 0 0 0 0 -1 h -1 v 0 0 0 0 h -1 v 0 0 -1 h -1 v 0 0 0 0 h -1 v 0 0 -1 0 h -1 v 0 0 0 h -1 v -1 0 0 0 h -1 v 0 0 -1 h -1 v 0 0 0 0 h -1 v -1 0 0 h -1 v 0 0 0 -1 h -1 v 0 0 h -1 v 0 0 -1 0 h -1 v 0 0 0 l -1,-1 v 0 0 0 0 l -1,-1 v 0 c 4,-7 7,-12 11,-17 -4,-2 -9,-4 -14,-8 -8,4 -17,8 -26,14 16,25 30,41 43,48 -14,4 -30,17 -45,41 4,2 8,4 12,6 v 0 0 1 0 0 h 1 v 0 0 0 0 h 1 v 0 0 1 0 0 h 1 v 0 0 0 0 0 h 1 v 0 1 0 0 0 h 1 v 0 0 0 0 0 h 1 v 0 1 0 0 0 h 1 v 0 0 0 0 0 0 h 1 v 0 1 0 0 0 h 1 v 0 0 0 0 0 h 1 v 0 0 1 0 h 1 v 0 0 0 0 0 0 h 1 v 0 0 0 1 0 h 1 v 0 0 0 0 0 0 h 1 v 0 0 0 0 0 0 l 1,1 v 0 0 0 0 0 0 h 1 v 0 0 0 c -15,4 -31,16 -46,40 14,9 25,14 35,17 -10,5 -20,14 -30,30 8,5 15,8 22,11 -5,4 -9,10 -13,17 v 0 0 0 l 1,1 v 0 0 h 1 v 0 0 1 h 1 v 0 0 h 1 v 0 1 0 h 1 v 0 0 0 l 1,1 v 0 0 h 1 v 0 0 0 1 h 1 v 0 0 h 1 v 0 0 1 h 1 v 0 0 0 0 h 1 v 0 1 h 1 v 0 0 0 h 1 v 0 1 0 0 h 1 v 0 0 h 1 v 0 0 1 0 h 1 v 0 0 0 h 1 v 0 0 1 0 h 1 v 0 0 0 h 1 v 0 0 0 h 1 v 1 0 0 h 1 v 0 0 0 0 h 1 v 0 0 1 h 1 v 0 0 0 0 h 1 c -4,7 -7,15 -8,24 16,0 30,-3 38,-9 -1,9 2,19 6,28 12,-8 22,-16 27,-24 4,12 18,25 38,38 3,-6 5,-14 7,-21 6,-1 11,-2 16,-5 0,2 0,4 0,6 16,0 29,-3 36,-9 1,9 5,19 11,28 9,-7 16,-13 20,-20 10,-1 17,-4 22,-8 1,9 6,19 11,28 6,-5 12,-9 16,-14 4,5 9,9 15,14 6,-9 10,-19 11,-28 7,5 17,8 32,9 4,9 12,17 20,23 10,-17 16,-33 17,-45 4,9 15,18 29,28 4,-9 7,-19 6,-28 6,4 15,7 25,8 0,12 3,24 8,34 20,-13 33,-26 38,-38 5,8 15,16 27,24 4,-9 6,-19 6,-28 8,6 22,9 38,9 -1,-9 -4,-17 -7,-24 z m -27,-192 c 6,-6 13,-15 20,-26 -2,-1 -4,-2 -5,-3 0,1 1,1 1,2 v 0 l -1,1 v 0 0 0 0 l -1,1 v 0 0 0 h -1 v 0 1 h -1 v 0 0 0 0 l -1,1 v 0 0 0 h -1 v 0 1 0 h -1 v 0 0 0 h -1 v 1 0 0 h -1 v 0 0 0 1 h -1 v 0 0 0 h -1 v 0 1 0 0 h -1 v 0 0 0 h -1 v 1 0 0 0 h -1 v 0 0 0 0 l -1,1 v 0 0 0 h -1 v 0 0 0 0 l -1,1 v 0 0 0 h -1 v 0 0 0 0 h -1 v 1 0 0 0 0 h -1 v 0 0 0 h -1 v 0 0 1 0 h -1 c 3,4 4,9 6,14 z"
   class="fil35" />
     <path
   style="fill:#747f20"
   inkscape:connector-curvature="0"
   id="path1673"
   d="m 4741,1225 z m 0,-108 v 0 1 z m 30,0 h 2 c 0,0 -1,1 -1,1 0,0 0,-1 -1,-1 z m 53,0 h 2 c 0,0 -1,1 -1,1 0,0 0,-1 -1,-1 z m 45,0 h 2 c 0,0 -1,1 -1,1 0,0 -1,-1 -1,-1 z m -98,108 h 2 c 0,0 -1,1 -1,1 0,0 0,-1 -1,-1 z m 53,0 h 2 c 0,0 -1,1 -1,1 0,0 0,-1 -1,-1 z m 45,0 h 2 c 0,0 -1,1 -1,1 0,0 -1,-1 -1,-1 z m 244,-3 v 0 0 0 h 1 v 0 0 0 0 h 1 v 0 -1 0 h 1 v 0 0 0 0 h 1 v 0 0 0 l 1,-1 v 0 0 0 0 h 1 v 0 0 h 1 v -1 0 0 h 1 v 0 0 0 0 h 1 v -1 0 h 1 v 0 0 0 h 1 v 0 -1 0 h 1 v 0 0 0 h 1 v 0 -1 0 h 1 v 0 0 0 h 1 v -1 0 h 1 v 0 0 0 l 1,-1 v 0 0 h 1 v 0 0 0 l 1,-1 v 0 0 0 h 1 v 0 -1 h 1 v 0 0 0 l 1,-1 v 0 0 h 1 v 0 0 l 1,-1 v 0 0 h 1 c -5,-7 -9,-13 -13,-17 6,-3 13,-6 21,-11 -10,-16 -20,-25 -30,-30 10,-3 21,-8 35,-17 -8,-12 -16,-21 -23,-27 v 0 h -1 v 0 0 0 h -1 v 1 0 0 h -1 v 0 0 0 h -1 v 1 0 0 h -1 v 0 0 0 l -1,1 v 0 0 h -1 v 0 0 0 0 h -1 v 1 0 0 h -1 v 0 0 h -1 v 0 0 1 0 h -1 v 0 0 0 h -1 v 0 0 0 0 h -1 v 1 0 0 h -1 v 0 0 0 0 h -1 v 0 0 0 c 3,7 6,15 7,24 -16,0 -30,-3 -38,-9 0,9 -2,19 -6,28 -12,-8 -22,-16 -27,-24 -5,12 -18,25 -38,39 -5,-11 -8,-23 -8,-35 -10,-1 -19,-4 -25,-8 1,9 -2,19 -6,28 -14,-10 -25,-19 -29,-28 -1,12 -7,28 -17,46 -8,-7 -16,-15 -20,-24 -15,-1 -25,-4 -32,-9 -1,9 -5,19 -11,28 -6,-5 -11,-9 -15,-14 -4,5 -10,9 -16,14 -5,-9 -10,-19 -11,-28 -5,4 -12,7 -22,8 -4,7 -11,13 -20,20 -6,-9 -10,-19 -11,-28 -7,6 -20,9 -36,9 0,-2 0,-4 0,-5 -5,2 -10,3 -16,4 -2,7 -4,15 -7,22 -20,-14 -34,-27 -38,-39 -5,8 -15,16 -27,24 -4,-9 -7,-19 -6,-28 -8,6 -22,9 -38,9 1,-9 4,-17 8,-24 h -1 v 0 0 0 0 h -1 v 0 0 -1 h -1 v 0 0 0 0 h -1 v 0 0 0 h -1 v -1 0 0 h -1 v 0 0 0 h -1 v 0 0 -1 0 h -1 v 0 0 0 h -1 v 0 0 -1 0 h -1 v 0 0 h -1 v 0 0 -1 0 h -1 v 0 0 0 h -1 v 0 0 l -1,-1 v 0 0 0 0 h -1 v 0 c -7,6 -15,15 -23,27 14,9 25,14 35,17 -10,5 -20,14 -30,30 8,5 15,8 22,11 -5,4 -9,10 -13,17 v 0 0 0 l 1,1 v 0 0 h 1 v 0 0 1 h 1 v 0 0 h 1 v 0 1 0 h 1 v 0 0 0 l 1,1 v 0 0 h 1 v 0 0 0 1 h 1 v 0 0 h 1 v 0 0 1 h 1 v 0 0 0 0 h 1 v 0 1 h 1 v 0 0 0 h 1 v 0 1 0 0 h 1 v 0 0 h 1 v 0 0 1 0 h 1 v 0 0 0 h 1 v 0 0 1 0 h 1 v 0 0 0 h 1 v 0 0 0 h 1 v 1 0 0 h 1 v 0 0 0 0 h 1 v 0 0 1 h 1 v 0 0 0 0 h 1 c -4,7 -7,15 -8,24 16,0 30,-3 38,-9 -1,9 2,19 6,28 12,-8 22,-16 27,-24 4,12 18,25 38,38 3,-6 5,-14 7,-21 6,-1 11,-2 16,-5 0,2 0,4 0,6 16,0 29,-3 36,-9 1,9 5,19 11,28 9,-7 16,-13 20,-20 10,-1 17,-4 22,-8 1,9 6,19 11,28 6,-5 12,-9 16,-14 4,5 9,9 15,14 6,-9 10,-19 11,-28 7,5 17,8 32,9 4,9 12,17 20,23 10,-17 16,-33 17,-45 4,9 15,18 29,28 4,-9 7,-19 6,-28 6,4 15,7 25,8 0,12 3,24 8,34 20,-13 33,-26 38,-38 5,8 15,16 27,24 4,-9 6,-19 6,-28 8,6 22,9 38,9 -1,-9 -4,-17 -7,-24 z"
   class="fil36" />
    </g>
    <g
   id="g1675">
     <path
   style="fill:#bbce3f"
   inkscape:connector-curvature="0"
   id="path1677"
   d="m 5020,1218 h 1 l -1,1 z m 40,0 h 2 c 0,1 -1,1 -1,2 0,-1 -1,-1 -1,-2 z m 70,0 h 2 c -1,1 -1,1 -1,2 -1,-1 -1,-1 -1,-2 z m 59,0 h 2 c -1,1 -1,1 -1,2 -1,-1 -1,-1 -1,-2 z m 320,-3 v 0 0 0 l 1,-1 v 0 0 h 1 v 0 0 h 1 v 0 0 l 1,-1 v 0 0 h 1 v 0 0 h 1 v 0 -1 0 0 h 1 v 0 0 h 1 v -1 0 h 1 v 0 0 h 1 v 0 0 l 1,-1 v 0 0 h 1 v 0 0 l 1,-1 v 0 0 h 1 v 0 0 l 1,-1 v 0 0 h 1 v 0 0 l 1,-1 v 0 0 h 1 v 0 0 l 1,-1 v 0 h 1 v 0 0 l 1,-1 v 0 0 h 1 v -1 0 h 1 v 0 h 1 v 0 -1 h 1 v 0 h 1 v 0 -1 h 1 v 0 0 l 1,-1 v 0 0 h 1 v 0 l 1,-1 v 0 0 h 1 v -1 0 h 1 v -1 c -5,-9 -11,-16 -17,-22 9,-3 18,-8 28,-15 -13,-20 -26,-32 -39,-38 13,-4 28,-11 46,-22 -19,-30 -38,-46 -56,-52 13,-5 28,-12 46,-23 v 0 0 0 0 -1 0 0 0 h -1 v 0 0 0 0 0 0 0 0 0 0 0 0 -1 0 0 0 0 0 0 0 0 0 0 0 0 0 0 0 h -1 v 0 -1 0 0 0 0 0 0 0 0 0 0 0 0 0 0 0 0 0 -1 0 0 0 0 0 0 h -1 c -25,-39 -51,-55 -76,-57 10,-9 19,-21 30,-38 -30,-19 -55,-25 -75,-22 7,-7 15,-17 22,-30 -27,-17 -49,-22 -67,-19 11,-17 18,-42 25,-74 -52,-11 -89,-4 -112,12 1,-12 0,-27 -2,-44 -28,3 -50,10 -65,20 -8,-21 -26,-43 -55,-70 -22,24 -36,46 -43,66 -14,-8 -33,-14 -58,-16 -2,20 -2,37 -1,50 -23,-20 -61,-30 -120,-18 7,32 15,57 25,74 -18,-3 -40,2 -67,19 2,3 4,6 5,9 -24,-3 -54,5 -91,28 21,33 39,53 58,64 -20,5 -40,21 -60,52 5,4 10,7 15,9 v 0 h 1 v 1 0 0 h 1 v 0 0 0 0 l 1,1 v 0 0 0 0 h 1 v 0 0 1 h 1 v 0 0 0 0 h 1 v 0 0 1 h 1 v 0 0 0 0 h 1 v 0 0 1 h 1 v 0 0 0 0 h 1 v 0 0 0 1 h 1 v 0 0 0 0 h 1 v 0 0 1 0 h 1 v 0 0 0 0 h 1 v 0 0 l 1,1 v 0 0 0 0 h 1 v 0 0 0 0 h 1 v 0 1 0 0 h 1 v 0 0 0 0 h 1 v 0 0 1 0 h 1 v 0 0 0 0 h 1 v 0 0 0 0 h 1 v 1 c -20,5 -41,21 -60,53 17,11 32,18 45,22 -13,6 -26,18 -39,38 11,7 20,12 28,15 -6,6 -12,13 -17,22 v 1 h 1 v 0 h 1 v 1 0 h 1 v 0 0 l 1,1 v 0 0 h 1 v 1 0 h 1 v 0 0 l 1,1 v 0 h 1 v 0 0 l 1,1 v 0 0 h 1 v 1 0 h 1 v 0 0 h 1 v 1 0 h 1 v 0 0 h 1 v 1 0 h 1 v 0 0 l 1,1 v 0 0 h 1 v 0 0 l 1,1 v 0 0 h 1 v 0 0 h 1 v 1 0 h 1 v 0 0 h 1 v 0 1 0 h 1 v 0 0 0 h 1 v 1 0 h 1 v 0 0 h 1 v 0 0 l 1,1 v 0 0 h 1 v 0 0 0 0 h 1 v 1 0 h 1 v 0 0 h 1 v 0 0 0 c -5,9 -8,20 -10,32 22,0 39,-4 50,-12 0,12 3,25 8,37 16,-11 29,-22 36,-32 6,16 24,33 50,51 4,-9 7,-19 9,-28 8,-1 15,-4 21,-6 0,2 0,5 0,7 21,0 38,-4 47,-12 2,12 8,25 15,37 12,-9 21,-18 27,-26 12,-2 22,-6 28,-11 2,12 7,25 15,37 8,-6 15,-12 20,-18 6,6 12,12 20,18 8,-12 13,-25 15,-37 8,7 23,11 41,12 7,12 16,22 27,31 13,-24 22,-44 22,-60 6,12 20,24 39,37 5,-12 9,-25 8,-37 8,6 19,9 33,11 0,15 3,31 10,45 26,-18 44,-35 50,-51 7,10 19,21 35,32 6,-12 9,-25 9,-37 10,8 28,12 50,12 -2,-12 -5,-22 -10,-31 z"
   class="fil37" />
     <path
   style="fill:#aabd30"
   inkscape:connector-curvature="0"
   id="path1679"
   d="m 5020,1218 h 1 l -1,1 z m 20,-272 h 1 l -1,1 z m 35,0 h 2 c -1,1 -1,2 -1,2 -1,0 -1,-1 -1,-2 z m 61,0 h 2 c -1,1 -1,2 -1,2 -1,0 -1,-1 -1,-2 z m 51,0 h 2 c 0,1 -1,2 -1,2 0,0 -1,-1 -1,-2 z m -127,272 h 2 c 0,1 -1,1 -1,2 0,-1 -1,-1 -1,-2 z m 70,0 h 2 c -1,1 -1,1 -1,2 -1,-1 -1,-1 -1,-2 z m 59,0 h 2 c -1,1 -1,1 -1,2 -1,-1 -1,-1 -1,-2 z m 320,-3 v 0 0 0 l 1,-1 v 0 0 h 1 v 0 0 h 1 v 0 0 l 1,-1 v 0 0 h 1 v 0 0 h 1 v 0 -1 0 0 h 1 v 0 0 h 1 v -1 0 h 1 v 0 0 h 1 v 0 0 l 1,-1 v 0 0 h 1 v 0 0 l 1,-1 v 0 0 h 1 v 0 0 l 1,-1 v 0 0 h 1 v 0 0 l 1,-1 v 0 0 h 1 v 0 0 l 1,-1 v 0 h 1 v 0 0 l 1,-1 v 0 0 h 1 v -1 0 h 1 v 0 h 1 v 0 -1 h 1 v 0 h 1 v 0 -1 h 1 v 0 0 l 1,-1 v 0 0 h 1 v 0 l 1,-1 v 0 0 h 1 v -1 0 h 1 v -1 c -5,-9 -11,-16 -17,-22 9,-3 18,-8 28,-15 -13,-20 -26,-32 -39,-38 13,-4 28,-11 46,-22 -19,-30 -38,-46 -56,-52 13,-5 28,-12 46,-23 v 0 0 0 0 -1 0 0 0 h -1 v 0 0 0 0 0 0 0 0 0 0 0 0 -1 0 0 0 0 0 0 0 0 0 0 0 0 0 0 0 h -1 v 0 -1 0 0 0 0 0 0 0 0 0 0 0 0 0 0 0 0 0 -1 0 0 0 0 0 0 h -1 c -23,-37 -49,-54 -72,-57 0,3 1,6 1,10 -19,-1 -34,-5 -43,-13 0,13 -3,26 -8,37 -14,-11 -25,-21 -31,-32 -5,17 -21,34 -43,51 -6,-14 -9,-30 -9,-45 -12,-1 -22,-5 -28,-11 0,13 -3,26 -8,37 -16,-13 -28,-25 -34,-37 0,16 -7,37 -19,60 -9,-9 -18,-19 -23,-31 -16,-1 -29,-5 -36,-12 -2,13 -6,25 -13,37 -7,-6 -13,-12 -18,-18 -4,6 -10,12 -17,18 -7,-12 -11,-24 -13,-37 -6,6 -14,9 -25,11 -5,9 -13,17 -23,26 -7,-12 -11,-24 -13,-37 -8,8 -23,12 -42,13 0,-3 0,-6 0,-8 -5,3 -11,5 -18,6 -2,10 -4,19 -8,28 -22,-17 -38,-34 -43,-51 -6,11 -17,21 -31,32 -5,-11 -8,-24 -8,-37 -9,8 -24,12 -43,13 1,-13 4,-23 9,-32 h -1 v -1 0 0 0 h -1 v 0 0 0 h -1 v 0 -1 h -1 v 0 0 0 0 h -1 v 0 -1 h -1 v 0 0 0 h -1 v 0 -1 0 h -1 v 0 0 0 h -1 v 0 -1 h -1 v 0 0 0 0 l -1,-1 v 0 0 h -1 v 0 0 h -1 v -1 0 0 h -1 v 0 0 -1 h -1 v 0 0 h -1 v -1 0 0 h -1 v 0 0 l -1,-1 v 0 0 h -1 v 0 -1 h -1 v 0 0 0 h -1 v -1 0 h -1 v 0 -1 0 h -1 v 0 0 l -1,-1 v 0 0 h -1 v 0 -1 h -1 v 0 0 l -1,-1 v 0 0 h -1 c 5,-9 10,-17 15,-23 -5,-2 -11,-6 -18,-10 -11,4 -23,10 -35,18 21,33 39,53 58,64 -20,5 -40,21 -60,52 5,4 10,7 15,9 v 0 h 1 v 1 0 0 h 1 v 0 0 0 0 l 1,1 v 0 0 0 0 h 1 v 0 0 1 h 1 v 0 0 0 0 h 1 v 0 0 1 h 1 v 0 0 0 0 h 1 v 0 0 1 h 1 v 0 0 0 0 h 1 v 0 0 0 1 h 1 v 0 0 0 0 h 1 v 0 0 1 0 h 1 v 0 0 0 0 h 1 v 0 0 l 1,1 v 0 0 0 0 h 1 v 0 0 0 0 h 1 v 0 1 0 0 h 1 v 0 0 0 0 h 1 v 0 0 1 0 h 1 v 0 0 0 0 h 1 v 0 0 0 0 h 1 v 1 c -20,5 -41,21 -60,53 17,11 32,18 45,22 -13,6 -26,18 -39,38 11,7 20,12 28,15 -6,6 -12,13 -17,22 v 1 h 1 v 0 h 1 v 1 0 h 1 v 0 0 l 1,1 v 0 0 h 1 v 1 0 h 1 v 0 0 l 1,1 v 0 h 1 v 0 0 l 1,1 v 0 0 h 1 v 1 0 h 1 v 0 0 h 1 v 1 0 h 1 v 0 0 h 1 v 1 0 h 1 v 0 0 l 1,1 v 0 0 h 1 v 0 0 l 1,1 v 0 0 h 1 v 0 0 h 1 v 1 0 h 1 v 0 0 h 1 v 0 1 0 h 1 v 0 0 0 h 1 v 1 0 h 1 v 0 0 h 1 v 0 0 l 1,1 v 0 0 h 1 v 0 0 0 0 h 1 v 1 0 h 1 v 0 0 h 1 v 0 0 0 c -5,9 -8,20 -10,32 22,0 39,-4 50,-12 0,12 3,25 8,37 16,-11 29,-22 36,-32 6,16 24,33 50,51 4,-9 7,-19 9,-28 8,-1 15,-4 21,-6 0,2 0,5 0,7 21,0 38,-4 47,-12 2,12 8,25 15,37 12,-9 21,-18 27,-26 12,-2 22,-6 28,-11 2,12 7,25 15,37 8,-6 15,-12 20,-18 6,6 12,12 20,18 8,-12 13,-25 15,-37 8,7 23,11 41,12 7,12 16,22 27,31 13,-24 22,-44 22,-60 6,12 20,24 39,37 5,-12 9,-25 8,-37 8,6 19,9 33,11 0,15 3,31 10,45 26,-18 44,-35 50,-51 7,10 19,21 35,32 6,-12 9,-25 9,-37 10,8 28,12 50,12 -2,-12 -5,-22 -10,-31 z m -36,-253 c 9,-8 17,-20 27,-35 -3,-1 -5,-2 -7,-4 1,1 1,3 2,4 v 0 h -1 v 0 1 h -1 v 0 0 l -1,1 v 0 0 h -1 v 0 1 h -1 v 0 1 h -1 v 0 0 h -1 v 0 1 h -1 v 0 0 l -1,1 v 0 0 h -1 v 0 1 h -1 v 0 0 0 h -1 v 1 0 h -1 v 0 0 l -1,1 v 0 0 0 h -1 v 0 1 h -1 v 0 0 h -1 v 0 1 h -1 v 0 0 0 0 l -1,1 v 0 0 h -1 v 0 0 h -1 v 1 0 0 h -1 v 0 0 l -1,1 v 0 0 0 0 h -1 v 0 0 h -1 v 1 0 0 h -1 v 0 0 h -1 v 0 0 1 0 h -1 v 0 0 h -1 c 3,6 5,12 7,19 z"
   class="fil38" />
     <path
   style="fill:#92a229"
   inkscape:connector-curvature="0"
   id="path1681"
   d="m 5020,1218 h 1 l -1,1 z m 0,-142 h 1 l -1,1 z m 40,0 h 2 c 0,1 -1,1 -1,2 0,0 -1,-1 -1,-2 z m 70,0 h 2 c -1,1 -1,1 -1,2 -1,0 -1,-1 -1,-2 z m 59,0 h 2 c -1,1 -1,2 -1,2 -1,-1 -1,-1 -1,-2 z m -129,142 h 2 c 0,1 -1,1 -1,2 0,-1 -1,-1 -1,-2 z m 70,0 h 2 c -1,1 -1,1 -1,2 -1,-1 -1,-1 -1,-2 z m 59,0 h 2 c -1,1 -1,1 -1,2 -1,-1 -1,-1 -1,-2 z m 320,-3 v 0 0 0 l 1,-1 v 0 0 h 1 v 0 0 h 1 v 0 0 l 1,-1 v 0 0 h 1 v 0 0 h 1 v 0 -1 0 0 h 1 v 0 0 h 1 v -1 0 h 1 v 0 0 h 1 v 0 0 l 1,-1 v 0 0 h 1 v 0 0 l 1,-1 v 0 0 h 1 v 0 0 l 1,-1 v 0 0 h 1 v 0 0 l 1,-1 v 0 0 h 1 v 0 0 l 1,-1 v 0 h 1 v 0 0 l 1,-1 v 0 0 h 1 v -1 0 h 1 v 0 h 1 v 0 -1 h 1 v 0 h 1 v 0 -1 h 1 v 0 0 l 1,-1 v 0 0 h 1 v 0 l 1,-1 v 0 0 h 1 v -1 0 h 1 v -1 c -5,-9 -11,-16 -17,-22 9,-3 18,-8 28,-15 -13,-20 -26,-32 -39,-38 13,-4 28,-11 46,-22 -10,-16 -20,-28 -30,-37 v 0 h -1 v 0 l -1,1 v 0 0 h -1 v 0 0 l -1,1 v 0 0 h -1 v 0 1 h -1 v 0 0 h -1 v 0 1 h -1 v 0 0 h -1 v 0 0 l -1,1 v 0 0 h -1 v 0 0 l -1,1 v 0 0 h -1 v 0 0 h -1 v 0 1 0 0 h -1 v 0 0 h -1 v 1 0 h -1 v 0 0 h -1 v 0 0 h -1 v 1 0 h -1 v 0 0 0 c 5,9 8,19 10,31 -22,0 -40,-4 -50,-12 0,12 -3,25 -9,37 -16,-11 -28,-21 -35,-32 -6,17 -24,33 -50,51 -7,-14 -10,-30 -10,-45 -14,-2 -25,-5 -33,-11 1,12 -3,25 -8,37 -19,-13 -33,-25 -39,-37 0,16 -9,37 -22,60 -11,-9 -20,-19 -27,-31 -18,-1 -33,-5 -41,-12 -2,12 -7,25 -15,37 -8,-6 -14,-12 -20,-18 -5,6 -12,12 -20,18 -8,-12 -13,-25 -15,-37 -6,5 -16,9 -28,11 -6,8 -15,17 -27,26 -7,-12 -13,-25 -15,-37 -9,8 -26,12 -47,12 0,-2 0,-5 0,-7 -6,3 -13,5 -21,6 -2,9 -5,19 -9,28 -26,-18 -44,-34 -50,-51 -7,11 -20,21 -36,32 -5,-12 -8,-25 -8,-37 -11,8 -28,12 -50,12 2,-12 5,-22 10,-31 v -1 0 0 h -1 v 0 0 h -1 v 0 0 l -1,-1 v 0 0 0 0 h -1 v 0 0 h -1 v -1 0 h -1 v 0 0 h -1 v 0 0 l -1,-1 v 0 0 0 h -1 v 0 0 -1 h -1 v 0 0 h -1 v 0 0 l -1,-1 v 0 0 h -1 v 0 0 l -1,-1 v 0 0 h -1 v 0 0 l -1,-1 v 0 0 h -1 v 0 0 l -1,-1 v 0 0 0 c -10,9 -21,21 -30,37 17,11 32,18 45,22 -13,6 -26,18 -39,38 11,7 20,12 28,15 -6,6 -12,13 -17,22 v 1 h 1 v 0 h 1 v 1 0 h 1 v 0 0 l 1,1 v 0 0 h 1 v 1 0 h 1 v 0 0 l 1,1 v 0 h 1 v 0 0 l 1,1 v 0 0 h 1 v 1 0 h 1 v 0 0 h 1 v 1 0 h 1 v 0 0 h 1 v 1 0 h 1 v 0 0 l 1,1 v 0 0 h 1 v 0 0 l 1,1 v 0 0 h 1 v 0 0 h 1 v 1 0 h 1 v 0 0 h 1 v 0 1 0 h 1 v 0 0 0 h 1 v 1 0 h 1 v 0 0 h 1 v 0 0 l 1,1 v 0 0 h 1 v 0 0 0 0 h 1 v 1 0 h 1 v 0 0 h 1 v 0 0 0 c -5,9 -8,20 -10,32 22,0 39,-4 50,-12 0,12 3,25 8,37 16,-11 29,-22 36,-32 6,16 24,33 50,51 4,-9 7,-19 9,-28 8,-1 15,-4 21,-6 0,2 0,5 0,7 21,0 38,-4 47,-12 2,12 8,25 15,37 12,-9 21,-18 27,-26 12,-2 22,-6 28,-11 2,12 7,25 15,37 8,-6 15,-12 20,-18 6,6 12,12 20,18 8,-12 13,-25 15,-37 8,7 23,11 41,12 7,12 16,22 27,31 13,-24 22,-44 22,-60 6,12 20,24 39,37 5,-12 9,-25 8,-37 8,6 19,9 33,11 0,15 3,31 10,45 26,-18 44,-35 50,-51 7,10 19,21 35,32 6,-12 9,-25 9,-37 10,8 28,12 50,12 -2,-12 -5,-22 -10,-31 z"
   class="fil39" />
    </g>
   </g>
   
   
   
   
   
   
   
  </g>
</svg>
