<?xml version="1.0" encoding="UTF-8" standalone="no"?>
<!-- Created with Inkscape (http://www.inkscape.org/) -->

<svg
   width="256"
   height="512"
   viewBox="0 0 67.73333 135.46667"
   version="1.1"
   id="svg5"
   inkscape:version="1.1.2 (0a00cf5339, 2022-02-04)"
   sodipodi:docname="wood_door.svg"
   xmlns:inkscape="http://www.inkscape.org/namespaces/inkscape"
   xmlns:sodipodi="http://sodipodi.sourceforge.net/DTD/sodipodi-0.dtd"
   xmlns="http://www.w3.org/2000/svg"
   xmlns:svg="http://www.w3.org/2000/svg"
   xmlns:rdf="http://www.w3.org/1999/02/22-rdf-syntax-ns#"
   xmlns:cc="http://creativecommons.org/ns#"
   xmlns:dc="http://purl.org/dc/elements/1.1/">
  <sodipodi:namedview
     id="namedview7"
     pagecolor="#505050"
     bordercolor="#ffffff"
     borderopacity="1"
     inkscape:pageshadow="0"
     inkscape:pageopacity="0"
     inkscape:pagecheckerboard="1"
     inkscape:document-units="px"
     showgrid="true"
     units="px"
     width="512px"
     inkscape:snap-global="false"
     inkscape:zoom="1.1474186"
     inkscape:cx="107.19715"
     inkscape:cy="173.86854"
     inkscape:window-width="1920"
     inkscape:window-height="1007"
     inkscape:window-x="0"
     inkscape:window-y="0"
     inkscape:window-maximized="1"
     inkscape:current-layer="layer1"
     inkscape:object-paths="true" />
  <defs
     id="defs2" />
  <g
     inkscape:label="Capa 1"
     inkscape:groupmode="layer"
     id="layer1">
    <path
       style="fill:#865e3c;fill-opacity:1;stroke:none;stroke-width:0.264583px;stroke-linecap:butt;stroke-linejoin:miter;stroke-opacity:1"
       d="m 15.681166,92.619895 c 0,0 0.149577,-1.087766 -1.069528,-1.006239 -1.219102,0.08153 -1.485149,1.909746 -0.0281,2.006814 1.457053,0.09707 3.023352,-1.517862 6.075587,-1.843963 3.052239,-0.326105 11.962318,-0.899158 16.930272,-0.895123 4.967955,0.004 17.5885,0.322331 17.5885,0.322331 0,0 -14.05101,-0.291716 -20.240836,0.02469 -6.189827,0.316405 -14.116365,0.741384 -15.435099,1.192422 -1.318731,0.451035 -1.889596,0.75689 -2.774997,1.138711 -0.885402,0.381822 -2.638153,0.862036 -3.212918,0.01111 -0.574762,-0.850918 -0.174103,-2.060273 0.720281,-2.281116 0.894384,-0.220845 1.718183,0.657286 1.446837,1.330357 z"
       id="path6210" />
    <path
       style="fill:#865e3c;fill-opacity:1;stroke:none;stroke-width:0.264583px;stroke-linecap:butt;stroke-linejoin:miter;stroke-opacity:1"
       d="m 9.2121324,109.44987 c 25.0701856,0.72099 36.0772626,-0.4246 43.6186816,-0.514 7.54142,-0.0894 9.507727,-0.0578 9.507727,-0.0578 0,0 -14.259694,0.55885 -18.00974,0.77005 -3.750045,0.21121 -13.640874,0.54823 -18.631497,0.50319 -4.990624,-0.045 -9.902598,-0.47173 -16.4851716,-0.70142 z"
       id="path7521" />
    <path
       style="fill:#c0bfbc;fill-opacity:1;stroke:none;stroke-width:0.264583px;stroke-linecap:butt;stroke-linejoin:miter;stroke-opacity:1"
       d="M 4.7625,135.46666 V 42.333341 h 58.208332 v 93.133319 z"
       id="path1222"
       sodipodi:nodetypes="ccccc" />
    <path
       style="fill:#9a9996;fill-opacity:1;stroke:none;stroke-width:0.264583px;stroke-linecap:butt;stroke-linejoin:miter;stroke-opacity:1"
       d="M 8.73125,135.46666 V 46.302091 h 50.270833 v 89.164569 z"
       id="path2073"
       sodipodi:nodetypes="ccccc" />
    <path
       style="fill:#865e3c;fill-opacity:1;stroke:none;stroke-width:0.264583px;stroke-linecap:butt;stroke-linejoin:miter;stroke-opacity:1"
       d="M 12.7,135.46666 V 50.270841 h 42.333333 v 85.195819 z"
       id="path2402"
       sodipodi:nodetypes="ccccc" />
    <path
       style="fill:#63452c;fill-opacity:1;stroke:none;stroke-width:0.264583px;stroke-linecap:butt;stroke-linejoin:miter;stroke-opacity:1"
       d="M 12.7,135.46666 V 50.270841 H 55.033332 L 53.975,51.329175 H 13.758333 v 83.079145 z"
       id="path2669"
       sodipodi:nodetypes="ccccccc" />
    <path
       style="fill:#63452c;fill-opacity:1;stroke:none;stroke-width:0.264583px;stroke-linecap:butt;stroke-linejoin:miter;stroke-opacity:1"
       d="m 53.974999,51.329174 1.058331,-1.058333 2e-6,85.195819 H 12.7 l 1.058333,-1.05834 H 53.975 Z"
       id="path3615"
       sodipodi:nodetypes="ccccccc" />
    <path
       style="fill:#63452c;fill-opacity:1;stroke:none;stroke-width:0.264583px;stroke-linecap:butt;stroke-linejoin:miter;stroke-opacity:1"
       d="m 17.991667,55.562508 h 31.75 v 30.427083 h -31.75 z"
       id="path3997"
       sodipodi:nodetypes="ccccc" />
    <path
       style="fill:#000000;fill-opacity:1;stroke:none;stroke-width:0.264583px;stroke-linecap:butt;stroke-linejoin:miter;stroke-opacity:1"
       d="M 20.6375,58.208341 H 47.095833 V 83.343758 H 20.6375 Z"
       id="path4854"
       sodipodi:nodetypes="ccccc" />
    <path
       style="fill:#63452c;fill-opacity:1;stroke:none;stroke-width:0.264583px;stroke-linecap:butt;stroke-linejoin:miter;stroke-opacity:1"
       d="m 33.072917,58.208341 h 1.5875 v 25.135416 h -1.5875 z"
       id="path5793"
       sodipodi:nodetypes="ccccc" />
    <path
       style="fill:#63452c;fill-opacity:1;stroke:none;stroke-width:0.264583px;stroke-linecap:butt;stroke-linejoin:miter;stroke-opacity:1"
       d="m 20.637499,69.850007 26.458333,10e-7 v 1.5875 l -26.458333,-10e-7 z"
       id="path5861"
       sodipodi:nodetypes="ccccc" />
    <circle
       style="opacity:1;fill:#77767b;fill-opacity:1;stroke:none;stroke-width:1.495;stroke-linecap:square;paint-order:fill markers stroke"
       id="path7187"
       cx="48.006393"
       cy="97.613022"
       r="1.9902546" />
    <ellipse
       style="opacity:1;fill:#9a9996;fill-opacity:1;stroke:none;stroke-width:1.495;stroke-linecap:square;paint-order:fill markers stroke"
       id="circle7583"
       cy="97.613022"
       cx="48.006393"
       rx="1.5207531"
       ry="1.4443256" />
    <path
       style="fill:#63452c;fill-opacity:1;stroke:none;stroke-width:0.264583px;stroke-linecap:butt;stroke-linejoin:miter;stroke-opacity:1"
       d="m 25.859676,105.15892 c 0.893818,0.0271 1.005596,0.93516 1.015455,1.22404 0.0099,0.28887 -0.161634,1.22354 -0.985457,1.29044 -0.823825,0.0669 -0.845052,-0.93879 -0.855673,-1.30451 -0.01061,-0.36571 0.113573,-1.22908 0.825675,-1.20997 z"
       id="path8096" />
    <path
       style="fill:#63452c;fill-opacity:1;stroke:none;stroke-width:0.264583px;stroke-linecap:butt;stroke-linejoin:miter;stroke-opacity:1"
       d="m 25.697499,118.76024 c -0.06122,-3.99776 -0.02886,-7.22192 -0.220659,-8.86461 -0.191794,-1.64269 -0.664393,-1.88899 -0.624475,-3.54723 0.03992,-1.65824 0.989928,-1.58881 0.98838,-2.83574 -0.0016,-1.24692 0.0049,-6.498917 0.0049,-6.498917 0,0 -0.05975,5.878497 -0.09802,6.496207 -0.03827,0.6177 -0.120999,0.69197 -0.371509,1.07269 -0.25051,0.38071 -0.650473,0.69664 -0.650963,1.78846 -5.29e-4,1.09182 0.220562,1.66596 0.42014,2.41875 0.199575,0.7528 0.264282,1.1538 0.325845,2.4573 0.06157,1.3035 0.216395,5.26962 0.226317,7.51309 z"
       id="path8233" />
    <path
       style="fill:#63452c;fill-opacity:1;stroke:none;stroke-width:0.264583px;stroke-linecap:butt;stroke-linejoin:miter;stroke-opacity:1"
       d="m 26.017923,120.28157 c -0.0048,-6.8309 -0.123997,-9.18272 0.140594,-10.67256 0.264594,-1.48984 0.900224,-1.79066 0.927889,-3.19905 0.02766,-1.4084 -0.78749,-1.52466 -0.881097,-3.0769 -0.09361,-1.55223 -0.0432,-7.585028 -0.0432,-7.585028 0,0 0.08932,6.898588 0.174265,7.499248 0.08494,0.60066 0.240835,0.97 0.721506,1.96167 0.480671,0.99167 0.137739,2.05685 -0.208399,2.98154 -0.346136,0.92468 -0.522902,1.27122 -0.644443,2.51781 -0.121542,1.24659 -0.179779,4.21976 -0.187119,9.57327 z"
       id="path8480" />
    <path
       style="fill:#63452c;fill-opacity:1;stroke:none;stroke-width:0.264583px;stroke-linecap:butt;stroke-linejoin:miter;stroke-opacity:1"
       d="m 26.354521,122.48963 c 0.04629,-7.70928 -5.29e-4,-10.64969 0.195929,-11.77217 0.196368,-1.12247 0.962163,-2.0348 0.959914,-4.12856 -0.0021,-2.09376 -0.668886,-2.53334 -0.799913,-3.17914 -0.131024,-0.6458 -0.180099,-3.15253 -0.202692,-5.137148 -0.02259,-1.98461 -0.02821,-4.518051 -0.02821,-4.518051 0,0 0.147391,8.854079 0.398589,9.482469 0.251198,0.6284 0.801156,1.58901 0.818883,3.0864 0.01773,1.49738 -0.195445,2.12756 -0.542055,3.06912 -0.346609,0.94155 -0.538525,1.26908 -0.600212,2.44434 -0.06169,1.17527 -0.194231,9.22028 -0.200233,10.65274 z"
       id="path8548" />
    <path
       style="fill:#63452c;fill-opacity:1;stroke:none;stroke-width:0.101073px;stroke-linecap:butt;stroke-linejoin:miter;stroke-opacity:1"
       d="m 39.858003,105.34286 c 0.0262,2.89015 -0.0756,4.77016 0.36548,7.03035 0.441078,2.26018 0.645757,2.03178 0.657708,4.55282 0.01195,2.52104 -0.81554,2.51438 -1.065101,5.87173 -0.249562,3.35736 -0.0724,9.34184 -0.0724,9.34184 0,0 -0.09175,-8.87093 0.419284,-10.77277 0.511032,-1.90185 0.937777,-2.79529 0.874729,-4.63025 -0.06305,-1.83496 -0.118923,-2.06233 -0.246178,-2.59573 -0.127257,-0.53341 -0.543801,-2.22239 -0.6451,-3.22595 -0.101299,-1.00356 -0.28929,-2.99663 -0.28842,-5.57204 z"
       id="path6595" />
    <path
       style="fill:#63452c;fill-opacity:1;stroke:none;stroke-width:0.101073px;stroke-linecap:butt;stroke-linejoin:miter;stroke-opacity:1"
       d="m 39.046345,106.84522 c 0.01222,4.81886 -1.084924,5.36829 -1.084924,8.33482 0,2.96654 0.693694,3.94357 0.83004,7.37743 0.136346,3.43386 0.113531,7.41352 0.113531,7.41352 0,0 -0.120042,-6.8491 -0.26702,-8.25353 -0.146977,-1.40443 -0.708912,-3.92113 -0.815835,-5.49762 -0.10692,-1.57649 0.05873,-2.81327 0.344923,-3.88272 0.286188,-1.06947 0.776684,-1.63013 0.879285,-5.4919 z"
       id="path6729" />
    <path
       style="fill:#63452c;fill-opacity:1;stroke:none;stroke-width:0.101073px;stroke-linecap:butt;stroke-linejoin:miter;stroke-opacity:1"
       d="m 38.452149,104.75868 c -0.0521,3.39913 0.06251,4.18525 -0.780021,7.71236 -0.842528,3.52711 -0.312101,5.09131 -0.09855,6.57873 0.213549,1.48743 0.21927,4.70979 0.21927,6.20295 0,1.49316 -0.09578,5.50001 -0.09578,5.50001 0,0 0.02899,-8.30713 -0.121245,-10.05949 -0.150228,-1.75236 -0.49547,-3.03368 -0.505042,-4.59838 -0.0096,-1.5647 0.16768,-2.5879 0.481109,-3.85673 0.313429,-1.26882 0.844816,-2.33385 0.900256,-7.47945 z"
       id="path6797" />
    <path
       style="fill:#63452c;fill-opacity:1;stroke:none;stroke-width:0.101073px;stroke-linecap:butt;stroke-linejoin:miter;stroke-opacity:1"
       d="m 38.824091,115.99762 c 0.0096,-1.35268 0.327275,-1.70983 0.686326,-1.68357 0.359055,0.0263 0.663545,0.8488 0.635604,2.14438 -0.02796,1.29558 -0.523803,1.71658 -0.766478,1.69429 -0.242671,-0.0223 -0.576205,-0.43209 -0.555452,-2.1551 z"
       id="path6865" />
  </g>
  <metadata
     id="metadata868">
    <rdf:RDF>
      <cc:Work
         rdf:about="">
        <dc:creator>
          <cc:Agent>
            <dc:title>IcterusGames</dc:title>
          </cc:Agent>
        </dc:creator>
        <cc:license
           rdf:resource="http://creativecommons.org/publicdomain/zero/1.0/" />
      </cc:Work>
      <cc:License
         rdf:about="http://creativecommons.org/publicdomain/zero/1.0/">
        <cc:permits
           rdf:resource="http://creativecommons.org/ns#Reproduction" />
        <cc:permits
           rdf:resource="http://creativecommons.org/ns#Distribution" />
        <cc:permits
           rdf:resource="http://creativecommons.org/ns#DerivativeWorks" />
      </cc:License>
    </rdf:RDF>
  </metadata>
</svg>
