<?xml version="1.0" encoding="UTF-8" standalone="no"?>
<!-- Created with Inkscape (http://www.inkscape.org/) -->

<svg
   width="512"
   height="512"
   viewBox="0 0 135.46666 135.46667"
   version="1.1"
   id="svg5"
   inkscape:version="1.1.2 (0a00cf5339, 2022-02-04)"
   sodipodi:docname="wood_wall.svg"
   xmlns:inkscape="http://www.inkscape.org/namespaces/inkscape"
   xmlns:sodipodi="http://sodipodi.sourceforge.net/DTD/sodipodi-0.dtd"
   xmlns="http://www.w3.org/2000/svg"
   xmlns:svg="http://www.w3.org/2000/svg"
   xmlns:rdf="http://www.w3.org/1999/02/22-rdf-syntax-ns#"
   xmlns:cc="http://creativecommons.org/ns#"
   xmlns:dc="http://purl.org/dc/elements/1.1/">
  <sodipodi:namedview
     id="namedview7"
     pagecolor="#505050"
     bordercolor="#ffffff"
     borderopacity="1"
     inkscape:pageshadow="0"
     inkscape:pageopacity="0"
     inkscape:pagecheckerboard="1"
     inkscape:document-units="mm"
     showgrid="true"
     units="px"
     width="512px"
     inkscape:snap-global="true"
     inkscape:zoom="1.1474186"
     inkscape:cx="219.62342"
     inkscape:cy="183.45528"
     inkscape:window-width="1920"
     inkscape:window-height="1007"
     inkscape:window-x="0"
     inkscape:window-y="0"
     inkscape:window-maximized="1"
     inkscape:current-layer="layer1" />
  <defs
     id="defs2" />
  <g
     inkscape:label="Capa 1"
     inkscape:groupmode="layer"
     id="layer1">
    <path
       style="fill:#986a44;fill-opacity:1;stroke:none;stroke-width:0.264583px;stroke-linecap:butt;stroke-linejoin:miter;stroke-opacity:1"
       d="M 0,0 V 135.46667 H 135.46667 V 0 Z"
       id="path857"
       sodipodi:nodetypes="ccccc" />
    <path
       style="fill:#865e3c;fill-opacity:1;stroke:none;stroke-width:0.264583px;stroke-linecap:butt;stroke-linejoin:miter;stroke-opacity:1"
       d="m 0,16.933333 h 135.46666 l 1e-5,-1.058333 H 0 Z"
       id="path2124"
       sodipodi:nodetypes="ccccc" />
    <path
       style="fill:#b5835a;fill-opacity:1;stroke:none;stroke-width:0.264583px;stroke-linecap:butt;stroke-linejoin:miter;stroke-opacity:1"
       d="m 0,17.991666 h 135.46666 l 1e-5,-1.058333 H 0 Z"
       id="path2126"
       sodipodi:nodetypes="ccccc" />
    <path
       style="fill:#865e3c;fill-opacity:1;stroke:none;stroke-width:0.264583px;stroke-linecap:butt;stroke-linejoin:miter;stroke-opacity:1"
       d="m 0,33.866666 h 135.46666 l 1e-5,-1.058333 H 0 Z"
       id="path2132"
       sodipodi:nodetypes="ccccc" />
    <path
       style="fill:#b5835a;fill-opacity:1;stroke:none;stroke-width:0.264583px;stroke-linecap:butt;stroke-linejoin:miter;stroke-opacity:1"
       d="m 0,34.924999 h 135.46666 l 1e-5,-1.058333 H 0 Z"
       id="path2134"
       sodipodi:nodetypes="ccccc" />
    <path
       style="fill:#865e3c;fill-opacity:1;stroke:none;stroke-width:0.264583px;stroke-linecap:butt;stroke-linejoin:miter;stroke-opacity:1"
       d="m 0,50.8 h 135.46666 l 1e-5,-1.058333 H 0 Z"
       id="path2140"
       sodipodi:nodetypes="ccccc" />
    <path
       style="fill:#b5835a;fill-opacity:1;stroke:none;stroke-width:0.264583px;stroke-linecap:butt;stroke-linejoin:miter;stroke-opacity:1"
       d="M 0,51.858333 H 135.46666 L 135.46667,50.8 H 0 Z"
       id="path2142"
       sodipodi:nodetypes="ccccc" />
    <path
       style="fill:#865e3c;fill-opacity:1;stroke:none;stroke-width:0.264583px;stroke-linecap:butt;stroke-linejoin:miter;stroke-opacity:1"
       d="m 0,67.733333 h 135.46666 l 1e-5,-1.058333 H 0 Z"
       id="path2148"
       sodipodi:nodetypes="ccccc" />
    <path
       style="fill:#b5835a;fill-opacity:1;stroke:none;stroke-width:0.264583px;stroke-linecap:butt;stroke-linejoin:miter;stroke-opacity:1"
       d="m 0,68.791666 h 135.46666 l 1e-5,-1.058333 H 0 Z"
       id="path2150"
       sodipodi:nodetypes="ccccc" />
    <path
       style="fill:#865e3c;fill-opacity:1;stroke:none;stroke-width:0.264583px;stroke-linecap:butt;stroke-linejoin:miter;stroke-opacity:1"
       d="m 0,84.666666 h 135.46666 l 1e-5,-1.058333 H 0 Z"
       id="path2156"
       sodipodi:nodetypes="ccccc" />
    <path
       style="fill:#b5835a;fill-opacity:1;stroke:none;stroke-width:0.264583px;stroke-linecap:butt;stroke-linejoin:miter;stroke-opacity:1"
       d="m 0,85.724999 h 135.46666 l 1e-5,-1.058333 H 0 Z"
       id="path2158"
       sodipodi:nodetypes="ccccc" />
    <path
       style="fill:#865e3c;fill-opacity:1;stroke:none;stroke-width:0.264583px;stroke-linecap:butt;stroke-linejoin:miter;stroke-opacity:1"
       d="m 0,101.6 h 135.46666 l 1e-5,-1.05833 H 0 Z"
       id="path2164"
       sodipodi:nodetypes="ccccc" />
    <path
       style="fill:#b5835a;fill-opacity:1;stroke:none;stroke-width:0.264583px;stroke-linecap:butt;stroke-linejoin:miter;stroke-opacity:1"
       d="m 0,102.65833 h 135.46666 l 1e-5,-1.05833 H 0 Z"
       id="path2166"
       sodipodi:nodetypes="ccccc" />
    <path
       style="fill:#865e3c;fill-opacity:1;stroke:none;stroke-width:0.264583px;stroke-linecap:butt;stroke-linejoin:miter;stroke-opacity:1"
       d="m 0,118.53333 h 135.46666 l 1e-5,-1.05833 H 0 Z"
       id="path2172"
       sodipodi:nodetypes="ccccc" />
    <path
       style="fill:#b5835a;fill-opacity:1;stroke:none;stroke-width:0.264583px;stroke-linecap:butt;stroke-linejoin:miter;stroke-opacity:1"
       d="m 0,119.59166 h 135.46666 l 1e-5,-1.05833 H 0 Z"
       id="path2174"
       sodipodi:nodetypes="ccccc" />
    <path
       style="fill:#865e3c;fill-opacity:1;stroke:none;stroke-width:0.264583px;stroke-linecap:butt;stroke-linejoin:miter;stroke-opacity:1"
       d="M 7.5817898,8.0530244 C 28.877447,7.2716971 47.109279,4.7091623 52.23339,4.7932411 c 5.124114,0.084078 8.346168,0.9879068 8.346168,3.6596777 0,2.6717712 -3.146883,4.6635652 -6.152161,4.3630622 -3.00528,-0.300503 -3.373773,-3.5755672 -2.497823,-4.1646244 0.875951,-0.5890575 1.761567,-0.1107276 1.761567,-0.1107276 0,0 -0.997595,-0.8446969 -2.097251,-0.3326471 -1.099659,0.5120497 -0.813618,2.3242761 -0.523116,2.9242471 0.290504,0.59997 1.023461,2.248587 3.627948,2.237468 2.604484,-0.01112 5.519973,-1.028148 6.366108,-4.1259688 C 61.910965,6.1459077 58.264041,4.8423038 56.092984,4.584614 53.921929,4.3269238 51.359897,4.1156813 41.176553,5.0749797 30.993207,6.0342785 7.5817898,8.0530244 7.5817898,8.0530244 Z"
       id="path3323" />
    <path
       style="fill:#865e3c;fill-opacity:1;stroke:none;stroke-width:0.264583px;stroke-linecap:butt;stroke-linejoin:miter;stroke-opacity:1"
       d="m 81.290799,5.9237318 c 27.209851,0.632704 50.799981,-2.9119485 50.799981,-2.9119485 0,0 -41.091958,3.1395008 -50.799981,2.9119485 z"
       id="path3504" />
    <path
       style="fill:#865e3c;fill-opacity:1;stroke:none;stroke-width:0.264583px;stroke-linecap:butt;stroke-linejoin:miter;stroke-opacity:1"
       d="m 69.137825,9.4565413 c 34.498745,2.0733527 63.419985,-1.2923427 63.419985,-1.2923427 0,0 -50.075499,2.3602604 -63.419985,1.2923427 z"
       id="path3685" />
    <path
       style="fill:#865e3c;fill-opacity:1;stroke:none;stroke-width:0.264583px;stroke-linecap:butt;stroke-linejoin:miter;stroke-opacity:1"
       d="m 129.47754,14.194861 c -14.3811,-2.400804 -20.33553,-0.01194 -20.33553,-0.01194 0,0 9.11927,-3.862264 20.33553,0.01194 z"
       id="path3866" />
    <path
       style="fill:#865e3c;fill-opacity:1;stroke:none;stroke-width:0.264583px;stroke-linecap:butt;stroke-linejoin:miter;stroke-opacity:1"
       d="m 74.711281,27.250914 c -2.789909,2.686235 -5.407429,0.989634 -5.394304,-0.176065 0.01312,-1.165697 -0.393557,-5.083568 8.957961,-4.764948 9.351518,0.318621 22.452352,5.303359 22.452352,5.303359 0,0 -14.41653,-4.002866 -22.624614,-4.29793 -8.208084,-0.295063 -7.788243,3.167929 -7.672948,3.634514 0.115297,0.466585 1.206484,1.855161 4.281553,0.30107 z"
       id="path4047" />
    <path
       style="fill:#865e3c;fill-opacity:1;stroke:none;stroke-width:0.264583px;stroke-linecap:butt;stroke-linejoin:miter;stroke-opacity:1"
       d="M 128.53853,25.868798 C 110.66609,25.267674 86.850177,20.76502 77.907985,21.13744 68.965793,21.50986 66.18651,24.88695 50.770729,25.662063 35.354947,26.437176 22.126724,24.674725 22.126724,24.674725 c 0,0 18.339319,0.740018 29.71575,-0.189434 16.34209,-1.335146 14.27903,-4.394905 26.799923,-4.784929 12.520893,-0.390025 32.202893,6.033155 49.896133,6.168436 z"
       id="path4228"
       sodipodi:nodetypes="csscssc" />
    <path
       style="fill:#865e3c;fill-opacity:1;stroke:none;stroke-width:0.264583px;stroke-linecap:butt;stroke-linejoin:miter;stroke-opacity:1"
       d="m 40.211573,27.550501 c 17.811848,0.635447 19.886829,0.190966 22.976842,0.694799 3.090011,0.503835 7.029823,2.950085 14.545686,2.686812 7.51586,-0.263271 21.452683,-2.789957 34.314259,-3.033811 12.86158,-0.24385 20.9678,-0.08643 20.9678,-0.08643 0,0 -18.5658,0.182951 -28.51976,1.140484 -9.953958,0.957529 -22.234871,3.038199 -27.066086,2.929863 -4.831217,-0.108333 -6.945783,-0.601903 -9.60188,-1.269399 -2.656094,-0.667496 -2.65435,-1.690206 -9.411866,-2.03934 -6.757517,-0.349131 -18.204995,-1.022977 -18.204995,-1.022977 z"
       id="path4546" />
    <path
       style="fill:#865e3c;fill-opacity:1;stroke:none;stroke-width:0.264583px;stroke-linecap:butt;stroke-linejoin:miter;stroke-opacity:1"
       d="m 11.937583,44.227038 c 0,0 -3.3439355,1.330833 -4.2297981,-0.794041 -0.8858625,-2.124874 1.8879759,-4.601779 4.9369001,-3.873929 3.048923,0.727853 5.252842,3.514074 18.437109,3.903012 13.184264,0.38894 34.977356,0.316097 34.977356,0.316097 0,0 -33.673759,-0.638688 -39.497508,-1.560248 -5.823751,-0.921559 -5.917526,-0.945091 -11.901454,-2.948431 -5.9839283,-2.003343 -7.4268375,0.909341 -7.7532862,1.735677 -0.326449,0.826336 -1.0374135,3.937635 1.0570342,4.305805 2.094448,0.36817 3.973647,-1.083942 3.973647,-1.083942 z"
       id="path4753" />
    <path
       style="fill:#865e3c;fill-opacity:1;stroke:none;stroke-width:0.264583px;stroke-linecap:butt;stroke-linejoin:miter;stroke-opacity:1"
       d="m 70.02455,45.598283 c 14.868496,-0.591055 19.950131,-3.068394 27.575444,-5.444355 7.625316,-2.375961 25.745196,-4.516236 29.886926,-0.682678 4.14172,3.833561 0.66891,10.30663 0.66891,10.30663 l -1.35441,-1.67e-4 c 0,0 2.30257,-3.584697 1.21983,-6.950427 -1.08274,-3.365733 -5.06165,-4.278016 -8.00102,-4.300762 -2.93937,-0.02275 -13.76103,0.355004 -18.90301,1.674812 -5.141985,1.319808 -12.277639,3.841671 -15.270457,4.198398 -2.992816,0.356724 -15.822213,1.198549 -15.822213,1.198549 z"
       id="path4821" />
    <path
       style="fill:#865e3c;fill-opacity:1;stroke:none;stroke-width:0.264583px;stroke-linecap:butt;stroke-linejoin:miter;stroke-opacity:1"
       d="m 79.671232,46.499936 c 0,0 10.843913,0.199225 17.084489,-2.107288 6.240569,-2.306515 16.574329,-5.145704 23.321449,-3.973517 6.74713,1.172186 5.14471,9.393525 5.14471,9.393525 l -1.27331,-0.0093 c 0,0 0.95901,-3.787108 -0.71161,-6.345687 -1.67062,-2.558579 -4.8221,-2.773685 -8.59902,-2.466552 -3.77691,0.307136 -9.63014,1.453277 -14.07641,3.172839 -4.446275,1.719561 -12.561839,2.544897 -20.890298,2.336 z"
       id="path4889" />
    <path
       style="fill:#865e3c;fill-opacity:1;stroke:none;stroke-width:0.264583px;stroke-linecap:butt;stroke-linejoin:miter;stroke-opacity:1"
       d="m 117.06801,46.35782 c 0,0 -1.12919,0.899708 -0.18675,1.256329 0.94244,0.356621 3.10922,-0.915189 2.19041,-2.029489 -0.91881,-1.114301 -2.6858,-0.996405 -4.55852,-0.256614 -1.87273,0.739791 -7.42464,2.215962 -17.55739,2.379898 -10.132751,0.163935 -10.877024,0.09792 -10.877024,0.09792 0,0 11.923313,-0.111937 18.119784,-0.8314 6.19646,-0.719465 8.1496,-1.331698 10.15842,-1.979835 2.00882,-0.648136 3.68451,-1.063077 4.71829,0.03103 1.03378,1.094102 0.52776,1.758101 0.20424,2.159119 -0.32351,0.401021 -1.91188,1.293048 -2.80921,0.60901 -0.89732,-0.684035 0.59775,-1.435965 0.59775,-1.435965 z"
       id="path5070" />
    <path
       style="fill:#865e3c;fill-opacity:1;stroke:none;stroke-width:0.264583px;stroke-linecap:butt;stroke-linejoin:miter;stroke-opacity:1"
       d="m 2.3251188,56.893682 c 7.5210268,0.05702 13.0121782,-2.540966 18.0860912,-2.739785 5.073914,-0.198818 5.792351,2.159611 12.358613,2.700703 6.56626,0.541094 31.045758,0.246843 31.045758,0.246843 0,0 -26.372735,0.162777 -33.245589,-1.40825 -6.872851,-1.57103 -6.615616,-3.170417 -12.673148,-2.21116 -6.057531,0.959257 -5.810482,2.964032 -15.5717252,3.411649 z"
       id="path5281" />
    <path
       style="fill:#865e3c;fill-opacity:1;stroke:none;stroke-width:0.264583px;stroke-linecap:butt;stroke-linejoin:miter;stroke-opacity:1"
       d="M 0.95456183,59.208233 C 4.1196429,59.085945 16.224756,56.142109 20.154613,56.179981 c 3.929858,0.03787 6.581448,2.626135 10.730183,2.950313 4.148733,0.324178 23.165538,-0.144142 23.165538,-0.144142 0,0 -20.791281,0.26057 -24.282016,-0.694158 -3.490736,-0.954728 -6.079,-2.965977 -9.00854,-2.850682 -2.92954,0.115295 -7.091596,1.14699 -9.799822,1.725885 -2.7082266,0.578895 -7.8868085,1.98229 -10.00539417,2.041036 z"
       id="path5462" />
    <path
       style="fill:#865e3c;fill-opacity:1;stroke:none;stroke-width:0.264583px;stroke-linecap:butt;stroke-linejoin:miter;stroke-opacity:1"
       d="m 6.1256415,60.281068 c 7.5398595,0.431445 9.4677505,3.172685 13.1819095,3.229612 3.714159,0.05693 5.820305,-2.19538 8.196331,-2.526781 2.376024,-0.331399 32.6332,-1.484879 37.06446,-1.429951 4.431257,0.05493 6.422588,-0.06264 6.422588,-0.06264 0,0 -22.056947,0.888227 -29.280924,1.348682 -7.223974,0.460457 -12.946197,0.259395 -15.964464,1.520309 -3.018266,1.260911 -5.059413,2.237875 -7.575981,1.772798 -2.516566,-0.465079 -3.726579,-1.697101 -5.889483,-2.401091 -2.162905,-0.703987 -6.1544365,-1.450943 -6.1544365,-1.450943 z"
       id="path5530" />
    <path
       style="fill:#865e3c;fill-opacity:1;stroke:none;stroke-width:0.264583px;stroke-linecap:butt;stroke-linejoin:miter;stroke-opacity:1"
       d="m 20.182203,57.76786 c -1.94144,0.0032 -2.856168,0.779851 -3.19091,1.443431 -0.334742,0.663578 0.904232,2.540127 3.052483,1.836219 2.14825,-0.703908 2.165004,-1.229818 2.196677,-1.545354 0.03167,-0.315537 -0.427015,-1.477637 -2.05825,-1.734296 z"
       id="path5598" />
    <path
       style="fill:#865e3c;fill-opacity:1;stroke:none;stroke-width:0.264583px;stroke-linecap:butt;stroke-linejoin:miter;stroke-opacity:1"
       d="m 116.08432,74.036398 c 0,0 2.00057,-0.168669 2.15172,1.941483 0.15114,2.110156 -2.06172,3.083743 -3.78358,2.560463 -1.72186,-0.52328 -3.83668,-1.513895 -11.93228,-2.388579 -8.095607,-0.87468 -25.205057,-1.639543 -33.258974,-1.959895 -8.053919,-0.32035 -11.271903,-0.32035 -11.271903,-0.32035 0,0 37.850346,2.347092 43.606197,2.997359 5.75585,0.650266 7.46954,0.833382 9.50034,1.465609 2.0308,0.632227 4.16405,1.201645 5.31369,0.890188 1.14964,-0.311457 2.30351,-1.291492 2.38998,-2.558193 0.0865,-1.266701 -0.2211,-1.606598 -0.69177,-2.044607 -0.47066,-0.43801 -1.07765,-0.709914 -2.02342,-0.583478 z"
       id="path5813" />
    <path
       style="fill:#865e3c;fill-opacity:1;stroke:none;stroke-width:0.264583px;stroke-linecap:butt;stroke-linejoin:miter;stroke-opacity:1"
       d="m 132.73797,77.107819 c -7.35433,0.232587 -10.1276,3.451471 -17.29338,3.166131 -7.16578,-0.28534 -9.66161,-1.961941 -22.097652,-2.325206 -12.436041,-0.363262 -35.603923,-1.1278 -35.603923,-1.1278 0,0 31.18989,1.292715 36.321439,1.579378 5.131551,0.286662 9.713226,0.919736 13.969566,1.566804 4.25635,0.647065 9.45412,1.451501 13.75768,0.172043 4.30357,-1.279459 4.40114,-2.217455 10.94627,-3.03135 z"
       id="path6029" />
    <path
       style="fill:#865e3c;fill-opacity:1;stroke:none;stroke-width:0.264583px;stroke-linecap:butt;stroke-linejoin:miter;stroke-opacity:1"
       d="m 42.668666,92.619887 c 0,0 0.149577,-1.087766 -1.069528,-1.006239 -1.219102,0.08153 -1.485149,1.909746 -0.0281,2.006814 1.457053,0.09707 3.023352,-1.517862 6.075587,-1.843963 3.052239,-0.326105 11.962318,-0.899158 16.930272,-0.895123 4.967955,0.004 17.5885,0.322331 17.5885,0.322331 0,0 -14.05101,-0.291716 -20.240836,0.02469 -6.189827,0.316405 -14.116365,0.741384 -15.435099,1.192422 -1.318731,0.451035 -1.889596,0.75689 -2.774997,1.138711 -0.885402,0.381822 -2.638153,0.862036 -3.212918,0.01111 -0.574762,-0.850918 -0.174103,-2.060273 0.720281,-2.281116 0.894384,-0.220845 1.718183,0.657286 1.446837,1.330357 z"
       id="path6210" />
    <path
       style="fill:#865e3c;fill-opacity:1;stroke:none;stroke-width:0.264583px;stroke-linecap:butt;stroke-linejoin:miter;stroke-opacity:1"
       d="m 16.116509,91.329279 c 10.368444,-0.09114 14.58627,-0.215244 17.820775,-0.523923 3.234502,-0.308679 5.443122,-1.20564 7.555814,-1.261068 2.112693,-0.05543 6.697366,0.695521 8.386392,0.695521 1.689023,0 13.442728,-0.150405 13.442728,-0.150405 0,0 -12.298183,0.03215 -14.57148,-0.166883 -2.273297,-0.199036 -5.761437,-0.891437 -7.371699,-0.740863 -1.610262,0.150575 -4.618501,0.944015 -6.110862,1.187464 -1.492361,0.243445 -3.482297,0.577701 -9.244424,0.721971 -5.762127,0.144269 -9.907244,0.238186 -9.907244,0.238186 z"
       id="path6278" />
    <path
       style="fill:#865e3c;fill-opacity:1;stroke:none;stroke-width:0.264583px;stroke-linecap:butt;stroke-linejoin:miter;stroke-opacity:1"
       d="m 24.377834,93.897205 c 2.555585,-0.02882 4.932474,-0.155844 10.102258,0.23372 5.169781,0.389562 5.028621,1.049428 7.211706,0.957826 2.183087,-0.0916 3.986318,-0.871881 7.536574,-1.145598 3.550256,-0.273717 20.313012,-0.726281 20.313012,-0.726281 0,0 -17.306581,0.624295 -19.954745,0.88986 -2.648167,0.265565 -4.75392,0.728853 -5.989019,0.959582 -1.235101,0.230728 -2.164564,0.388173 -4.130346,-0.0364 -1.965786,-0.424566 -3.216119,-0.611595 -5.894465,-0.841462 -2.678342,-0.229867 -9.194975,-0.291251 -9.194975,-0.291251 z"
       id="path6346" />
    <path
       style="fill:#865e3c;fill-opacity:1;stroke:none;stroke-width:0.264583px;stroke-linecap:butt;stroke-linejoin:miter;stroke-opacity:1"
       d="m 18.926324,95.073413 c 5.83383,-0.05292 12.527438,0.07416 15.158343,0.353534 2.630903,0.279379 4.159287,0.818353 7.345249,0.879499 3.185961,0.06115 5.397629,-1.088041 10.261271,-1.357046 4.863645,-0.269001 19.08402,-0.388485 19.08402,-0.388485 0,0 -17.382818,0.233789 -20.358504,0.653839 -2.975684,0.420047 -6.252528,1.309049 -8.165788,1.310034 -1.913258,0.0011 -4.327641,-0.290968 -6.685388,-0.677188 -2.35775,-0.386218 -13.805463,-0.828974 -16.639203,-0.774187 z"
       id="path6414" />
    <path
       style="fill:#865e3c;fill-opacity:1;stroke:none;stroke-width:0.264583px;stroke-linecap:butt;stroke-linejoin:miter;stroke-opacity:1"
       d="m 132.02863,96.117361 c -6.57602,0.07893 -10.85365,-0.227679 -15.9963,1.100712 -5.14264,1.328391 -4.62297,1.944812 -10.35915,1.980806 -5.736185,0.03599 -5.72103,-2.456151 -13.360091,-3.207751 -7.63906,-0.751599 -21.255717,-0.218051 -21.255717,-0.218051 0,0 20.184242,-0.27632 24.511561,1.262753 4.327318,1.539074 6.360177,2.82429 10.535307,2.634409 4.17513,-0.189878 4.69247,-0.358156 5.90614,-0.741413 1.21368,-0.383259 5.05665,-1.637755 7.34007,-1.942835 2.28341,-0.305081 6.8183,-0.871247 12.67818,-0.86863 z"
       id="path6595" />
    <path
       style="fill:#865e3c;fill-opacity:1;stroke:none;stroke-width:0.264583px;stroke-linecap:butt;stroke-linejoin:miter;stroke-opacity:1"
       d="m 128.61028,93.672902 c -10.96445,0.03678 -12.21458,-3.267448 -18.96441,-3.267448 -6.74984,0 -8.97289,2.089187 -16.786035,2.499818 -7.813146,0.410631 -16.868164,0.341913 -16.868164,0.341913 0,0 15.583919,-0.361524 18.779456,-0.804177 3.195537,-0.442651 8.921843,-2.135018 12.508863,-2.457035 3.58703,-0.322016 6.4011,0.176877 8.83446,1.038794 2.43337,0.861917 3.70906,2.339134 12.49583,2.648135 z"
       id="path6729" />
    <path
       style="fill:#865e3c;fill-opacity:1;stroke:none;stroke-width:0.264583px;stroke-linecap:butt;stroke-linejoin:miter;stroke-opacity:1"
       d="m 133.35783,91.883366 c -7.7341,-0.1569 -9.52279,0.188249 -17.5481,-2.349179 -8.02531,-2.537429 -11.58437,-0.939949 -14.96875,-0.296802 -3.384375,0.643146 -10.71628,0.660373 -14.113716,0.660373 -3.397435,0 -12.514315,-0.288446 -12.514315,-0.288446 0,0 18.901415,0.08728 22.888607,-0.365156 3.987194,-0.452438 6.902604,-1.4922 10.462804,-1.521024 3.5602,-0.02882 5.88832,0.504997 8.77531,1.448949 2.88698,0.943953 5.31027,2.544315 17.01816,2.711285 z"
       id="path6797" />
    <path
       style="fill:#865e3c;fill-opacity:1;stroke:none;stroke-width:0.264583px;stroke-linecap:butt;stroke-linejoin:miter;stroke-opacity:1"
       d="m 107.78562,93.003536 c 3.07778,0.02882 3.89042,0.985652 3.83066,2.067007 -0.0598,1.081354 -1.93129,1.998387 -4.87916,1.914233 -2.94786,-0.08415 -3.90577,-1.577527 -3.85506,-2.308383 0.0507,-0.730856 0.98316,-1.735357 4.90356,-1.672857 z"
       id="path6865" />
    <path
       style="fill:#865e3c;fill-opacity:1;stroke:none;stroke-width:0.264583px;stroke-linecap:butt;stroke-linejoin:miter;stroke-opacity:1"
       d="m 3.3181522,108.09001 c 17.4256398,-0.17026 24.4085508,-1.85329 37.8212938,-2.1543 13.412745,-0.30101 35.600732,-0.27715 35.600732,-0.27715 0,0 -31.820144,-0.31784 -37.526383,-0.0893 -5.70624,0.22857 -16.214632,1.22227 -20.835068,1.54112 -4.620435,0.31886 -7.63776,0.62318 -15.0605748,0.97959 z"
       id="path7090" />
    <path
       style="fill:#865e3c;fill-opacity:1;stroke:none;stroke-width:0.264583px;stroke-linecap:butt;stroke-linejoin:miter;stroke-opacity:1"
       d="m 30.867082,108.03064 c 19.502329,-0.7053 33.798047,-0.88986 46.928439,-0.84578 13.13039,0.0441 26.268059,-0.44062 26.268059,-0.44062 0,0 -7.786082,0.50937 -16.141497,0.65001 -8.355415,0.14065 -23.674263,0.10566 -25.937569,0.18415 -2.26331,0.0785 -13.183841,0.20259 -18.209149,0.3198 -5.025311,0.11722 -9.010751,0.0994 -12.908283,0.13244 z"
       id="path7271" />
    <path
       style="fill:#865e3c;fill-opacity:1;stroke:none;stroke-width:0.264583px;stroke-linecap:butt;stroke-linejoin:miter;stroke-opacity:1"
       d="m 36.199632,109.44987 c 25.070186,0.72099 36.077263,-0.4246 43.618682,-0.514 7.541421,-0.0894 9.507728,-0.0578 9.507728,-0.0578 0,0 -14.259695,0.55885 -18.009741,0.77005 -3.750045,0.21121 -13.640874,0.54823 -18.631497,0.50319 -4.990624,-0.045 -9.902598,-0.47173 -16.485172,-0.70142 z"
       id="path7521" />
    <path
       style="fill:#865e3c;fill-opacity:1;stroke:none;stroke-width:0.264583px;stroke-linecap:butt;stroke-linejoin:miter;stroke-opacity:1"
       d="m 16.358059,109.15567 c 13.337403,-0.1123 15.730507,1.54432 24.831948,2.4717 9.101445,0.92739 27.302809,1.01029 33.838256,0.37599 6.535443,-0.63431 16.217397,-2.19245 27.199327,-2.76062 10.98193,-0.56817 15.1931,-0.45536 15.1931,-0.45536 0,0 -10.23605,0.2347 -20.352266,1.16804 -10.116219,0.93335 -18.58706,2.1981 -22.781492,2.49829 -4.194429,0.30019 -15.030532,0.5473 -19.563649,0.37872 -4.533116,-0.16857 -12.940741,-0.23944 -17.748199,-1.17422 -4.807458,-0.93479 -9.284997,-2.24952 -20.617025,-2.50254 z"
       id="path7702" />
    <path
       style="fill:#865e3c;fill-opacity:1;stroke:none;stroke-width:0.264583px;stroke-linecap:butt;stroke-linejoin:miter;stroke-opacity:1"
       d="m 41.573746,126.07005 c 4.262784,0.14964 3.10402,2.50276 2.424411,3.16836 -0.679611,0.6656 -3.530277,1.91885 -6.148826,0.21939 -2.61855,-1.69945 -1.676776,-5.37991 -1.115971,-6.71877 0.560803,-1.33885 3.456951,-2.72867 7.280201,-1.79272 3.823251,0.93595 7.000576,3.34099 10.589781,4.20388 3.589206,0.86289 16.691827,2.01639 25.700434,2.20186 9.008608,0.18547 23.945714,0.31903 23.945714,0.31903 0,0 -30.093082,0.34695 -36.954289,-0.29707 -6.861209,-0.64402 -12.082748,-0.79267 -16.425164,-2.88926 -4.342415,-2.09659 -7.222429,-3.65069 -10.589215,-3.15069 -3.366788,0.5 -3.370363,2.70787 -3.535039,3.94141 -0.164677,1.23353 -0.07463,3.40334 2.793148,4.30825 2.867779,0.9049 3.855638,-0.24629 4.287996,-0.6706 0.432358,-0.42431 1.894676,-2.26691 -2.253181,-2.84307 z"
       id="path7933" />
    <path
       style="fill:#865e3c;fill-opacity:1;stroke:none;stroke-width:0.264583px;stroke-linecap:butt;stroke-linejoin:miter;stroke-opacity:1"
       d="m 7.1683051,127.10164 c 14.7303039,-0.39529 24.1260369,2.06239 27.0724819,3.02783 2.946445,0.96544 4.322445,2.57154 8.888698,2.62247 4.566253,0.0509 8.99868,-2.32513 13.0698,-2.42004 4.071123,-0.0949 29.625663,-0.69534 37.855535,-0.66016 8.22987,0.0352 13.43331,0.0535 13.43331,0.0535 0,0 -20.083419,0.10451 -28.307266,0.33125 -8.223848,0.22675 -21.586516,0.36355 -23.854749,0.78584 -2.268231,0.4223 -7.357465,2.18625 -10.296157,2.36034 -2.938696,0.17409 -5.357464,-0.21571 -7.07102,-0.93558 -1.713558,-0.71991 -3.613765,-1.80967 -8.455007,-2.8384 -4.841241,-1.02873 -9.420908,-2.20106 -22.3356259,-2.32709 z"
       id="path8114"
       sodipodi:nodetypes="cscsscssscscc" />
    <path
       style="fill:#865e3c;fill-opacity:1;stroke:none;stroke-width:0.264583px;stroke-linecap:butt;stroke-linejoin:miter;stroke-opacity:1"
       d="m 76.059188,124.50444 c 16.802391,1.27988 23.725624,1.16984 28.580762,1.2106 4.85514,0.0408 17.19717,-0.17281 20.33965,-0.0981 3.14248,0.0747 4.56354,0.6972 5.12943,1.85558 0.56589,1.15839 0.0786,3.06862 -1.73367,3.4303 -1.8123,0.36168 -3.27805,-0.87612 -3.03,-1.80575 0.24806,-0.92964 1.13486,-1.00216 1.13486,-1.00216 0,0 -1.16307,0.13389 -1.5039,0.95877 -0.34083,0.82487 0.71114,2.11088 1.80775,2.19216 1.09661,0.0813 4.14638,0.26607 4.1614,-2.77049 0.015,-3.03656 -3.94642,-3.29969 -5.01115,-3.33006 -1.06473,-0.0304 -18.58047,0.22147 -23.89698,0.12752 -5.316509,-0.0939 -14.719795,-0.007 -25.978152,-0.76839 z"
       id="path8976" />
    <path
       style="fill:#000000;stroke:none;stroke-width:0.264583px;stroke-linecap:butt;stroke-linejoin:miter;stroke-opacity:1;fill-opacity:1;opacity:0.3"
       d="m 0,0 h 135.46667 l -1e-5,18.520833 H 0 Z"
       id="path921"
       sodipodi:nodetypes="ccccc" />
  </g>
  <metadata
     id="metadata868">
    <rdf:RDF>
      <cc:Work
         rdf:about="">
        <dc:creator>
          <cc:Agent>
            <dc:title>IcterusGames</dc:title>
          </cc:Agent>
        </dc:creator>
        <cc:license
           rdf:resource="http://creativecommons.org/publicdomain/zero/1.0/" />
      </cc:Work>
      <cc:License
         rdf:about="http://creativecommons.org/publicdomain/zero/1.0/">
        <cc:permits
           rdf:resource="http://creativecommons.org/ns#Reproduction" />
        <cc:permits
           rdf:resource="http://creativecommons.org/ns#Distribution" />
        <cc:permits
           rdf:resource="http://creativecommons.org/ns#DerivativeWorks" />
      </cc:License>
    </rdf:RDF>
  </metadata>
</svg>
